<?xml version="1.0" encoding="UTF-8" standalone="no"?>
<!DOCTYPE svg PUBLIC "-//W3C//DTD SVG 1.1//EN"
 "http://www.w3.org/Graphics/SVG/1.1/DTD/svg11.dtd">
<!-- Generated by graphviz version 11.0.0 (20240428.1522)
 -->
<!-- Title: SerialIO Pages: 1 -->
<svg width="202pt" height="83pt"
 viewBox="0.00 0.00 201.75 82.50" xmlns="http://www.w3.org/2000/svg" xmlns:xlink="http://www.w3.org/1999/xlink">
<g id="graph0" class="graph" transform="scale(1 1) rotate(0) translate(4 78.5)">
<title>SerialIO</title>
<!-- Node1 -->
<g id="Node000001" class="node">
<title>Node1</title>
<g id="a_Node000001"><a xlink:title="Class that stores state and functions for initialising and decoding rc protocol.">
<polygon fill="#999999" stroke="#666666" points="119.88,-74.5 68.62,-74.5 68.62,-55.25 119.88,-55.25 119.88,-74.5"/>
<text text-anchor="middle" x="94.25" y="-61" font-family="Helvetica,sans-Serif" font-size="10.00">SerialIO</text>
</a>
</g>
</g>
<!-- Node2 -->
<g id="Node000002" class="node">
<title>Node2</title>
<g id="a_Node000002"><a xlink:href="classcrsf.html" target="_top" xlink:title="A class for handling CRSF protocol communication.">
<polygon fill="white" stroke="#666666" points="32.5,-19.25 0,-19.25 0,0 32.5,0 32.5,-19.25"/>
<text text-anchor="middle" x="16.25" y="-5.75" font-family="Helvetica,sans-Serif" font-size="10.00">crsf</text>
</a>
</g>
</g>
<!-- Node1&#45;&gt;Node2 -->
<g id="edge1_Node000001_Node000002" class="edge">
<title>Node1&#45;&gt;Node2</title>
<g id="a_edge1_Node000001_Node000002"><a xlink:title=" ">
<path fill="none" stroke="#63b8ff" d="M71.78,-48.53C58.1,-39.2 41.11,-27.6 29.55,-19.7"/>
<polygon fill="#63b8ff" stroke="#63b8ff" points="69.54,-51.24 79.77,-53.99 73.48,-45.46 69.54,-51.24"/>
</a>
</g>
</g>
<!-- Node3 -->
<g id="Node000003" class="node">
<title>Node3</title>
<g id="a_Node000003"><a xlink:href="classfport.html" target="_top" xlink:title=" ">
<polygon fill="white" stroke="#bfbfbf" points="86,-19.25 50.5,-19.25 50.5,0 86,0 86,-19.25"/>
<text text-anchor="middle" x="68.25" y="-5.75" font-family="Helvetica,sans-Serif" font-size="10.00">fport</text>
</a>
</g>
</g>
<!-- Node1&#45;&gt;Node3 -->
<g id="edge2_Node000001_Node000003" class="edge">
<title>Node1&#45;&gt;Node3</title>
<g id="a_edge2_Node000001_Node000003"><a xlink:title=" ">
<path fill="none" stroke="#63b8ff" d="M84.93,-44.79C80.74,-36.21 75.99,-26.48 72.64,-19.61"/>
<polygon fill="#63b8ff" stroke="#63b8ff" points="81.76,-46.27 89.29,-53.72 88.05,-43.2 81.76,-46.27"/>
</a>
</g>
</g>
<!-- Node4 -->
<g id="Node000004" class="node">
<title>Node4</title>
<g id="a_Node000004"><a xlink:href="classibus.html" target="_top" xlink:title="A class for handling IBUS protocol communication.">
<polygon fill="white" stroke="#666666" points="138.25,-19.25 104.25,-19.25 104.25,0 138.25,0 138.25,-19.25"/>
<text text-anchor="middle" x="121.25" y="-5.75" font-family="Helvetica,sans-Serif" font-size="10.00">ibus</text>
</a>
</g>
</g>
<!-- Node1&#45;&gt;Node4 -->
<g id="edge3_Node000001_Node000004" class="edge">
<title>Node1&#45;&gt;Node4</title>
<g id="a_edge3_Node000001_Node000004"><a xlink:title=" ">
<path fill="none" stroke="#63b8ff" d="M103.78,-45.08C108.17,-36.42 113.17,-26.56 116.69,-19.61"/>
<polygon fill="#63b8ff" stroke="#63b8ff" points="100.79,-43.23 99.39,-53.73 107.04,-46.4 100.79,-43.23"/>
</a>
</g>
</g>
<!-- Node5 -->
<g id="Node000005" class="node">
<title>Node5</title>
<g id="a_Node000005"><a xlink:href="classsbus.html" target="_top" xlink:title="A class for handling SBUS protocol communication.">
<polygon fill="white" stroke="#666666" points="193.75,-19.25 156.75,-19.25 156.75,0 193.75,0 193.75,-19.25"/>
<text text-anchor="middle" x="175.25" y="-5.75" font-family="Helvetica,sans-Serif" font-size="10.00">sbus</text>
</a>
</g>
</g>
<!-- Node1&#45;&gt;Node5 -->
<g id="edge4_Node000001_Node000005" class="edge">
<title>Node1&#45;&gt;Node5</title>
<g id="a_edge4_Node000001_Node000005"><a xlink:title=" ">
<path fill="none" stroke="#63b8ff" d="M117.59,-48.53C131.79,-39.2 149.44,-27.6 161.44,-19.7"/>
<polygon fill="#63b8ff" stroke="#63b8ff" points="115.69,-45.59 109.26,-54.01 119.53,-51.44 115.69,-45.59"/>
</a>
</g>
</g>
</g>
</svg>
