<?xml version="1.0" encoding="UTF-8" standalone="no"?>
<!DOCTYPE svg PUBLIC "-//W3C//DTD SVG 1.1//EN"
 "http://www.w3.org/Graphics/SVG/1.1/DTD/svg11.dtd">
<!-- Generated by graphviz version 11.0.0 (20240428.1522)
 -->
<!-- Title: SerialIO Pages: 1 -->
<svg width="148pt" height="83pt"
 viewBox="0.00 0.00 147.75 82.50" xmlns="http://www.w3.org/2000/svg" xmlns:xlink="http://www.w3.org/1999/xlink">
<g id="graph0" class="graph" transform="scale(1 1) rotate(0) translate(4 78.5)">
<title>SerialIO</title>
<!-- Node1 -->
<g id="Node000001" class="node">
<title>Node1</title>
<g id="a_Node000001"><a xlink:title="Class that stores state and functions for initialising and decoding rc protocol.">
<polygon fill="#999999" stroke="#666666" points="92.88,-74.5 41.62,-74.5 41.62,-55.25 92.88,-55.25 92.88,-74.5"/>
<text text-anchor="middle" x="67.25" y="-61" font-family="Helvetica,sans-Serif" font-size="10.00">SerialIO</text>
</a>
</g>
</g>
<!-- Node2 -->
<g id="Node000002" class="node">
<title>Node2</title>
<g id="a_Node000002"><a xlink:href="classcrsf.html" target="_top" xlink:title="A class for handling CRSF protocol communication.">
<polygon fill="white" stroke="#666666" points="32.5,-19.25 0,-19.25 0,0 32.5,0 32.5,-19.25"/>
<text text-anchor="middle" x="16.25" y="-5.75" font-family="Helvetica,sans-Serif" font-size="10.00">crsf</text>
</a>
</g>
</g>
<!-- Node1&#45;&gt;Node2 -->
<g id="edge1_Node000001_Node000002" class="edge">
<title>Node1&#45;&gt;Node2</title>
<g id="a_edge1_Node000001_Node000002"><a xlink:title=" ">
<path fill="none" stroke="#63b8ff" d="M50.89,-46.79C42.23,-37.75 31.95,-27.02 24.85,-19.61"/>
<polygon fill="#63b8ff" stroke="#63b8ff" points="48.34,-49.19 57.78,-53.99 53.39,-44.35 48.34,-49.19"/>
</a>
</g>
</g>
<!-- Node3 -->
<g id="Node000003" class="node">
<title>Node3</title>
<g id="a_Node000003"><a xlink:href="classibus.html" target="_top" xlink:title="A class for handling IBUS protocol communication.">
<polygon fill="white" stroke="#666666" points="84.25,-19.25 50.25,-19.25 50.25,0 84.25,0 84.25,-19.25"/>
<text text-anchor="middle" x="67.25" y="-5.75" font-family="Helvetica,sans-Serif" font-size="10.00">ibus</text>
</a>
</g>
</g>
<!-- Node1&#45;&gt;Node3 -->
<g id="edge2_Node000001_Node000003" class="edge">
<title>Node1&#45;&gt;Node3</title>
<g id="a_edge2_Node000001_Node000003"><a xlink:title=" ">
<path fill="none" stroke="#63b8ff" d="M67.25,-43.63C67.25,-35.34 67.25,-26.17 67.25,-19.61"/>
<polygon fill="#63b8ff" stroke="#63b8ff" points="63.75,-43.57 67.25,-53.57 70.75,-43.57 63.75,-43.57"/>
</a>
</g>
</g>
<!-- Node4 -->
<g id="Node000004" class="node">
<title>Node4</title>
<g id="a_Node000004"><a xlink:href="classsbus.html" target="_top" xlink:title="A class for handling SBUS protocol communication.">
<polygon fill="white" stroke="#666666" points="139.75,-19.25 102.75,-19.25 102.75,0 139.75,0 139.75,-19.25"/>
<text text-anchor="middle" x="121.25" y="-5.75" font-family="Helvetica,sans-Serif" font-size="10.00">sbus</text>
</a>
</g>
</g>
<!-- Node1&#45;&gt;Node4 -->
<g id="edge3_Node000001_Node000004" class="edge">
<title>Node1&#45;&gt;Node4</title>
<g id="a_edge3_Node000001_Node000004"><a xlink:title=" ">
<path fill="none" stroke="#63b8ff" d="M84.29,-47.07C93.51,-37.98 104.54,-27.1 112.14,-19.61"/>
<polygon fill="#63b8ff" stroke="#63b8ff" points="81.91,-44.51 77.24,-54.02 86.82,-49.49 81.91,-44.51"/>
</a>
</g>
</g>
</g>
</svg>
