<?xml version="1.0" encoding="UTF-8" standalone="no"?>
<!DOCTYPE svg PUBLIC "-//W3C//DTD SVG 1.1//EN"
 "http://www.w3.org/Graphics/SVG/1.1/DTD/svg11.dtd">
<!-- Generated by graphviz version 9.0.0 (20230911.1827)
 -->
<!-- Title: serialIO Pages: 1 -->
<svg width="96pt" height="83pt"
 viewBox="0.00 0.00 95.75 82.50" xmlns="http://www.w3.org/2000/svg" xmlns:xlink="http://www.w3.org/1999/xlink">
<g id="graph0" class="graph" transform="scale(1 1) rotate(0) translate(4 78.5)">
<title>serialIO</title>
<!-- Node1 -->
<g id="Node000001" class="node">
<title>Node1</title>
<g id="a_Node000001"><a xlink:title="Class that stores state and functions for initialising and decoding rc protocol.">
<polygon fill="#999999" stroke="#666666" points="67.12,-74.5 17.38,-74.5 17.38,-55.25 67.12,-55.25 67.12,-74.5"/>
<text text-anchor="middle" x="42.25" y="-61" font-family="Helvetica,sans-Serif" font-size="10.00">serialIO</text>
</a>
</g>
</g>
<!-- Node2 -->
<g id="Node000002" class="node">
<title>Node2</title>
<g id="a_Node000002"><a xlink:href="classcrsf.html" target="_top" xlink:title="A class for handling CRSF protocol communication.">
<polygon fill="white" stroke="#666666" points="32.5,-19.25 0,-19.25 0,0 32.5,0 32.5,-19.25"/>
<text text-anchor="middle" x="16.25" y="-5.75" font-family="Helvetica,sans-Serif" font-size="10.00">crsf</text>
</a>
</g>
</g>
<!-- Node1&#45;&gt;Node2 -->
<g id="edge1_Node000001_Node000002" class="edge">
<title>Node1&#45;&gt;Node2</title>
<g id="a_edge1_Node000001_Node000002"><a xlink:title=" ">
<path fill="none" stroke="#63b8ff" d="M32.93,-44.79C28.74,-36.21 23.99,-26.48 20.64,-19.61"/>
<polygon fill="#63b8ff" stroke="#63b8ff" points="29.76,-46.27 37.29,-53.72 36.05,-43.2 29.76,-46.27"/>
</a>
</g>
</g>
<!-- Node3 -->
<g id="Node000003" class="node">
<title>Node3</title>
<g id="a_Node000003"><a xlink:href="classsbus.html" target="_top" xlink:title="A class for handling SBUS protocol communication.">
<polygon fill="white" stroke="#666666" points="87.75,-19.25 50.75,-19.25 50.75,0 87.75,0 87.75,-19.25"/>
<text text-anchor="middle" x="69.25" y="-5.75" font-family="Helvetica,sans-Serif" font-size="10.00">sbus</text>
</a>
</g>
</g>
<!-- Node1&#45;&gt;Node3 -->
<g id="edge2_Node000001_Node000003" class="edge">
<title>Node1&#45;&gt;Node3</title>
<g id="a_edge2_Node000001_Node000003"><a xlink:title=" ">
<path fill="none" stroke="#63b8ff" d="M51.78,-45.08C56.17,-36.42 61.17,-26.56 64.69,-19.61"/>
<polygon fill="#63b8ff" stroke="#63b8ff" points="48.79,-43.23 47.39,-53.73 55.04,-46.4 48.79,-43.23"/>
</a>
</g>
</g>
</g>
</svg>
