<?xml version="1.0" encoding="UTF-8" standalone="no"?>
<!DOCTYPE svg PUBLIC "-//W3C//DTD SVG 1.1//EN"
 "http://www.w3.org/Graphics/SVG/1.1/DTD/svg11.dtd">
<!-- Generated by graphviz version 11.0.0 (20240428.1522)
 -->
<!-- Title: src/crsf.h Pages: 1 -->
<svg width="284pt" height="193pt"
 viewBox="0.00 0.00 284.12 193.00" xmlns="http://www.w3.org/2000/svg" xmlns:xlink="http://www.w3.org/1999/xlink">
<g id="graph0" class="graph" transform="scale(1 1) rotate(0) translate(4 189)">
<title>src/crsf.h</title>
<!-- Node1 -->
<g id="Node000001" class="node">
<title>Node1</title>
<g id="a_Node000001"><a xlink:title="Header file for the CRSF protocol implementation.">
<polygon fill="#999999" stroke="#666666" points="221.12,-185 164.62,-185 164.62,-165.75 221.12,-165.75 221.12,-185"/>
<text text-anchor="middle" x="192.88" y="-171.5" font-family="Helvetica,sans-Serif" font-size="10.00">src/crsf.h</text>
</a>
</g>
</g>
<!-- Node2 -->
<g id="Node000002" class="node">
<title>Node2</title>
<g id="a_Node000002"><a xlink:href="SerialIO_8h.html" target="_top" xlink:title="Header file for serial input/output (IO) functionality.">
<polygon fill="white" stroke="#666666" points="222.25,-129.75 163.5,-129.75 163.5,-110.5 222.25,-110.5 222.25,-129.75"/>
<text text-anchor="middle" x="192.88" y="-116.25" font-family="Helvetica,sans-Serif" font-size="10.00">SerialIO.h</text>
</a>
</g>
</g>
<!-- Node1&#45;&gt;Node2 -->
<g id="edge1_Node000001_Node000002" class="edge">
<title>Node1&#45;&gt;Node2</title>
<g id="a_edge1_Node000001_Node000002"><a xlink:title=" ">
<path fill="none" stroke="#63b8ff" d="M187.71,-165.58C186.3,-158.99 185.83,-149.71 186.3,-141.32"/>
<polygon fill="#63b8ff" stroke="#63b8ff" points="189.75,-141.96 187.49,-131.61 182.8,-141.12 189.75,-141.96"/>
</a>
</g>
</g>
<!-- Node2&#45;&gt;Node1 -->
<g id="edge5_Node000002_Node000001" class="edge">
<title>Node2&#45;&gt;Node1</title>
<g id="a_edge5_Node000002_Node000001"><a xlink:title=" ">
<path fill="none" stroke="#63b8ff" d="M198.08,-130.11C199.47,-136.75 199.92,-146.05 199.43,-154.42"/>
<polygon fill="#63b8ff" stroke="#63b8ff" points="195.99,-153.72 198.23,-164.08 202.94,-154.59 195.99,-153.72"/>
</a>
</g>
</g>
<!-- Node3 -->
<g id="Node000003" class="node">
<title>Node3</title>
<g id="a_Node000003"><a xlink:href="crsf__protocol_8h.html" target="_top" xlink:title="Header file for the CRSF protocol implementation.">
<polygon fill="white" stroke="#666666" points="79.75,-74.5 0,-74.5 0,-55.25 79.75,-55.25 79.75,-74.5"/>
<text text-anchor="middle" x="39.88" y="-61" font-family="Helvetica,sans-Serif" font-size="10.00">crsf_protocol.h</text>
</a>
</g>
</g>
<!-- Node2&#45;&gt;Node3 -->
<g id="edge2_Node000002_Node000003" class="edge">
<title>Node2&#45;&gt;Node3</title>
<g id="a_edge2_Node000002_Node000003"><a xlink:title=" ">
<path fill="none" stroke="#63b8ff" d="M166.92,-110.09C142.08,-101.45 104.38,-88.32 76.49,-78.62"/>
<polygon fill="#63b8ff" stroke="#63b8ff" points="77.98,-75.43 67.39,-75.45 75.68,-82.04 77.98,-75.43"/>
</a>
</g>
</g>
<!-- Node5 -->
<g id="Node000005" class="node">
<title>Node5</title>
<g id="a_Node000005"><a xlink:title=" ">
<polygon fill="#e0e0e0" stroke="#999999" points="154.12,-74.5 97.62,-74.5 97.62,-55.25 154.12,-55.25 154.12,-74.5"/>
<text text-anchor="middle" x="125.88" y="-61" font-family="Helvetica,sans-Serif" font-size="10.00">Arduino.h</text>
</a>
</g>
</g>
<!-- Node2&#45;&gt;Node5 -->
<g id="edge4_Node000002_Node000005" class="edge">
<title>Node2&#45;&gt;Node5</title>
<g id="a_edge4_Node000002_Node000005"><a xlink:title=" ">
<path fill="none" stroke="#63b8ff" d="M181.51,-110.09C171.83,-102.4 157.68,-91.15 146.07,-81.93"/>
<polygon fill="#63b8ff" stroke="#63b8ff" points="148.26,-79.2 138.26,-75.72 143.91,-84.68 148.26,-79.2"/>
</a>
</g>
</g>
<!-- Node6 -->
<g id="Node000006" class="node">
<title>Node6</title>
<g id="a_Node000006"><a xlink:href="ibus_8h.html" target="_top" xlink:title="Header file for the Ibus protocol implementation.">
<polygon fill="white" stroke="#666666" points="213.62,-74.5 172.12,-74.5 172.12,-55.25 213.62,-55.25 213.62,-74.5"/>
<text text-anchor="middle" x="192.88" y="-61" font-family="Helvetica,sans-Serif" font-size="10.00">ibus.h</text>
</a>
</g>
</g>
<!-- Node2&#45;&gt;Node6 -->
<g id="edge6_Node000002_Node000006" class="edge">
<title>Node2&#45;&gt;Node6</title>
<g id="a_edge6_Node000002_Node000006"><a xlink:title=" ">
<path fill="none" stroke="#63b8ff" d="M187.71,-110.33C186.3,-103.74 185.83,-94.46 186.3,-86.07"/>
<polygon fill="#63b8ff" stroke="#63b8ff" points="189.75,-86.71 187.49,-76.36 182.8,-85.87 189.75,-86.71"/>
</a>
</g>
</g>
<!-- Node7 -->
<g id="Node000007" class="node">
<title>Node7</title>
<g id="a_Node000007"><a xlink:href="sbus_8h.html" target="_top" xlink:title="Header file for the SBUS protocol implementation.">
<polygon fill="white" stroke="#666666" points="276.12,-74.5 231.62,-74.5 231.62,-55.25 276.12,-55.25 276.12,-74.5"/>
<text text-anchor="middle" x="253.88" y="-61" font-family="Helvetica,sans-Serif" font-size="10.00">sbus.h</text>
</a>
</g>
</g>
<!-- Node2&#45;&gt;Node7 -->
<g id="edge8_Node000002_Node000007" class="edge">
<title>Node2&#45;&gt;Node7</title>
<g id="a_edge8_Node000002_Node000007"><a xlink:title=" ">
<path fill="none" stroke="#63b8ff" d="M197.78,-110.33C204.99,-102.59 217.76,-91.14 229.4,-81.79"/>
<polygon fill="#63b8ff" stroke="#63b8ff" points="231.4,-84.67 237.18,-75.78 227.13,-79.13 231.4,-84.67"/>
</a>
</g>
</g>
<!-- Node4 -->
<g id="Node000004" class="node">
<title>Node4</title>
<g id="a_Node000004"><a xlink:title=" ">
<polygon fill="#e0e0e0" stroke="#999999" points="63.62,-19.25 16.12,-19.25 16.12,0 63.62,0 63.62,-19.25"/>
<text text-anchor="middle" x="39.88" y="-5.75" font-family="Helvetica,sans-Serif" font-size="10.00">stdint.h</text>
</a>
</g>
</g>
<!-- Node3&#45;&gt;Node4 -->
<g id="edge3_Node000003_Node000004" class="edge">
<title>Node3&#45;&gt;Node4</title>
<g id="a_edge3_Node000003_Node000004"><a xlink:title=" ">
<path fill="none" stroke="#63b8ff" d="M39.88,-55.08C39.88,-48.57 39.88,-39.42 39.88,-31.12"/>
<polygon fill="#63b8ff" stroke="#63b8ff" points="43.38,-31.12 39.88,-21.12 36.38,-31.12 43.38,-31.12"/>
</a>
</g>
</g>
<!-- Node6&#45;&gt;Node2 -->
<g id="edge7_Node000006_Node000002" class="edge">
<title>Node6&#45;&gt;Node2</title>
<g id="a_edge7_Node000006_Node000002"><a xlink:title=" ">
<path fill="none" stroke="#63b8ff" d="M198.08,-74.86C199.47,-81.5 199.92,-90.8 199.43,-99.17"/>
<polygon fill="#63b8ff" stroke="#63b8ff" points="195.99,-98.47 198.23,-108.83 202.94,-99.34 195.99,-98.47"/>
</a>
</g>
</g>
<!-- Node7&#45;&gt;Node2 -->
<g id="edge9_Node000007_Node000002" class="edge">
<title>Node7&#45;&gt;Node2</title>
<g id="a_edge9_Node000007_Node000002"><a xlink:title=" ">
<path fill="none" stroke="#63b8ff" d="M248.87,-74.77C241.65,-82.51 228.95,-93.89 217.37,-103.19"/>
<polygon fill="#63b8ff" stroke="#63b8ff" points="215.41,-100.28 209.64,-109.17 219.69,-105.82 215.41,-100.28"/>
</a>
</g>
</g>
</g>
</svg>
