<?xml version="1.0" encoding="UTF-8" standalone="no"?>
<!DOCTYPE svg PUBLIC "-//W3C//DTD SVG 1.1//EN"
 "http://www.w3.org/Graphics/SVG/1.1/DTD/svg11.dtd">
<!-- Generated by graphviz version 11.0.0 (20240428.1522)
 -->
<!-- Title: src/crsf_protocol.h Pages: 1 -->
<svg width="395pt" height="149pt"
 viewBox="0.00 0.00 394.75 149.00" xmlns="http://www.w3.org/2000/svg" xmlns:xlink="http://www.w3.org/1999/xlink">
<g id="graph0" class="graph" transform="scale(1 1) rotate(0) translate(4 145)">
<title>src/crsf_protocol.h</title>
<!-- Node1 -->
<g id="Node000001" class="node">
<title>Node1</title>
<g id="a_Node000001"><a xlink:title="Header file for the CRSF protocol implementation.">
<polygon fill="#999999" stroke="#666666" points="216.38,-141 120.12,-141 120.12,-121.75 216.38,-121.75 216.38,-141"/>
<text text-anchor="middle" x="168.25" y="-127.5" font-family="Helvetica,sans-Serif" font-size="10.00">src/crsf_protocol.h</text>
</a>
</g>
</g>
<!-- Node2 -->
<g id="Node000002" class="node">
<title>Node2</title>
<g id="a_Node000002"><a xlink:href="SerialIO_8h.html" target="_top" xlink:title="Header file for serial input/output (IO) functionality.">
<polygon fill="white" stroke="#666666" points="205.88,-85.75 130.62,-85.75 130.62,-66.5 205.88,-66.5 205.88,-85.75"/>
<text text-anchor="middle" x="168.25" y="-72.25" font-family="Helvetica,sans-Serif" font-size="10.00">src/SerialIO.h</text>
</a>
</g>
</g>
<!-- Node1&#45;&gt;Node2 -->
<g id="edge1_Node000001_Node000002" class="edge">
<title>Node1&#45;&gt;Node2</title>
<g id="a_edge1_Node000001_Node000002"><a xlink:title=" ">
<path fill="none" stroke="#63b8ff" d="M168.25,-110.13C168.25,-101.84 168.25,-92.67 168.25,-86.11"/>
<polygon fill="#63b8ff" stroke="#63b8ff" points="164.75,-110.07 168.25,-120.07 171.75,-110.07 164.75,-110.07"/>
</a>
</g>
</g>
<!-- Node5 -->
<g id="Node000005" class="node">
<title>Node5</title>
<g id="a_Node000005"><a xlink:href="crsf_8h.html" target="_top" xlink:title="Header file for the CRSF protocol implementation.">
<polygon fill="white" stroke="#666666" points="56.5,-24.88 0,-24.88 0,-5.63 56.5,-5.63 56.5,-24.88"/>
<text text-anchor="middle" x="28.25" y="-11.38" font-family="Helvetica,sans-Serif" font-size="10.00">src/crsf.h</text>
</a>
</g>
</g>
<!-- Node1&#45;&gt;Node5 -->
<g id="edge8_Node000001_Node000005" class="edge">
<title>Node1&#45;&gt;Node5</title>
<g id="a_edge8_Node000001_Node000005"><a xlink:title=" ">
<path fill="none" stroke="#63b8ff" d="M148.54,-114.31C118.62,-89.92 62.75,-44.38 39.18,-25.16"/>
<polygon fill="#63b8ff" stroke="#63b8ff" points="146.13,-116.86 156.09,-120.46 150.55,-111.43 146.13,-116.86"/>
</a>
</g>
</g>
<!-- Node6 -->
<g id="Node000006" class="node">
<title>Node6</title>
<g id="a_Node000006"><a xlink:href="sbus_8h.html" target="_top" xlink:title="Header file for the SBUS protocol implementation.">
<polygon fill="white" stroke="#666666" points="386.75,-24.88 325.75,-24.88 325.75,-5.63 386.75,-5.63 386.75,-24.88"/>
<text text-anchor="middle" x="356.25" y="-11.38" font-family="Helvetica,sans-Serif" font-size="10.00">src/sbus.h</text>
</a>
</g>
</g>
<!-- Node1&#45;&gt;Node6 -->
<g id="edge9_Node000001_Node000006" class="edge">
<title>Node1&#45;&gt;Node6</title>
<g id="a_edge9_Node000001_Node000006"><a xlink:title=" ">
<path fill="none" stroke="#63b8ff" d="M192.64,-115.57C232.14,-91.59 308.95,-44.96 341.31,-25.32"/>
<polygon fill="#63b8ff" stroke="#63b8ff" points="191.03,-112.45 184.3,-120.63 194.66,-118.44 191.03,-112.45"/>
</a>
</g>
</g>
<!-- Node3 -->
<g id="Node000003" class="node">
<title>Node3</title>
<g id="a_Node000003"><a xlink:href="crsf__basic_8ino.html" target="_top" xlink:title=" ">
<polygon fill="white" stroke="#666666" points="179.88,-30.5 74.62,-30.5 74.62,0 179.88,0 179.88,-30.5"/>
<text text-anchor="start" x="82.62" y="-17" font-family="Helvetica,sans-Serif" font-size="10.00">examples/crsf_basic</text>
<text text-anchor="middle" x="127.25" y="-5.75" font-family="Helvetica,sans-Serif" font-size="10.00">/crsf_basic.ino</text>
</a>
</g>
</g>
<!-- Node2&#45;&gt;Node3 -->
<g id="edge2_Node000002_Node000003" class="edge">
<title>Node2&#45;&gt;Node3</title>
<g id="a_edge2_Node000002_Node000003"><a xlink:title=" ">
<path fill="none" stroke="#63b8ff" d="M155.54,-56.88C149.7,-48.48 142.86,-38.66 137.37,-30.78"/>
<polygon fill="#63b8ff" stroke="#63b8ff" points="152.57,-58.74 161.16,-64.94 158.32,-54.73 152.57,-58.74"/>
</a>
</g>
</g>
<!-- Node4 -->
<g id="Node000004" class="node">
<title>Node4</title>
<g id="a_Node000004"><a xlink:href="sbus__basic_8ino.html" target="_top" xlink:title=" ">
<polygon fill="white" stroke="#666666" points="308.12,-30.5 198.38,-30.5 198.38,0 308.12,0 308.12,-30.5"/>
<text text-anchor="start" x="206.38" y="-17" font-family="Helvetica,sans-Serif" font-size="10.00">examples/sbus_basic</text>
<text text-anchor="middle" x="253.25" y="-5.75" font-family="Helvetica,sans-Serif" font-size="10.00">/sbus_basic.ino</text>
</a>
</g>
</g>
<!-- Node2&#45;&gt;Node4 -->
<g id="edge3_Node000002_Node000004" class="edge">
<title>Node2&#45;&gt;Node4</title>
<g id="a_edge3_Node000002_Node000004"><a xlink:title=" ">
<path fill="none" stroke="#63b8ff" d="M190.3,-59.85C203.24,-50.89 219.51,-39.62 232.27,-30.78"/>
<polygon fill="#63b8ff" stroke="#63b8ff" points="188.63,-56.75 182.4,-65.32 192.62,-62.5 188.63,-56.75"/>
</a>
</g>
</g>
<!-- Node2&#45;&gt;Node5 -->
<g id="edge4_Node000002_Node000005" class="edge">
<title>Node2&#45;&gt;Node5</title>
<g id="a_edge4_Node000002_Node000005"><a xlink:title=" ">
<path fill="none" stroke="#63b8ff" d="M130.98,-61.87C102.85,-50.69 65.77,-34.99 44.59,-25.23"/>
<polygon fill="#63b8ff" stroke="#63b8ff" points="129.65,-65.11 140.24,-65.5 132.21,-58.59 129.65,-65.11"/>
</a>
</g>
</g>
<!-- Node2&#45;&gt;Node6 -->
<g id="edge6_Node000002_Node000006" class="edge">
<title>Node2&#45;&gt;Node6</title>
<g id="a_edge6_Node000002_Node000006"><a xlink:title=" ">
<path fill="none" stroke="#63b8ff" d="M204.35,-62.77C232.77,-54.17 273.07,-42.18 308.25,-30.5 313.72,-28.68 319.58,-26.61 325.33,-24.62"/>
<polygon fill="#63b8ff" stroke="#63b8ff" points="203.7,-59.31 195.15,-65.57 205.74,-66.01 203.7,-59.31"/>
</a>
</g>
</g>
<!-- Node5&#45;&gt;Node2 -->
<g id="edge5_Node000005_Node000002" class="edge">
<title>Node5&#45;&gt;Node2</title>
<g id="a_edge5_Node000005_Node000002"><a xlink:title=" ">
<path fill="none" stroke="#63b8ff" d="M65.52,-29.51C93.57,-40.65 130.51,-56.29 151.72,-66.05"/>
<polygon fill="#63b8ff" stroke="#63b8ff" points="66.88,-26.28 56.29,-25.88 64.32,-32.8 66.88,-26.28"/>
</a>
</g>
</g>
<!-- Node6&#45;&gt;Node2 -->
<g id="edge7_Node000006_Node000002" class="edge">
<title>Node6&#45;&gt;Node2</title>
<g id="a_edge7_Node000006_Node000002"><a xlink:title=" ">
<path fill="none" stroke="#63b8ff" d="M330.35,-29.12C328.97,-29.59 327.6,-30.05 326.25,-30.5 285.76,-43.95 238.49,-57.79 206.12,-66.43"/>
<polygon fill="#63b8ff" stroke="#63b8ff" points="331.15,-32.55 339.38,-25.88 328.78,-25.96 331.15,-32.55"/>
</a>
</g>
</g>
</g>
</svg>
