<?xml version="1.0" encoding="UTF-8" standalone="no"?>
<!DOCTYPE svg PUBLIC "-//W3C//DTD SVG 1.1//EN"
 "http://www.w3.org/Graphics/SVG/1.1/DTD/svg11.dtd">
<!-- Generated by graphviz version 11.0.0 (20240428.1522)
 -->
<!-- Title: src/crsf.h Pages: 1 -->
<svg width="720pt" height="149pt"
 viewBox="0.00 0.00 720.00 149.00" xmlns="http://www.w3.org/2000/svg" xmlns:xlink="http://www.w3.org/1999/xlink">
<g id="graph0" class="graph" transform="scale(1 1) rotate(0) translate(4 145)">
<title>src/crsf.h</title>
<!-- Node1 -->
<g id="Node000001" class="node">
<title>Node1</title>
<g id="a_Node000001"><a xlink:title="Header file for the CRSF protocol implementation.">
<polygon fill="#999999" stroke="#666666" points="573.75,-141 517.25,-141 517.25,-121.75 573.75,-121.75 573.75,-141"/>
<text text-anchor="middle" x="545.5" y="-127.5" font-family="Helvetica,sans-Serif" font-size="10.00">src/crsf.h</text>
</a>
</g>
</g>
<!-- Node2 -->
<g id="Node000002" class="node">
<title>Node2</title>
<g id="a_Node000002"><a xlink:href="SerialIO_8h.html" target="_top" xlink:title="Header file for serial input/output (IO) functionality.">
<polygon fill="white" stroke="#666666" points="583.12,-85.75 507.88,-85.75 507.88,-66.5 583.12,-66.5 583.12,-85.75"/>
<text text-anchor="middle" x="545.5" y="-72.25" font-family="Helvetica,sans-Serif" font-size="10.00">src/SerialIO.h</text>
</a>
</g>
</g>
<!-- Node1&#45;&gt;Node2 -->
<g id="edge1_Node000001_Node000002" class="edge">
<title>Node1&#45;&gt;Node2</title>
<g id="a_edge1_Node000001_Node000002"><a xlink:title=" ">
<path fill="none" stroke="#63b8ff" d="M538.94,-110.42C538.45,-102.05 538.9,-92.75 540.29,-86.11"/>
<polygon fill="#63b8ff" stroke="#63b8ff" points="535.44,-110.59 540.15,-120.08 542.38,-109.72 535.44,-110.59"/>
</a>
</g>
</g>
<!-- Node2&#45;&gt;Node1 -->
<g id="edge6_Node000002_Node000001" class="edge">
<title>Node2&#45;&gt;Node1</title>
<g id="a_edge6_Node000002_Node000001"><a xlink:title=" ">
<path fill="none" stroke="#63b8ff" d="M552.07,-97.32C552.54,-105.71 552.08,-114.99 550.67,-121.58"/>
<polygon fill="#63b8ff" stroke="#63b8ff" points="555.57,-97.12 550.89,-87.61 548.62,-97.96 555.57,-97.12"/>
</a>
</g>
</g>
<!-- Node3 -->
<g id="Node000003" class="node">
<title>Node3</title>
<g id="a_Node000003"><a xlink:href="atmel_2ibus__basic_2ibus__basic_8ino.html" target="_top" xlink:title=" ">
<polygon fill="white" stroke="#666666" points="109,-30.5 0,-30.5 0,0 109,0 109,-30.5"/>
<text text-anchor="start" x="8" y="-17" font-family="Helvetica,sans-Serif" font-size="10.00">examples/atmel/ibus</text>
<text text-anchor="middle" x="54.5" y="-5.75" font-family="Helvetica,sans-Serif" font-size="10.00">_basic/ibus_basic.ino</text>
</a>
</g>
</g>
<!-- Node2&#45;&gt;Node3 -->
<g id="edge2_Node000002_Node000003" class="edge">
<title>Node2&#45;&gt;Node3</title>
<g id="a_edge2_Node000002_Node000003"><a xlink:title=" ">
<path fill="none" stroke="#63b8ff" d="M496.34,-71.9C416.5,-66.24 253.81,-52.94 117.5,-30.5 114.84,-30.06 112.13,-29.58 109.4,-29.07"/>
<polygon fill="#63b8ff" stroke="#63b8ff" points="495.78,-75.37 506,-72.58 496.27,-68.39 495.78,-75.37"/>
</a>
</g>
</g>
<!-- Node4 -->
<g id="Node000004" class="node">
<title>Node4</title>
<g id="a_Node000004"><a xlink:href="crsf__basic_8ino.html" target="_top" xlink:title=" ">
<polygon fill="white" stroke="#666666" points="254,-30.5 127,-30.5 127,0 254,0 254,-30.5"/>
<text text-anchor="start" x="135" y="-17" font-family="Helvetica,sans-Serif" font-size="10.00">examples/espresiff</text>
<text text-anchor="middle" x="190.5" y="-5.75" font-family="Helvetica,sans-Serif" font-size="10.00">/crsf_basic/crsf_basic.ino</text>
</a>
</g>
</g>
<!-- Node2&#45;&gt;Node4 -->
<g id="edge3_Node000002_Node000004" class="edge">
<title>Node2&#45;&gt;Node4</title>
<g id="a_edge3_Node000002_Node000004"><a xlink:title=" ">
<path fill="none" stroke="#63b8ff" d="M496.5,-67.92C440.18,-59.5 345.01,-44.9 263.5,-30.5 260.45,-29.96 257.33,-29.4 254.18,-28.82"/>
<polygon fill="#63b8ff" stroke="#63b8ff" points="495.67,-71.33 506.07,-69.34 496.7,-64.41 495.67,-71.33"/>
</a>
</g>
</g>
<!-- Node5 -->
<g id="Node000005" class="node">
<title>Node5</title>
<g id="a_Node000005"><a xlink:href="espresiff_2ibus__basic_2ibus__basic_8ino.html" target="_top" xlink:title=" ">
<polygon fill="white" stroke="#666666" points="402.5,-30.5 272.5,-30.5 272.5,0 402.5,0 402.5,-30.5"/>
<text text-anchor="start" x="280.5" y="-17" font-family="Helvetica,sans-Serif" font-size="10.00">examples/espresiff</text>
<text text-anchor="middle" x="337.5" y="-5.75" font-family="Helvetica,sans-Serif" font-size="10.00">/ibus_basic/ibus_basic.ino</text>
</a>
</g>
</g>
<!-- Node2&#45;&gt;Node5 -->
<g id="edge4_Node000002_Node000005" class="edge">
<title>Node2&#45;&gt;Node5</title>
<g id="a_edge4_Node000002_Node000005"><a xlink:title=" ">
<path fill="none" stroke="#63b8ff" d="M502.4,-62.93C469.57,-53.63 424.24,-40.8 389.42,-30.94"/>
<polygon fill="#63b8ff" stroke="#63b8ff" points="501.42,-66.29 512,-65.64 503.33,-59.55 501.42,-66.29"/>
</a>
</g>
</g>
<!-- Node6 -->
<g id="Node000006" class="node">
<title>Node6</title>
<g id="a_Node000006"><a xlink:href="sbus__basic_8ino.html" target="_top" xlink:title=" ">
<polygon fill="white" stroke="#666666" points="556.5,-30.5 420.5,-30.5 420.5,0 556.5,0 556.5,-30.5"/>
<text text-anchor="start" x="428.5" y="-17" font-family="Helvetica,sans-Serif" font-size="10.00">examples/espresiff</text>
<text text-anchor="middle" x="488.5" y="-5.75" font-family="Helvetica,sans-Serif" font-size="10.00">/sbus_basic/sbus_basic.ino</text>
</a>
</g>
</g>
<!-- Node2&#45;&gt;Node6 -->
<g id="edge5_Node000002_Node000006" class="edge">
<title>Node2&#45;&gt;Node6</title>
<g id="a_edge5_Node000002_Node000006"><a xlink:title=" ">
<path fill="none" stroke="#63b8ff" d="M528.9,-57.98C520.55,-49.35 510.54,-39.01 502.57,-30.78"/>
<polygon fill="#63b8ff" stroke="#63b8ff" points="526.32,-60.35 535.79,-65.1 531.35,-55.48 526.32,-60.35"/>
</a>
</g>
</g>
<!-- Node7 -->
<g id="Node000007" class="node">
<title>Node7</title>
<g id="a_Node000007"><a xlink:href="ibus_8h.html" target="_top" xlink:title="Header file for the Ibus protocol implementation.">
<polygon fill="white" stroke="#666666" points="632.5,-24.88 574.5,-24.88 574.5,-5.63 632.5,-5.63 632.5,-24.88"/>
<text text-anchor="middle" x="603.5" y="-11.38" font-family="Helvetica,sans-Serif" font-size="10.00">src/ibus.h</text>
</a>
</g>
</g>
<!-- Node2&#45;&gt;Node7 -->
<g id="edge7_Node000002_Node000007" class="edge">
<title>Node2&#45;&gt;Node7</title>
<g id="a_edge7_Node000002_Node000007"><a xlink:title=" ">
<path fill="none" stroke="#63b8ff" d="M556.48,-57.66C565.98,-47.02 579.34,-33.86 589.58,-25.28"/>
<polygon fill="#63b8ff" stroke="#63b8ff" points="554.04,-55.12 550.27,-65.03 559.39,-59.63 554.04,-55.12"/>
</a>
</g>
</g>
<!-- Node8 -->
<g id="Node000008" class="node">
<title>Node8</title>
<g id="a_Node000008"><a xlink:href="sbus_8h.html" target="_top" xlink:title="Header file for the SBUS protocol implementation.">
<polygon fill="white" stroke="#666666" points="712,-24.88 651,-24.88 651,-5.63 712,-5.63 712,-24.88"/>
<text text-anchor="middle" x="681.5" y="-11.38" font-family="Helvetica,sans-Serif" font-size="10.00">src/sbus.h</text>
</a>
</g>
</g>
<!-- Node2&#45;&gt;Node8 -->
<g id="edge9_Node000002_Node000008" class="edge">
<title>Node2&#45;&gt;Node8</title>
<g id="a_edge9_Node000002_Node000008"><a xlink:title=" ">
<path fill="none" stroke="#63b8ff" d="M571.68,-61.27C595.94,-50.13 631.58,-34.82 655.73,-25.23"/>
<polygon fill="#63b8ff" stroke="#63b8ff" points="570.37,-58.02 562.79,-65.42 573.33,-64.36 570.37,-58.02"/>
</a>
</g>
</g>
<!-- Node7&#45;&gt;Node2 -->
<g id="edge8_Node000007_Node000002" class="edge">
<title>Node7&#45;&gt;Node2</title>
<g id="a_edge8_Node000007_Node000002"><a xlink:title=" ">
<path fill="none" stroke="#63b8ff" d="M592.43,-33.82C582.9,-44.48 569.54,-57.62 559.32,-66.18"/>
<polygon fill="#63b8ff" stroke="#63b8ff" points="594.89,-36.33 598.66,-26.43 589.54,-31.82 594.89,-36.33"/>
</a>
</g>
</g>
<!-- Node8&#45;&gt;Node2 -->
<g id="edge10_Node000008_Node000002" class="edge">
<title>Node8&#45;&gt;Node2</title>
<g id="a_edge10_Node000008_Node000002"><a xlink:title=" ">
<path fill="none" stroke="#63b8ff" d="M655.54,-30.01C631.34,-41.12 595.7,-56.43 571.49,-66.05"/>
<polygon fill="#63b8ff" stroke="#63b8ff" points="656.81,-33.27 664.39,-25.87 653.85,-26.93 656.81,-33.27"/>
</a>
</g>
</g>
</g>
</svg>
