<?xml version="1.0" encoding="UTF-8" standalone="no"?>
<!DOCTYPE svg PUBLIC "-//W3C//DTD SVG 1.1//EN"
 "http://www.w3.org/Graphics/SVG/1.1/DTD/svg11.dtd">
<!-- Generated by graphviz version 11.0.0 (20240428.1522)
 -->
<!-- Title: src/crsf/crsf.h Pages: 1 -->
<svg width="359pt" height="248pt"
 viewBox="0.00 0.00 359.12 248.25" xmlns="http://www.w3.org/2000/svg" xmlns:xlink="http://www.w3.org/1999/xlink">
<g id="graph0" class="graph" transform="scale(1 1) rotate(0) translate(4 244.25)">
<title>src/crsf/crsf.h</title>
<!-- Node1 -->
<g id="Node000001" class="node">
<title>Node1</title>
<g id="a_Node000001"><a xlink:title="Header file for the CRSF protocol implementation.">
<polygon fill="#999999" stroke="#666666" points="227.25,-240.25 151.25,-240.25 151.25,-221 227.25,-221 227.25,-240.25"/>
<text text-anchor="middle" x="189.25" y="-226.75" font-family="Helvetica,sans-Serif" font-size="10.00">src/crsf/crsf.h</text>
</a>
</g>
</g>
<!-- Node2 -->
<g id="Node000002" class="node">
<title>Node2</title>
<g id="a_Node000002"><a xlink:href="SerialIO_8h.html" target="_top" xlink:title="Header file for serial input/output (IO) functionality.">
<polygon fill="white" stroke="#666666" points="222.38,-185 156.12,-185 156.12,-165.75 222.38,-165.75 222.38,-185"/>
<text text-anchor="middle" x="189.25" y="-171.5" font-family="Helvetica,sans-Serif" font-size="10.00">../SerialIO.h</text>
</a>
</g>
</g>
<!-- Node1&#45;&gt;Node2 -->
<g id="edge1_Node000001_Node000002" class="edge">
<title>Node1&#45;&gt;Node2</title>
<g id="a_edge1_Node000001_Node000002"><a xlink:title=" ">
<path fill="none" stroke="#63b8ff" d="M184.08,-220.83C182.67,-214.24 182.21,-204.96 182.68,-196.57"/>
<polygon fill="#63b8ff" stroke="#63b8ff" points="186.13,-197.21 183.86,-186.86 179.18,-196.37 186.13,-197.21"/>
</a>
</g>
</g>
<!-- Node11 -->
<g id="Node000011" class="node">
<title>Node11</title>
<g id="a_Node000011"><a xlink:href="crsf__protocol_8h.html" target="_top" xlink:title="Header file for the CRSF protocol implementation.">
<polygon fill="white" stroke="#666666" points="351.12,-185 271.38,-185 271.38,-165.75 351.12,-165.75 351.12,-185"/>
<text text-anchor="middle" x="311.25" y="-171.5" font-family="Helvetica,sans-Serif" font-size="10.00">crsf_protocol.h</text>
</a>
</g>
</g>
<!-- Node1&#45;&gt;Node11 -->
<g id="edge16_Node000001_Node000011" class="edge">
<title>Node1&#45;&gt;Node11</title>
<g id="a_edge16_Node000001_Node000011"><a xlink:title=" ">
<path fill="none" stroke="#63b8ff" d="M209.95,-220.59C229.14,-212.22 257.96,-199.63 279.97,-190.03"/>
<polygon fill="#63b8ff" stroke="#63b8ff" points="281.3,-193.27 289.07,-186.06 278.5,-186.85 281.3,-193.27"/>
</a>
</g>
</g>
<!-- Node2&#45;&gt;Node1 -->
<g id="edge3_Node000002_Node000001" class="edge">
<title>Node2&#45;&gt;Node1</title>
<g id="a_edge3_Node000002_Node000001"><a xlink:title=" ">
<path fill="none" stroke="#63b8ff" d="M194.46,-185.36C195.85,-192 196.3,-201.3 195.81,-209.67"/>
<polygon fill="#63b8ff" stroke="#63b8ff" points="192.37,-208.97 194.6,-219.33 199.31,-209.84 192.37,-208.97"/>
</a>
</g>
</g>
<!-- Node3 -->
<g id="Node000003" class="node">
<title>Node3</title>
<g id="a_Node000003"><a xlink:title=" ">
<polygon fill="#e0e0e0" stroke="#999999" points="56.5,-129.75 0,-129.75 0,-110.5 56.5,-110.5 56.5,-129.75"/>
<text text-anchor="middle" x="28.25" y="-116.25" font-family="Helvetica,sans-Serif" font-size="10.00">Arduino.h</text>
</a>
</g>
</g>
<!-- Node2&#45;&gt;Node3 -->
<g id="edge2_Node000002_Node000003" class="edge">
<title>Node2&#45;&gt;Node3</title>
<g id="a_edge2_Node000002_Node000003"><a xlink:title=" ">
<path fill="none" stroke="#63b8ff" d="M161.94,-165.34C135.69,-156.66 95.77,-143.46 66.39,-133.74"/>
<polygon fill="#63b8ff" stroke="#63b8ff" points="67.73,-130.49 57.13,-130.68 65.53,-137.14 67.73,-130.49"/>
</a>
</g>
</g>
<!-- Node4 -->
<g id="Node000004" class="node">
<title>Node4</title>
<g id="a_Node000004"><a xlink:href="fport_8h.html" target="_top" xlink:title="Header file for the FPort Protocol definations.">
<polygon fill="white" stroke="#666666" points="140,-129.75 74.5,-129.75 74.5,-110.5 140,-110.5 140,-129.75"/>
<text text-anchor="middle" x="107.25" y="-116.25" font-family="Helvetica,sans-Serif" font-size="10.00">fport/fport.h</text>
</a>
</g>
</g>
<!-- Node2&#45;&gt;Node4 -->
<g id="edge4_Node000002_Node000004" class="edge">
<title>Node2&#45;&gt;Node4</title>
<g id="a_edge4_Node000002_Node000004"><a xlink:title=" ">
<path fill="none" stroke="#63b8ff" d="M170.12,-165.34C156.4,-157.49 138.3,-145.95 124.92,-136.62"/>
<polygon fill="#63b8ff" stroke="#63b8ff" points="127.15,-133.92 116.99,-130.91 123.06,-139.6 127.15,-133.92"/>
</a>
</g>
</g>
<!-- Node7 -->
<g id="Node000007" class="node">
<title>Node7</title>
<g id="a_Node000007"><a xlink:href="ibus_8h.html" target="_top" xlink:title="Header file for the Ibus protocol implementation.">
<polygon fill="white" stroke="#666666" points="220.5,-129.75 158,-129.75 158,-110.5 220.5,-110.5 220.5,-129.75"/>
<text text-anchor="middle" x="189.25" y="-116.25" font-family="Helvetica,sans-Serif" font-size="10.00">ibus/ibus.h</text>
</a>
</g>
</g>
<!-- Node2&#45;&gt;Node7 -->
<g id="edge8_Node000002_Node000007" class="edge">
<title>Node2&#45;&gt;Node7</title>
<g id="a_edge8_Node000002_Node000007"><a xlink:title=" ">
<path fill="none" stroke="#63b8ff" d="M184.08,-165.58C182.67,-158.99 182.21,-149.71 182.68,-141.32"/>
<polygon fill="#63b8ff" stroke="#63b8ff" points="186.13,-141.96 183.86,-131.61 179.18,-141.12 186.13,-141.96"/>
</a>
</g>
</g>
<!-- Node9 -->
<g id="Node000009" class="node">
<title>Node9</title>
<g id="a_Node000009"><a xlink:href="sbus_8h.html" target="_top" xlink:title="Header file for the SBUS protocol implementation.">
<polygon fill="white" stroke="#666666" points="307.5,-129.75 239,-129.75 239,-110.5 307.5,-110.5 307.5,-129.75"/>
<text text-anchor="middle" x="273.25" y="-116.25" font-family="Helvetica,sans-Serif" font-size="10.00">sbus/sbus.h</text>
</a>
</g>
</g>
<!-- Node2&#45;&gt;Node9 -->
<g id="edge12_Node000002_Node000009" class="edge">
<title>Node2&#45;&gt;Node9</title>
<g id="a_edge12_Node000002_Node000009"><a xlink:title=" ">
<path fill="none" stroke="#63b8ff" d="M198.28,-165.34C209.38,-157.23 228.1,-145.18 244.15,-135.71"/>
<polygon fill="#63b8ff" stroke="#63b8ff" points="245.48,-138.98 252.39,-130.96 241.98,-132.92 245.48,-138.98"/>
</a>
</g>
</g>
<!-- Node4&#45;&gt;Node2 -->
<g id="edge5_Node000004_Node000002" class="edge">
<title>Node4&#45;&gt;Node2</title>
<g id="a_edge5_Node000004_Node000002"><a xlink:title=" ">
<path fill="none" stroke="#63b8ff" d="M126.45,-130.2C140.11,-138.02 158.08,-149.47 171.41,-158.76"/>
<polygon fill="#63b8ff" stroke="#63b8ff" points="169.17,-161.46 179.33,-164.46 173.26,-155.77 169.17,-161.46"/>
</a>
</g>
</g>
<!-- Node5 -->
<g id="Node000005" class="node">
<title>Node5</title>
<g id="a_Node000005"><a xlink:href="fport__protocol_8h.html" target="_top" xlink:title="Header file for the F.Port protocol implementation.">
<polygon fill="white" stroke="#666666" points="121.62,-74.5 38.88,-74.5 38.88,-55.25 121.62,-55.25 121.62,-74.5"/>
<text text-anchor="middle" x="80.25" y="-61" font-family="Helvetica,sans-Serif" font-size="10.00">fport_protocol.h</text>
</a>
</g>
</g>
<!-- Node4&#45;&gt;Node5 -->
<g id="edge6_Node000004_Node000005" class="edge">
<title>Node4&#45;&gt;Node5</title>
<g id="a_edge6_Node000004_Node000005"><a xlink:title=" ">
<path fill="none" stroke="#63b8ff" d="M102.79,-110.33C99.3,-103.44 94.3,-93.59 89.9,-84.91"/>
<polygon fill="#63b8ff" stroke="#63b8ff" points="93.13,-83.55 85.49,-76.21 86.89,-86.71 93.13,-83.55"/>
</a>
</g>
</g>
<!-- Node6 -->
<g id="Node000006" class="node">
<title>Node6</title>
<g id="a_Node000006"><a xlink:title=" ">
<polygon fill="#e0e0e0" stroke="#999999" points="254,-19.25 206.5,-19.25 206.5,0 254,0 254,-19.25"/>
<text text-anchor="middle" x="230.25" y="-5.75" font-family="Helvetica,sans-Serif" font-size="10.00">stdint.h</text>
</a>
</g>
</g>
<!-- Node5&#45;&gt;Node6 -->
<g id="edge7_Node000005_Node000006" class="edge">
<title>Node5&#45;&gt;Node6</title>
<g id="a_edge7_Node000005_Node000006"><a xlink:title=" ">
<path fill="none" stroke="#63b8ff" d="M105.7,-54.84C130.38,-46.08 168.03,-32.71 195.47,-22.97"/>
<polygon fill="#63b8ff" stroke="#63b8ff" points="196.49,-26.32 204.74,-19.68 194.15,-19.73 196.49,-26.32"/>
</a>
</g>
</g>
<!-- Node7&#45;&gt;Node2 -->
<g id="edge9_Node000007_Node000002" class="edge">
<title>Node7&#45;&gt;Node2</title>
<g id="a_edge9_Node000007_Node000002"><a xlink:title=" ">
<path fill="none" stroke="#63b8ff" d="M194.46,-130.11C195.85,-136.75 196.3,-146.05 195.81,-154.42"/>
<polygon fill="#63b8ff" stroke="#63b8ff" points="192.37,-153.72 194.6,-164.08 199.31,-154.59 192.37,-153.72"/>
</a>
</g>
</g>
<!-- Node8 -->
<g id="Node000008" class="node">
<title>Node8</title>
<g id="a_Node000008"><a xlink:href="ibus__protocol_8h.html" target="_top" xlink:title="Header file for the iBus protocol implementation.">
<polygon fill="white" stroke="#666666" points="220.88,-74.5 139.62,-74.5 139.62,-55.25 220.88,-55.25 220.88,-74.5"/>
<text text-anchor="middle" x="180.25" y="-61" font-family="Helvetica,sans-Serif" font-size="10.00">ibus_protocol.h</text>
</a>
</g>
</g>
<!-- Node7&#45;&gt;Node8 -->
<g id="edge10_Node000007_Node000008" class="edge">
<title>Node7&#45;&gt;Node8</title>
<g id="a_edge10_Node000007_Node000008"><a xlink:title=" ">
<path fill="none" stroke="#63b8ff" d="M187.76,-110.33C186.65,-103.74 185.08,-94.46 183.66,-86.07"/>
<polygon fill="#63b8ff" stroke="#63b8ff" points="187.14,-85.63 182.02,-76.35 180.24,-86.8 187.14,-85.63"/>
</a>
</g>
</g>
<!-- Node8&#45;&gt;Node6 -->
<g id="edge11_Node000008_Node000006" class="edge">
<title>Node8&#45;&gt;Node6</title>
<g id="a_edge11_Node000008_Node000006"><a xlink:title=" ">
<path fill="none" stroke="#63b8ff" d="M188.51,-55.08C195.41,-47.73 205.47,-37.01 213.99,-27.94"/>
<polygon fill="#63b8ff" stroke="#63b8ff" points="216.48,-30.4 220.78,-20.71 211.38,-25.61 216.48,-30.4"/>
</a>
</g>
</g>
<!-- Node9&#45;&gt;Node2 -->
<g id="edge13_Node000009_Node000002" class="edge">
<title>Node9&#45;&gt;Node2</title>
<g id="a_edge13_Node000009_Node000002"><a xlink:title=" ">
<path fill="none" stroke="#63b8ff" d="M264.4,-130.02C253.32,-138.14 234.47,-150.28 218.32,-159.81"/>
<polygon fill="#63b8ff" stroke="#63b8ff" points="216.95,-156.56 210.03,-164.59 220.44,-162.63 216.95,-156.56"/>
</a>
</g>
</g>
<!-- Node10 -->
<g id="Node000010" class="node">
<title>Node10</title>
<g id="a_Node000010"><a xlink:href="sbus__protocol_8h.html" target="_top" xlink:title="Header file for the SBus protocol implementation.">
<polygon fill="white" stroke="#666666" points="323.38,-74.5 239.12,-74.5 239.12,-55.25 323.38,-55.25 323.38,-74.5"/>
<text text-anchor="middle" x="281.25" y="-61" font-family="Helvetica,sans-Serif" font-size="10.00">sbus_protocol.h</text>
</a>
</g>
</g>
<!-- Node9&#45;&gt;Node10 -->
<g id="edge14_Node000009_Node000010" class="edge">
<title>Node9&#45;&gt;Node10</title>
<g id="a_edge14_Node000009_Node000010"><a xlink:title=" ">
<path fill="none" stroke="#63b8ff" d="M274.57,-110.33C275.56,-103.74 276.96,-94.46 278.22,-86.07"/>
<polygon fill="#63b8ff" stroke="#63b8ff" points="281.65,-86.76 279.68,-76.36 274.73,-85.72 281.65,-86.76"/>
</a>
</g>
</g>
<!-- Node10&#45;&gt;Node6 -->
<g id="edge15_Node000010_Node000006" class="edge">
<title>Node10&#45;&gt;Node6</title>
<g id="a_edge15_Node000010_Node000006"><a xlink:title=" ">
<path fill="none" stroke="#63b8ff" d="M272.83,-55.08C265.71,-47.65 255.31,-36.79 246.56,-27.66"/>
<polygon fill="#63b8ff" stroke="#63b8ff" points="249.35,-25.5 239.9,-20.7 244.29,-30.35 249.35,-25.5"/>
</a>
</g>
</g>
<!-- Node11&#45;&gt;Node6 -->
<g id="edge17_Node000011_Node000006" class="edge">
<title>Node11&#45;&gt;Node6</title>
<g id="a_edge17_Node000011_Node000006"><a xlink:title=" ">
<path fill="none" stroke="#63b8ff" d="M316.76,-165.45C328.97,-144.4 355.47,-90.75 332.25,-55.25 317.59,-32.83 288.91,-21.61 265.68,-16.03"/>
<polygon fill="#63b8ff" stroke="#63b8ff" points="266.46,-12.62 255.96,-13.97 265.01,-19.46 266.46,-12.62"/>
</a>
</g>
</g>
</g>
</svg>
