<?xml version="1.0" encoding="UTF-8" standalone="no"?>
<!DOCTYPE svg PUBLIC "-//W3C//DTD SVG 1.1//EN"
 "http://www.w3.org/Graphics/SVG/1.1/DTD/svg11.dtd">
<!-- Generated by graphviz version 9.0.0 (20230911.1827)
 -->
<!-- Title: src/crsf_protocol.h Pages: 1 -->
<svg width="157pt" height="138pt"
 viewBox="0.00 0.00 156.75 137.75" xmlns="http://www.w3.org/2000/svg" xmlns:xlink="http://www.w3.org/1999/xlink">
<g id="graph0" class="graph" transform="scale(1 1) rotate(0) translate(4 133.75)">
<title>src/crsf_protocol.h</title>
<!-- Node1 -->
<g id="Node000001" class="node">
<title>Node1</title>
<g id="a_Node000001"><a xlink:title="Header file for the CRSF protocol implementation.">
<polygon fill="#999999" stroke="#666666" points="115.38,-129.75 19.12,-129.75 19.12,-110.5 115.38,-110.5 115.38,-129.75"/>
<text text-anchor="middle" x="67.25" y="-116.25" font-family="Helvetica,sans-Serif" font-size="10.00">src/crsf_protocol.h</text>
</a>
</g>
</g>
<!-- Node2 -->
<g id="Node000002" class="node">
<title>Node2</title>
<g id="a_Node000002"><a xlink:href="crsf_8h.html" target="_top" xlink:title="Header file for the CRSF protocol implementation.">
<polygon fill="white" stroke="#666666" points="56.5,-19.25 0,-19.25 0,0 56.5,0 56.5,-19.25"/>
<text text-anchor="middle" x="28.25" y="-5.75" font-family="Helvetica,sans-Serif" font-size="10.00">src/crsf.h</text>
</a>
</g>
</g>
<!-- Node1&#45;&gt;Node2 -->
<g id="edge1_Node000001_Node000002" class="edge">
<title>Node1&#45;&gt;Node2</title>
<g id="a_edge1_Node000001_Node000002"><a xlink:title=" ">
<path fill="none" stroke="#63b8ff" d="M44.05,-103.1C35.16,-95.57 26.01,-85.76 21.25,-74.5 13.51,-56.21 19.92,-32.48 24.54,-19.71"/>
<polygon fill="#63b8ff" stroke="#63b8ff" points="41.79,-105.78 51.83,-109.17 46.09,-100.26 41.79,-105.78"/>
</a>
</g>
</g>
<!-- Node3 -->
<g id="Node000003" class="node">
<title>Node3</title>
<g id="a_Node000003"><a xlink:href="sbus_8h.html" target="_top" xlink:title="Header file for the SBUS protocol implementation.">
<polygon fill="white" stroke="#666666" points="148.75,-19.25 87.75,-19.25 87.75,0 148.75,0 148.75,-19.25"/>
<text text-anchor="middle" x="118.25" y="-5.75" font-family="Helvetica,sans-Serif" font-size="10.00">src/sbus.h</text>
</a>
</g>
</g>
<!-- Node1&#45;&gt;Node3 -->
<g id="edge2_Node000001_Node000003" class="edge">
<title>Node1&#45;&gt;Node3</title>
<g id="a_edge2_Node000001_Node000003"><a xlink:title=" ">
<path fill="none" stroke="#63b8ff" d="M89.67,-103.22C98.6,-95.61 107.98,-85.71 113.25,-74.5 121.77,-56.38 120.78,-32.16 119.44,-19.38"/>
<polygon fill="#63b8ff" stroke="#63b8ff" points="87.6,-100.4 81.92,-109.34 91.93,-105.89 87.6,-100.4"/>
</a>
</g>
</g>
<!-- Node4 -->
<g id="Node000004" class="node">
<title>Node4</title>
<g id="a_Node000004"><a xlink:href="serialIO_8h.html" target="_top" xlink:title="Header file for serial input/output (IO) functionality.">
<polygon fill="white" stroke="#666666" points="104.12,-74.5 30.38,-74.5 30.38,-55.25 104.12,-55.25 104.12,-74.5"/>
<text text-anchor="middle" x="67.25" y="-61" font-family="Helvetica,sans-Serif" font-size="10.00">src/serialIO.h</text>
</a>
</g>
</g>
<!-- Node1&#45;&gt;Node4 -->
<g id="edge3_Node000001_Node000004" class="edge">
<title>Node1&#45;&gt;Node4</title>
<g id="a_edge3_Node000001_Node000004"><a xlink:title=" ">
<path fill="none" stroke="#63b8ff" d="M67.25,-98.88C67.25,-90.59 67.25,-81.42 67.25,-74.86"/>
<polygon fill="#63b8ff" stroke="#63b8ff" points="63.75,-98.82 67.25,-108.82 70.75,-98.82 63.75,-98.82"/>
</a>
</g>
</g>
<!-- Node4&#45;&gt;Node2 -->
<g id="edge4_Node000004_Node000002" class="edge">
<title>Node4&#45;&gt;Node2</title>
<g id="a_edge4_Node000004_Node000002"><a xlink:title=" ">
<path fill="none" stroke="#63b8ff" d="M54.11,-45.94C47.63,-37.09 40.09,-26.79 34.83,-19.61"/>
<polygon fill="#63b8ff" stroke="#63b8ff" points="51.18,-47.86 59.92,-53.86 56.83,-43.73 51.18,-47.86"/>
</a>
</g>
</g>
<!-- Node4&#45;&gt;Node3 -->
<g id="edge5_Node000004_Node000003" class="edge">
<title>Node4&#45;&gt;Node3</title>
<g id="a_edge5_Node000004_Node000003"><a xlink:title=" ">
<path fill="none" stroke="#63b8ff" d="M83.61,-46.79C92.27,-37.75 102.55,-27.02 109.65,-19.61"/>
<polygon fill="#63b8ff" stroke="#63b8ff" points="81.11,-44.35 76.72,-53.99 86.16,-49.19 81.11,-44.35"/>
</a>
</g>
</g>
</g>
</svg>
