<?xml version="1.0" encoding="UTF-8" standalone="no"?>
<!DOCTYPE svg PUBLIC "-//W3C//DTD SVG 1.1//EN"
 "http://www.w3.org/Graphics/SVG/1.1/DTD/svg11.dtd">
<!-- Generated by graphviz version 11.0.0 (20240428.1522)
 -->
<!-- Title: examples/espresiff/crsf_basic/crsf_basic.ino Pages: 1 -->
<svg width="427pt" height="260pt"
 viewBox="0.00 0.00 427.38 259.50" xmlns="http://www.w3.org/2000/svg" xmlns:xlink="http://www.w3.org/1999/xlink">
<g id="graph0" class="graph" transform="scale(1 1) rotate(0) translate(4 255.5)">
<title>examples/espresiff/crsf_basic/crsf_basic.ino</title>
<!-- Node1 -->
<g id="Node000001" class="node">
<title>Node1</title>
<g id="a_Node000001"><a xlink:title=" ">
<polygon fill="#999999" stroke="#666666" points="248.75,-251.5 121.75,-251.5 121.75,-221 248.75,-221 248.75,-251.5"/>
<text text-anchor="start" x="129.75" y="-238" font-family="Helvetica,sans-Serif" font-size="10.00">examples/espresiff</text>
<text text-anchor="middle" x="185.25" y="-226.75" font-family="Helvetica,sans-Serif" font-size="10.00">/crsf_basic/crsf_basic.ino</text>
</a>
</g>
</g>
<!-- Node2 -->
<g id="Node000002" class="node">
<title>Node2</title>
<g id="a_Node000002"><a xlink:href="SerialIO_8h.html" target="_top" xlink:title="Header file for serial input/output (IO) functionality.">
<polygon fill="white" stroke="#666666" points="214.62,-185 155.88,-185 155.88,-165.75 214.62,-165.75 214.62,-185"/>
<text text-anchor="middle" x="185.25" y="-171.5" font-family="Helvetica,sans-Serif" font-size="10.00">SerialIO.h</text>
</a>
</g>
</g>
<!-- Node1&#45;&gt;Node2 -->
<g id="edge1_Node000001_Node000002" class="edge">
<title>Node1&#45;&gt;Node2</title>
<g id="a_edge1_Node000001_Node000002"><a xlink:title=" ">
<path fill="none" stroke="#63b8ff" d="M185.25,-220.7C185.25,-213.46 185.25,-204.59 185.25,-196.69"/>
<polygon fill="#63b8ff" stroke="#63b8ff" points="188.75,-196.96 185.25,-186.96 181.75,-196.96 188.75,-196.96"/>
</a>
</g>
</g>
<!-- Node3 -->
<g id="Node000003" class="node">
<title>Node3</title>
<g id="a_Node000003"><a xlink:title=" ">
<polygon fill="#e0e0e0" stroke="#999999" points="56.5,-129.75 0,-129.75 0,-110.5 56.5,-110.5 56.5,-129.75"/>
<text text-anchor="middle" x="28.25" y="-116.25" font-family="Helvetica,sans-Serif" font-size="10.00">Arduino.h</text>
</a>
</g>
</g>
<!-- Node2&#45;&gt;Node3 -->
<g id="edge2_Node000002_Node000003" class="edge">
<title>Node2&#45;&gt;Node3</title>
<g id="a_edge2_Node000002_Node000003"><a xlink:title=" ">
<path fill="none" stroke="#63b8ff" d="M158.62,-165.34C133.13,-156.7 94.44,-143.57 65.82,-133.87"/>
<polygon fill="#63b8ff" stroke="#63b8ff" points="67.04,-130.59 56.45,-130.69 64.79,-137.22 67.04,-130.59"/>
</a>
</g>
</g>
<!-- Node4 -->
<g id="Node000004" class="node">
<title>Node4</title>
<g id="a_Node000004"><a xlink:href="crsf_8h.html" target="_top" xlink:title="Header file for the CRSF protocol implementation.">
<polygon fill="white" stroke="#666666" points="134,-129.75 74.5,-129.75 74.5,-110.5 134,-110.5 134,-129.75"/>
<text text-anchor="middle" x="104.25" y="-116.25" font-family="Helvetica,sans-Serif" font-size="10.00">crsf/crsf.h</text>
</a>
</g>
</g>
<!-- Node2&#45;&gt;Node4 -->
<g id="edge3_Node000002_Node000004" class="edge">
<title>Node2&#45;&gt;Node4</title>
<g id="a_edge3_Node000002_Node000004"><a xlink:title=" ">
<path fill="none" stroke="#63b8ff" d="M166.29,-165.34C152.71,-157.49 134.83,-145.95 121.63,-136.62"/>
<polygon fill="#63b8ff" stroke="#63b8ff" points="123.96,-133.99 113.82,-130.92 119.83,-139.64 123.96,-133.99"/>
</a>
</g>
</g>
<!-- Node7 -->
<g id="Node000007" class="node">
<title>Node7</title>
<g id="a_Node000007"><a xlink:href="fport_8h.html" target="_top" xlink:title="Header file for the FPort Protocol definations.">
<polygon fill="white" stroke="#666666" points="218,-129.75 152.5,-129.75 152.5,-110.5 218,-110.5 218,-129.75"/>
<text text-anchor="middle" x="185.25" y="-116.25" font-family="Helvetica,sans-Serif" font-size="10.00">fport/fport.h</text>
</a>
</g>
</g>
<!-- Node2&#45;&gt;Node7 -->
<g id="edge7_Node000002_Node000007" class="edge">
<title>Node2&#45;&gt;Node7</title>
<g id="a_edge7_Node000002_Node000007"><a xlink:title=" ">
<path fill="none" stroke="#63b8ff" d="M180.08,-165.58C178.67,-158.99 178.21,-149.71 178.68,-141.32"/>
<polygon fill="#63b8ff" stroke="#63b8ff" points="182.13,-141.96 179.86,-131.61 175.18,-141.12 182.13,-141.96"/>
</a>
</g>
</g>
<!-- Node9 -->
<g id="Node000009" class="node">
<title>Node9</title>
<g id="a_Node000009"><a xlink:href="ibus_8h.html" target="_top" xlink:title="Header file for the Ibus protocol implementation.">
<polygon fill="white" stroke="#666666" points="298.5,-129.75 236,-129.75 236,-110.5 298.5,-110.5 298.5,-129.75"/>
<text text-anchor="middle" x="267.25" y="-116.25" font-family="Helvetica,sans-Serif" font-size="10.00">ibus/ibus.h</text>
</a>
</g>
</g>
<!-- Node2&#45;&gt;Node9 -->
<g id="edge11_Node000002_Node000009" class="edge">
<title>Node2&#45;&gt;Node9</title>
<g id="a_edge11_Node000002_Node000009"><a xlink:title=" ">
<path fill="none" stroke="#63b8ff" d="M193.94,-165.34C204.64,-157.31 222.66,-145.41 238.25,-135.98"/>
<polygon fill="#63b8ff" stroke="#63b8ff" points="239.91,-139.07 246.74,-130.97 236.35,-133.04 239.91,-139.07"/>
</a>
</g>
</g>
<!-- Node11 -->
<g id="Node000011" class="node">
<title>Node11</title>
<g id="a_Node000011"><a xlink:href="sbus_8h.html" target="_top" xlink:title="Header file for the SBUS protocol implementation.">
<polygon fill="white" stroke="#666666" points="385.5,-129.75 317,-129.75 317,-110.5 385.5,-110.5 385.5,-129.75"/>
<text text-anchor="middle" x="351.25" y="-116.25" font-family="Helvetica,sans-Serif" font-size="10.00">sbus/sbus.h</text>
</a>
</g>
</g>
<!-- Node2&#45;&gt;Node11 -->
<g id="edge15_Node000002_Node000011" class="edge">
<title>Node2&#45;&gt;Node11</title>
<g id="a_edge15_Node000002_Node000011"><a xlink:title=" ">
<path fill="none" stroke="#63b8ff" d="M208.19,-165.34C233.67,-156.58 275.12,-143.23 306.92,-133.48"/>
<polygon fill="#63b8ff" stroke="#63b8ff" points="307.73,-136.9 316.28,-130.64 305.69,-130.2 307.73,-136.9"/>
</a>
</g>
</g>
<!-- Node4&#45;&gt;Node2 -->
<g id="edge4_Node000004_Node000002" class="edge">
<title>Node4&#45;&gt;Node2</title>
<g id="a_edge4_Node000004_Node000002"><a xlink:title=" ">
<path fill="none" stroke="#63b8ff" d="M123.28,-130.2C136.8,-138.02 154.55,-149.47 167.71,-158.76"/>
<polygon fill="#63b8ff" stroke="#63b8ff" points="165.36,-161.38 175.5,-164.45 169.49,-155.73 165.36,-161.38"/>
</a>
</g>
</g>
<!-- Node5 -->
<g id="Node000005" class="node">
<title>Node5</title>
<g id="a_Node000005"><a xlink:href="crsf__protocol_8h.html" target="_top" xlink:title="Header file for the CRSF protocol implementation.">
<polygon fill="white" stroke="#666666" points="117.12,-74.5 37.38,-74.5 37.38,-55.25 117.12,-55.25 117.12,-74.5"/>
<text text-anchor="middle" x="77.25" y="-61" font-family="Helvetica,sans-Serif" font-size="10.00">crsf_protocol.h</text>
</a>
</g>
</g>
<!-- Node4&#45;&gt;Node5 -->
<g id="edge5_Node000004_Node000005" class="edge">
<title>Node4&#45;&gt;Node5</title>
<g id="a_edge5_Node000004_Node000005"><a xlink:title=" ">
<path fill="none" stroke="#63b8ff" d="M99.79,-110.33C96.3,-103.44 91.3,-93.59 86.9,-84.91"/>
<polygon fill="#63b8ff" stroke="#63b8ff" points="90.13,-83.55 82.49,-76.21 83.89,-86.71 90.13,-83.55"/>
</a>
</g>
</g>
<!-- Node6 -->
<g id="Node000006" class="node">
<title>Node6</title>
<g id="a_Node000006"><a xlink:title=" ">
<polygon fill="#e0e0e0" stroke="#999999" points="250,-19.25 202.5,-19.25 202.5,0 250,0 250,-19.25"/>
<text text-anchor="middle" x="226.25" y="-5.75" font-family="Helvetica,sans-Serif" font-size="10.00">stdint.h</text>
</a>
</g>
</g>
<!-- Node5&#45;&gt;Node6 -->
<g id="edge6_Node000005_Node000006" class="edge">
<title>Node5&#45;&gt;Node6</title>
<g id="a_edge6_Node000005_Node000006"><a xlink:title=" ">
<path fill="none" stroke="#63b8ff" d="M102.53,-54.84C127.05,-46.08 164.44,-32.71 191.7,-22.97"/>
<polygon fill="#63b8ff" stroke="#63b8ff" points="192.67,-26.34 200.91,-19.68 190.31,-19.75 192.67,-26.34"/>
</a>
</g>
</g>
<!-- Node7&#45;&gt;Node2 -->
<g id="edge8_Node000007_Node000002" class="edge">
<title>Node7&#45;&gt;Node2</title>
<g id="a_edge8_Node000007_Node000002"><a xlink:title=" ">
<path fill="none" stroke="#63b8ff" d="M190.46,-130.11C191.85,-136.75 192.3,-146.05 191.81,-154.42"/>
<polygon fill="#63b8ff" stroke="#63b8ff" points="188.37,-153.72 190.6,-164.08 195.31,-154.59 188.37,-153.72"/>
</a>
</g>
</g>
<!-- Node8 -->
<g id="Node000008" class="node">
<title>Node8</title>
<g id="a_Node000008"><a xlink:href="fport__protocol_8h.html" target="_top" xlink:title="Header file for the F.Port protocol implementation.">
<polygon fill="white" stroke="#666666" points="217.62,-74.5 134.88,-74.5 134.88,-55.25 217.62,-55.25 217.62,-74.5"/>
<text text-anchor="middle" x="176.25" y="-61" font-family="Helvetica,sans-Serif" font-size="10.00">fport_protocol.h</text>
</a>
</g>
</g>
<!-- Node7&#45;&gt;Node8 -->
<g id="edge9_Node000007_Node000008" class="edge">
<title>Node7&#45;&gt;Node8</title>
<g id="a_edge9_Node000007_Node000008"><a xlink:title=" ">
<path fill="none" stroke="#63b8ff" d="M183.76,-110.33C182.65,-103.74 181.08,-94.46 179.66,-86.07"/>
<polygon fill="#63b8ff" stroke="#63b8ff" points="183.14,-85.63 178.02,-76.35 176.24,-86.8 183.14,-85.63"/>
</a>
</g>
</g>
<!-- Node8&#45;&gt;Node6 -->
<g id="edge10_Node000008_Node000006" class="edge">
<title>Node8&#45;&gt;Node6</title>
<g id="a_edge10_Node000008_Node000006"><a xlink:title=" ">
<path fill="none" stroke="#63b8ff" d="M184.51,-55.08C191.41,-47.73 201.47,-37.01 209.99,-27.94"/>
<polygon fill="#63b8ff" stroke="#63b8ff" points="212.48,-30.4 216.78,-20.71 207.38,-25.61 212.48,-30.4"/>
</a>
</g>
</g>
<!-- Node9&#45;&gt;Node2 -->
<g id="edge12_Node000009_Node000002" class="edge">
<title>Node9&#45;&gt;Node2</title>
<g id="a_edge12_Node000009_Node000002"><a xlink:title=" ">
<path fill="none" stroke="#63b8ff" d="M258.73,-130.02C248.06,-138.06 229.91,-150.05 214.23,-159.54"/>
<polygon fill="#63b8ff" stroke="#63b8ff" points="212.52,-156.48 205.68,-164.57 216.07,-162.51 212.52,-156.48"/>
</a>
</g>
</g>
<!-- Node10 -->
<g id="Node000010" class="node">
<title>Node10</title>
<g id="a_Node000010"><a xlink:href="ibus__protocol_8h.html" target="_top" xlink:title="Header file for the iBus protocol implementation.">
<polygon fill="white" stroke="#666666" points="316.88,-74.5 235.62,-74.5 235.62,-55.25 316.88,-55.25 316.88,-74.5"/>
<text text-anchor="middle" x="276.25" y="-61" font-family="Helvetica,sans-Serif" font-size="10.00">ibus_protocol.h</text>
</a>
</g>
</g>
<!-- Node9&#45;&gt;Node10 -->
<g id="edge13_Node000009_Node000010" class="edge">
<title>Node9&#45;&gt;Node10</title>
<g id="a_edge13_Node000009_Node000010"><a xlink:title=" ">
<path fill="none" stroke="#63b8ff" d="M268.74,-110.33C269.85,-103.74 271.42,-94.46 272.84,-86.07"/>
<polygon fill="#63b8ff" stroke="#63b8ff" points="276.26,-86.8 274.48,-76.35 269.36,-85.63 276.26,-86.8"/>
</a>
</g>
</g>
<!-- Node10&#45;&gt;Node6 -->
<g id="edge14_Node000010_Node000006" class="edge">
<title>Node10&#45;&gt;Node6</title>
<g id="a_edge14_Node000010_Node000006"><a xlink:title=" ">
<path fill="none" stroke="#63b8ff" d="M267.99,-55.08C261.09,-47.73 251.03,-37.01 242.51,-27.94"/>
<polygon fill="#63b8ff" stroke="#63b8ff" points="245.12,-25.61 235.72,-20.71 240.02,-30.4 245.12,-25.61"/>
</a>
</g>
</g>
<!-- Node11&#45;&gt;Node2 -->
<g id="edge16_Node000011_Node000002" class="edge">
<title>Node11&#45;&gt;Node2</title>
<g id="a_edge16_Node000011_Node000002"><a xlink:title=" ">
<path fill="none" stroke="#63b8ff" d="M328.12,-130.22C301.63,-139.32 258.07,-153.34 225.93,-163.13"/>
<polygon fill="#63b8ff" stroke="#63b8ff" points="225.1,-159.73 216.53,-165.97 227.12,-166.43 225.1,-159.73"/>
</a>
</g>
</g>
<!-- Node12 -->
<g id="Node000012" class="node">
<title>Node12</title>
<g id="a_Node000012"><a xlink:href="sbus__protocol_8h.html" target="_top" xlink:title="Header file for the SBus protocol implementation.">
<polygon fill="white" stroke="#666666" points="419.38,-74.5 335.12,-74.5 335.12,-55.25 419.38,-55.25 419.38,-74.5"/>
<text text-anchor="middle" x="377.25" y="-61" font-family="Helvetica,sans-Serif" font-size="10.00">sbus_protocol.h</text>
</a>
</g>
</g>
<!-- Node11&#45;&gt;Node12 -->
<g id="edge17_Node000011_Node000012" class="edge">
<title>Node11&#45;&gt;Node12</title>
<g id="a_edge17_Node000011_Node000012"><a xlink:title=" ">
<path fill="none" stroke="#63b8ff" d="M355.54,-110.33C358.87,-103.51 363.61,-93.81 367.81,-85.2"/>
<polygon fill="#63b8ff" stroke="#63b8ff" points="370.96,-86.74 372.2,-76.22 364.67,-83.67 370.96,-86.74"/>
</a>
</g>
</g>
<!-- Node12&#45;&gt;Node6 -->
<g id="edge18_Node000012_Node000006" class="edge">
<title>Node12&#45;&gt;Node6</title>
<g id="a_edge18_Node000012_Node000006"><a xlink:title=" ">
<path fill="none" stroke="#63b8ff" d="M351.63,-54.84C326.79,-46.08 288.89,-32.71 261.26,-22.97"/>
<polygon fill="#63b8ff" stroke="#63b8ff" points="262.51,-19.7 251.92,-19.68 260.18,-26.3 262.51,-19.7"/>
</a>
</g>
</g>
</g>
</svg>
