<?xml version="1.0" encoding="UTF-8" standalone="no"?>
<!DOCTYPE svg PUBLIC "-//W3C//DTD SVG 1.1//EN"
 "http://www.w3.org/Graphics/SVG/1.1/DTD/svg11.dtd">
<!-- Generated by graphviz version 12.2.1 (20241206.2353)
 -->
<!-- Title: src/crsf/crsf.h Pages: 1 -->
<svg width="396pt" height="248pt"
 viewBox="0.00 0.00 396.12 248.25" xmlns="http://www.w3.org/2000/svg" xmlns:xlink="http://www.w3.org/1999/xlink">
<g id="graph0" class="graph" transform="scale(1 1) rotate(0) translate(4 244.25)">
<title>src/crsf/crsf.h</title>
<!-- Node1 -->
<g id="Node000001" class="node">
<title>Node1</title>
<g id="a_Node000001"><a xlink:title="Header file for the CRSF protocol implementation.">
<polygon fill="#999999" stroke="#666666" points="263.25,-240.25 187.25,-240.25 187.25,-221 263.25,-221 263.25,-240.25"/>
<text text-anchor="middle" x="225.25" y="-226.75" font-family="Helvetica,sans-Serif" font-size="10.00">src/crsf/crsf.h</text>
</a>
</g>
</g>
<!-- Node2 -->
<g id="Node000002" class="node">
<title>Node2</title>
<g id="a_Node000002"><a xlink:href="SerialIO_8h.html" target="_top" xlink:title="Header file for serial input/output (IO) functionality.">
<polygon fill="white" stroke="#666666" points="258.38,-185 192.12,-185 192.12,-165.75 258.38,-165.75 258.38,-185"/>
<text text-anchor="middle" x="225.25" y="-171.5" font-family="Helvetica,sans-Serif" font-size="10.00">../SerialIO.h</text>
</a>
</g>
</g>
<!-- Node1&#45;&gt;Node2 -->
<g id="edge1_Node000001_Node000002" class="edge">
<title>Node1&#45;&gt;Node2</title>
<g id="a_edge1_Node000001_Node000002"><a xlink:title=" ">
<path fill="none" stroke="#63b8ff" d="M220.08,-220.83C218.67,-214.24 218.21,-204.96 218.68,-196.57"/>
<polygon fill="#63b8ff" stroke="#63b8ff" points="222.13,-197.21 219.86,-186.86 215.18,-196.37 222.13,-197.21"/>
</a>
</g>
</g>
<!-- Node11 -->
<g id="Node000011" class="node">
<title>Node11</title>
<g id="a_Node000011"><a xlink:href="crsf__protocol_8h.html" target="_top" xlink:title="Header file for the CRSF protocol implementation.">
<polygon fill="white" stroke="#666666" points="388.12,-185 308.38,-185 308.38,-165.75 388.12,-165.75 388.12,-185"/>
<text text-anchor="middle" x="348.25" y="-171.5" font-family="Helvetica,sans-Serif" font-size="10.00">crsf_protocol.h</text>
</a>
</g>
</g>
<!-- Node1&#45;&gt;Node11 -->
<g id="edge17_Node000001_Node000011" class="edge">
<title>Node1&#45;&gt;Node11</title>
<g id="a_edge17_Node000001_Node000011"><a xlink:title=" ">
<path fill="none" stroke="#63b8ff" d="M246.12,-220.59C265.55,-212.18 294.79,-199.52 317.01,-189.9"/>
<polygon fill="#63b8ff" stroke="#63b8ff" points="318.11,-193.24 325.89,-186.05 315.33,-186.81 318.11,-193.24"/>
</a>
</g>
</g>
<!-- Node2&#45;&gt;Node1 -->
<g id="edge5_Node000002_Node000001" class="edge">
<title>Node2&#45;&gt;Node1</title>
<g id="a_edge5_Node000002_Node000001"><a xlink:title=" ">
<path fill="none" stroke="#63b8ff" d="M230.46,-185.36C231.85,-192 232.3,-201.3 231.81,-209.67"/>
<polygon fill="#63b8ff" stroke="#63b8ff" points="228.37,-208.97 230.6,-219.33 235.31,-209.84 228.37,-208.97"/>
</a>
</g>
</g>
<!-- Node3 -->
<g id="Node000003" class="node">
<title>Node3</title>
<g id="a_Node000003"><a xlink:title=" ">
<polygon fill="#e0e0e0" stroke="#999999" points="56.5,-129.75 0,-129.75 0,-110.5 56.5,-110.5 56.5,-129.75"/>
<text text-anchor="middle" x="28.25" y="-116.25" font-family="Helvetica,sans-Serif" font-size="10.00">Arduino.h</text>
</a>
</g>
</g>
<!-- Node2&#45;&gt;Node3 -->
<g id="edge2_Node000002_Node000003" class="edge">
<title>Node2&#45;&gt;Node3</title>
<g id="a_edge2_Node000002_Node000003"><a xlink:title=" ">
<path fill="none" stroke="#63b8ff" d="M191.83,-165.34C157.41,-156.04 103.8,-141.55 67.41,-131.71"/>
<polygon fill="#63b8ff" stroke="#63b8ff" points="68.74,-128.44 58.17,-129.21 66.91,-135.2 68.74,-128.44"/>
</a>
</g>
</g>
<!-- Node4 -->
<g id="Node000004" class="node">
<title>Node4</title>
<g id="a_Node000004"><a xlink:href="ibus__protocol_8h.html" target="_top" xlink:title="Header file for the iBus protocol implementation.">
<polygon fill="white" stroke="#666666" points="148.38,-74.5 46.12,-74.5 46.12,-55.25 148.38,-55.25 148.38,-74.5"/>
<text text-anchor="middle" x="97.25" y="-61" font-family="Helvetica,sans-Serif" font-size="10.00">ibus/ibus_protocol.h</text>
</a>
</g>
</g>
<!-- Node2&#45;&gt;Node4 -->
<g id="edge3_Node000002_Node000004" class="edge">
<title>Node2&#45;&gt;Node4</title>
<g id="a_edge3_Node000002_Node000004"><a xlink:title=" ">
<path fill="none" stroke="#63b8ff" d="M191.85,-171.75C163.53,-167.61 124.25,-156.99 103.25,-129.75 93.77,-117.46 92.83,-99.62 93.95,-85.92"/>
<polygon fill="#63b8ff" stroke="#63b8ff" points="97.38,-86.64 95.17,-76.28 90.44,-85.76 97.38,-86.64"/>
</a>
</g>
</g>
<!-- Node6 -->
<g id="Node000006" class="node">
<title>Node6</title>
<g id="a_Node000006"><a xlink:href="fport_8h.html" target="_top" xlink:title="Header file for the FPort Protocol definations.">
<polygon fill="white" stroke="#666666" points="258,-129.75 192.5,-129.75 192.5,-110.5 258,-110.5 258,-129.75"/>
<text text-anchor="middle" x="225.25" y="-116.25" font-family="Helvetica,sans-Serif" font-size="10.00">fport/fport.h</text>
</a>
</g>
</g>
<!-- Node2&#45;&gt;Node6 -->
<g id="edge6_Node000002_Node000006" class="edge">
<title>Node2&#45;&gt;Node6</title>
<g id="a_edge6_Node000002_Node000006"><a xlink:title=" ">
<path fill="none" stroke="#63b8ff" d="M220.08,-165.58C218.67,-158.99 218.21,-149.71 218.68,-141.32"/>
<polygon fill="#63b8ff" stroke="#63b8ff" points="222.13,-141.96 219.86,-131.61 215.18,-141.12 222.13,-141.96"/>
</a>
</g>
</g>
<!-- Node8 -->
<g id="Node000008" class="node">
<title>Node8</title>
<g id="a_Node000008"><a xlink:href="ibus_8h.html" target="_top" xlink:title="Header file for the Ibus protocol implementation.">
<polygon fill="white" stroke="#666666" points="174.5,-129.75 112,-129.75 112,-110.5 174.5,-110.5 174.5,-129.75"/>
<text text-anchor="middle" x="143.25" y="-116.25" font-family="Helvetica,sans-Serif" font-size="10.00">ibus/ibus.h</text>
</a>
</g>
</g>
<!-- Node2&#45;&gt;Node8 -->
<g id="edge10_Node000002_Node000008" class="edge">
<title>Node2&#45;&gt;Node8</title>
<g id="a_edge10_Node000002_Node000008"><a xlink:title=" ">
<path fill="none" stroke="#63b8ff" d="M206.12,-165.34C192.4,-157.49 174.3,-145.95 160.92,-136.62"/>
<polygon fill="#63b8ff" stroke="#63b8ff" points="163.15,-133.92 152.99,-130.91 159.06,-139.6 163.15,-133.92"/>
</a>
</g>
</g>
<!-- Node9 -->
<g id="Node000009" class="node">
<title>Node9</title>
<g id="a_Node000009"><a xlink:href="sbus_8h.html" target="_top" xlink:title="Header file for the SBUS protocol implementation.">
<polygon fill="white" stroke="#666666" points="344.5,-129.75 276,-129.75 276,-110.5 344.5,-110.5 344.5,-129.75"/>
<text text-anchor="middle" x="310.25" y="-116.25" font-family="Helvetica,sans-Serif" font-size="10.00">sbus/sbus.h</text>
</a>
</g>
</g>
<!-- Node2&#45;&gt;Node9 -->
<g id="edge13_Node000002_Node000009" class="edge">
<title>Node2&#45;&gt;Node9</title>
<g id="a_edge13_Node000002_Node000009"><a xlink:title=" ">
<path fill="none" stroke="#63b8ff" d="M234.45,-165.34C245.71,-157.23 264.65,-145.18 280.87,-135.71"/>
<polygon fill="#63b8ff" stroke="#63b8ff" points="282.27,-138.95 289.22,-130.95 278.8,-132.86 282.27,-138.95"/>
</a>
</g>
</g>
<!-- Node5 -->
<g id="Node000005" class="node">
<title>Node5</title>
<g id="a_Node000005"><a xlink:title=" ">
<polygon fill="#e0e0e0" stroke="#999999" points="283,-19.25 235.5,-19.25 235.5,0 283,0 283,-19.25"/>
<text text-anchor="middle" x="259.25" y="-5.75" font-family="Helvetica,sans-Serif" font-size="10.00">stdint.h</text>
</a>
</g>
</g>
<!-- Node4&#45;&gt;Node5 -->
<g id="edge4_Node000004_Node000005" class="edge">
<title>Node4&#45;&gt;Node5</title>
<g id="a_edge4_Node000004_Node000005"><a xlink:title=" ">
<path fill="none" stroke="#63b8ff" d="M124.73,-54.84C152.19,-45.82 194.49,-31.91 224.32,-22.11"/>
<polygon fill="#63b8ff" stroke="#63b8ff" points="225.23,-25.49 233.64,-19.04 223.05,-18.84 225.23,-25.49"/>
</a>
</g>
</g>
<!-- Node6&#45;&gt;Node2 -->
<g id="edge7_Node000006_Node000002" class="edge">
<title>Node6&#45;&gt;Node2</title>
<g id="a_edge7_Node000006_Node000002"><a xlink:title=" ">
<path fill="none" stroke="#63b8ff" d="M230.46,-130.11C231.85,-136.75 232.3,-146.05 231.81,-154.42"/>
<polygon fill="#63b8ff" stroke="#63b8ff" points="228.37,-153.72 230.6,-164.08 235.31,-154.59 228.37,-153.72"/>
</a>
</g>
</g>
<!-- Node7 -->
<g id="Node000007" class="node">
<title>Node7</title>
<g id="a_Node000007"><a xlink:href="fport__protocol_8h.html" target="_top" xlink:title="Header file for the F.Port protocol implementation.">
<polygon fill="white" stroke="#666666" points="249.62,-74.5 166.88,-74.5 166.88,-55.25 249.62,-55.25 249.62,-74.5"/>
<text text-anchor="middle" x="208.25" y="-61" font-family="Helvetica,sans-Serif" font-size="10.00">fport_protocol.h</text>
</a>
</g>
</g>
<!-- Node6&#45;&gt;Node7 -->
<g id="edge8_Node000006_Node000007" class="edge">
<title>Node6&#45;&gt;Node7</title>
<g id="a_edge8_Node000006_Node000007"><a xlink:title=" ">
<path fill="none" stroke="#63b8ff" d="M222.44,-110.33C220.31,-103.67 217.31,-94.24 214.61,-85.78"/>
<polygon fill="#63b8ff" stroke="#63b8ff" points="217.95,-84.76 211.58,-76.3 211.29,-86.89 217.95,-84.76"/>
</a>
</g>
</g>
<!-- Node7&#45;&gt;Node5 -->
<g id="edge9_Node000007_Node000005" class="edge">
<title>Node7&#45;&gt;Node5</title>
<g id="a_edge9_Node000007_Node000005"><a xlink:title=" ">
<path fill="none" stroke="#63b8ff" d="M216.67,-55.08C223.79,-47.65 234.19,-36.79 242.94,-27.66"/>
<polygon fill="#63b8ff" stroke="#63b8ff" points="245.21,-30.35 249.6,-20.7 240.15,-25.5 245.21,-30.35"/>
</a>
</g>
</g>
<!-- Node8&#45;&gt;Node2 -->
<g id="edge11_Node000008_Node000002" class="edge">
<title>Node8&#45;&gt;Node2</title>
<g id="a_edge11_Node000008_Node000002"><a xlink:title=" ">
<path fill="none" stroke="#63b8ff" d="M162.45,-130.2C176.11,-138.02 194.08,-149.47 207.41,-158.76"/>
<polygon fill="#63b8ff" stroke="#63b8ff" points="205.17,-161.46 215.33,-164.46 209.26,-155.77 205.17,-161.46"/>
</a>
</g>
</g>
<!-- Node8&#45;&gt;Node4 -->
<g id="edge12_Node000008_Node000004" class="edge">
<title>Node8&#45;&gt;Node4</title>
<g id="a_edge12_Node000008_Node000004"><a xlink:title=" ">
<path fill="none" stroke="#63b8ff" d="M135.65,-110.33C129.37,-103.05 120.24,-92.48 112.45,-83.48"/>
<polygon fill="#63b8ff" stroke="#63b8ff" points="115.19,-81.28 106,-76 109.89,-85.86 115.19,-81.28"/>
</a>
</g>
</g>
<!-- Node9&#45;&gt;Node2 -->
<g id="edge14_Node000009_Node000002" class="edge">
<title>Node9&#45;&gt;Node2</title>
<g id="a_edge14_Node000009_Node000002"><a xlink:title=" ">
<path fill="none" stroke="#63b8ff" d="M301.23,-130.02C290,-138.14 270.92,-150.28 254.6,-159.81"/>
<polygon fill="#63b8ff" stroke="#63b8ff" points="253.16,-156.6 246.2,-164.59 256.62,-162.68 253.16,-156.6"/>
</a>
</g>
</g>
<!-- Node10 -->
<g id="Node000010" class="node">
<title>Node10</title>
<g id="a_Node000010"><a xlink:href="sbus__protocol_8h.html" target="_top" xlink:title="Header file for the SBus protocol implementation.">
<polygon fill="white" stroke="#666666" points="352.38,-74.5 268.12,-74.5 268.12,-55.25 352.38,-55.25 352.38,-74.5"/>
<text text-anchor="middle" x="310.25" y="-61" font-family="Helvetica,sans-Serif" font-size="10.00">sbus_protocol.h</text>
</a>
</g>
</g>
<!-- Node9&#45;&gt;Node10 -->
<g id="edge15_Node000009_Node000010" class="edge">
<title>Node9&#45;&gt;Node10</title>
<g id="a_edge15_Node000009_Node000010"><a xlink:title=" ">
<path fill="none" stroke="#63b8ff" d="M310.25,-110.33C310.25,-103.82 310.25,-94.67 310.25,-86.37"/>
<polygon fill="#63b8ff" stroke="#63b8ff" points="313.75,-86.37 310.25,-76.37 306.75,-86.37 313.75,-86.37"/>
</a>
</g>
</g>
<!-- Node10&#45;&gt;Node5 -->
<g id="edge16_Node000010_Node000005" class="edge">
<title>Node10&#45;&gt;Node5</title>
<g id="a_edge16_Node000010_Node000005"><a xlink:title=" ">
<path fill="none" stroke="#63b8ff" d="M301.83,-55.08C294.71,-47.65 284.31,-36.79 275.56,-27.66"/>
<polygon fill="#63b8ff" stroke="#63b8ff" points="278.35,-25.5 268.9,-20.7 273.29,-30.35 278.35,-25.5"/>
</a>
</g>
</g>
<!-- Node11&#45;&gt;Node5 -->
<g id="edge18_Node000011_Node000005" class="edge">
<title>Node11&#45;&gt;Node5</title>
<g id="a_edge18_Node000011_Node000005"><a xlink:title=" ">
<path fill="none" stroke="#63b8ff" d="M352.81,-165.4C362.86,-144.26 384.25,-90.42 361.25,-55.25 346.59,-32.83 317.91,-21.61 294.68,-16.03"/>
<polygon fill="#63b8ff" stroke="#63b8ff" points="295.46,-12.62 284.96,-13.97 294.01,-19.46 295.46,-12.62"/>
</a>
</g>
</g>
</g>
</svg>
