<?xml version="1.0" encoding="UTF-8" standalone="no"?>
<!DOCTYPE svg PUBLIC "-//W3C//DTD SVG 1.1//EN"
 "http://www.w3.org/Graphics/SVG/1.1/DTD/svg11.dtd">
<!-- Generated by graphviz version 11.0.0 (20240428.1522)
 -->
<!-- Title: src/crsf.h Pages: 1 -->
<svg width="320pt" height="149pt"
 viewBox="0.00 0.00 320.12 149.00" xmlns="http://www.w3.org/2000/svg" xmlns:xlink="http://www.w3.org/1999/xlink">
<g id="graph0" class="graph" transform="scale(1 1) rotate(0) translate(4 145)">
<title>src/crsf.h</title>
<!-- Node1 -->
<g id="Node000001" class="node">
<title>Node1</title>
<g id="a_Node000001"><a xlink:title="Header file for the CRSF protocol implementation.">
<polygon fill="#999999" stroke="#666666" points="257.88,-141 201.38,-141 201.38,-121.75 257.88,-121.75 257.88,-141"/>
<text text-anchor="middle" x="229.62" y="-127.5" font-family="Helvetica,sans-Serif" font-size="10.00">src/crsf.h</text>
</a>
</g>
</g>
<!-- Node2 -->
<g id="Node000002" class="node">
<title>Node2</title>
<g id="a_Node000002"><a xlink:href="SerialIO_8h.html" target="_top" xlink:title="Header file for serial input/output (IO) functionality.">
<polygon fill="white" stroke="#666666" points="267.25,-85.75 192,-85.75 192,-66.5 267.25,-66.5 267.25,-85.75"/>
<text text-anchor="middle" x="229.62" y="-72.25" font-family="Helvetica,sans-Serif" font-size="10.00">src/SerialIO.h</text>
</a>
</g>
</g>
<!-- Node1&#45;&gt;Node2 -->
<g id="edge1_Node000001_Node000002" class="edge">
<title>Node1&#45;&gt;Node2</title>
<g id="a_edge1_Node000001_Node000002"><a xlink:title=" ">
<path fill="none" stroke="#63b8ff" d="M223.07,-110.42C222.58,-102.05 223.03,-92.75 224.42,-86.11"/>
<polygon fill="#63b8ff" stroke="#63b8ff" points="219.56,-110.59 224.27,-120.08 226.51,-109.72 219.56,-110.59"/>
</a>
</g>
</g>
<!-- Node2&#45;&gt;Node1 -->
<g id="edge4_Node000002_Node000001" class="edge">
<title>Node2&#45;&gt;Node1</title>
<g id="a_edge4_Node000002_Node000001"><a xlink:title=" ">
<path fill="none" stroke="#63b8ff" d="M236.2,-97.32C236.67,-105.71 236.2,-114.99 234.79,-121.58"/>
<polygon fill="#63b8ff" stroke="#63b8ff" points="239.7,-97.12 235.01,-87.61 232.75,-97.96 239.7,-97.12"/>
</a>
</g>
</g>
<!-- Node3 -->
<g id="Node000003" class="node">
<title>Node3</title>
<g id="a_Node000003"><a xlink:href="crsf__basic_8ino.html" target="_top" xlink:title=" ">
<polygon fill="white" stroke="#666666" points="105.25,-30.5 0,-30.5 0,0 105.25,0 105.25,-30.5"/>
<text text-anchor="start" x="8" y="-17" font-family="Helvetica,sans-Serif" font-size="10.00">examples/crsf_basic</text>
<text text-anchor="middle" x="52.62" y="-5.75" font-family="Helvetica,sans-Serif" font-size="10.00">/crsf_basic.ino</text>
</a>
</g>
</g>
<!-- Node2&#45;&gt;Node3 -->
<g id="edge2_Node000002_Node000003" class="edge">
<title>Node2&#45;&gt;Node3</title>
<g id="a_edge2_Node000002_Node000003"><a xlink:title=" ">
<path fill="none" stroke="#63b8ff" d="M191.48,-62.44C163.67,-53.19 125.92,-40.63 96.8,-30.94"/>
<polygon fill="#63b8ff" stroke="#63b8ff" points="190.33,-65.74 200.92,-65.58 192.54,-59.1 190.33,-65.74"/>
</a>
</g>
</g>
<!-- Node4 -->
<g id="Node000004" class="node">
<title>Node4</title>
<g id="a_Node000004"><a xlink:href="sbus__basic_8ino.html" target="_top" xlink:title=" ">
<polygon fill="white" stroke="#666666" points="233.5,-30.5 123.75,-30.5 123.75,0 233.5,0 233.5,-30.5"/>
<text text-anchor="start" x="131.75" y="-17" font-family="Helvetica,sans-Serif" font-size="10.00">examples/sbus_basic</text>
<text text-anchor="middle" x="178.62" y="-5.75" font-family="Helvetica,sans-Serif" font-size="10.00">/sbus_basic.ino</text>
</a>
</g>
</g>
<!-- Node2&#45;&gt;Node4 -->
<g id="edge3_Node000002_Node000004" class="edge">
<title>Node2&#45;&gt;Node4</title>
<g id="a_edge3_Node000002_Node000004"><a xlink:title=" ">
<path fill="none" stroke="#63b8ff" d="M214.53,-57.7C207.11,-49.13 198.27,-38.92 191.21,-30.78"/>
<polygon fill="#63b8ff" stroke="#63b8ff" points="211.7,-59.77 220.89,-65.04 216.99,-55.19 211.7,-59.77"/>
</a>
</g>
</g>
<!-- Node5 -->
<g id="Node000005" class="node">
<title>Node5</title>
<g id="a_Node000005"><a xlink:href="sbus_8h.html" target="_top" xlink:title="Header file for the SBUS protocol implementation.">
<polygon fill="white" stroke="#666666" points="312.12,-24.88 251.12,-24.88 251.12,-5.63 312.12,-5.63 312.12,-24.88"/>
<text text-anchor="middle" x="281.62" y="-11.38" font-family="Helvetica,sans-Serif" font-size="10.00">src/sbus.h</text>
</a>
</g>
</g>
<!-- Node2&#45;&gt;Node5 -->
<g id="edge5_Node000002_Node000005" class="edge">
<title>Node2&#45;&gt;Node5</title>
<g id="a_edge5_Node000002_Node000005"><a xlink:title=" ">
<path fill="none" stroke="#63b8ff" d="M239.34,-57.01C247.73,-46.49 259.45,-33.69 268.63,-25.28"/>
<polygon fill="#63b8ff" stroke="#63b8ff" points="236.58,-54.86 233.42,-64.97 242.19,-59.04 236.58,-54.86"/>
</a>
</g>
</g>
<!-- Node5&#45;&gt;Node2 -->
<g id="edge6_Node000005_Node000002" class="edge">
<title>Node5&#45;&gt;Node2</title>
<g id="a_edge6_Node000005_Node000002"><a xlink:title=" ">
<path fill="none" stroke="#63b8ff" d="M271.83,-34.47C263.42,-45.01 251.69,-57.8 242.53,-66.18"/>
<polygon fill="#63b8ff" stroke="#63b8ff" points="274.61,-36.6 277.78,-26.49 268.99,-32.42 274.61,-36.6"/>
</a>
</g>
</g>
</g>
</svg>
