<?xml version="1.0" encoding="UTF-8" standalone="no"?>
<!DOCTYPE svg PUBLIC "-//W3C//DTD SVG 1.1//EN"
 "http://www.w3.org/Graphics/SVG/1.1/DTD/svg11.dtd">
<!-- Generated by graphviz version 11.0.0 (20240428.1522)
 -->
<!-- Title: src/crsf.h Pages: 1 -->
<svg width="158pt" height="248pt"
 viewBox="0.00 0.00 158.40 248.25" xmlns="http://www.w3.org/2000/svg" xmlns:xlink="http://www.w3.org/1999/xlink">
<g id="graph0" class="graph" transform="scale(1 1) rotate(0) translate(4 244.25)">
<title>src/crsf.h</title>
<!-- Node1 -->
<g id="Node000001" class="node">
<title>Node1</title>
<g id="a_Node000001"><a xlink:title="Header file for the CRSF protocol implementation.">
<polygon fill="#999999" stroke="#666666" points="131.78,-240.25 75.28,-240.25 75.28,-221 131.78,-221 131.78,-240.25"/>
<text text-anchor="middle" x="103.53" y="-226.75" font-family="Helvetica,sans-Serif" font-size="10.00">src/crsf.h</text>
</a>
</g>
</g>
<!-- Node2 -->
<g id="Node000002" class="node">
<title>Node2</title>
<g id="a_Node000002"><a xlink:href="SerialIO_8h.html" target="_top" xlink:title="Header file for serial input/output (IO) functionality.">
<polygon fill="white" stroke="#666666" points="132.9,-185 74.15,-185 74.15,-165.75 132.9,-165.75 132.9,-185"/>
<text text-anchor="middle" x="103.53" y="-171.5" font-family="Helvetica,sans-Serif" font-size="10.00">SerialIO.h</text>
</a>
</g>
</g>
<!-- Node1&#45;&gt;Node2 -->
<g id="edge1_Node000001_Node000002" class="edge">
<title>Node1&#45;&gt;Node2</title>
<g id="a_edge1_Node000001_Node000002"><a xlink:title=" ">
<path fill="none" stroke="#63b8ff" d="M98.36,-220.83C96.95,-214.24 96.48,-204.96 96.96,-196.57"/>
<polygon fill="#63b8ff" stroke="#63b8ff" points="100.4,-197.21 98.14,-186.86 93.46,-196.37 100.4,-197.21"/>
</a>
</g>
</g>
<!-- Node3 -->
<g id="Node000003" class="node">
<title>Node3</title>
<g id="a_Node000003"><a xlink:href="crsf__protocol_8h.html" target="_top" xlink:title="Header file for the CRSF protocol implementation.">
<polygon fill="white" stroke="#666666" points="150.4,-74.5 70.65,-74.5 70.65,-55.25 150.4,-55.25 150.4,-74.5"/>
<text text-anchor="middle" x="110.53" y="-61" font-family="Helvetica,sans-Serif" font-size="10.00">crsf_protocol.h</text>
</a>
</g>
</g>
<!-- Node1&#45;&gt;Node3 -->
<g id="edge9_Node000001_Node000003" class="edge">
<title>Node1&#45;&gt;Node3</title>
<g id="a_edge9_Node000001_Node000003"><a xlink:title=" ">
<path fill="none" stroke="#63b8ff" d="M114.6,-220.7C123.79,-212.53 136.19,-199.52 141.53,-185 152.97,-153.93 151.43,-142.1 141.53,-110.5 138.47,-100.75 132.46,-91.27 126.53,-83.57"/>
<polygon fill="#63b8ff" stroke="#63b8ff" points="129.36,-81.49 120.27,-76.04 123.98,-85.97 129.36,-81.49"/>
</a>
</g>
</g>
<!-- Node2&#45;&gt;Node1 -->
<g id="edge5_Node000002_Node000001" class="edge">
<title>Node2&#45;&gt;Node1</title>
<g id="a_edge5_Node000002_Node000001"><a xlink:title=" ">
<path fill="none" stroke="#63b8ff" d="M108.73,-185.36C110.13,-192 110.58,-201.3 110.09,-209.67"/>
<polygon fill="#63b8ff" stroke="#63b8ff" points="106.65,-208.97 108.88,-219.33 113.59,-209.84 106.65,-208.97"/>
</a>
</g>
</g>
<!-- Node2&#45;&gt;Node3 -->
<g id="edge2_Node000002_Node000003" class="edge">
<title>Node2&#45;&gt;Node3</title>
<g id="a_edge2_Node000002_Node000003"><a xlink:title=" ">
<path fill="none" stroke="#63b8ff" d="M73.81,-168.12C37.96,-159.11 -15.22,-140.23 4.53,-110.5 16.89,-91.89 38.69,-81.02 59.32,-74.68"/>
<polygon fill="#63b8ff" stroke="#63b8ff" points="60.09,-78.1 68.81,-72.09 58.24,-71.35 60.09,-78.1"/>
</a>
</g>
</g>
<!-- Node5 -->
<g id="Node000005" class="node">
<title>Node5</title>
<g id="a_Node000005"><a xlink:title=" ">
<polygon fill="#e0e0e0" stroke="#999999" points="69.78,-129.75 13.28,-129.75 13.28,-110.5 69.78,-110.5 69.78,-129.75"/>
<text text-anchor="middle" x="41.53" y="-116.25" font-family="Helvetica,sans-Serif" font-size="10.00">Arduino.h</text>
</a>
</g>
</g>
<!-- Node2&#45;&gt;Node5 -->
<g id="edge4_Node000002_Node000005" class="edge">
<title>Node2&#45;&gt;Node5</title>
<g id="a_edge4_Node000002_Node000005"><a xlink:title=" ">
<path fill="none" stroke="#63b8ff" d="M93.01,-165.34C84.14,-157.72 71.22,-146.62 60.54,-137.45"/>
<polygon fill="#63b8ff" stroke="#63b8ff" points="62.9,-134.87 53.04,-131.01 58.34,-140.18 62.9,-134.87"/>
</a>
</g>
</g>
<!-- Node6 -->
<g id="Node000006" class="node">
<title>Node6</title>
<g id="a_Node000006"><a xlink:href="sbus_8h.html" target="_top" xlink:title="Header file for the SBUS protocol implementation.">
<polygon fill="white" stroke="#666666" points="132.78,-129.75 88.28,-129.75 88.28,-110.5 132.78,-110.5 132.78,-129.75"/>
<text text-anchor="middle" x="110.53" y="-116.25" font-family="Helvetica,sans-Serif" font-size="10.00">sbus.h</text>
</a>
</g>
</g>
<!-- Node2&#45;&gt;Node6 -->
<g id="edge6_Node000002_Node000006" class="edge">
<title>Node2&#45;&gt;Node6</title>
<g id="a_edge6_Node000002_Node000006"><a xlink:title=" ">
<path fill="none" stroke="#63b8ff" d="M99.52,-165.58C98.97,-158.92 99.74,-149.49 101.36,-141.03"/>
<polygon fill="#63b8ff" stroke="#63b8ff" points="104.69,-142.13 103.77,-131.58 97.9,-140.4 104.69,-142.13"/>
</a>
</g>
</g>
<!-- Node4 -->
<g id="Node000004" class="node">
<title>Node4</title>
<g id="a_Node000004"><a xlink:title=" ">
<polygon fill="#e0e0e0" stroke="#999999" points="134.28,-19.25 86.78,-19.25 86.78,0 134.28,0 134.28,-19.25"/>
<text text-anchor="middle" x="110.53" y="-5.75" font-family="Helvetica,sans-Serif" font-size="10.00">stdint.h</text>
</a>
</g>
</g>
<!-- Node3&#45;&gt;Node4 -->
<g id="edge3_Node000003_Node000004" class="edge">
<title>Node3&#45;&gt;Node4</title>
<g id="a_edge3_Node000003_Node000004"><a xlink:title=" ">
<path fill="none" stroke="#63b8ff" d="M110.53,-55.08C110.53,-48.57 110.53,-39.42 110.53,-31.12"/>
<polygon fill="#63b8ff" stroke="#63b8ff" points="114.03,-31.12 110.53,-21.12 107.03,-31.12 114.03,-31.12"/>
</a>
</g>
</g>
<!-- Node6&#45;&gt;Node2 -->
<g id="edge7_Node000006_Node000002" class="edge">
<title>Node6&#45;&gt;Node2</title>
<g id="a_edge7_Node000006_Node000002"><a xlink:title=" ">
<path fill="none" stroke="#63b8ff" d="M114.55,-130.11C115.08,-136.83 114.28,-146.27 112.65,-154.71"/>
<polygon fill="#63b8ff" stroke="#63b8ff" points="109.34,-153.56 110.23,-164.12 116.11,-155.31 109.34,-153.56"/>
</a>
</g>
</g>
<!-- Node6&#45;&gt;Node3 -->
<g id="edge8_Node000006_Node000003" class="edge">
<title>Node6&#45;&gt;Node3</title>
<g id="a_edge8_Node000006_Node000003"><a xlink:title=" ">
<path fill="none" stroke="#63b8ff" d="M110.53,-110.33C110.53,-103.82 110.53,-94.67 110.53,-86.37"/>
<polygon fill="#63b8ff" stroke="#63b8ff" points="114.03,-86.37 110.53,-76.37 107.03,-86.37 114.03,-86.37"/>
</a>
</g>
</g>
</g>
</svg>
