<?xml version="1.0" encoding="UTF-8" standalone="no"?>
<!DOCTYPE svg PUBLIC "-//W3C//DTD SVG 1.1//EN"
 "http://www.w3.org/Graphics/SVG/1.1/DTD/svg11.dtd">
<!-- Generated by graphviz version 9.0.0 (20230911.1827)
 -->
<!-- Title: src/crsf_protocol.h Pages: 1 -->
<svg width="320pt" height="204pt"
 viewBox="0.00 0.00 320.12 204.25" xmlns="http://www.w3.org/2000/svg" xmlns:xlink="http://www.w3.org/1999/xlink">
<g id="graph0" class="graph" transform="scale(1 1) rotate(0) translate(4 200.25)">
<title>src/crsf_protocol.h</title>
<!-- Node1 -->
<g id="Node000001" class="node">
<title>Node1</title>
<g id="a_Node000001"><a xlink:title="Header file for the CRSF protocol implementation.">
<polygon fill="#999999" stroke="#666666" points="291.75,-196.25 195.5,-196.25 195.5,-177 291.75,-177 291.75,-196.25"/>
<text text-anchor="middle" x="243.62" y="-182.75" font-family="Helvetica,sans-Serif" font-size="10.00">src/crsf_protocol.h</text>
</a>
</g>
</g>
<!-- Node2 -->
<g id="Node000002" class="node">
<title>Node2</title>
<g id="a_Node000002"><a xlink:href="crsf_8h.html" target="_top" xlink:title="Header file for the CRSF protocol implementation.">
<polygon fill="white" stroke="#666666" points="215.88,-141 159.38,-141 159.38,-121.75 215.88,-121.75 215.88,-141"/>
<text text-anchor="middle" x="187.62" y="-127.5" font-family="Helvetica,sans-Serif" font-size="10.00">src/crsf.h</text>
</a>
</g>
</g>
<!-- Node1&#45;&gt;Node2 -->
<g id="edge1_Node000001_Node000002" class="edge">
<title>Node1&#45;&gt;Node2</title>
<g id="a_edge1_Node000001_Node000002"><a xlink:title=" ">
<path fill="none" stroke="#63b8ff" d="M225.99,-168.86C216.38,-159.72 204.87,-148.78 196.98,-141.27"/>
<polygon fill="#63b8ff" stroke="#63b8ff" points="223.37,-171.19 233.03,-175.55 228.19,-166.12 223.37,-171.19"/>
</a>
</g>
</g>
<!-- Node3 -->
<g id="Node000003" class="node">
<title>Node3</title>
<g id="a_Node000003"><a xlink:href="serialIO_8h.html" target="_top" xlink:title="Header file for serial input/output (IO) functionality.">
<polygon fill="white" stroke="#666666" points="224.5,-85.75 150.75,-85.75 150.75,-66.5 224.5,-66.5 224.5,-85.75"/>
<text text-anchor="middle" x="187.62" y="-72.25" font-family="Helvetica,sans-Serif" font-size="10.00">src/serialIO.h</text>
</a>
</g>
</g>
<!-- Node1&#45;&gt;Node3 -->
<g id="edge9_Node000001_Node000003" class="edge">
<title>Node1&#45;&gt;Node3</title>
<g id="a_edge9_Node000001_Node000003"><a xlink:title=" ">
<path fill="none" stroke="#63b8ff" d="M239.83,-165.51C236.86,-152.51 231.98,-135.51 224.62,-121.75 217.32,-108.08 205.42,-94.71 197.09,-86.22"/>
<polygon fill="#63b8ff" stroke="#63b8ff" points="236.35,-165.95 241.8,-175.03 243.2,-164.52 236.35,-165.95"/>
</a>
</g>
</g>
<!-- Node6 -->
<g id="Node000006" class="node">
<title>Node6</title>
<g id="a_Node000006"><a xlink:href="sbus_8h.html" target="_top" xlink:title="Header file for the SBUS protocol implementation.">
<polygon fill="white" stroke="#666666" points="312.12,-24.88 251.12,-24.88 251.12,-5.63 312.12,-5.63 312.12,-24.88"/>
<text text-anchor="middle" x="281.62" y="-11.38" font-family="Helvetica,sans-Serif" font-size="10.00">src/sbus.h</text>
</a>
</g>
</g>
<!-- Node1&#45;&gt;Node6 -->
<g id="edge8_Node000001_Node000006" class="edge">
<title>Node1&#45;&gt;Node6</title>
<g id="a_edge8_Node000001_Node000006"><a xlink:title=" ">
<path fill="none" stroke="#63b8ff" d="M248.1,-165.69C256.39,-128.75 273.81,-51.06 279.66,-24.99"/>
<polygon fill="#63b8ff" stroke="#63b8ff" points="244.77,-164.52 246,-175.04 251.6,-166.05 244.77,-164.52"/>
</a>
</g>
</g>
<!-- Node2&#45;&gt;Node3 -->
<g id="edge2_Node000002_Node000003" class="edge">
<title>Node2&#45;&gt;Node3</title>
<g id="a_edge2_Node000002_Node000003"><a xlink:title=" ">
<path fill="none" stroke="#63b8ff" d="M181.07,-110.42C180.58,-102.05 181.03,-92.75 182.42,-86.11"/>
<polygon fill="#63b8ff" stroke="#63b8ff" points="177.56,-110.59 182.27,-120.08 184.51,-109.72 177.56,-110.59"/>
</a>
</g>
</g>
<!-- Node3&#45;&gt;Node2 -->
<g id="edge5_Node000003_Node000002" class="edge">
<title>Node3&#45;&gt;Node2</title>
<g id="a_edge5_Node000003_Node000002"><a xlink:title=" ">
<path fill="none" stroke="#63b8ff" d="M194.2,-97.32C194.67,-105.71 194.2,-114.99 192.79,-121.58"/>
<polygon fill="#63b8ff" stroke="#63b8ff" points="197.7,-97.12 193.01,-87.61 190.75,-97.96 197.7,-97.12"/>
</a>
</g>
</g>
<!-- Node4 -->
<g id="Node000004" class="node">
<title>Node4</title>
<g id="a_Node000004"><a xlink:href="crsf__basic_8ino.html" target="_top" xlink:title=" ">
<polygon fill="white" stroke="#666666" points="105.25,-30.5 0,-30.5 0,0 105.25,0 105.25,-30.5"/>
<text text-anchor="start" x="8" y="-17" font-family="Helvetica,sans-Serif" font-size="10.00">examples/crsf_basic</text>
<text text-anchor="middle" x="52.62" y="-5.75" font-family="Helvetica,sans-Serif" font-size="10.00">/crsf_basic.ino</text>
</a>
</g>
</g>
<!-- Node3&#45;&gt;Node4 -->
<g id="edge3_Node000003_Node000004" class="edge">
<title>Node3&#45;&gt;Node4</title>
<g id="a_edge3_Node000003_Node000004"><a xlink:title=" ">
<path fill="none" stroke="#63b8ff" d="M156.53,-61.56C135.53,-52.41 107.84,-40.33 86.32,-30.94"/>
<polygon fill="#63b8ff" stroke="#63b8ff" points="154.87,-64.66 165.44,-65.45 157.67,-58.24 154.87,-64.66"/>
</a>
</g>
</g>
<!-- Node5 -->
<g id="Node000005" class="node">
<title>Node5</title>
<g id="a_Node000005"><a xlink:href="sbus__basic_8ino.html" target="_top" xlink:title=" ">
<polygon fill="white" stroke="#666666" points="233.5,-30.5 123.75,-30.5 123.75,0 233.5,0 233.5,-30.5"/>
<text text-anchor="start" x="131.75" y="-17" font-family="Helvetica,sans-Serif" font-size="10.00">examples/sbus_basic</text>
<text text-anchor="middle" x="178.62" y="-5.75" font-family="Helvetica,sans-Serif" font-size="10.00">/sbus_basic.ino</text>
</a>
</g>
</g>
<!-- Node3&#45;&gt;Node5 -->
<g id="edge4_Node000003_Node000005" class="edge">
<title>Node3&#45;&gt;Node5</title>
<g id="a_edge4_Node000003_Node000005"><a xlink:title=" ">
<path fill="none" stroke="#63b8ff" d="M184.54,-54.92C183.32,-46.99 181.96,-38.06 180.85,-30.78"/>
<polygon fill="#63b8ff" stroke="#63b8ff" points="181.06,-55.33 186.03,-64.69 187.98,-54.27 181.06,-55.33"/>
</a>
</g>
</g>
<!-- Node3&#45;&gt;Node6 -->
<g id="edge6_Node000003_Node000006" class="edge">
<title>Node3&#45;&gt;Node6</title>
<g id="a_edge6_Node000003_Node000006"><a xlink:title=" ">
<path fill="none" stroke="#63b8ff" d="M205.97,-59.88C222.23,-48.9 245.6,-34.47 262.19,-25.28"/>
<polygon fill="#63b8ff" stroke="#63b8ff" points="204.35,-56.74 198.14,-65.32 208.35,-62.49 204.35,-56.74"/>
</a>
</g>
</g>
<!-- Node6&#45;&gt;Node3 -->
<g id="edge7_Node000006_Node000003" class="edge">
<title>Node6&#45;&gt;Node3</title>
<g id="a_edge7_Node000006_Node000003"><a xlink:title=" ">
<path fill="none" stroke="#63b8ff" d="M263.13,-31.6C246.82,-42.59 223.46,-57.02 206.91,-66.18"/>
<polygon fill="#63b8ff" stroke="#63b8ff" points="264.78,-34.72 271,-26.14 260.79,-28.96 264.78,-34.72"/>
</a>
</g>
</g>
</g>
</svg>
