<?xml version="1.0" encoding="UTF-8" standalone="no"?>
<!DOCTYPE svg PUBLIC "-//W3C//DTD SVG 1.1//EN"
 "http://www.w3.org/Graphics/SVG/1.1/DTD/svg11.dtd">
<!-- Generated by graphviz version 9.0.0 (20230911.1827)
 -->
<!-- Title: examples/crsf_basic/crsf_basic.ino Pages: 1 -->
<svg width="168pt" height="260pt"
 viewBox="0.00 0.00 167.50 259.50" xmlns="http://www.w3.org/2000/svg" xmlns:xlink="http://www.w3.org/1999/xlink">
<g id="graph0" class="graph" transform="scale(1 1) rotate(0) translate(4 255.5)">
<title>examples/crsf_basic/crsf_basic.ino</title>
<!-- Node1 -->
<g id="Node000001" class="node">
<title>Node1</title>
<g id="a_Node000001"><a xlink:title=" ">
<polygon fill="#999999" stroke="#666666" points="134.88,-251.5 29.62,-251.5 29.62,-221 134.88,-221 134.88,-251.5"/>
<text text-anchor="start" x="37.62" y="-238" font-family="Helvetica,sans-Serif" font-size="10.00">examples/crsf_basic</text>
<text text-anchor="middle" x="82.25" y="-226.75" font-family="Helvetica,sans-Serif" font-size="10.00">/crsf_basic.ino</text>
</a>
</g>
</g>
<!-- Node2 -->
<g id="Node000002" class="node">
<title>Node2</title>
<g id="a_Node000002"><a xlink:href="sbus_8h.html" target="_top" xlink:title="Header file for the SBUS protocol implementation.">
<polygon fill="white" stroke="#666666" points="44.5,-185 0,-185 0,-165.75 44.5,-165.75 44.5,-185"/>
<text text-anchor="middle" x="22.25" y="-171.5" font-family="Helvetica,sans-Serif" font-size="10.00">sbus.h</text>
</a>
</g>
</g>
<!-- Node1&#45;&gt;Node2 -->
<g id="edge1_Node000001_Node000002" class="edge">
<title>Node1&#45;&gt;Node2</title>
<g id="a_edge1_Node000001_Node000002"><a xlink:title=" ">
<path fill="none" stroke="#63b8ff" d="M67.42,-220.7C58.99,-212.42 48.38,-202.02 39.57,-193.37"/>
<polygon fill="#63b8ff" stroke="#63b8ff" points="42.17,-191.02 32.58,-186.51 37.27,-196.01 42.17,-191.02"/>
</a>
</g>
</g>
<!-- Node5 -->
<g id="Node000005" class="node">
<title>Node5</title>
<g id="a_Node000005"><a xlink:href="serialIO_8h.html" target="_top" xlink:title="Header file for serial input/output (IO) functionality.">
<polygon fill="white" stroke="#666666" points="145.88,-129.75 88.62,-129.75 88.62,-110.5 145.88,-110.5 145.88,-129.75"/>
<text text-anchor="middle" x="117.25" y="-116.25" font-family="Helvetica,sans-Serif" font-size="10.00">serialIO.h</text>
</a>
</g>
</g>
<!-- Node1&#45;&gt;Node5 -->
<g id="edge10_Node000001_Node000005" class="edge">
<title>Node1&#45;&gt;Node5</title>
<g id="a_edge10_Node000001_Node000005"><a xlink:title=" ">
<path fill="none" stroke="#63b8ff" d="M92.94,-220.65C99.4,-211.02 107.15,-197.86 111.25,-185 115.77,-170.83 117.2,-154.07 117.55,-141.27"/>
<polygon fill="#63b8ff" stroke="#63b8ff" points="121.04,-141.57 117.59,-131.55 114.04,-141.54 121.04,-141.57"/>
</a>
</g>
</g>
<!-- Node7 -->
<g id="Node000007" class="node">
<title>Node7</title>
<g id="a_Node000007"><a xlink:href="crsf_8h.html" target="_top" xlink:title="Header file for the CRSF protocol implementation.">
<polygon fill="white" stroke="#666666" points="102.25,-185 62.25,-185 62.25,-165.75 102.25,-165.75 102.25,-185"/>
<text text-anchor="middle" x="82.25" y="-171.5" font-family="Helvetica,sans-Serif" font-size="10.00">crsf.h</text>
</a>
</g>
</g>
<!-- Node1&#45;&gt;Node7 -->
<g id="edge7_Node000001_Node000007" class="edge">
<title>Node1&#45;&gt;Node7</title>
<g id="a_edge7_Node000001_Node000007"><a xlink:title=" ">
<path fill="none" stroke="#63b8ff" d="M82.25,-220.7C82.25,-213.46 82.25,-204.59 82.25,-196.69"/>
<polygon fill="#63b8ff" stroke="#63b8ff" points="85.75,-196.96 82.25,-186.96 78.75,-196.96 85.75,-196.96"/>
</a>
</g>
</g>
<!-- Node3 -->
<g id="Node000003" class="node">
<title>Node3</title>
<g id="a_Node000003"><a xlink:href="crsf__protocol_8h.html" target="_top" xlink:title="Header file for the CRSF protocol implementation.">
<polygon fill="white" stroke="#666666" points="85.12,-74.5 5.38,-74.5 5.38,-55.25 85.12,-55.25 85.12,-74.5"/>
<text text-anchor="middle" x="45.25" y="-61" font-family="Helvetica,sans-Serif" font-size="10.00">crsf_protocol.h</text>
</a>
</g>
</g>
<!-- Node2&#45;&gt;Node3 -->
<g id="edge2_Node000002_Node000003" class="edge">
<title>Node2&#45;&gt;Node3</title>
<g id="a_edge2_Node000002_Node000003"><a xlink:title=" ">
<path fill="none" stroke="#63b8ff" d="M24.13,-165.5C27.79,-148.25 35.93,-109.83 40.97,-86.06"/>
<polygon fill="#63b8ff" stroke="#63b8ff" points="44.38,-86.87 43.03,-76.36 37.53,-85.41 44.38,-86.87"/>
</a>
</g>
</g>
<!-- Node2&#45;&gt;Node5 -->
<g id="edge4_Node000002_Node000005" class="edge">
<title>Node2&#45;&gt;Node5</title>
<g id="a_edge4_Node000002_Node000005"><a xlink:title=" ">
<path fill="none" stroke="#63b8ff" d="M38.37,-165.34C52.83,-157.23 74.33,-145.18 91.23,-135.71"/>
<polygon fill="#63b8ff" stroke="#63b8ff" points="92.72,-138.89 99.74,-130.94 89.3,-132.78 92.72,-138.89"/>
</a>
</g>
</g>
<!-- Node4 -->
<g id="Node000004" class="node">
<title>Node4</title>
<g id="a_Node000004"><a xlink:title=" ">
<polygon fill="#e0e0e0" stroke="#999999" points="69,-19.25 21.5,-19.25 21.5,0 69,0 69,-19.25"/>
<text text-anchor="middle" x="45.25" y="-5.75" font-family="Helvetica,sans-Serif" font-size="10.00">stdint.h</text>
</a>
</g>
</g>
<!-- Node3&#45;&gt;Node4 -->
<g id="edge3_Node000003_Node000004" class="edge">
<title>Node3&#45;&gt;Node4</title>
<g id="a_edge3_Node000003_Node000004"><a xlink:title=" ">
<path fill="none" stroke="#63b8ff" d="M45.25,-55.08C45.25,-48.57 45.25,-39.42 45.25,-31.12"/>
<polygon fill="#63b8ff" stroke="#63b8ff" points="48.75,-31.12 45.25,-21.12 41.75,-31.12 48.75,-31.12"/>
</a>
</g>
</g>
<!-- Node5&#45;&gt;Node3 -->
<g id="edge5_Node000005_Node000003" class="edge">
<title>Node5&#45;&gt;Node3</title>
<g id="a_edge5_Node000005_Node000003"><a xlink:title=" ">
<path fill="none" stroke="#63b8ff" d="M105.04,-110.09C94.42,-102.24 78.81,-90.7 66.21,-81.37"/>
<polygon fill="#63b8ff" stroke="#63b8ff" points="68.62,-78.81 58.5,-75.67 64.46,-84.44 68.62,-78.81"/>
</a>
</g>
</g>
<!-- Node6 -->
<g id="Node000006" class="node">
<title>Node6</title>
<g id="a_Node000006"><a xlink:title=" ">
<polygon fill="#e0e0e0" stroke="#999999" points="159.5,-74.5 103,-74.5 103,-55.25 159.5,-55.25 159.5,-74.5"/>
<text text-anchor="middle" x="131.25" y="-61" font-family="Helvetica,sans-Serif" font-size="10.00">Arduino.h</text>
</a>
</g>
</g>
<!-- Node5&#45;&gt;Node6 -->
<g id="edge6_Node000005_Node000006" class="edge">
<title>Node5&#45;&gt;Node6</title>
<g id="a_edge6_Node000005_Node000006"><a xlink:title=" ">
<path fill="none" stroke="#63b8ff" d="M119.56,-110.33C121.31,-103.67 123.79,-94.24 126.02,-85.78"/>
<polygon fill="#63b8ff" stroke="#63b8ff" points="129.35,-86.88 128.5,-76.32 122.58,-85.1 129.35,-86.88"/>
</a>
</g>
</g>
<!-- Node7&#45;&gt;Node3 -->
<g id="edge9_Node000007_Node000003" class="edge">
<title>Node7&#45;&gt;Node3</title>
<g id="a_edge9_Node000007_Node000003"><a xlink:title=" ">
<path fill="none" stroke="#63b8ff" d="M79.22,-165.5C73.31,-148.17 60.12,-109.48 52.02,-85.74"/>
<polygon fill="#63b8ff" stroke="#63b8ff" points="55.35,-84.64 48.81,-76.31 48.72,-86.9 55.35,-84.64"/>
</a>
</g>
</g>
<!-- Node7&#45;&gt;Node5 -->
<g id="edge8_Node000007_Node000005" class="edge">
<title>Node7&#45;&gt;Node5</title>
<g id="a_edge8_Node000007_Node000005"><a xlink:title=" ">
<path fill="none" stroke="#63b8ff" d="M88.03,-165.58C92.66,-158.53 99.32,-148.4 105.12,-139.58"/>
<polygon fill="#63b8ff" stroke="#63b8ff" points="107.95,-141.65 110.51,-131.37 102.1,-137.81 107.95,-141.65"/>
</a>
</g>
</g>
</g>
</svg>
