<?xml version="1.0" encoding="UTF-8" standalone="no"?>
<!DOCTYPE svg PUBLIC "-//W3C//DTD SVG 1.1//EN"
 "http://www.w3.org/Graphics/SVG/1.1/DTD/svg11.dtd">
<!-- Generated by graphviz version 9.0.0 (20230911.1827)
 -->
<!-- Title: src/crsf_protocol.h Pages: 1 -->
<svg width="242pt" height="204pt"
 viewBox="0.00 0.00 241.50 204.25" xmlns="http://www.w3.org/2000/svg" xmlns:xlink="http://www.w3.org/1999/xlink">
<g id="graph0" class="graph" transform="scale(1 1) rotate(0) translate(4 200.25)">
<title>src/crsf_protocol.h</title>
<!-- Node1 -->
<g id="Node000001" class="node">
<title>Node1</title>
<g id="a_Node000001"><a xlink:title="Header file for the CRSF protocol implementation.">
<polygon fill="#999999" stroke="#666666" points="169.75,-196.25 73.5,-196.25 73.5,-177 169.75,-177 169.75,-196.25"/>
<text text-anchor="middle" x="121.62" y="-182.75" font-family="Helvetica,sans-Serif" font-size="10.00">src/crsf_protocol.h</text>
</a>
</g>
</g>
<!-- Node2 -->
<g id="Node000002" class="node">
<title>Node2</title>
<g id="a_Node000002"><a xlink:href="crsf_8h.html" target="_top" xlink:title="Header file for the CRSF protocol implementation.">
<polygon fill="white" stroke="#666666" points="67.88,-85.75 11.38,-85.75 11.38,-66.5 67.88,-66.5 67.88,-85.75"/>
<text text-anchor="middle" x="39.62" y="-72.25" font-family="Helvetica,sans-Serif" font-size="10.00">src/crsf.h</text>
</a>
</g>
</g>
<!-- Node1&#45;&gt;Node2 -->
<g id="edge1_Node000001_Node000002" class="edge">
<title>Node1&#45;&gt;Node2</title>
<g id="a_edge1_Node000001_Node000002"><a xlink:title=" ">
<path fill="none" stroke="#63b8ff" d="M102.42,-169.31C93.65,-161.3 83.49,-151.2 75.62,-141 61.63,-122.86 49.52,-98.65 43.56,-85.87"/>
<polygon fill="#63b8ff" stroke="#63b8ff" points="99.96,-171.8 109.77,-175.81 104.6,-166.56 99.96,-171.8"/>
</a>
</g>
</g>
<!-- Node5 -->
<g id="Node000005" class="node">
<title>Node5</title>
<g id="a_Node000005"><a xlink:href="sbus_8h.html" target="_top" xlink:title="Header file for the SBUS protocol implementation.">
<polygon fill="white" stroke="#666666" points="223.12,-85.75 162.12,-85.75 162.12,-66.5 223.12,-66.5 223.12,-85.75"/>
<text text-anchor="middle" x="192.62" y="-72.25" font-family="Helvetica,sans-Serif" font-size="10.00">src/sbus.h</text>
</a>
</g>
</g>
<!-- Node1&#45;&gt;Node5 -->
<g id="edge4_Node000001_Node000005" class="edge">
<title>Node1&#45;&gt;Node5</title>
<g id="a_edge4_Node000001_Node000005"><a xlink:title=" ">
<path fill="none" stroke="#63b8ff" d="M141.83,-169.48C150.66,-161.62 160.58,-151.59 167.62,-141 179.49,-123.15 187.03,-98.82 190.46,-85.95"/>
<polygon fill="#63b8ff" stroke="#63b8ff" points="139.7,-166.69 134.35,-175.83 144.24,-172.03 139.7,-166.69"/>
</a>
</g>
</g>
<!-- Node6 -->
<g id="Node000006" class="node">
<title>Node6</title>
<g id="a_Node000006"><a xlink:href="serialIO_8h.html" target="_top" xlink:title="Header file for serial input/output (IO) functionality.">
<polygon fill="white" stroke="#666666" points="158.5,-141 84.75,-141 84.75,-121.75 158.5,-121.75 158.5,-141"/>
<text text-anchor="middle" x="121.62" y="-127.5" font-family="Helvetica,sans-Serif" font-size="10.00">src/serialIO.h</text>
</a>
</g>
</g>
<!-- Node1&#45;&gt;Node6 -->
<g id="edge7_Node000001_Node000006" class="edge">
<title>Node1&#45;&gt;Node6</title>
<g id="a_edge7_Node000001_Node000006"><a xlink:title=" ">
<path fill="none" stroke="#63b8ff" d="M121.62,-165.38C121.62,-157.09 121.62,-147.92 121.62,-141.36"/>
<polygon fill="#63b8ff" stroke="#63b8ff" points="118.13,-165.32 121.63,-175.32 125.13,-165.32 118.13,-165.32"/>
</a>
</g>
</g>
<!-- Node3 -->
<g id="Node000003" class="node">
<title>Node3</title>
<g id="a_Node000003"><a xlink:href="crsf__basic_8ino.html" target="_top" xlink:title=" ">
<polygon fill="white" stroke="#666666" points="105.25,-30.5 0,-30.5 0,0 105.25,0 105.25,-30.5"/>
<text text-anchor="start" x="8" y="-17" font-family="Helvetica,sans-Serif" font-size="10.00">examples/crsf_basic</text>
<text text-anchor="middle" x="52.62" y="-5.75" font-family="Helvetica,sans-Serif" font-size="10.00">/crsf_basic.ino</text>
</a>
</g>
</g>
<!-- Node2&#45;&gt;Node3 -->
<g id="edge2_Node000002_Node000003" class="edge">
<title>Node2&#45;&gt;Node3</title>
<g id="a_edge2_Node000002_Node000003"><a xlink:title=" ">
<path fill="none" stroke="#63b8ff" d="M44.02,-55.2C45.79,-47.2 47.79,-38.15 49.42,-30.78"/>
<polygon fill="#63b8ff" stroke="#63b8ff" points="40.66,-54.19 41.93,-64.71 47.5,-55.7 40.66,-54.19"/>
</a>
</g>
</g>
<!-- Node4 -->
<g id="Node000004" class="node">
<title>Node4</title>
<g id="a_Node000004"><a xlink:href="sbus__basic_8ino.html" target="_top" xlink:title=" ">
<polygon fill="white" stroke="#666666" points="233.5,-30.5 123.75,-30.5 123.75,0 233.5,0 233.5,-30.5"/>
<text text-anchor="start" x="131.75" y="-17" font-family="Helvetica,sans-Serif" font-size="10.00">examples/sbus_basic</text>
<text text-anchor="middle" x="178.62" y="-5.75" font-family="Helvetica,sans-Serif" font-size="10.00">/sbus_basic.ino</text>
</a>
</g>
</g>
<!-- Node2&#45;&gt;Node4 -->
<g id="edge3_Node000002_Node000004" class="edge">
<title>Node2&#45;&gt;Node4</title>
<g id="a_edge3_Node000002_Node000004"><a xlink:title=" ">
<path fill="none" stroke="#63b8ff" d="M71.35,-61.69C93,-52.52 121.67,-40.37 143.93,-30.94"/>
<polygon fill="#63b8ff" stroke="#63b8ff" points="70.28,-58.34 62.43,-65.46 73.01,-64.79 70.28,-58.34"/>
</a>
</g>
</g>
<!-- Node5&#45;&gt;Node3 -->
<g id="edge5_Node000005_Node000003" class="edge">
<title>Node5&#45;&gt;Node3</title>
<g id="a_edge5_Node000005_Node000003"><a xlink:title=" ">
<path fill="none" stroke="#63b8ff" d="M160.68,-61.69C138.87,-52.52 109.99,-40.37 87.57,-30.94"/>
<polygon fill="#63b8ff" stroke="#63b8ff" points="159.09,-64.82 169.66,-65.47 161.8,-58.37 159.09,-64.82"/>
</a>
</g>
</g>
<!-- Node5&#45;&gt;Node4 -->
<g id="edge6_Node000005_Node000004" class="edge">
<title>Node5&#45;&gt;Node4</title>
<g id="a_edge6_Node000005_Node000004"><a xlink:title=" ">
<path fill="none" stroke="#63b8ff" d="M187.89,-55.2C185.98,-47.2 183.83,-38.15 182.08,-30.78"/>
<polygon fill="#63b8ff" stroke="#63b8ff" points="184.43,-55.79 190.15,-64.71 191.24,-54.17 184.43,-55.79"/>
</a>
</g>
</g>
<!-- Node6&#45;&gt;Node2 -->
<g id="edge10_Node000006_Node000002" class="edge">
<title>Node6&#45;&gt;Node2</title>
<g id="a_edge10_Node000006_Node000002"><a xlink:title=" ">
<path fill="none" stroke="#63b8ff" d="M98.42,-115.3C83.97,-105.92 65.88,-94.17 53.6,-86.2"/>
<polygon fill="#63b8ff" stroke="#63b8ff" points="96.15,-118.01 106.45,-120.52 99.96,-112.14 96.15,-118.01"/>
</a>
</g>
</g>
<!-- Node6&#45;&gt;Node3 -->
<g id="edge8_Node000006_Node000003" class="edge">
<title>Node6&#45;&gt;Node3</title>
<g id="a_edge8_Node000006_Node000003"><a xlink:title=" ">
<path fill="none" stroke="#63b8ff" d="M110.3,-111.64C96.6,-88.99 73.84,-51.34 61.4,-30.77"/>
<polygon fill="#63b8ff" stroke="#63b8ff" points="107.26,-113.38 115.43,-120.12 113.25,-109.76 107.26,-113.38"/>
</a>
</g>
</g>
<!-- Node6&#45;&gt;Node4 -->
<g id="edge9_Node000006_Node000004" class="edge">
<title>Node6&#45;&gt;Node4</title>
<g id="a_edge9_Node000006_Node000004"><a xlink:title=" ">
<path fill="none" stroke="#63b8ff" d="M131.14,-111.33C142.47,-88.65 161.14,-51.25 171.37,-30.77"/>
<polygon fill="#63b8ff" stroke="#63b8ff" points="128.11,-109.56 126.77,-120.07 134.37,-112.68 128.11,-109.56"/>
</a>
</g>
</g>
<!-- Node6&#45;&gt;Node5 -->
<g id="edge11_Node000006_Node000005" class="edge">
<title>Node6&#45;&gt;Node5</title>
<g id="a_edge11_Node000006_Node000005"><a xlink:title=" ">
<path fill="none" stroke="#63b8ff" d="M142.87,-114.44C155.27,-105.14 170.45,-93.76 180.76,-86.02"/>
<polygon fill="#63b8ff" stroke="#63b8ff" points="140.78,-111.63 134.88,-120.43 144.98,-117.23 140.78,-111.63"/>
</a>
</g>
</g>
</g>
</svg>
