<?xml version="1.0" encoding="UTF-8" standalone="no"?>
<!DOCTYPE svg PUBLIC "-//W3C//DTD SVG 1.1//EN"
 "http://www.w3.org/Graphics/SVG/1.1/DTD/svg11.dtd">
<!-- Generated by graphviz version 12.2.1 (20241206.2353)
 -->
<!-- Title: src/crsf/crsf.h Pages: 1 -->
<svg width="388pt" height="248pt"
 viewBox="0.00 0.00 388.00 248.25" xmlns="http://www.w3.org/2000/svg" xmlns:xlink="http://www.w3.org/1999/xlink">
<g id="graph0" class="graph" transform="scale(1 1) rotate(0) translate(4 244.25)">
<title>src/crsf/crsf.h</title>
<!-- Node1 -->
<g id="Node000001" class="node">
<title>Node1</title>
<g id="a_Node000001"><a xlink:title="Header file for the CRSF protocol implementation.">
<polygon fill="#999999" stroke="#666666" points="208.88,-240.25 132.88,-240.25 132.88,-221 208.88,-221 208.88,-240.25"/>
<text text-anchor="middle" x="170.88" y="-226.75" font-family="Helvetica,sans-Serif" font-size="10.00">src/crsf/crsf.h</text>
</a>
</g>
</g>
<!-- Node2 -->
<g id="Node000002" class="node">
<title>Node2</title>
<g id="a_Node000002"><a xlink:href="crsf__protocol_8h_source.html" target="_top" xlink:title=" ">
<polygon fill="white" stroke="#666666" points="79.75,-185 0,-185 0,-165.75 79.75,-165.75 79.75,-185"/>
<text text-anchor="middle" x="39.88" y="-171.5" font-family="Helvetica,sans-Serif" font-size="10.00">crsf_protocol.h</text>
</a>
</g>
</g>
<!-- Node1&#45;&gt;Node2 -->
<g id="edge1_Node000001_Node000002" class="edge">
<title>Node1&#45;&gt;Node2</title>
<g id="a_edge1_Node000001_Node000002"><a xlink:title=" ">
<path fill="none" stroke="#63b8ff" d="M148.65,-220.59C127.86,-212.14 96.53,-199.4 72.82,-189.77"/>
<polygon fill="#63b8ff" stroke="#63b8ff" points="74.19,-186.55 63.61,-186.02 71.55,-193.03 74.19,-186.55"/>
</a>
</g>
</g>
<!-- Node4 -->
<g id="Node000004" class="node">
<title>Node4</title>
<g id="a_Node000004"><a xlink:href="SerialIO_8h.html" target="_top" xlink:title="Header file for serial input/output (IO) functionality.">
<polygon fill="white" stroke="#666666" points="204,-185 137.75,-185 137.75,-165.75 204,-165.75 204,-185"/>
<text text-anchor="middle" x="170.88" y="-171.5" font-family="Helvetica,sans-Serif" font-size="10.00">../SerialIO.h</text>
</a>
</g>
</g>
<!-- Node1&#45;&gt;Node4 -->
<g id="edge3_Node000001_Node000004" class="edge">
<title>Node1&#45;&gt;Node4</title>
<g id="a_edge3_Node000001_Node000004"><a xlink:title=" ">
<path fill="none" stroke="#63b8ff" d="M165.71,-220.83C164.3,-214.24 163.83,-204.96 164.3,-196.57"/>
<polygon fill="#63b8ff" stroke="#63b8ff" points="167.75,-197.21 165.49,-186.86 160.8,-196.37 167.75,-197.21"/>
</a>
</g>
</g>
<!-- Node3 -->
<g id="Node000003" class="node">
<title>Node3</title>
<g id="a_Node000003"><a xlink:title=" ">
<polygon fill="#e0e0e0" stroke="#999999" points="203.62,-19.25 156.12,-19.25 156.12,0 203.62,0 203.62,-19.25"/>
<text text-anchor="middle" x="179.88" y="-5.75" font-family="Helvetica,sans-Serif" font-size="10.00">stdint.h</text>
</a>
</g>
</g>
<!-- Node2&#45;&gt;Node3 -->
<g id="edge2_Node000002_Node000003" class="edge">
<title>Node2&#45;&gt;Node3</title>
<g id="a_edge2_Node000002_Node000003"><a xlink:title=" ">
<path fill="none" stroke="#63b8ff" d="M33.25,-165.64C24.72,-153.29 11.81,-130.04 18.88,-110.5 29.75,-80.45 38.93,-73.9 64.88,-55.25 89.04,-37.87 120.87,-26.21 144.91,-19.18"/>
<polygon fill="#63b8ff" stroke="#63b8ff" points="145.53,-22.64 154.23,-16.59 143.65,-15.9 145.53,-22.64"/>
</a>
</g>
</g>
<!-- Node4&#45;&gt;Node1 -->
<g id="edge7_Node000004_Node000001" class="edge">
<title>Node4&#45;&gt;Node1</title>
<g id="a_edge7_Node000004_Node000001"><a xlink:title=" ">
<path fill="none" stroke="#63b8ff" d="M176.08,-185.36C177.47,-192 177.92,-201.3 177.43,-209.67"/>
<polygon fill="#63b8ff" stroke="#63b8ff" points="173.99,-208.97 176.23,-219.33 180.94,-209.84 173.99,-208.97"/>
</a>
</g>
</g>
<!-- Node5 -->
<g id="Node000005" class="node">
<title>Node5</title>
<g id="a_Node000005"><a xlink:title=" ">
<polygon fill="#e0e0e0" stroke="#999999" points="84.12,-129.75 27.62,-129.75 27.62,-110.5 84.12,-110.5 84.12,-129.75"/>
<text text-anchor="middle" x="55.88" y="-116.25" font-family="Helvetica,sans-Serif" font-size="10.00">Arduino.h</text>
</a>
</g>
</g>
<!-- Node4&#45;&gt;Node5 -->
<g id="edge4_Node000004_Node000005" class="edge">
<title>Node4&#45;&gt;Node5</title>
<g id="a_edge4_Node000004_Node000005"><a xlink:title=" ">
<path fill="none" stroke="#63b8ff" d="M151.37,-165.34C133.36,-157 106.35,-144.5 85.65,-134.91"/>
<polygon fill="#63b8ff" stroke="#63b8ff" points="87.4,-131.86 76.85,-130.84 84.46,-138.22 87.4,-131.86"/>
</a>
</g>
</g>
<!-- Node6 -->
<g id="Node000006" class="node">
<title>Node6</title>
<g id="a_Node000006"><a xlink:href="ibus__protocol_8h.html" target="_top" xlink:title="Header file for the iBus protocol implementation.">
<polygon fill="white" stroke="#666666" points="176,-74.5 73.75,-74.5 73.75,-55.25 176,-55.25 176,-74.5"/>
<text text-anchor="middle" x="124.88" y="-61" font-family="Helvetica,sans-Serif" font-size="10.00">ibus/ibus_protocol.h</text>
</a>
</g>
</g>
<!-- Node4&#45;&gt;Node6 -->
<g id="edge5_Node000004_Node000006" class="edge">
<title>Node4&#45;&gt;Node6</title>
<g id="a_edge5_Node000004_Node000006"><a xlink:title=" ">
<path fill="none" stroke="#63b8ff" d="M159.57,-165.44C150.12,-157.25 137.21,-144.24 130.88,-129.75 124.92,-116.13 123.54,-99.34 123.59,-86.4"/>
<polygon fill="#63b8ff" stroke="#63b8ff" points="127.08,-86.62 123.94,-76.5 120.09,-86.37 127.08,-86.62"/>
</a>
</g>
</g>
<!-- Node7 -->
<g id="Node000007" class="node">
<title>Node7</title>
<g id="a_Node000007"><a xlink:href="fport_8h.html" target="_top" xlink:title="Header file for the FPort Protocol definations.">
<polygon fill="white" stroke="#666666" points="285.62,-129.75 220.12,-129.75 220.12,-110.5 285.62,-110.5 285.62,-129.75"/>
<text text-anchor="middle" x="252.88" y="-116.25" font-family="Helvetica,sans-Serif" font-size="10.00">fport/fport.h</text>
</a>
</g>
</g>
<!-- Node4&#45;&gt;Node7 -->
<g id="edge8_Node000004_Node000007" class="edge">
<title>Node4&#45;&gt;Node7</title>
<g id="a_edge8_Node000004_Node000007"><a xlink:title=" ">
<path fill="none" stroke="#63b8ff" d="M179.57,-165.34C190.26,-157.31 208.28,-145.41 223.88,-135.98"/>
<polygon fill="#63b8ff" stroke="#63b8ff" points="225.53,-139.07 232.37,-130.97 221.98,-133.04 225.53,-139.07"/>
</a>
</g>
</g>
<!-- Node9 -->
<g id="Node000009" class="node">
<title>Node9</title>
<g id="a_Node000009"><a xlink:href="ibus_8h.html" target="_top" xlink:title="Header file for the Ibus protocol implementation.">
<polygon fill="white" stroke="#666666" points="202.12,-129.75 139.62,-129.75 139.62,-110.5 202.12,-110.5 202.12,-129.75"/>
<text text-anchor="middle" x="170.88" y="-116.25" font-family="Helvetica,sans-Serif" font-size="10.00">ibus/ibus.h</text>
</a>
</g>
</g>
<!-- Node4&#45;&gt;Node9 -->
<g id="edge12_Node000004_Node000009" class="edge">
<title>Node4&#45;&gt;Node9</title>
<g id="a_edge12_Node000004_Node000009"><a xlink:title=" ">
<path fill="none" stroke="#63b8ff" d="M165.71,-165.58C164.3,-158.99 163.83,-149.71 164.3,-141.32"/>
<polygon fill="#63b8ff" stroke="#63b8ff" points="167.75,-141.96 165.49,-131.61 160.8,-141.12 167.75,-141.96"/>
</a>
</g>
</g>
<!-- Node10 -->
<g id="Node000010" class="node">
<title>Node10</title>
<g id="a_Node000010"><a xlink:href="sbus_8h.html" target="_top" xlink:title="Header file for the SBUS protocol implementation.">
<polygon fill="white" stroke="#666666" points="372.12,-129.75 303.62,-129.75 303.62,-110.5 372.12,-110.5 372.12,-129.75"/>
<text text-anchor="middle" x="337.88" y="-116.25" font-family="Helvetica,sans-Serif" font-size="10.00">sbus/sbus.h</text>
</a>
</g>
</g>
<!-- Node4&#45;&gt;Node10 -->
<g id="edge15_Node000004_Node000010" class="edge">
<title>Node4&#45;&gt;Node10</title>
<g id="a_edge15_Node000004_Node000010"><a xlink:title=" ">
<path fill="none" stroke="#63b8ff" d="M193.99,-165.34C219.63,-156.58 261.33,-143.23 293.31,-133.48"/>
<polygon fill="#63b8ff" stroke="#63b8ff" points="294.17,-136.88 302.73,-130.64 292.15,-130.18 294.17,-136.88"/>
</a>
</g>
</g>
<!-- Node6&#45;&gt;Node3 -->
<g id="edge6_Node000006_Node000003" class="edge">
<title>Node6&#45;&gt;Node3</title>
<g id="a_edge6_Node000006_Node000003"><a xlink:title=" ">
<path fill="none" stroke="#63b8ff" d="M133.96,-55.08C141.71,-47.57 153.09,-36.56 162.57,-27.38"/>
<polygon fill="#63b8ff" stroke="#63b8ff" points="164.76,-30.13 169.51,-20.66 159.89,-25.1 164.76,-30.13"/>
</a>
</g>
</g>
<!-- Node7&#45;&gt;Node4 -->
<g id="edge9_Node000007_Node000004" class="edge">
<title>Node7&#45;&gt;Node4</title>
<g id="a_edge9_Node000007_Node000004"><a xlink:title=" ">
<path fill="none" stroke="#63b8ff" d="M244.36,-130.02C233.68,-138.06 215.53,-150.05 199.85,-159.54"/>
<polygon fill="#63b8ff" stroke="#63b8ff" points="198.14,-156.48 191.31,-164.57 201.7,-162.51 198.14,-156.48"/>
</a>
</g>
</g>
<!-- Node8 -->
<g id="Node000008" class="node">
<title>Node8</title>
<g id="a_Node000008"><a xlink:href="fport__protocol_8h.html" target="_top" xlink:title="Header file for the F.Port protocol implementation.">
<polygon fill="white" stroke="#666666" points="277.25,-74.5 194.5,-74.5 194.5,-55.25 277.25,-55.25 277.25,-74.5"/>
<text text-anchor="middle" x="235.88" y="-61" font-family="Helvetica,sans-Serif" font-size="10.00">fport_protocol.h</text>
</a>
</g>
</g>
<!-- Node7&#45;&gt;Node8 -->
<g id="edge10_Node000007_Node000008" class="edge">
<title>Node7&#45;&gt;Node8</title>
<g id="a_edge10_Node000007_Node000008"><a xlink:title=" ">
<path fill="none" stroke="#63b8ff" d="M250.07,-110.33C247.94,-103.67 244.93,-94.24 242.23,-85.78"/>
<polygon fill="#63b8ff" stroke="#63b8ff" points="245.58,-84.76 239.2,-76.3 238.91,-86.89 245.58,-84.76"/>
</a>
</g>
</g>
<!-- Node8&#45;&gt;Node3 -->
<g id="edge11_Node000008_Node000003" class="edge">
<title>Node8&#45;&gt;Node3</title>
<g id="a_edge11_Node000008_Node000003"><a xlink:title=" ">
<path fill="none" stroke="#63b8ff" d="M226.38,-54.84C218.44,-47.3 206.93,-36.35 197.34,-27.23"/>
<polygon fill="#63b8ff" stroke="#63b8ff" points="199.99,-24.92 190.33,-20.57 195.17,-29.99 199.99,-24.92"/>
</a>
</g>
</g>
<!-- Node9&#45;&gt;Node4 -->
<g id="edge13_Node000009_Node000004" class="edge">
<title>Node9&#45;&gt;Node4</title>
<g id="a_edge13_Node000009_Node000004"><a xlink:title=" ">
<path fill="none" stroke="#63b8ff" d="M176.08,-130.11C177.47,-136.75 177.92,-146.05 177.43,-154.42"/>
<polygon fill="#63b8ff" stroke="#63b8ff" points="173.99,-153.72 176.23,-164.08 180.94,-154.59 173.99,-153.72"/>
</a>
</g>
</g>
<!-- Node9&#45;&gt;Node6 -->
<g id="edge14_Node000009_Node000006" class="edge">
<title>Node9&#45;&gt;Node6</title>
<g id="a_edge14_Node000009_Node000006"><a xlink:title=" ">
<path fill="none" stroke="#63b8ff" d="M163.28,-110.33C156.99,-103.05 147.86,-92.48 140.08,-83.48"/>
<polygon fill="#63b8ff" stroke="#63b8ff" points="142.81,-81.28 133.63,-76 137.51,-85.86 142.81,-81.28"/>
</a>
</g>
</g>
<!-- Node10&#45;&gt;Node4 -->
<g id="edge16_Node000010_Node000004" class="edge">
<title>Node10&#45;&gt;Node4</title>
<g id="a_edge16_Node000010_Node000004"><a xlink:title=" ">
<path fill="none" stroke="#63b8ff" d="M314.63,-130.2C288.93,-138.98 247.23,-152.34 215.27,-162.07"/>
<polygon fill="#63b8ff" stroke="#63b8ff" points="214.43,-158.66 205.87,-164.9 216.46,-165.36 214.43,-158.66"/>
</a>
</g>
</g>
<!-- Node11 -->
<g id="Node000011" class="node">
<title>Node11</title>
<g id="a_Node000011"><a xlink:href="sbus__protocol_8h.html" target="_top" xlink:title="Header file for the SBus protocol implementation.">
<polygon fill="white" stroke="#666666" points="380,-74.5 295.75,-74.5 295.75,-55.25 380,-55.25 380,-74.5"/>
<text text-anchor="middle" x="337.88" y="-61" font-family="Helvetica,sans-Serif" font-size="10.00">sbus_protocol.h</text>
</a>
</g>
</g>
<!-- Node10&#45;&gt;Node11 -->
<g id="edge17_Node000010_Node000011" class="edge">
<title>Node10&#45;&gt;Node11</title>
<g id="a_edge17_Node000010_Node000011"><a xlink:title=" ">
<path fill="none" stroke="#63b8ff" d="M337.88,-110.33C337.88,-103.82 337.88,-94.67 337.88,-86.37"/>
<polygon fill="#63b8ff" stroke="#63b8ff" points="341.38,-86.37 337.88,-76.37 334.38,-86.37 341.38,-86.37"/>
</a>
</g>
</g>
<!-- Node11&#45;&gt;Node3 -->
<g id="edge18_Node000011_Node000003" class="edge">
<title>Node11&#45;&gt;Node3</title>
<g id="a_edge18_Node000011_Node000003"><a xlink:title=" ">
<path fill="none" stroke="#63b8ff" d="M311.07,-54.84C284.57,-45.91 243.88,-32.19 214.84,-22.41"/>
<polygon fill="#63b8ff" stroke="#63b8ff" points="215.98,-19.1 205.39,-19.22 213.75,-25.73 215.98,-19.1"/>
</a>
</g>
</g>
</g>
</svg>
