<?xml version="1.0" encoding="UTF-8" standalone="no"?>
<!DOCTYPE svg PUBLIC "-//W3C//DTD SVG 1.1//EN"
 "http://www.w3.org/Graphics/SVG/1.1/DTD/svg11.dtd">
<!-- Generated by graphviz version 11.0.0 (20240428.1522)
 -->
<!-- Title: src/crsf/crsf.h Pages: 1 -->
<svg width="870pt" height="204pt"
 viewBox="0.00 0.00 870.25 204.25" xmlns="http://www.w3.org/2000/svg" xmlns:xlink="http://www.w3.org/1999/xlink">
<g id="graph0" class="graph" transform="scale(1 1) rotate(0) translate(4 200.25)">
<title>src/crsf/crsf.h</title>
<!-- Node1 -->
<g id="Node000001" class="node">
<title>Node1</title>
<g id="a_Node000001"><a xlink:title="Header file for the CRSF protocol implementation.">
<polygon fill="#999999" stroke="#666666" points="653.5,-196.25 577.5,-196.25 577.5,-177 653.5,-177 653.5,-196.25"/>
<text text-anchor="middle" x="615.5" y="-182.75" font-family="Helvetica,sans-Serif" font-size="10.00">src/crsf/crsf.h</text>
</a>
</g>
</g>
<!-- Node2 -->
<g id="Node000002" class="node">
<title>Node2</title>
<g id="a_Node000002"><a xlink:href="SerialIO_8h.html" target="_top" xlink:title="Header file for serial input/output (IO) functionality.">
<polygon fill="white" stroke="#666666" points="653.12,-141 577.88,-141 577.88,-121.75 653.12,-121.75 653.12,-141"/>
<text text-anchor="middle" x="615.5" y="-127.5" font-family="Helvetica,sans-Serif" font-size="10.00">src/SerialIO.h</text>
</a>
</g>
</g>
<!-- Node1&#45;&gt;Node2 -->
<g id="edge1_Node000001_Node000002" class="edge">
<title>Node1&#45;&gt;Node2</title>
<g id="a_edge1_Node000001_Node000002"><a xlink:title=" ">
<path fill="none" stroke="#63b8ff" d="M608.94,-165.67C608.45,-157.3 608.9,-148 610.29,-141.36"/>
<polygon fill="#63b8ff" stroke="#63b8ff" points="605.44,-165.84 610.15,-175.33 612.38,-164.97 605.44,-165.84"/>
</a>
</g>
</g>
<!-- Node2&#45;&gt;Node1 -->
<g id="edge6_Node000002_Node000001" class="edge">
<title>Node2&#45;&gt;Node1</title>
<g id="a_edge6_Node000002_Node000001"><a xlink:title=" ">
<path fill="none" stroke="#63b8ff" d="M622.07,-152.57C622.54,-160.96 622.08,-170.24 620.67,-176.83"/>
<polygon fill="#63b8ff" stroke="#63b8ff" points="625.57,-152.37 620.89,-142.86 618.62,-153.21 625.57,-152.37"/>
</a>
</g>
</g>
<!-- Node3 -->
<g id="Node000003" class="node">
<title>Node3</title>
<g id="a_Node000003"><a xlink:href="atmel_2ibus__basic_2ibus__basic_8ino.html" target="_top" xlink:title=" ">
<polygon fill="white" stroke="#666666" points="109,-85.75 0,-85.75 0,-55.25 109,-55.25 109,-85.75"/>
<text text-anchor="start" x="8" y="-72.25" font-family="Helvetica,sans-Serif" font-size="10.00">examples/atmel/ibus</text>
<text text-anchor="middle" x="54.5" y="-61" font-family="Helvetica,sans-Serif" font-size="10.00">_basic/ibus_basic.ino</text>
</a>
</g>
</g>
<!-- Node2&#45;&gt;Node3 -->
<g id="edge2_Node000002_Node000003" class="edge">
<title>Node2&#45;&gt;Node3</title>
<g id="a_edge2_Node000002_Node000003"><a xlink:title=" ">
<path fill="none" stroke="#63b8ff" d="M566.05,-128.13C476.26,-123.56 280.61,-111.39 117.5,-85.75 114.84,-85.33 112.13,-84.87 109.39,-84.37"/>
<polygon fill="#63b8ff" stroke="#63b8ff" points="565.82,-131.62 575.98,-128.62 566.17,-124.63 565.82,-131.62"/>
</a>
</g>
</g>
<!-- Node4 -->
<g id="Node000004" class="node">
<title>Node4</title>
<g id="a_Node000004"><a xlink:href="crsf__basic_8ino.html" target="_top" xlink:title=" ">
<polygon fill="white" stroke="#666666" points="254,-85.75 127,-85.75 127,-55.25 254,-55.25 254,-85.75"/>
<text text-anchor="start" x="135" y="-72.25" font-family="Helvetica,sans-Serif" font-size="10.00">examples/espresiff</text>
<text text-anchor="middle" x="190.5" y="-61" font-family="Helvetica,sans-Serif" font-size="10.00">/crsf_basic/crsf_basic.ino</text>
</a>
</g>
</g>
<!-- Node2&#45;&gt;Node4 -->
<g id="edge3_Node000002_Node000004" class="edge">
<title>Node2&#45;&gt;Node4</title>
<g id="a_edge3_Node000002_Node000004"><a xlink:title=" ">
<path fill="none" stroke="#63b8ff" d="M566.39,-125.2C498.22,-117.77 371.16,-103.06 263.5,-85.75 260.44,-85.26 257.31,-84.73 254.16,-84.19"/>
<polygon fill="#63b8ff" stroke="#63b8ff" points="565.79,-128.65 576.11,-126.25 566.55,-121.69 565.79,-128.65"/>
</a>
</g>
</g>
<!-- Node5 -->
<g id="Node000005" class="node">
<title>Node5</title>
<g id="a_Node000005"><a xlink:href="espresiff_2ibus__basic_2ibus__basic_8ino.html" target="_top" xlink:title=" ">
<polygon fill="white" stroke="#666666" points="402.5,-85.75 272.5,-85.75 272.5,-55.25 402.5,-55.25 402.5,-85.75"/>
<text text-anchor="start" x="280.5" y="-72.25" font-family="Helvetica,sans-Serif" font-size="10.00">examples/espresiff</text>
<text text-anchor="middle" x="337.5" y="-61" font-family="Helvetica,sans-Serif" font-size="10.00">/ibus_basic/ibus_basic.ino</text>
</a>
</g>
</g>
<!-- Node2&#45;&gt;Node5 -->
<g id="edge4_Node000002_Node000005" class="edge">
<title>Node2&#45;&gt;Node5</title>
<g id="a_edge4_Node000002_Node000005"><a xlink:title=" ">
<path fill="none" stroke="#63b8ff" d="M566.37,-119.97C520.87,-110.33 452.87,-95.93 402.81,-85.33"/>
<polygon fill="#63b8ff" stroke="#63b8ff" points="565.44,-123.35 575.95,-122 566.89,-116.5 565.44,-123.35"/>
</a>
</g>
</g>
<!-- Node6 -->
<g id="Node000006" class="node">
<title>Node6</title>
<g id="a_Node000006"><a xlink:href="sbus__basic_8ino.html" target="_top" xlink:title=" ">
<polygon fill="white" stroke="#666666" points="556.5,-85.75 420.5,-85.75 420.5,-55.25 556.5,-55.25 556.5,-85.75"/>
<text text-anchor="start" x="428.5" y="-72.25" font-family="Helvetica,sans-Serif" font-size="10.00">examples/espresiff</text>
<text text-anchor="middle" x="488.5" y="-61" font-family="Helvetica,sans-Serif" font-size="10.00">/sbus_basic/sbus_basic.ino</text>
</a>
</g>
</g>
<!-- Node2&#45;&gt;Node6 -->
<g id="edge5_Node000002_Node000006" class="edge">
<title>Node2&#45;&gt;Node6</title>
<g id="a_edge5_Node000002_Node000006"><a xlink:title=" ">
<path fill="none" stroke="#63b8ff" d="M585.7,-116.56C566.02,-107.44 540.26,-95.49 520.2,-86.19"/>
<polygon fill="#63b8ff" stroke="#63b8ff" points="584.02,-119.64 594.56,-120.67 586.96,-113.29 584.02,-119.64"/>
</a>
</g>
</g>
<!-- Node7 -->
<g id="Node000007" class="node">
<title>Node7</title>
<g id="a_Node000007"><a xlink:href="fport_8h.html" target="_top" xlink:title="Header file for the FPort Protocol definations.">
<polygon fill="white" stroke="#666666" points="656.5,-80.12 574.5,-80.12 574.5,-60.88 656.5,-60.88 656.5,-80.12"/>
<text text-anchor="middle" x="615.5" y="-66.62" font-family="Helvetica,sans-Serif" font-size="10.00">src/fport/fport.h</text>
</a>
</g>
</g>
<!-- Node2&#45;&gt;Node7 -->
<g id="edge7_Node000002_Node000007" class="edge">
<title>Node2&#45;&gt;Node7</title>
<g id="a_edge7_Node000002_Node000007"><a xlink:title=" ">
<path fill="none" stroke="#63b8ff" d="M609.06,-110.28C608.37,-100.17 608.84,-88.42 610.47,-80.53"/>
<polygon fill="#63b8ff" stroke="#63b8ff" points="605.56,-110.46 610.3,-119.93 612.5,-109.57 605.56,-110.46"/>
</a>
</g>
</g>
<!-- Node9 -->
<g id="Node000009" class="node">
<title>Node9</title>
<g id="a_Node000009"><a xlink:href="ibus_8h.html" target="_top" xlink:title="Header file for the Ibus protocol implementation.">
<polygon fill="white" stroke="#666666" points="754,-80.12 675,-80.12 675,-60.88 754,-60.88 754,-80.12"/>
<text text-anchor="middle" x="714.5" y="-66.62" font-family="Helvetica,sans-Serif" font-size="10.00">src/ibus/ibus.h</text>
</a>
</g>
</g>
<!-- Node2&#45;&gt;Node9 -->
<g id="edge10_Node000002_Node000009" class="edge">
<title>Node2&#45;&gt;Node9</title>
<g id="a_edge10_Node000002_Node000009"><a xlink:title=" ">
<path fill="none" stroke="#63b8ff" d="M635.14,-115.13C652.34,-104.15 676.92,-89.72 694.3,-80.53"/>
<polygon fill="#63b8ff" stroke="#63b8ff" points="633.23,-112.19 626.79,-120.6 637.07,-118.05 633.23,-112.19"/>
</a>
</g>
</g>
<!-- Node10 -->
<g id="Node000010" class="node">
<title>Node10</title>
<g id="a_Node000010"><a xlink:href="sbus_8h.html" target="_top" xlink:title="Header file for the SBUS protocol implementation.">
<polygon fill="white" stroke="#666666" points="857,-80.12 772,-80.12 772,-60.88 857,-60.88 857,-80.12"/>
<text text-anchor="middle" x="814.5" y="-66.62" font-family="Helvetica,sans-Serif" font-size="10.00">src/sbus/sbus.h</text>
</a>
</g>
</g>
<!-- Node2&#45;&gt;Node10 -->
<g id="edge12_Node000002_Node000010" class="edge">
<title>Node2&#45;&gt;Node10</title>
<g id="a_edge12_Node000002_Node000010"><a xlink:title=" ">
<path fill="none" stroke="#63b8ff" d="M651.69,-118.01C687.81,-106.82 742.8,-90.61 778.77,-80.58"/>
<polygon fill="#63b8ff" stroke="#63b8ff" points="651.07,-114.53 642.57,-120.85 653.16,-121.21 651.07,-114.53"/>
</a>
</g>
</g>
<!-- Node7&#45;&gt;Node2 -->
<g id="edge8_Node000007_Node000002" class="edge">
<title>Node7&#45;&gt;Node2</title>
<g id="a_edge8_Node000007_Node000002"><a xlink:title=" ">
<path fill="none" stroke="#63b8ff" d="M621.95,-91.7C622.63,-101.82 622.16,-113.57 620.51,-121.43"/>
<polygon fill="#63b8ff" stroke="#63b8ff" points="625.45,-91.51 620.72,-82.03 618.5,-92.39 625.45,-91.51"/>
</a>
</g>
</g>
<!-- Node8 -->
<g id="Node000008" class="node">
<title>Node8</title>
<g id="a_Node000008"><a xlink:href="fport_8cpp.html" target="_top" xlink:title="Source file for the F.Port implementations.">
<polygon fill="white" stroke="#666666" points="661.75,-19.25 569.25,-19.25 569.25,0 661.75,0 661.75,-19.25"/>
<text text-anchor="middle" x="615.5" y="-5.75" font-family="Helvetica,sans-Serif" font-size="10.00">src/fport/fport.cpp</text>
</a>
</g>
</g>
<!-- Node7&#45;&gt;Node8 -->
<g id="edge9_Node000007_Node000008" class="edge">
<title>Node7&#45;&gt;Node8</title>
<g id="a_edge9_Node000007_Node000008"><a xlink:title=" ">
<path fill="none" stroke="#63b8ff" d="M615.5,-49.07C615.5,-39.04 615.5,-27.46 615.5,-19.65"/>
<polygon fill="#63b8ff" stroke="#63b8ff" points="612,-49.04 615.5,-59.04 619,-49.04 612,-49.04"/>
</a>
</g>
</g>
<!-- Node9&#45;&gt;Node2 -->
<g id="edge11_Node000009_Node000002" class="edge">
<title>Node9&#45;&gt;Node2</title>
<g id="a_edge11_Node000009_Node000002"><a xlink:title=" ">
<path fill="none" stroke="#63b8ff" d="M695.18,-86.54C677.93,-97.57 653.04,-112.18 635.55,-121.43"/>
<polygon fill="#63b8ff" stroke="#63b8ff" points="696.64,-89.77 703.08,-81.36 692.8,-83.92 696.64,-89.77"/>
</a>
</g>
</g>
<!-- Node10&#45;&gt;Node2 -->
<g id="edge13_Node000010_Node000002" class="edge">
<title>Node10&#45;&gt;Node2</title>
<g id="a_edge13_Node000010_Node000002"><a xlink:title=" ">
<path fill="none" stroke="#63b8ff" d="M778.28,-83.88C742.14,-95.07 687.15,-111.28 651.19,-121.3"/>
<polygon fill="#63b8ff" stroke="#63b8ff" points="778.9,-87.35 787.4,-81.03 776.81,-80.67 778.9,-87.35"/>
</a>
</g>
</g>
<!-- Node11 -->
<g id="Node000011" class="node">
<title>Node11</title>
<g id="a_Node000011"><a xlink:href="sbus_8cpp.html" target="_top" xlink:title="Source file for the SBus implementations.">
<polygon fill="white" stroke="#666666" points="862.25,-19.25 766.75,-19.25 766.75,0 862.25,0 862.25,-19.25"/>
<text text-anchor="middle" x="814.5" y="-5.75" font-family="Helvetica,sans-Serif" font-size="10.00">src/sbus/sbus.cpp</text>
</a>
</g>
</g>
<!-- Node10&#45;&gt;Node11 -->
<g id="edge14_Node000010_Node000011" class="edge">
<title>Node10&#45;&gt;Node11</title>
<g id="a_edge14_Node000010_Node000011"><a xlink:title=" ">
<path fill="none" stroke="#63b8ff" d="M814.5,-49.07C814.5,-39.04 814.5,-27.46 814.5,-19.65"/>
<polygon fill="#63b8ff" stroke="#63b8ff" points="811,-49.04 814.5,-59.04 818,-49.04 811,-49.04"/>
</a>
</g>
</g>
</g>
</svg>
