<?xml version="1.0" encoding="UTF-8" standalone="no"?>
<!DOCTYPE svg PUBLIC "-//W3C//DTD SVG 1.1//EN"
 "http://www.w3.org/Graphics/SVG/1.1/DTD/svg11.dtd">
<!-- Generated by graphviz version 9.0.0 (20230911.1827)
 -->
<!-- Title: src/crsf.h Pages: 1 -->
<svg width="195pt" height="248pt"
 viewBox="0.00 0.00 195.12 248.25" xmlns="http://www.w3.org/2000/svg" xmlns:xlink="http://www.w3.org/1999/xlink">
<g id="graph0" class="graph" transform="scale(1 1) rotate(0) translate(4 244.25)">
<title>src/crsf.h</title>
<!-- Node1 -->
<g id="Node000001" class="node">
<title>Node1</title>
<g id="a_Node000001"><a xlink:title="Header file for the CRSF protocol implementation.">
<polygon fill="#999999" stroke="#666666" points="124.12,-240.25 67.62,-240.25 67.62,-221 124.12,-221 124.12,-240.25"/>
<text text-anchor="middle" x="95.88" y="-226.75" font-family="Helvetica,sans-Serif" font-size="10.00">src/crsf.h</text>
</a>
</g>
</g>
<!-- Node2 -->
<g id="Node000002" class="node">
<title>Node2</title>
<g id="a_Node000002"><a xlink:href="crsf__protocol_8h.html" target="_top" xlink:title="Header file for the CRSF protocol implementation.">
<polygon fill="white" stroke="#666666" points="79.75,-74.5 0,-74.5 0,-55.25 79.75,-55.25 79.75,-74.5"/>
<text text-anchor="middle" x="39.88" y="-61" font-family="Helvetica,sans-Serif" font-size="10.00">crsf_protocol.h</text>
</a>
</g>
</g>
<!-- Node1&#45;&gt;Node2 -->
<g id="edge1_Node000001_Node000002" class="edge">
<title>Node1&#45;&gt;Node2</title>
<g id="a_edge1_Node000001_Node000002"><a xlink:title=" ">
<path fill="none" stroke="#63b8ff" d="M85.78,-220.76C76.97,-212.44 64.58,-199.16 57.88,-185 42.62,-152.79 39.7,-110.69 39.45,-86.13"/>
<polygon fill="#63b8ff" stroke="#63b8ff" points="42.95,-86.28 39.51,-76.26 35.95,-86.24 42.95,-86.28"/>
</a>
</g>
</g>
<!-- Node4 -->
<g id="Node000004" class="node">
<title>Node4</title>
<g id="a_Node000004"><a xlink:href="SerialIO_8h.html" target="_top" xlink:title="Header file for serial input/output (IO) functionality.">
<polygon fill="white" stroke="#666666" points="125.25,-185 66.5,-185 66.5,-165.75 125.25,-165.75 125.25,-185"/>
<text text-anchor="middle" x="95.88" y="-171.5" font-family="Helvetica,sans-Serif" font-size="10.00">SerialIO.h</text>
</a>
</g>
</g>
<!-- Node1&#45;&gt;Node4 -->
<g id="edge3_Node000001_Node000004" class="edge">
<title>Node1&#45;&gt;Node4</title>
<g id="a_edge3_Node000001_Node000004"><a xlink:title=" ">
<path fill="none" stroke="#63b8ff" d="M90.71,-220.83C89.3,-214.24 88.83,-204.96 89.3,-196.57"/>
<polygon fill="#63b8ff" stroke="#63b8ff" points="92.75,-197.21 90.49,-186.86 85.8,-196.37 92.75,-197.21"/>
</a>
</g>
</g>
<!-- Node3 -->
<g id="Node000003" class="node">
<title>Node3</title>
<g id="a_Node000003"><a xlink:title=" ">
<polygon fill="#e0e0e0" stroke="#999999" points="63.62,-19.25 16.12,-19.25 16.12,0 63.62,0 63.62,-19.25"/>
<text text-anchor="middle" x="39.88" y="-5.75" font-family="Helvetica,sans-Serif" font-size="10.00">stdint.h</text>
</a>
</g>
</g>
<!-- Node2&#45;&gt;Node3 -->
<g id="edge2_Node000002_Node000003" class="edge">
<title>Node2&#45;&gt;Node3</title>
<g id="a_edge2_Node000002_Node000003"><a xlink:title=" ">
<path fill="none" stroke="#63b8ff" d="M39.88,-55.08C39.88,-48.57 39.88,-39.42 39.88,-31.12"/>
<polygon fill="#63b8ff" stroke="#63b8ff" points="43.38,-31.12 39.88,-21.12 36.38,-31.12 43.38,-31.12"/>
</a>
</g>
</g>
<!-- Node4&#45;&gt;Node1 -->
<g id="edge9_Node000004_Node000001" class="edge">
<title>Node4&#45;&gt;Node1</title>
<g id="a_edge9_Node000004_Node000001"><a xlink:title=" ">
<path fill="none" stroke="#63b8ff" d="M101.08,-185.36C102.47,-192 102.92,-201.3 102.43,-209.67"/>
<polygon fill="#63b8ff" stroke="#63b8ff" points="98.99,-208.97 101.23,-219.33 105.94,-209.84 98.99,-208.97"/>
</a>
</g>
</g>
<!-- Node4&#45;&gt;Node2 -->
<g id="edge4_Node000004_Node000002" class="edge">
<title>Node4&#45;&gt;Node2</title>
<g id="a_edge4_Node000004_Node000002"><a xlink:title=" ">
<path fill="none" stroke="#63b8ff" d="M86.41,-165.28C78.08,-156.79 66.18,-143.42 58.88,-129.75 51.52,-115.99 46.64,-98.99 43.67,-85.99"/>
<polygon fill="#63b8ff" stroke="#63b8ff" points="47.15,-85.55 41.7,-76.47 40.3,-86.98 47.15,-85.55"/>
</a>
</g>
</g>
<!-- Node5 -->
<g id="Node000005" class="node">
<title>Node5</title>
<g id="a_Node000005"><a xlink:title=" ">
<polygon fill="#e0e0e0" stroke="#999999" points="124.12,-129.75 67.62,-129.75 67.62,-110.5 124.12,-110.5 124.12,-129.75"/>
<text text-anchor="middle" x="95.88" y="-116.25" font-family="Helvetica,sans-Serif" font-size="10.00">Arduino.h</text>
</a>
</g>
</g>
<!-- Node4&#45;&gt;Node5 -->
<g id="edge5_Node000004_Node000005" class="edge">
<title>Node4&#45;&gt;Node5</title>
<g id="a_edge5_Node000004_Node000005"><a xlink:title=" ">
<path fill="none" stroke="#63b8ff" d="M95.88,-165.58C95.88,-159.07 95.88,-149.92 95.88,-141.62"/>
<polygon fill="#63b8ff" stroke="#63b8ff" points="99.38,-141.62 95.88,-131.62 92.38,-141.62 99.38,-141.62"/>
</a>
</g>
</g>
<!-- Node6 -->
<g id="Node000006" class="node">
<title>Node6</title>
<g id="a_Node000006"><a xlink:href="sbus_8h.html" target="_top" xlink:title="Header file for the SBUS protocol implementation.">
<polygon fill="white" stroke="#666666" points="187.12,-129.75 142.62,-129.75 142.62,-110.5 187.12,-110.5 187.12,-129.75"/>
<text text-anchor="middle" x="164.88" y="-116.25" font-family="Helvetica,sans-Serif" font-size="10.00">sbus.h</text>
</a>
</g>
</g>
<!-- Node4&#45;&gt;Node6 -->
<g id="edge6_Node000004_Node000006" class="edge">
<title>Node4&#45;&gt;Node6</title>
<g id="a_edge6_Node000004_Node000006"><a xlink:title=" ">
<path fill="none" stroke="#63b8ff" d="M102.36,-165.34C110.93,-157.46 125.64,-145.86 138.74,-136.52"/>
<polygon fill="#63b8ff" stroke="#63b8ff" points="140.4,-139.63 146.64,-131.06 136.42,-133.87 140.4,-139.63"/>
</a>
</g>
</g>
<!-- Node6&#45;&gt;Node2 -->
<g id="edge7_Node000006_Node000002" class="edge">
<title>Node6&#45;&gt;Node2</title>
<g id="a_edge7_Node000006_Node000002"><a xlink:title=" ">
<path fill="none" stroke="#63b8ff" d="M143.67,-110.09C123.92,-101.68 94.2,-89.02 71.62,-79.4"/>
<polygon fill="#63b8ff" stroke="#63b8ff" points="73.15,-76.24 62.58,-75.55 70.4,-82.68 73.15,-76.24"/>
</a>
</g>
</g>
<!-- Node6&#45;&gt;Node4 -->
<g id="edge8_Node000006_Node000004" class="edge">
<title>Node6&#45;&gt;Node4</title>
<g id="a_edge8_Node000006_Node000004"><a xlink:title=" ">
<path fill="none" stroke="#63b8ff" d="M158.53,-130.02C149.98,-137.91 135.17,-149.59 121.99,-158.99"/>
<polygon fill="#63b8ff" stroke="#63b8ff" points="120.28,-155.92 114.04,-164.48 124.26,-161.68 120.28,-155.92"/>
</a>
</g>
</g>
</g>
</svg>
