<?xml version="1.0" encoding="UTF-8" standalone="no"?>
<!DOCTYPE svg PUBLIC "-//W3C//DTD SVG 1.1//EN"
 "http://www.w3.org/Graphics/SVG/1.1/DTD/svg11.dtd">
<!-- Generated by graphviz version 12.2.1 (20241206.2353)
 -->
<!-- Title: src/crsf/crsf.h Pages: 1 -->
<svg width="998pt" height="204pt"
 viewBox="0.00 0.00 998.25 204.25" xmlns="http://www.w3.org/2000/svg" xmlns:xlink="http://www.w3.org/1999/xlink">
<g id="graph0" class="graph" transform="scale(1 1) rotate(0) translate(4 200.25)">
<title>src/crsf/crsf.h</title>
<!-- Node1 -->
<g id="Node000001" class="node">
<title>Node1</title>
<g id="a_Node000001"><a xlink:title="Header file for the CRSF protocol implementation.">
<polygon fill="#999999" stroke="#666666" points="781.5,-196.25 705.5,-196.25 705.5,-177 781.5,-177 781.5,-196.25"/>
<text text-anchor="middle" x="743.5" y="-182.75" font-family="Helvetica,sans-Serif" font-size="10.00">src/crsf/crsf.h</text>
</a>
</g>
</g>
<!-- Node2 -->
<g id="Node000002" class="node">
<title>Node2</title>
<g id="a_Node000002"><a xlink:href="SerialIO_8h.html" target="_top" xlink:title="Header file for serial input/output (IO) functionality.">
<polygon fill="white" stroke="#666666" points="781.12,-141 705.88,-141 705.88,-121.75 781.12,-121.75 781.12,-141"/>
<text text-anchor="middle" x="743.5" y="-127.5" font-family="Helvetica,sans-Serif" font-size="10.00">src/SerialIO.h</text>
</a>
</g>
</g>
<!-- Node1&#45;&gt;Node2 -->
<g id="edge1_Node000001_Node000002" class="edge">
<title>Node1&#45;&gt;Node2</title>
<g id="a_edge1_Node000001_Node000002"><a xlink:title=" ">
<path fill="none" stroke="#63b8ff" d="M736.94,-165.67C736.45,-157.3 736.9,-148 738.29,-141.36"/>
<polygon fill="#63b8ff" stroke="#63b8ff" points="733.44,-165.84 738.15,-175.33 740.38,-164.97 733.44,-165.84"/>
</a>
</g>
</g>
<!-- Node2&#45;&gt;Node1 -->
<g id="edge7_Node000002_Node000001" class="edge">
<title>Node2&#45;&gt;Node1</title>
<g id="a_edge7_Node000002_Node000001"><a xlink:title=" ">
<path fill="none" stroke="#63b8ff" d="M750.07,-152.57C750.54,-160.96 750.08,-170.24 748.67,-176.83"/>
<polygon fill="#63b8ff" stroke="#63b8ff" points="753.57,-152.37 748.89,-142.86 746.62,-153.21 753.57,-152.37"/>
</a>
</g>
</g>
<!-- Node3 -->
<g id="Node000003" class="node">
<title>Node3</title>
<g id="a_Node000003"><a xlink:href="atmel_2ibus__basic_2ibus__basic_8ino.html" target="_top" xlink:title=" ">
<polygon fill="white" stroke="#666666" points="109,-85.75 0,-85.75 0,-55.25 109,-55.25 109,-85.75"/>
<text text-anchor="start" x="8" y="-72.25" font-family="Helvetica,sans-Serif" font-size="10.00">examples/atmel/ibus</text>
<text text-anchor="middle" x="54.5" y="-61" font-family="Helvetica,sans-Serif" font-size="10.00">_basic/ibus_basic.ino</text>
</a>
</g>
</g>
<!-- Node2&#45;&gt;Node3 -->
<g id="edge2_Node000002_Node000003" class="edge">
<title>Node2&#45;&gt;Node3</title>
<g id="a_edge2_Node000002_Node000003"><a xlink:title=" ">
<path fill="none" stroke="#63b8ff" d="M694.26,-129.39C588.25,-126.73 330.73,-117.28 117.5,-85.75 114.84,-85.36 112.12,-84.91 109.38,-84.43"/>
<polygon fill="#63b8ff" stroke="#63b8ff" points="693.94,-132.89 704.02,-129.63 694.11,-125.89 693.94,-132.89"/>
</a>
</g>
</g>
<!-- Node4 -->
<g id="Node000004" class="node">
<title>Node4</title>
<g id="a_Node000004"><a xlink:href="crsf__basic_8ino.html" target="_top" xlink:title=" ">
<polygon fill="white" stroke="#666666" points="254,-85.75 127,-85.75 127,-55.25 254,-55.25 254,-85.75"/>
<text text-anchor="start" x="135" y="-72.25" font-family="Helvetica,sans-Serif" font-size="10.00">examples/espresiff</text>
<text text-anchor="middle" x="190.5" y="-61" font-family="Helvetica,sans-Serif" font-size="10.00">/crsf_basic/crsf_basic.ino</text>
</a>
</g>
</g>
<!-- Node2&#45;&gt;Node4 -->
<g id="edge3_Node000002_Node000004" class="edge">
<title>Node2&#45;&gt;Node4</title>
<g id="a_edge3_Node000002_Node000004"><a xlink:title=" ">
<path fill="none" stroke="#63b8ff" d="M694,-127.41C606.73,-121.83 419.92,-108.23 263.5,-85.75 260.43,-85.31 257.3,-84.83 254.14,-84.31"/>
<polygon fill="#63b8ff" stroke="#63b8ff" points="693.68,-130.9 703.88,-128.04 694.12,-123.91 693.68,-130.9"/>
</a>
</g>
</g>
<!-- Node5 -->
<g id="Node000005" class="node">
<title>Node5</title>
<g id="a_Node000005"><a xlink:href="espresiff_2ibus__basic_2ibus__basic_8ino.html" target="_top" xlink:title=" ">
<polygon fill="white" stroke="#666666" points="402.5,-85.75 272.5,-85.75 272.5,-55.25 402.5,-55.25 402.5,-85.75"/>
<text text-anchor="start" x="280.5" y="-72.25" font-family="Helvetica,sans-Serif" font-size="10.00">examples/espresiff</text>
<text text-anchor="middle" x="337.5" y="-61" font-family="Helvetica,sans-Serif" font-size="10.00">/ibus_basic/ibus_basic.ino</text>
</a>
</g>
</g>
<!-- Node2&#45;&gt;Node5 -->
<g id="edge4_Node000002_Node000005" class="edge">
<title>Node2&#45;&gt;Node5</title>
<g id="a_edge4_Node000002_Node000005"><a xlink:title=" ">
<path fill="none" stroke="#63b8ff" d="M694.46,-124.66C629.56,-116.91 511.67,-102.11 411.5,-85.75 408.66,-85.29 405.76,-84.8 402.83,-84.29"/>
<polygon fill="#63b8ff" stroke="#63b8ff" points="693.71,-128.1 704.05,-125.81 694.54,-121.15 693.71,-128.1"/>
</a>
</g>
</g>
<!-- Node6 -->
<g id="Node000006" class="node">
<title>Node6</title>
<g id="a_Node000006"><a xlink:href="sbus__basic_8ino.html" target="_top" xlink:title=" ">
<polygon fill="white" stroke="#666666" points="556.5,-85.75 420.5,-85.75 420.5,-55.25 556.5,-55.25 556.5,-85.75"/>
<text text-anchor="start" x="428.5" y="-72.25" font-family="Helvetica,sans-Serif" font-size="10.00">examples/espresiff</text>
<text text-anchor="middle" x="488.5" y="-61" font-family="Helvetica,sans-Serif" font-size="10.00">/sbus_basic/sbus_basic.ino</text>
</a>
</g>
</g>
<!-- Node2&#45;&gt;Node6 -->
<g id="edge5_Node000002_Node000006" class="edge">
<title>Node2&#45;&gt;Node6</title>
<g id="a_edge5_Node000002_Node000006"><a xlink:title=" ">
<path fill="none" stroke="#63b8ff" d="M694.42,-119.04C653.99,-109.71 596.37,-96.41 552.36,-86.24"/>
<polygon fill="#63b8ff" stroke="#63b8ff" points="693.59,-122.44 704.12,-121.28 695.17,-115.62 693.59,-122.44"/>
</a>
</g>
</g>
<!-- Node7 -->
<g id="Node000007" class="node">
<title>Node7</title>
<g id="a_Node000007"><a xlink:href="rp2040_2ibus__basic_2ibus__basic_8ino.html" target="_top" xlink:title=" ">
<polygon fill="white" stroke="#666666" points="684.75,-85.75 574.25,-85.75 574.25,-55.25 684.75,-55.25 684.75,-85.75"/>
<text text-anchor="start" x="582.25" y="-72.25" font-family="Helvetica,sans-Serif" font-size="10.00">examples/rp2040/ibus</text>
<text text-anchor="middle" x="629.5" y="-61" font-family="Helvetica,sans-Serif" font-size="10.00">_basic/ibus_basic.ino</text>
</a>
</g>
</g>
<!-- Node2&#45;&gt;Node7 -->
<g id="edge6_Node000002_Node000007" class="edge">
<title>Node2&#45;&gt;Node7</title>
<g id="a_edge6_Node000002_Node000007"><a xlink:title=" ">
<path fill="none" stroke="#63b8ff" d="M716.45,-116.41C698.72,-107.25 675.59,-95.3 657.64,-86.03"/>
<polygon fill="#63b8ff" stroke="#63b8ff" points="714.35,-119.26 724.84,-120.74 717.56,-113.04 714.35,-119.26"/>
</a>
</g>
</g>
<!-- Node8 -->
<g id="Node000008" class="node">
<title>Node8</title>
<g id="a_Node000008"><a xlink:href="fport_8h.html" target="_top" xlink:title="Header file for the FPort Protocol definations.">
<polygon fill="white" stroke="#666666" points="784.5,-80.12 702.5,-80.12 702.5,-60.88 784.5,-60.88 784.5,-80.12"/>
<text text-anchor="middle" x="743.5" y="-66.62" font-family="Helvetica,sans-Serif" font-size="10.00">src/fport/fport.h</text>
</a>
</g>
</g>
<!-- Node2&#45;&gt;Node8 -->
<g id="edge8_Node000002_Node000008" class="edge">
<title>Node2&#45;&gt;Node8</title>
<g id="a_edge8_Node000002_Node000008"><a xlink:title=" ">
<path fill="none" stroke="#63b8ff" d="M737.06,-110.28C736.37,-100.17 736.84,-88.42 738.47,-80.53"/>
<polygon fill="#63b8ff" stroke="#63b8ff" points="733.56,-110.46 738.3,-119.93 740.5,-109.57 733.56,-110.46"/>
</a>
</g>
</g>
<!-- Node10 -->
<g id="Node000010" class="node">
<title>Node10</title>
<g id="a_Node000010"><a xlink:href="ibus_8h.html" target="_top" xlink:title="Header file for the Ibus protocol implementation.">
<polygon fill="white" stroke="#666666" points="882,-80.12 803,-80.12 803,-60.88 882,-60.88 882,-80.12"/>
<text text-anchor="middle" x="842.5" y="-66.62" font-family="Helvetica,sans-Serif" font-size="10.00">src/ibus/ibus.h</text>
</a>
</g>
</g>
<!-- Node2&#45;&gt;Node10 -->
<g id="edge11_Node000002_Node000010" class="edge">
<title>Node2&#45;&gt;Node10</title>
<g id="a_edge11_Node000002_Node000010"><a xlink:title=" ">
<path fill="none" stroke="#63b8ff" d="M763.14,-115.13C780.34,-104.15 804.92,-89.72 822.3,-80.53"/>
<polygon fill="#63b8ff" stroke="#63b8ff" points="761.23,-112.19 754.79,-120.6 765.07,-118.05 761.23,-112.19"/>
</a>
</g>
</g>
<!-- Node11 -->
<g id="Node000011" class="node">
<title>Node11</title>
<g id="a_Node000011"><a xlink:href="sbus_8h.html" target="_top" xlink:title="Header file for the SBUS protocol implementation.">
<polygon fill="white" stroke="#666666" points="985,-80.12 900,-80.12 900,-60.88 985,-60.88 985,-80.12"/>
<text text-anchor="middle" x="942.5" y="-66.62" font-family="Helvetica,sans-Serif" font-size="10.00">src/sbus/sbus.h</text>
</a>
</g>
</g>
<!-- Node2&#45;&gt;Node11 -->
<g id="edge13_Node000002_Node000011" class="edge">
<title>Node2&#45;&gt;Node11</title>
<g id="a_edge13_Node000002_Node000011"><a xlink:title=" ">
<path fill="none" stroke="#63b8ff" d="M779.69,-118.01C815.81,-106.82 870.8,-90.61 906.77,-80.58"/>
<polygon fill="#63b8ff" stroke="#63b8ff" points="779.07,-114.53 770.57,-120.85 781.16,-121.21 779.07,-114.53"/>
</a>
</g>
</g>
<!-- Node8&#45;&gt;Node2 -->
<g id="edge9_Node000008_Node000002" class="edge">
<title>Node8&#45;&gt;Node2</title>
<g id="a_edge9_Node000008_Node000002"><a xlink:title=" ">
<path fill="none" stroke="#63b8ff" d="M749.95,-91.7C750.63,-101.82 750.16,-113.57 748.51,-121.43"/>
<polygon fill="#63b8ff" stroke="#63b8ff" points="753.45,-91.51 748.72,-82.03 746.5,-92.39 753.45,-91.51"/>
</a>
</g>
</g>
<!-- Node9 -->
<g id="Node000009" class="node">
<title>Node9</title>
<g id="a_Node000009"><a xlink:href="fport_8cpp.html" target="_top" xlink:title="Source file for the F.Port implementations.">
<polygon fill="white" stroke="#666666" points="789.75,-19.25 697.25,-19.25 697.25,0 789.75,0 789.75,-19.25"/>
<text text-anchor="middle" x="743.5" y="-5.75" font-family="Helvetica,sans-Serif" font-size="10.00">src/fport/fport.cpp</text>
</a>
</g>
</g>
<!-- Node8&#45;&gt;Node9 -->
<g id="edge10_Node000008_Node000009" class="edge">
<title>Node8&#45;&gt;Node9</title>
<g id="a_edge10_Node000008_Node000009"><a xlink:title=" ">
<path fill="none" stroke="#63b8ff" d="M743.5,-49.07C743.5,-39.04 743.5,-27.46 743.5,-19.65"/>
<polygon fill="#63b8ff" stroke="#63b8ff" points="740,-49.04 743.5,-59.04 747,-49.04 740,-49.04"/>
</a>
</g>
</g>
<!-- Node10&#45;&gt;Node2 -->
<g id="edge12_Node000010_Node000002" class="edge">
<title>Node10&#45;&gt;Node2</title>
<g id="a_edge12_Node000010_Node000002"><a xlink:title=" ">
<path fill="none" stroke="#63b8ff" d="M823.18,-86.54C805.93,-97.57 781.04,-112.18 763.55,-121.43"/>
<polygon fill="#63b8ff" stroke="#63b8ff" points="824.64,-89.77 831.08,-81.36 820.8,-83.92 824.64,-89.77"/>
</a>
</g>
</g>
<!-- Node11&#45;&gt;Node2 -->
<g id="edge14_Node000011_Node000002" class="edge">
<title>Node11&#45;&gt;Node2</title>
<g id="a_edge14_Node000011_Node000002"><a xlink:title=" ">
<path fill="none" stroke="#63b8ff" d="M906.28,-83.88C870.14,-95.07 815.15,-111.28 779.19,-121.3"/>
<polygon fill="#63b8ff" stroke="#63b8ff" points="906.9,-87.35 915.4,-81.03 904.81,-80.67 906.9,-87.35"/>
</a>
</g>
</g>
<!-- Node12 -->
<g id="Node000012" class="node">
<title>Node12</title>
<g id="a_Node000012"><a xlink:href="sbus_8cpp.html" target="_top" xlink:title="Source file for the SBus implementations.">
<polygon fill="white" stroke="#666666" points="990.25,-19.25 894.75,-19.25 894.75,0 990.25,0 990.25,-19.25"/>
<text text-anchor="middle" x="942.5" y="-5.75" font-family="Helvetica,sans-Serif" font-size="10.00">src/sbus/sbus.cpp</text>
</a>
</g>
</g>
<!-- Node11&#45;&gt;Node12 -->
<g id="edge15_Node000011_Node000012" class="edge">
<title>Node11&#45;&gt;Node12</title>
<g id="a_edge15_Node000011_Node000012"><a xlink:title=" ">
<path fill="none" stroke="#63b8ff" d="M942.5,-49.07C942.5,-39.04 942.5,-27.46 942.5,-19.65"/>
<polygon fill="#63b8ff" stroke="#63b8ff" points="939,-49.04 942.5,-59.04 946,-49.04 939,-49.04"/>
</a>
</g>
</g>
</g>
</svg>
