<?xml version="1.0" encoding="UTF-8" standalone="no"?>
<!DOCTYPE svg PUBLIC "-//W3C//DTD SVG 1.1//EN"
 "http://www.w3.org/Graphics/SVG/1.1/DTD/svg11.dtd">
<!-- Generated by graphviz version 11.0.0 (20240428.1522)
 -->
<!-- Title: src/crsf.h Pages: 1 -->
<svg width="521pt" height="149pt"
 viewBox="0.00 0.00 521.12 149.00" xmlns="http://www.w3.org/2000/svg" xmlns:xlink="http://www.w3.org/1999/xlink">
<g id="graph0" class="graph" transform="scale(1 1) rotate(0) translate(4 145)">
<title>src/crsf.h</title>
<!-- Node1 -->
<g id="Node000001" class="node">
<title>Node1</title>
<g id="a_Node000001"><a xlink:title="Header file for the CRSF protocol implementation.">
<polygon fill="#999999" stroke="#666666" points="432.88,-141 376.38,-141 376.38,-121.75 432.88,-121.75 432.88,-141"/>
<text text-anchor="middle" x="404.62" y="-127.5" font-family="Helvetica,sans-Serif" font-size="10.00">src/crsf.h</text>
</a>
</g>
</g>
<!-- Node2 -->
<g id="Node000002" class="node">
<title>Node2</title>
<g id="a_Node000002"><a xlink:href="SerialIO_8h.html" target="_top" xlink:title="Header file for serial input/output (IO) functionality.">
<polygon fill="white" stroke="#666666" points="442.25,-85.75 367,-85.75 367,-66.5 442.25,-66.5 442.25,-85.75"/>
<text text-anchor="middle" x="404.62" y="-72.25" font-family="Helvetica,sans-Serif" font-size="10.00">src/SerialIO.h</text>
</a>
</g>
</g>
<!-- Node1&#45;&gt;Node2 -->
<g id="edge1_Node000001_Node000002" class="edge">
<title>Node1&#45;&gt;Node2</title>
<g id="a_edge1_Node000001_Node000002"><a xlink:title=" ">
<path fill="none" stroke="#63b8ff" d="M398.07,-110.42C397.58,-102.05 398.03,-92.75 399.42,-86.11"/>
<polygon fill="#63b8ff" stroke="#63b8ff" points="394.56,-110.59 399.27,-120.08 401.51,-109.72 394.56,-110.59"/>
</a>
</g>
</g>
<!-- Node2&#45;&gt;Node1 -->
<g id="edge5_Node000002_Node000001" class="edge">
<title>Node2&#45;&gt;Node1</title>
<g id="a_edge5_Node000002_Node000001"><a xlink:title=" ">
<path fill="none" stroke="#63b8ff" d="M411.2,-97.32C411.67,-105.71 411.2,-114.99 409.79,-121.58"/>
<polygon fill="#63b8ff" stroke="#63b8ff" points="414.7,-97.12 410.01,-87.61 407.75,-97.96 414.7,-97.12"/>
</a>
</g>
</g>
<!-- Node3 -->
<g id="Node000003" class="node">
<title>Node3</title>
<g id="a_Node000003"><a xlink:href="crsf__basic_8ino.html" target="_top" xlink:title=" ">
<polygon fill="white" stroke="#666666" points="105.25,-30.5 0,-30.5 0,0 105.25,0 105.25,-30.5"/>
<text text-anchor="start" x="8" y="-17" font-family="Helvetica,sans-Serif" font-size="10.00">examples/crsf_basic</text>
<text text-anchor="middle" x="52.62" y="-5.75" font-family="Helvetica,sans-Serif" font-size="10.00">/crsf_basic.ino</text>
</a>
</g>
</g>
<!-- Node2&#45;&gt;Node3 -->
<g id="edge2_Node000002_Node000003" class="edge">
<title>Node2&#45;&gt;Node3</title>
<g id="a_edge2_Node000002_Node000003"><a xlink:title=" ">
<path fill="none" stroke="#63b8ff" d="M355.59,-68.7C297.77,-60.86 198.87,-46.64 114.62,-30.5 111.7,-29.94 108.7,-29.34 105.67,-28.71"/>
<polygon fill="#63b8ff" stroke="#63b8ff" points="355.06,-72.16 365.43,-70.02 355.99,-65.22 355.06,-72.16"/>
</a>
</g>
</g>
<!-- Node4 -->
<g id="Node000004" class="node">
<title>Node4</title>
<g id="a_Node000004"><a xlink:href="ibus__basic_8ino.html" target="_top" xlink:title=" ">
<polygon fill="white" stroke="#666666" points="230,-30.5 123.25,-30.5 123.25,0 230,0 230,-30.5"/>
<text text-anchor="start" x="131.25" y="-17" font-family="Helvetica,sans-Serif" font-size="10.00">examples/ibus_basic</text>
<text text-anchor="middle" x="176.62" y="-5.75" font-family="Helvetica,sans-Serif" font-size="10.00">/ibus_basic.ino</text>
</a>
</g>
</g>
<!-- Node2&#45;&gt;Node4 -->
<g id="edge3_Node000002_Node000004" class="edge">
<title>Node2&#45;&gt;Node4</title>
<g id="a_edge3_Node000002_Node000004"><a xlink:title=" ">
<path fill="none" stroke="#63b8ff" d="M358.52,-63.22C321.49,-53.66 269.41,-40.21 230.47,-30.15"/>
<polygon fill="#63b8ff" stroke="#63b8ff" points="357.48,-66.56 368.03,-65.68 359.23,-59.79 357.48,-66.56"/>
</a>
</g>
</g>
<!-- Node5 -->
<g id="Node000005" class="node">
<title>Node5</title>
<g id="a_Node000005"><a xlink:href="sbus__basic_8ino.html" target="_top" xlink:title=" ">
<polygon fill="white" stroke="#666666" points="357.5,-30.5 247.75,-30.5 247.75,0 357.5,0 357.5,-30.5"/>
<text text-anchor="start" x="255.75" y="-17" font-family="Helvetica,sans-Serif" font-size="10.00">examples/sbus_basic</text>
<text text-anchor="middle" x="302.62" y="-5.75" font-family="Helvetica,sans-Serif" font-size="10.00">/sbus_basic.ino</text>
</a>
</g>
</g>
<!-- Node2&#45;&gt;Node5 -->
<g id="edge4_Node000002_Node000005" class="edge">
<title>Node2&#45;&gt;Node5</title>
<g id="a_edge4_Node000002_Node000005"><a xlink:title=" ">
<path fill="none" stroke="#63b8ff" d="M379.53,-60.64C363.78,-51.55 343.56,-39.88 327.8,-30.78"/>
<polygon fill="#63b8ff" stroke="#63b8ff" points="377.41,-63.46 387.82,-65.43 380.91,-57.4 377.41,-63.46"/>
</a>
</g>
</g>
<!-- Node6 -->
<g id="Node000006" class="node">
<title>Node6</title>
<g id="a_Node000006"><a xlink:href="ibus_8h.html" target="_top" xlink:title="Header file for the Ibus protocol implementation.">
<polygon fill="white" stroke="#666666" points="433.62,-24.88 375.62,-24.88 375.62,-5.63 433.62,-5.63 433.62,-24.88"/>
<text text-anchor="middle" x="404.62" y="-11.38" font-family="Helvetica,sans-Serif" font-size="10.00">src/ibus.h</text>
</a>
</g>
</g>
<!-- Node2&#45;&gt;Node6 -->
<g id="edge6_Node000002_Node000006" class="edge">
<title>Node2&#45;&gt;Node6</title>
<g id="a_edge6_Node000002_Node000006"><a xlink:title=" ">
<path fill="none" stroke="#63b8ff" d="M398.19,-55.03C397.49,-44.92 397.96,-33.17 399.6,-25.28"/>
<polygon fill="#63b8ff" stroke="#63b8ff" points="394.68,-55.21 399.42,-64.68 401.62,-54.32 394.68,-55.21"/>
</a>
</g>
</g>
<!-- Node7 -->
<g id="Node000007" class="node">
<title>Node7</title>
<g id="a_Node000007"><a xlink:href="sbus_8h.html" target="_top" xlink:title="Header file for the SBUS protocol implementation.">
<polygon fill="white" stroke="#666666" points="513.12,-24.88 452.12,-24.88 452.12,-5.63 513.12,-5.63 513.12,-24.88"/>
<text text-anchor="middle" x="482.62" y="-11.38" font-family="Helvetica,sans-Serif" font-size="10.00">src/sbus.h</text>
</a>
</g>
</g>
<!-- Node2&#45;&gt;Node7 -->
<g id="edge8_Node000002_Node000007" class="edge">
<title>Node2&#45;&gt;Node7</title>
<g id="a_edge8_Node000002_Node000007"><a xlink:title=" ">
<path fill="none" stroke="#63b8ff" d="M419.97,-58.94C433.2,-48.09 451.95,-34.21 465.64,-25.28"/>
<polygon fill="#63b8ff" stroke="#63b8ff" points="417.96,-56.05 412.61,-65.2 422.5,-61.38 417.96,-56.05"/>
</a>
</g>
</g>
<!-- Node6&#45;&gt;Node2 -->
<g id="edge7_Node000006_Node000002" class="edge">
<title>Node6&#45;&gt;Node2</title>
<g id="a_edge7_Node000006_Node000002"><a xlink:title=" ">
<path fill="none" stroke="#63b8ff" d="M411.07,-36.45C411.76,-46.57 411.28,-58.32 409.63,-66.18"/>
<polygon fill="#63b8ff" stroke="#63b8ff" points="414.57,-36.26 409.84,-26.78 407.63,-37.14 414.57,-36.26"/>
</a>
</g>
</g>
<!-- Node7&#45;&gt;Node2 -->
<g id="edge9_Node000007_Node000002" class="edge">
<title>Node7&#45;&gt;Node2</title>
<g id="a_edge9_Node000007_Node000002"><a xlink:title=" ">
<path fill="none" stroke="#63b8ff" d="M467.15,-32.54C453.89,-43.41 435.14,-57.28 421.48,-66.18"/>
<polygon fill="#63b8ff" stroke="#63b8ff" points="469.19,-35.4 474.54,-26.26 464.66,-30.07 469.19,-35.4"/>
</a>
</g>
</g>
</g>
</svg>
