<?xml version="1.0" encoding="UTF-8" standalone="no"?>
<!DOCTYPE svg PUBLIC "-//W3C//DTD SVG 1.1//EN"
 "http://www.w3.org/Graphics/SVG/1.1/DTD/svg11.dtd">
<!-- Generated by graphviz version 11.0.0 (20240428.1522)
 -->
<!-- Title: src/fport/fport.h Pages: 1 -->
<svg width="356pt" height="248pt"
 viewBox="0.00 0.00 355.62 248.25" xmlns="http://www.w3.org/2000/svg" xmlns:xlink="http://www.w3.org/1999/xlink">
<g id="graph0" class="graph" transform="scale(1 1) rotate(0) translate(4 244.25)">
<title>src/fport/fport.h</title>
<!-- Node1 -->
<g id="Node000001" class="node">
<title>Node1</title>
<g id="a_Node000001"><a xlink:title="Header file for the FPort Protocol definations.">
<polygon fill="#999999" stroke="#666666" points="224.25,-240.25 142.25,-240.25 142.25,-221 224.25,-221 224.25,-240.25"/>
<text text-anchor="middle" x="183.25" y="-226.75" font-family="Helvetica,sans-Serif" font-size="10.00">src/fport/fport.h</text>
</a>
</g>
</g>
<!-- Node2 -->
<g id="Node000002" class="node">
<title>Node2</title>
<g id="a_Node000002"><a xlink:href="SerialIO_8h.html" target="_top" xlink:title="Header file for serial input/output (IO) functionality.">
<polygon fill="white" stroke="#666666" points="216.38,-185 150.12,-185 150.12,-165.75 216.38,-165.75 216.38,-185"/>
<text text-anchor="middle" x="183.25" y="-171.5" font-family="Helvetica,sans-Serif" font-size="10.00">../SerialIO.h</text>
</a>
</g>
</g>
<!-- Node1&#45;&gt;Node2 -->
<g id="edge1_Node000001_Node000002" class="edge">
<title>Node1&#45;&gt;Node2</title>
<g id="a_edge1_Node000001_Node000002"><a xlink:title=" ">
<path fill="none" stroke="#63b8ff" d="M178.08,-220.83C176.67,-214.24 176.21,-204.96 176.68,-196.57"/>
<polygon fill="#63b8ff" stroke="#63b8ff" points="180.13,-197.21 177.86,-186.86 173.18,-196.37 180.13,-197.21"/>
</a>
</g>
</g>
<!-- Node11 -->
<g id="Node000011" class="node">
<title>Node11</title>
<g id="a_Node000011"><a xlink:href="fport__protocol_8h.html" target="_top" xlink:title="Header file for the F.Port protocol implementation.">
<polygon fill="white" stroke="#666666" points="347.62,-185 264.88,-185 264.88,-165.75 347.62,-165.75 347.62,-185"/>
<text text-anchor="middle" x="306.25" y="-171.5" font-family="Helvetica,sans-Serif" font-size="10.00">fport_protocol.h</text>
</a>
</g>
</g>
<!-- Node1&#45;&gt;Node11 -->
<g id="edge16_Node000001_Node000011" class="edge">
<title>Node1&#45;&gt;Node11</title>
<g id="a_edge16_Node000001_Node000011"><a xlink:title=" ">
<path fill="none" stroke="#63b8ff" d="M204.12,-220.59C223.55,-212.18 252.79,-199.52 275.01,-189.9"/>
<polygon fill="#63b8ff" stroke="#63b8ff" points="276.11,-193.24 283.89,-186.05 273.33,-186.81 276.11,-193.24"/>
</a>
</g>
</g>
<!-- Node2&#45;&gt;Node1 -->
<g id="edge7_Node000002_Node000001" class="edge">
<title>Node2&#45;&gt;Node1</title>
<g id="a_edge7_Node000002_Node000001"><a xlink:title=" ">
<path fill="none" stroke="#63b8ff" d="M188.46,-185.36C189.85,-192 190.3,-201.3 189.81,-209.67"/>
<polygon fill="#63b8ff" stroke="#63b8ff" points="186.37,-208.97 188.6,-219.33 193.31,-209.84 186.37,-208.97"/>
</a>
</g>
</g>
<!-- Node3 -->
<g id="Node000003" class="node">
<title>Node3</title>
<g id="a_Node000003"><a xlink:title=" ">
<polygon fill="#e0e0e0" stroke="#999999" points="56.5,-129.75 0,-129.75 0,-110.5 56.5,-110.5 56.5,-129.75"/>
<text text-anchor="middle" x="28.25" y="-116.25" font-family="Helvetica,sans-Serif" font-size="10.00">Arduino.h</text>
</a>
</g>
</g>
<!-- Node2&#45;&gt;Node3 -->
<g id="edge2_Node000002_Node000003" class="edge">
<title>Node2&#45;&gt;Node3</title>
<g id="a_edge2_Node000002_Node000003"><a xlink:title=" ">
<path fill="none" stroke="#63b8ff" d="M156.96,-165.34C131.79,-156.7 93.6,-143.57 65.34,-133.87"/>
<polygon fill="#63b8ff" stroke="#63b8ff" points="66.7,-130.63 56.1,-130.69 64.42,-137.25 66.7,-130.63"/>
</a>
</g>
</g>
<!-- Node4 -->
<g id="Node000004" class="node">
<title>Node4</title>
<g id="a_Node000004"><a xlink:href="crsf_8h.html" target="_top" xlink:title="Header file for the CRSF protocol implementation.">
<polygon fill="white" stroke="#666666" points="134,-129.75 74.5,-129.75 74.5,-110.5 134,-110.5 134,-129.75"/>
<text text-anchor="middle" x="104.25" y="-116.25" font-family="Helvetica,sans-Serif" font-size="10.00">crsf/crsf.h</text>
</a>
</g>
</g>
<!-- Node2&#45;&gt;Node4 -->
<g id="edge3_Node000002_Node000004" class="edge">
<title>Node2&#45;&gt;Node4</title>
<g id="a_edge3_Node000002_Node000004"><a xlink:title=" ">
<path fill="none" stroke="#63b8ff" d="M164.63,-165.34C151.48,-157.57 134.24,-146.17 121.43,-136.9"/>
<polygon fill="#63b8ff" stroke="#63b8ff" points="123.57,-134.13 113.48,-130.93 119.37,-139.73 123.57,-134.13"/>
</a>
</g>
</g>
<!-- Node7 -->
<g id="Node000007" class="node">
<title>Node7</title>
<g id="a_Node000007"><a xlink:href="ibus_8h.html" target="_top" xlink:title="Header file for the Ibus protocol implementation.">
<polygon fill="white" stroke="#666666" points="214.5,-129.75 152,-129.75 152,-110.5 214.5,-110.5 214.5,-129.75"/>
<text text-anchor="middle" x="183.25" y="-116.25" font-family="Helvetica,sans-Serif" font-size="10.00">ibus/ibus.h</text>
</a>
</g>
</g>
<!-- Node2&#45;&gt;Node7 -->
<g id="edge8_Node000002_Node000007" class="edge">
<title>Node2&#45;&gt;Node7</title>
<g id="a_edge8_Node000002_Node000007"><a xlink:title=" ">
<path fill="none" stroke="#63b8ff" d="M178.08,-165.58C176.67,-158.99 176.21,-149.71 176.68,-141.32"/>
<polygon fill="#63b8ff" stroke="#63b8ff" points="180.13,-141.96 177.86,-131.61 173.18,-141.12 180.13,-141.96"/>
</a>
</g>
</g>
<!-- Node9 -->
<g id="Node000009" class="node">
<title>Node9</title>
<g id="a_Node000009"><a xlink:href="sbus_8h.html" target="_top" xlink:title="Header file for the SBUS protocol implementation.">
<polygon fill="white" stroke="#666666" points="301.5,-129.75 233,-129.75 233,-110.5 301.5,-110.5 301.5,-129.75"/>
<text text-anchor="middle" x="267.25" y="-116.25" font-family="Helvetica,sans-Serif" font-size="10.00">sbus/sbus.h</text>
</a>
</g>
</g>
<!-- Node2&#45;&gt;Node9 -->
<g id="edge12_Node000002_Node000009" class="edge">
<title>Node2&#45;&gt;Node9</title>
<g id="a_edge12_Node000002_Node000009"><a xlink:title=" ">
<path fill="none" stroke="#63b8ff" d="M192.28,-165.34C203.38,-157.23 222.1,-145.18 238.15,-135.71"/>
<polygon fill="#63b8ff" stroke="#63b8ff" points="239.48,-138.98 246.39,-130.96 235.98,-132.92 239.48,-138.98"/>
</a>
</g>
</g>
<!-- Node4&#45;&gt;Node2 -->
<g id="edge4_Node000004_Node000002" class="edge">
<title>Node4&#45;&gt;Node2</title>
<g id="a_edge4_Node000004_Node000002"><a xlink:title=" ">
<path fill="none" stroke="#63b8ff" d="M122.94,-130.2C136.03,-137.94 153.14,-149.25 165.91,-158.49"/>
<polygon fill="#63b8ff" stroke="#63b8ff" points="163.75,-161.24 173.85,-164.43 167.95,-155.64 163.75,-161.24"/>
</a>
</g>
</g>
<!-- Node5 -->
<g id="Node000005" class="node">
<title>Node5</title>
<g id="a_Node000005"><a xlink:href="crsf__protocol_8h.html" target="_top" xlink:title="Header file for the CRSF protocol implementation.">
<polygon fill="white" stroke="#666666" points="115.12,-74.5 35.38,-74.5 35.38,-55.25 115.12,-55.25 115.12,-74.5"/>
<text text-anchor="middle" x="75.25" y="-61" font-family="Helvetica,sans-Serif" font-size="10.00">crsf_protocol.h</text>
</a>
</g>
</g>
<!-- Node4&#45;&gt;Node5 -->
<g id="edge5_Node000004_Node000005" class="edge">
<title>Node4&#45;&gt;Node5</title>
<g id="a_edge5_Node000004_Node000005"><a xlink:title=" ">
<path fill="none" stroke="#63b8ff" d="M99.46,-110.33C95.71,-103.44 90.34,-93.59 85.62,-84.91"/>
<polygon fill="#63b8ff" stroke="#63b8ff" points="88.72,-83.3 80.87,-76.19 82.58,-86.64 88.72,-83.3"/>
</a>
</g>
</g>
<!-- Node6 -->
<g id="Node000006" class="node">
<title>Node6</title>
<g id="a_Node000006"><a xlink:title=" ">
<polygon fill="#e0e0e0" stroke="#999999" points="248,-19.25 200.5,-19.25 200.5,0 248,0 248,-19.25"/>
<text text-anchor="middle" x="224.25" y="-5.75" font-family="Helvetica,sans-Serif" font-size="10.00">stdint.h</text>
</a>
</g>
</g>
<!-- Node5&#45;&gt;Node6 -->
<g id="edge6_Node000005_Node000006" class="edge">
<title>Node5&#45;&gt;Node6</title>
<g id="a_edge6_Node000005_Node000006"><a xlink:title=" ">
<path fill="none" stroke="#63b8ff" d="M100.53,-54.84C125.05,-46.08 162.44,-32.71 189.7,-22.97"/>
<polygon fill="#63b8ff" stroke="#63b8ff" points="190.67,-26.34 198.91,-19.68 188.31,-19.75 190.67,-26.34"/>
</a>
</g>
</g>
<!-- Node7&#45;&gt;Node2 -->
<g id="edge9_Node000007_Node000002" class="edge">
<title>Node7&#45;&gt;Node2</title>
<g id="a_edge9_Node000007_Node000002"><a xlink:title=" ">
<path fill="none" stroke="#63b8ff" d="M188.46,-130.11C189.85,-136.75 190.3,-146.05 189.81,-154.42"/>
<polygon fill="#63b8ff" stroke="#63b8ff" points="186.37,-153.72 188.6,-164.08 193.31,-154.59 186.37,-153.72"/>
</a>
</g>
</g>
<!-- Node8 -->
<g id="Node000008" class="node">
<title>Node8</title>
<g id="a_Node000008"><a xlink:href="ibus__protocol_8h.html" target="_top" xlink:title="Header file for the iBus protocol implementation.">
<polygon fill="white" stroke="#666666" points="214.88,-74.5 133.62,-74.5 133.62,-55.25 214.88,-55.25 214.88,-74.5"/>
<text text-anchor="middle" x="174.25" y="-61" font-family="Helvetica,sans-Serif" font-size="10.00">ibus_protocol.h</text>
</a>
</g>
</g>
<!-- Node7&#45;&gt;Node8 -->
<g id="edge10_Node000007_Node000008" class="edge">
<title>Node7&#45;&gt;Node8</title>
<g id="a_edge10_Node000007_Node000008"><a xlink:title=" ">
<path fill="none" stroke="#63b8ff" d="M181.76,-110.33C180.65,-103.74 179.08,-94.46 177.66,-86.07"/>
<polygon fill="#63b8ff" stroke="#63b8ff" points="181.14,-85.63 176.02,-76.35 174.24,-86.8 181.14,-85.63"/>
</a>
</g>
</g>
<!-- Node8&#45;&gt;Node6 -->
<g id="edge11_Node000008_Node000006" class="edge">
<title>Node8&#45;&gt;Node6</title>
<g id="a_edge11_Node000008_Node000006"><a xlink:title=" ">
<path fill="none" stroke="#63b8ff" d="M182.51,-55.08C189.41,-47.73 199.47,-37.01 207.99,-27.94"/>
<polygon fill="#63b8ff" stroke="#63b8ff" points="210.48,-30.4 214.78,-20.71 205.38,-25.61 210.48,-30.4"/>
</a>
</g>
</g>
<!-- Node9&#45;&gt;Node2 -->
<g id="edge13_Node000009_Node000002" class="edge">
<title>Node9&#45;&gt;Node2</title>
<g id="a_edge13_Node000009_Node000002"><a xlink:title=" ">
<path fill="none" stroke="#63b8ff" d="M258.4,-130.02C247.32,-138.14 228.47,-150.28 212.32,-159.81"/>
<polygon fill="#63b8ff" stroke="#63b8ff" points="210.95,-156.56 204.03,-164.59 214.44,-162.63 210.95,-156.56"/>
</a>
</g>
</g>
<!-- Node10 -->
<g id="Node000010" class="node">
<title>Node10</title>
<g id="a_Node000010"><a xlink:href="sbus__protocol_8h.html" target="_top" xlink:title="Header file for the SBus protocol implementation.">
<polygon fill="white" stroke="#666666" points="317.38,-74.5 233.12,-74.5 233.12,-55.25 317.38,-55.25 317.38,-74.5"/>
<text text-anchor="middle" x="275.25" y="-61" font-family="Helvetica,sans-Serif" font-size="10.00">sbus_protocol.h</text>
</a>
</g>
</g>
<!-- Node9&#45;&gt;Node10 -->
<g id="edge14_Node000009_Node000010" class="edge">
<title>Node9&#45;&gt;Node10</title>
<g id="a_edge14_Node000009_Node000010"><a xlink:title=" ">
<path fill="none" stroke="#63b8ff" d="M268.57,-110.33C269.56,-103.74 270.96,-94.46 272.22,-86.07"/>
<polygon fill="#63b8ff" stroke="#63b8ff" points="275.65,-86.76 273.68,-76.36 268.73,-85.72 275.65,-86.76"/>
</a>
</g>
</g>
<!-- Node10&#45;&gt;Node6 -->
<g id="edge15_Node000010_Node000006" class="edge">
<title>Node10&#45;&gt;Node6</title>
<g id="a_edge15_Node000010_Node000006"><a xlink:title=" ">
<path fill="none" stroke="#63b8ff" d="M266.83,-55.08C259.71,-47.65 249.31,-36.79 240.56,-27.66"/>
<polygon fill="#63b8ff" stroke="#63b8ff" points="243.35,-25.5 233.9,-20.7 238.29,-30.35 243.35,-25.5"/>
</a>
</g>
</g>
<!-- Node11&#45;&gt;Node6 -->
<g id="edge17_Node000011_Node000006" class="edge">
<title>Node11&#45;&gt;Node6</title>
<g id="a_edge17_Node000011_Node000006"><a xlink:title=" ">
<path fill="none" stroke="#63b8ff" d="M311.64,-165.44C323.58,-144.38 349.44,-90.7 326.25,-55.25 311.59,-32.83 282.91,-21.61 259.68,-16.03"/>
<polygon fill="#63b8ff" stroke="#63b8ff" points="260.46,-12.62 249.96,-13.97 259.01,-19.46 260.46,-12.62"/>
</a>
</g>
</g>
</g>
</svg>
