<?xml version="1.0" encoding="UTF-8" standalone="no"?>
<!DOCTYPE svg PUBLIC "-//W3C//DTD SVG 1.1//EN"
 "http://www.w3.org/Graphics/SVG/1.1/DTD/svg11.dtd">
<!-- Generated by graphviz version 12.2.1 (20241206.2353)
 -->
<!-- Title: src/fport/fport_protocol.h Pages: 1 -->
<svg width="992pt" height="260pt"
 viewBox="0.00 0.00 992.25 259.50" xmlns="http://www.w3.org/2000/svg" xmlns:xlink="http://www.w3.org/1999/xlink">
<g id="graph0" class="graph" transform="scale(1 1) rotate(0) translate(4 255.5)">
<title>src/fport/fport_protocol.h</title>
<!-- Node1 -->
<g id="Node000001" class="node">
<title>Node1</title>
<g id="a_Node000001"><a xlink:title="Header file for the F.Port protocol implementation.">
<polygon fill="#999999" stroke="#666666" points="801.38,-251.5 679.62,-251.5 679.62,-232.25 801.38,-232.25 801.38,-251.5"/>
<text text-anchor="middle" x="740.5" y="-238" font-family="Helvetica,sans-Serif" font-size="10.00">src/fport/fport_protocol.h</text>
</a>
</g>
</g>
<!-- Node2 -->
<g id="Node000002" class="node">
<title>Node2</title>
<g id="a_Node000002"><a xlink:href="fport_8h.html" target="_top" xlink:title="Header file for the FPort Protocol definations.">
<polygon fill="white" stroke="#666666" points="781.5,-196.25 699.5,-196.25 699.5,-177 781.5,-177 781.5,-196.25"/>
<text text-anchor="middle" x="740.5" y="-182.75" font-family="Helvetica,sans-Serif" font-size="10.00">src/fport/fport.h</text>
</a>
</g>
</g>
<!-- Node1&#45;&gt;Node2 -->
<g id="edge1_Node000001_Node000002" class="edge">
<title>Node1&#45;&gt;Node2</title>
<g id="a_edge1_Node000001_Node000002"><a xlink:title=" ">
<path fill="none" stroke="#63b8ff" d="M740.5,-220.63C740.5,-212.34 740.5,-203.17 740.5,-196.61"/>
<polygon fill="#63b8ff" stroke="#63b8ff" points="737,-220.57 740.5,-230.57 744,-220.57 737,-220.57"/>
</a>
</g>
</g>
<!-- Node3 -->
<g id="Node000003" class="node">
<title>Node3</title>
<g id="a_Node000003"><a xlink:href="SerialIO_8h.html" target="_top" xlink:title="Header file for serial input/output (IO) functionality.">
<polygon fill="white" stroke="#666666" points="778.12,-141 702.88,-141 702.88,-121.75 778.12,-121.75 778.12,-141"/>
<text text-anchor="middle" x="740.5" y="-127.5" font-family="Helvetica,sans-Serif" font-size="10.00">src/SerialIO.h</text>
</a>
</g>
</g>
<!-- Node2&#45;&gt;Node3 -->
<g id="edge2_Node000002_Node000003" class="edge">
<title>Node2&#45;&gt;Node3</title>
<g id="a_edge2_Node000002_Node000003"><a xlink:title=" ">
<path fill="none" stroke="#63b8ff" d="M733.94,-165.67C733.45,-157.3 733.9,-148 735.29,-141.36"/>
<polygon fill="#63b8ff" stroke="#63b8ff" points="730.44,-165.84 735.15,-175.33 737.38,-164.97 730.44,-165.84"/>
</a>
</g>
</g>
<!-- Node13 -->
<g id="Node000013" class="node">
<title>Node13</title>
<g id="a_Node000013"><a xlink:href="fport_8cpp.html" target="_top" xlink:title="Source file for the F.Port implementations.">
<polygon fill="white" stroke="#666666" points="888.75,-141 796.25,-141 796.25,-121.75 888.75,-121.75 888.75,-141"/>
<text text-anchor="middle" x="842.5" y="-127.5" font-family="Helvetica,sans-Serif" font-size="10.00">src/fport/fport.cpp</text>
</a>
</g>
</g>
<!-- Node2&#45;&gt;Node13 -->
<g id="edge16_Node000002_Node000013" class="edge">
<title>Node2&#45;&gt;Node13</title>
<g id="a_edge16_Node000002_Node000013"><a xlink:title=" ">
<path fill="none" stroke="#63b8ff" d="M767.83,-171.36C786.03,-161.86 809.41,-149.65 825.11,-141.45"/>
<polygon fill="#63b8ff" stroke="#63b8ff" points="766.39,-168.16 759.14,-175.89 769.63,-174.37 766.39,-168.16"/>
</a>
</g>
</g>
<!-- Node3&#45;&gt;Node2 -->
<g id="edge10_Node000003_Node000002" class="edge">
<title>Node3&#45;&gt;Node2</title>
<g id="a_edge10_Node000003_Node000002"><a xlink:title=" ">
<path fill="none" stroke="#63b8ff" d="M747.07,-152.57C747.54,-160.96 747.08,-170.24 745.67,-176.83"/>
<polygon fill="#63b8ff" stroke="#63b8ff" points="750.57,-152.37 745.89,-142.86 743.62,-153.21 750.57,-152.37"/>
</a>
</g>
</g>
<!-- Node4 -->
<g id="Node000004" class="node">
<title>Node4</title>
<g id="a_Node000004"><a xlink:href="atmel_2ibus__basic_2ibus__basic_8ino.html" target="_top" xlink:title=" ">
<polygon fill="white" stroke="#666666" points="109,-85.75 0,-85.75 0,-55.25 109,-55.25 109,-85.75"/>
<text text-anchor="start" x="8" y="-72.25" font-family="Helvetica,sans-Serif" font-size="10.00">examples/atmel/ibus</text>
<text text-anchor="middle" x="54.5" y="-61" font-family="Helvetica,sans-Serif" font-size="10.00">_basic/ibus_basic.ino</text>
</a>
</g>
</g>
<!-- Node3&#45;&gt;Node4 -->
<g id="edge3_Node000003_Node000004" class="edge">
<title>Node3&#45;&gt;Node4</title>
<g id="a_edge3_Node000003_Node000004"><a xlink:title=" ">
<path fill="none" stroke="#63b8ff" d="M691.2,-129.3C585.64,-126.47 330.17,-116.73 118.5,-85.75 115.46,-85.3 112.35,-84.8 109.21,-84.24"/>
<polygon fill="#63b8ff" stroke="#63b8ff" points="690.82,-132.8 700.91,-129.56 691.01,-125.8 690.82,-132.8"/>
</a>
</g>
</g>
<!-- Node5 -->
<g id="Node000005" class="node">
<title>Node5</title>
<g id="a_Node000005"><a xlink:href="crsf__basic_8ino.html" target="_top" xlink:title=" ">
<polygon fill="white" stroke="#666666" points="254,-85.75 127,-85.75 127,-55.25 254,-55.25 254,-85.75"/>
<text text-anchor="start" x="135" y="-72.25" font-family="Helvetica,sans-Serif" font-size="10.00">examples/espresiff</text>
<text text-anchor="middle" x="190.5" y="-61" font-family="Helvetica,sans-Serif" font-size="10.00">/crsf_basic/crsf_basic.ino</text>
</a>
</g>
</g>
<!-- Node3&#45;&gt;Node5 -->
<g id="edge4_Node000003_Node000005" class="edge">
<title>Node3&#45;&gt;Node5</title>
<g id="a_edge4_Node000003_Node000005"><a xlink:title=" ">
<path fill="none" stroke="#63b8ff" d="M691.31,-127.39C604.58,-121.78 418.95,-108.14 263.5,-85.75 260.43,-85.31 257.3,-84.82 254.14,-84.31"/>
<polygon fill="#63b8ff" stroke="#63b8ff" points="690.92,-130.88 701.12,-128.02 691.36,-123.89 690.92,-130.88"/>
</a>
</g>
</g>
<!-- Node6 -->
<g id="Node000006" class="node">
<title>Node6</title>
<g id="a_Node000006"><a xlink:href="espresiff_2ibus__basic_2ibus__basic_8ino.html" target="_top" xlink:title=" ">
<polygon fill="white" stroke="#666666" points="402.5,-85.75 272.5,-85.75 272.5,-55.25 402.5,-55.25 402.5,-85.75"/>
<text text-anchor="start" x="280.5" y="-72.25" font-family="Helvetica,sans-Serif" font-size="10.00">examples/espresiff</text>
<text text-anchor="middle" x="337.5" y="-61" font-family="Helvetica,sans-Serif" font-size="10.00">/ibus_basic/ibus_basic.ino</text>
</a>
</g>
</g>
<!-- Node3&#45;&gt;Node6 -->
<g id="edge5_Node000003_Node000006" class="edge">
<title>Node3&#45;&gt;Node6</title>
<g id="a_edge5_Node000003_Node000006"><a xlink:title=" ">
<path fill="none" stroke="#63b8ff" d="M690.98,-124.53C626.48,-116.71 510.3,-101.95 411.5,-85.75 408.66,-85.28 405.76,-84.79 402.83,-84.28"/>
<polygon fill="#63b8ff" stroke="#63b8ff" points="690.55,-128 700.9,-125.72 691.39,-121.05 690.55,-128"/>
</a>
</g>
</g>
<!-- Node7 -->
<g id="Node000007" class="node">
<title>Node7</title>
<g id="a_Node000007"><a xlink:href="sbus__basic_8ino.html" target="_top" xlink:title=" ">
<polygon fill="white" stroke="#666666" points="556.5,-85.75 420.5,-85.75 420.5,-55.25 556.5,-55.25 556.5,-85.75"/>
<text text-anchor="start" x="428.5" y="-72.25" font-family="Helvetica,sans-Serif" font-size="10.00">examples/espresiff</text>
<text text-anchor="middle" x="488.5" y="-61" font-family="Helvetica,sans-Serif" font-size="10.00">/sbus_basic/sbus_basic.ino</text>
</a>
</g>
</g>
<!-- Node3&#45;&gt;Node7 -->
<g id="edge6_Node000003_Node000007" class="edge">
<title>Node3&#45;&gt;Node7</title>
<g id="a_edge6_Node000003_Node000007"><a xlink:title=" ">
<path fill="none" stroke="#63b8ff" d="M691.43,-118.91C651.42,-109.56 594.66,-96.3 551.33,-86.18"/>
<polygon fill="#63b8ff" stroke="#63b8ff" points="690.49,-122.29 701.03,-121.15 692.08,-115.47 690.49,-122.29"/>
</a>
</g>
</g>
<!-- Node8 -->
<g id="Node000008" class="node">
<title>Node8</title>
<g id="a_Node000008"><a xlink:href="rp2040_2ibus__basic_2ibus__basic_8ino.html" target="_top" xlink:title=" ">
<polygon fill="white" stroke="#666666" points="684.75,-85.75 574.25,-85.75 574.25,-55.25 684.75,-55.25 684.75,-85.75"/>
<text text-anchor="start" x="582.25" y="-72.25" font-family="Helvetica,sans-Serif" font-size="10.00">examples/rp2040/ibus</text>
<text text-anchor="middle" x="629.5" y="-61" font-family="Helvetica,sans-Serif" font-size="10.00">_basic/ibus_basic.ino</text>
</a>
</g>
</g>
<!-- Node3&#45;&gt;Node8 -->
<g id="edge7_Node000003_Node000008" class="edge">
<title>Node3&#45;&gt;Node8</title>
<g id="a_edge7_Node000003_Node000008"><a xlink:title=" ">
<path fill="none" stroke="#63b8ff" d="M713.68,-116.15C696.48,-107.02 674.21,-95.21 656.9,-86.03"/>
<polygon fill="#63b8ff" stroke="#63b8ff" points="711.83,-119.13 722.3,-120.72 715.11,-112.95 711.83,-119.13"/>
</a>
</g>
</g>
<!-- Node9 -->
<g id="Node000009" class="node">
<title>Node9</title>
<g id="a_Node000009"><a xlink:href="crsf_8h.html" target="_top" xlink:title="Header file for the CRSF protocol implementation.">
<polygon fill="white" stroke="#666666" points="778.5,-80.12 702.5,-80.12 702.5,-60.88 778.5,-60.88 778.5,-80.12"/>
<text text-anchor="middle" x="740.5" y="-66.62" font-family="Helvetica,sans-Serif" font-size="10.00">src/crsf/crsf.h</text>
</a>
</g>
</g>
<!-- Node3&#45;&gt;Node9 -->
<g id="edge8_Node000003_Node000009" class="edge">
<title>Node3&#45;&gt;Node9</title>
<g id="a_edge8_Node000003_Node000009"><a xlink:title=" ">
<path fill="none" stroke="#63b8ff" d="M734.06,-110.28C733.37,-100.17 733.84,-88.42 735.47,-80.53"/>
<polygon fill="#63b8ff" stroke="#63b8ff" points="730.56,-110.46 735.3,-119.93 737.5,-109.57 730.56,-110.46"/>
</a>
</g>
</g>
<!-- Node10 -->
<g id="Node000010" class="node">
<title>Node10</title>
<g id="a_Node000010"><a xlink:href="ibus_8h.html" target="_top" xlink:title="Header file for the Ibus protocol implementation.">
<polygon fill="white" stroke="#666666" points="876,-80.12 797,-80.12 797,-60.88 876,-60.88 876,-80.12"/>
<text text-anchor="middle" x="836.5" y="-66.62" font-family="Helvetica,sans-Serif" font-size="10.00">src/ibus/ibus.h</text>
</a>
</g>
</g>
<!-- Node3&#45;&gt;Node10 -->
<g id="edge11_Node000003_Node000010" class="edge">
<title>Node3&#45;&gt;Node10</title>
<g id="a_edge11_Node000003_Node000010"><a xlink:title=" ">
<path fill="none" stroke="#63b8ff" d="M759.37,-115.13C776,-104.15 799.85,-89.72 816.76,-80.53"/>
<polygon fill="#63b8ff" stroke="#63b8ff" points="757.63,-112.07 751.32,-120.58 761.56,-117.86 757.63,-112.07"/>
</a>
</g>
</g>
<!-- Node11 -->
<g id="Node000011" class="node">
<title>Node11</title>
<g id="a_Node000011"><a xlink:href="sbus_8h.html" target="_top" xlink:title="Header file for the SBUS protocol implementation.">
<polygon fill="white" stroke="#666666" points="979,-80.12 894,-80.12 894,-60.88 979,-60.88 979,-80.12"/>
<text text-anchor="middle" x="936.5" y="-66.62" font-family="Helvetica,sans-Serif" font-size="10.00">src/sbus/sbus.h</text>
</a>
</g>
</g>
<!-- Node3&#45;&gt;Node11 -->
<g id="edge13_Node000003_Node000011" class="edge">
<title>Node3&#45;&gt;Node11</title>
<g id="a_edge13_Node000003_Node000011"><a xlink:title=" ">
<path fill="none" stroke="#63b8ff" d="M776.52,-117.86C812.08,-106.68 865.92,-90.57 901.23,-80.58"/>
<polygon fill="#63b8ff" stroke="#63b8ff" points="775.58,-114.49 767.1,-120.85 777.69,-121.16 775.58,-114.49"/>
</a>
</g>
</g>
<!-- Node9&#45;&gt;Node3 -->
<g id="edge9_Node000009_Node000003" class="edge">
<title>Node9&#45;&gt;Node3</title>
<g id="a_edge9_Node000009_Node000003"><a xlink:title=" ">
<path fill="none" stroke="#63b8ff" d="M746.95,-91.7C747.63,-101.82 747.16,-113.57 745.51,-121.43"/>
<polygon fill="#63b8ff" stroke="#63b8ff" points="750.45,-91.51 745.72,-82.03 743.5,-92.39 750.45,-91.51"/>
</a>
</g>
</g>
<!-- Node10&#45;&gt;Node3 -->
<g id="edge12_Node000010_Node000003" class="edge">
<title>Node10&#45;&gt;Node3</title>
<g id="a_edge12_Node000010_Node000003"><a xlink:title=" ">
<path fill="none" stroke="#63b8ff" d="M817.48,-86.85C800.8,-97.84 776.95,-112.27 760.09,-121.43"/>
<polygon fill="#63b8ff" stroke="#63b8ff" points="819.24,-89.88 825.56,-81.38 815.32,-84.09 819.24,-89.88"/>
</a>
</g>
</g>
<!-- Node11&#45;&gt;Node3 -->
<g id="edge14_Node000011_Node000003" class="edge">
<title>Node11&#45;&gt;Node3</title>
<g id="a_edge14_Node000011_Node000003"><a xlink:title=" ">
<path fill="none" stroke="#63b8ff" d="M900.45,-84.02C864.87,-95.21 811.03,-111.32 775.73,-121.3"/>
<polygon fill="#63b8ff" stroke="#63b8ff" points="901.39,-87.4 909.87,-81.04 899.28,-80.72 901.39,-87.4"/>
</a>
</g>
</g>
<!-- Node12 -->
<g id="Node000012" class="node">
<title>Node12</title>
<g id="a_Node000012"><a xlink:href="sbus_8cpp.html" target="_top" xlink:title="Source file for the SBus implementations.">
<polygon fill="white" stroke="#666666" points="984.25,-19.25 888.75,-19.25 888.75,0 984.25,0 984.25,-19.25"/>
<text text-anchor="middle" x="936.5" y="-5.75" font-family="Helvetica,sans-Serif" font-size="10.00">src/sbus/sbus.cpp</text>
</a>
</g>
</g>
<!-- Node11&#45;&gt;Node12 -->
<g id="edge15_Node000011_Node000012" class="edge">
<title>Node11&#45;&gt;Node12</title>
<g id="a_edge15_Node000011_Node000012"><a xlink:title=" ">
<path fill="none" stroke="#63b8ff" d="M936.5,-49.07C936.5,-39.04 936.5,-27.46 936.5,-19.65"/>
<polygon fill="#63b8ff" stroke="#63b8ff" points="933,-49.04 936.5,-59.04 940,-49.04 933,-49.04"/>
</a>
</g>
</g>
</g>
</svg>
