<?xml version="1.0" encoding="UTF-8" standalone="no"?>
<!DOCTYPE svg PUBLIC "-//W3C//DTD SVG 1.1//EN"
 "http://www.w3.org/Graphics/SVG/1.1/DTD/svg11.dtd">
<!-- Generated by graphviz version 12.2.1 (20241206.2353)
 -->
<!-- Title: src/fport/fport.cpp Pages: 1 -->
<svg width="394pt" height="304pt"
 viewBox="0.00 0.00 393.62 303.50" xmlns="http://www.w3.org/2000/svg" xmlns:xlink="http://www.w3.org/1999/xlink">
<g id="graph0" class="graph" transform="scale(1 1) rotate(0) translate(4 299.5)">
<title>src/fport/fport.cpp</title>
<!-- Node1 -->
<g id="Node000001" class="node">
<title>Node1</title>
<g id="a_Node000001"><a xlink:title="Source file for the F.Port implementations.">
<polygon fill="#999999" stroke="#666666" points="268.5,-295.5 176,-295.5 176,-276.25 268.5,-276.25 268.5,-295.5"/>
<text text-anchor="middle" x="222.25" y="-282" font-family="Helvetica,sans-Serif" font-size="10.00">src/fport/fport.cpp</text>
</a>
</g>
</g>
<!-- Node2 -->
<g id="Node000002" class="node">
<title>Node2</title>
<g id="a_Node000002"><a xlink:href="fport_8h.html" target="_top" xlink:title="Header file for the FPort Protocol definations.">
<polygon fill="white" stroke="#666666" points="243.75,-240.25 200.75,-240.25 200.75,-221 243.75,-221 243.75,-240.25"/>
<text text-anchor="middle" x="222.25" y="-226.75" font-family="Helvetica,sans-Serif" font-size="10.00">fport.h</text>
</a>
</g>
</g>
<!-- Node1&#45;&gt;Node2 -->
<g id="edge1_Node000001_Node000002" class="edge">
<title>Node1&#45;&gt;Node2</title>
<g id="a_edge1_Node000001_Node000002"><a xlink:title=" ">
<path fill="none" stroke="#63b8ff" d="M222.25,-276.08C222.25,-269.57 222.25,-260.42 222.25,-252.12"/>
<polygon fill="#63b8ff" stroke="#63b8ff" points="225.75,-252.12 222.25,-242.12 218.75,-252.12 225.75,-252.12"/>
</a>
</g>
</g>
<!-- Node3 -->
<g id="Node000003" class="node">
<title>Node3</title>
<g id="a_Node000003"><a xlink:href="SerialIO_8h.html" target="_top" xlink:title="Header file for serial input/output (IO) functionality.">
<polygon fill="white" stroke="#666666" points="255.38,-185 189.12,-185 189.12,-165.75 255.38,-165.75 255.38,-185"/>
<text text-anchor="middle" x="222.25" y="-171.5" font-family="Helvetica,sans-Serif" font-size="10.00">../SerialIO.h</text>
</a>
</g>
</g>
<!-- Node2&#45;&gt;Node3 -->
<g id="edge2_Node000002_Node000003" class="edge">
<title>Node2&#45;&gt;Node3</title>
<g id="a_edge2_Node000002_Node000003"><a xlink:title=" ">
<path fill="none" stroke="#63b8ff" d="M217.08,-220.83C215.67,-214.24 215.21,-204.96 215.68,-196.57"/>
<polygon fill="#63b8ff" stroke="#63b8ff" points="219.13,-197.21 216.86,-186.86 212.18,-196.37 219.13,-197.21"/>
</a>
</g>
</g>
<!-- Node12 -->
<g id="Node000012" class="node">
<title>Node12</title>
<g id="a_Node000012"><a xlink:href="fport__protocol_8h.html" target="_top" xlink:title="Header file for the F.Port protocol implementation.">
<polygon fill="white" stroke="#666666" points="385.62,-185 302.88,-185 302.88,-165.75 385.62,-165.75 385.62,-185"/>
<text text-anchor="middle" x="344.25" y="-171.5" font-family="Helvetica,sans-Serif" font-size="10.00">fport_protocol.h</text>
</a>
</g>
</g>
<!-- Node2&#45;&gt;Node12 -->
<g id="edge18_Node000002_Node000012" class="edge">
<title>Node2&#45;&gt;Node12</title>
<g id="a_edge18_Node000002_Node000012"><a xlink:title=" ">
<path fill="none" stroke="#63b8ff" d="M242.95,-220.59C262.14,-212.22 290.96,-199.63 312.97,-190.03"/>
<polygon fill="#63b8ff" stroke="#63b8ff" points="314.3,-193.27 322.07,-186.06 311.5,-186.85 314.3,-193.27"/>
</a>
</g>
</g>
<!-- Node3&#45;&gt;Node2 -->
<g id="edge10_Node000003_Node000002" class="edge">
<title>Node3&#45;&gt;Node2</title>
<g id="a_edge10_Node000003_Node000002"><a xlink:title=" ">
<path fill="none" stroke="#63b8ff" d="M227.46,-185.36C228.85,-192 229.3,-201.3 228.81,-209.67"/>
<polygon fill="#63b8ff" stroke="#63b8ff" points="225.37,-208.97 227.6,-219.33 232.31,-209.84 225.37,-208.97"/>
</a>
</g>
</g>
<!-- Node4 -->
<g id="Node000004" class="node">
<title>Node4</title>
<g id="a_Node000004"><a xlink:title=" ">
<polygon fill="#e0e0e0" stroke="#999999" points="56.5,-129.75 0,-129.75 0,-110.5 56.5,-110.5 56.5,-129.75"/>
<text text-anchor="middle" x="28.25" y="-116.25" font-family="Helvetica,sans-Serif" font-size="10.00">Arduino.h</text>
</a>
</g>
</g>
<!-- Node3&#45;&gt;Node4 -->
<g id="edge3_Node000003_Node000004" class="edge">
<title>Node3&#45;&gt;Node4</title>
<g id="a_edge3_Node000003_Node000004"><a xlink:title=" ">
<path fill="none" stroke="#63b8ff" d="M189.34,-165.34C155.78,-156.13 103.71,-141.84 67.9,-132.01"/>
<polygon fill="#63b8ff" stroke="#63b8ff" points="68.92,-128.66 58.35,-129.39 67.06,-135.41 68.92,-128.66"/>
</a>
</g>
</g>
<!-- Node5 -->
<g id="Node000005" class="node">
<title>Node5</title>
<g id="a_Node000005"><a xlink:href="ibus__protocol_8h.html" target="_top" xlink:title="Header file for the iBus protocol implementation.">
<polygon fill="white" stroke="#666666" points="146.38,-74.5 44.12,-74.5 44.12,-55.25 146.38,-55.25 146.38,-74.5"/>
<text text-anchor="middle" x="95.25" y="-61" font-family="Helvetica,sans-Serif" font-size="10.00">ibus/ibus_protocol.h</text>
</a>
</g>
</g>
<!-- Node3&#45;&gt;Node5 -->
<g id="edge4_Node000003_Node000005" class="edge">
<title>Node3&#45;&gt;Node5</title>
<g id="a_edge4_Node000003_Node000005"><a xlink:title=" ">
<path fill="none" stroke="#63b8ff" d="M188.76,-171.16C161.34,-166.65 123.83,-155.81 103.25,-129.75 93.6,-117.53 92.08,-99.69 92.71,-85.96"/>
<polygon fill="#63b8ff" stroke="#63b8ff" points="96.17,-86.58 93.57,-76.31 89.19,-85.95 96.17,-86.58"/>
</a>
</g>
</g>
<!-- Node7 -->
<g id="Node000007" class="node">
<title>Node7</title>
<g id="a_Node000007"><a xlink:href="crsf_8h.html" target="_top" xlink:title="Header file for the CRSF protocol implementation.">
<polygon fill="white" stroke="#666666" points="252,-129.75 192.5,-129.75 192.5,-110.5 252,-110.5 252,-129.75"/>
<text text-anchor="middle" x="222.25" y="-116.25" font-family="Helvetica,sans-Serif" font-size="10.00">crsf/crsf.h</text>
</a>
</g>
</g>
<!-- Node3&#45;&gt;Node7 -->
<g id="edge6_Node000003_Node000007" class="edge">
<title>Node3&#45;&gt;Node7</title>
<g id="a_edge6_Node000003_Node000007"><a xlink:title=" ">
<path fill="none" stroke="#63b8ff" d="M217.08,-165.58C215.67,-158.99 215.21,-149.71 215.68,-141.32"/>
<polygon fill="#63b8ff" stroke="#63b8ff" points="219.13,-141.96 216.86,-131.61 212.18,-141.12 219.13,-141.96"/>
</a>
</g>
</g>
<!-- Node9 -->
<g id="Node000009" class="node">
<title>Node9</title>
<g id="a_Node000009"><a xlink:href="ibus_8h.html" target="_top" xlink:title="Header file for the Ibus protocol implementation.">
<polygon fill="white" stroke="#666666" points="174.5,-129.75 112,-129.75 112,-110.5 174.5,-110.5 174.5,-129.75"/>
<text text-anchor="middle" x="143.25" y="-116.25" font-family="Helvetica,sans-Serif" font-size="10.00">ibus/ibus.h</text>
</a>
</g>
</g>
<!-- Node3&#45;&gt;Node9 -->
<g id="edge11_Node000003_Node000009" class="edge">
<title>Node3&#45;&gt;Node9</title>
<g id="a_edge11_Node000003_Node000009"><a xlink:title=" ">
<path fill="none" stroke="#63b8ff" d="M203.63,-165.34C190.48,-157.57 173.24,-146.17 160.43,-136.9"/>
<polygon fill="#63b8ff" stroke="#63b8ff" points="162.57,-134.13 152.48,-130.93 158.37,-139.73 162.57,-134.13"/>
</a>
</g>
</g>
<!-- Node10 -->
<g id="Node000010" class="node">
<title>Node10</title>
<g id="a_Node000010"><a xlink:href="sbus_8h.html" target="_top" xlink:title="Header file for the SBUS protocol implementation.">
<polygon fill="white" stroke="#666666" points="338.5,-129.75 270,-129.75 270,-110.5 338.5,-110.5 338.5,-129.75"/>
<text text-anchor="middle" x="304.25" y="-116.25" font-family="Helvetica,sans-Serif" font-size="10.00">sbus/sbus.h</text>
</a>
</g>
</g>
<!-- Node3&#45;&gt;Node10 -->
<g id="edge14_Node000003_Node000010" class="edge">
<title>Node3&#45;&gt;Node10</title>
<g id="a_edge14_Node000003_Node000010"><a xlink:title=" ">
<path fill="none" stroke="#63b8ff" d="M230.94,-165.34C241.64,-157.31 259.66,-145.41 275.25,-135.98"/>
<polygon fill="#63b8ff" stroke="#63b8ff" points="276.91,-139.07 283.74,-130.97 273.35,-133.04 276.91,-139.07"/>
</a>
</g>
</g>
<!-- Node6 -->
<g id="Node000006" class="node">
<title>Node6</title>
<g id="a_Node000006"><a xlink:title=" ">
<polygon fill="#e0e0e0" stroke="#999999" points="278,-19.25 230.5,-19.25 230.5,0 278,0 278,-19.25"/>
<text text-anchor="middle" x="254.25" y="-5.75" font-family="Helvetica,sans-Serif" font-size="10.00">stdint.h</text>
</a>
</g>
</g>
<!-- Node5&#45;&gt;Node6 -->
<g id="edge5_Node000005_Node000006" class="edge">
<title>Node5&#45;&gt;Node6</title>
<g id="a_edge5_Node000005_Node000006"><a xlink:title=" ">
<path fill="none" stroke="#63b8ff" d="M122.22,-54.84C149.01,-45.87 190.21,-32.07 219.45,-22.28"/>
<polygon fill="#63b8ff" stroke="#63b8ff" points="220.21,-25.72 228.58,-19.22 217.99,-19.08 220.21,-25.72"/>
</a>
</g>
</g>
<!-- Node7&#45;&gt;Node3 -->
<g id="edge9_Node000007_Node000003" class="edge">
<title>Node7&#45;&gt;Node3</title>
<g id="a_edge9_Node000007_Node000003"><a xlink:title=" ">
<path fill="none" stroke="#63b8ff" d="M227.46,-130.11C228.85,-136.75 229.3,-146.05 228.81,-154.42"/>
<polygon fill="#63b8ff" stroke="#63b8ff" points="225.37,-153.72 227.6,-164.08 232.31,-154.59 225.37,-153.72"/>
</a>
</g>
</g>
<!-- Node8 -->
<g id="Node000008" class="node">
<title>Node8</title>
<g id="a_Node000008"><a xlink:href="crsf__protocol_8h_source.html" target="_top" xlink:title=" ">
<polygon fill="white" stroke="#666666" points="244.12,-74.5 164.38,-74.5 164.38,-55.25 244.12,-55.25 244.12,-74.5"/>
<text text-anchor="middle" x="204.25" y="-61" font-family="Helvetica,sans-Serif" font-size="10.00">crsf_protocol.h</text>
</a>
</g>
</g>
<!-- Node7&#45;&gt;Node8 -->
<g id="edge7_Node000007_Node000008" class="edge">
<title>Node7&#45;&gt;Node8</title>
<g id="a_edge7_Node000007_Node000008"><a xlink:title=" ">
<path fill="none" stroke="#63b8ff" d="M219.28,-110.33C217,-103.59 213.76,-94.02 210.88,-85.49"/>
<polygon fill="#63b8ff" stroke="#63b8ff" points="214.29,-84.65 207.77,-76.29 207.66,-86.89 214.29,-84.65"/>
</a>
</g>
</g>
<!-- Node8&#45;&gt;Node6 -->
<g id="edge8_Node000008_Node000006" class="edge">
<title>Node8&#45;&gt;Node6</title>
<g id="a_edge8_Node000008_Node000006"><a xlink:title=" ">
<path fill="none" stroke="#63b8ff" d="M212.51,-55.08C219.41,-47.73 229.47,-37.01 237.99,-27.94"/>
<polygon fill="#63b8ff" stroke="#63b8ff" points="240.48,-30.4 244.78,-20.71 235.38,-25.61 240.48,-30.4"/>
</a>
</g>
</g>
<!-- Node9&#45;&gt;Node3 -->
<g id="edge12_Node000009_Node000003" class="edge">
<title>Node9&#45;&gt;Node3</title>
<g id="a_edge12_Node000009_Node000003"><a xlink:title=" ">
<path fill="none" stroke="#63b8ff" d="M161.94,-130.2C175.03,-137.94 192.14,-149.25 204.91,-158.49"/>
<polygon fill="#63b8ff" stroke="#63b8ff" points="202.75,-161.24 212.85,-164.43 206.95,-155.64 202.75,-161.24"/>
</a>
</g>
</g>
<!-- Node9&#45;&gt;Node5 -->
<g id="edge13_Node000009_Node000005" class="edge">
<title>Node9&#45;&gt;Node5</title>
<g id="a_edge13_Node000009_Node000005"><a xlink:title=" ">
<path fill="none" stroke="#63b8ff" d="M135.32,-110.33C128.69,-102.98 119.03,-92.26 110.86,-83.19"/>
<polygon fill="#63b8ff" stroke="#63b8ff" points="113.66,-81.07 104.36,-75.98 108.46,-85.75 113.66,-81.07"/>
</a>
</g>
</g>
<!-- Node10&#45;&gt;Node3 -->
<g id="edge15_Node000010_Node000003" class="edge">
<title>Node10&#45;&gt;Node3</title>
<g id="a_edge15_Node000010_Node000003"><a xlink:title=" ">
<path fill="none" stroke="#63b8ff" d="M295.73,-130.02C285.06,-138.06 266.91,-150.05 251.23,-159.54"/>
<polygon fill="#63b8ff" stroke="#63b8ff" points="249.52,-156.48 242.68,-164.57 253.07,-162.51 249.52,-156.48"/>
</a>
</g>
</g>
<!-- Node11 -->
<g id="Node000011" class="node">
<title>Node11</title>
<g id="a_Node000011"><a xlink:href="sbus__protocol_8h.html" target="_top" xlink:title="Header file for the SBus protocol implementation.">
<polygon fill="white" stroke="#666666" points="346.38,-74.5 262.12,-74.5 262.12,-55.25 346.38,-55.25 346.38,-74.5"/>
<text text-anchor="middle" x="304.25" y="-61" font-family="Helvetica,sans-Serif" font-size="10.00">sbus_protocol.h</text>
</a>
</g>
</g>
<!-- Node10&#45;&gt;Node11 -->
<g id="edge16_Node000010_Node000011" class="edge">
<title>Node10&#45;&gt;Node11</title>
<g id="a_edge16_Node000010_Node000011"><a xlink:title=" ">
<path fill="none" stroke="#63b8ff" d="M304.25,-110.33C304.25,-103.82 304.25,-94.67 304.25,-86.37"/>
<polygon fill="#63b8ff" stroke="#63b8ff" points="307.75,-86.37 304.25,-76.37 300.75,-86.37 307.75,-86.37"/>
</a>
</g>
</g>
<!-- Node11&#45;&gt;Node6 -->
<g id="edge17_Node000011_Node000006" class="edge">
<title>Node11&#45;&gt;Node6</title>
<g id="a_edge17_Node000011_Node000006"><a xlink:title=" ">
<path fill="none" stroke="#63b8ff" d="M295.99,-55.08C289.09,-47.73 279.03,-37.01 270.51,-27.94"/>
<polygon fill="#63b8ff" stroke="#63b8ff" points="273.12,-25.61 263.72,-20.71 268.02,-30.4 273.12,-25.61"/>
</a>
</g>
</g>
<!-- Node12&#45;&gt;Node6 -->
<g id="edge19_Node000012_Node000006" class="edge">
<title>Node12&#45;&gt;Node6</title>
<g id="a_edge19_Node000012_Node000006"><a xlink:title=" ">
<path fill="none" stroke="#63b8ff" d="M348.57,-165.4C358.06,-144.25 378.15,-90.4 355.25,-55.25 340.75,-32.99 312.35,-21.75 289.35,-16.13"/>
<polygon fill="#63b8ff" stroke="#63b8ff" points="290.24,-12.74 279.73,-14.05 288.76,-19.58 290.24,-12.74"/>
</a>
</g>
</g>
</g>
</svg>
