<?xml version="1.0" encoding="UTF-8" standalone="no"?>
<!DOCTYPE svg PUBLIC "-//W3C//DTD SVG 1.1//EN"
 "http://www.w3.org/Graphics/SVG/1.1/DTD/svg11.dtd">
<!-- Generated by graphviz version 12.2.1 (20241206.2353)
 -->
<!-- Title: src/ibus/ibus.h Pages: 1 -->
<svg width="448pt" height="248pt"
 viewBox="0.00 0.00 448.25 248.25" xmlns="http://www.w3.org/2000/svg" xmlns:xlink="http://www.w3.org/1999/xlink">
<g id="graph0" class="graph" transform="scale(1 1) rotate(0) translate(4 244.25)">
<title>src/ibus/ibus.h</title>
<!-- Node1 -->
<g id="Node000001" class="node">
<title>Node1</title>
<g id="a_Node000001"><a xlink:title="Header file for the Ibus protocol implementation.">
<polygon fill="#999999" stroke="#666666" points="263.62,-240.25 184.62,-240.25 184.62,-221 263.62,-221 263.62,-240.25"/>
<text text-anchor="middle" x="224.12" y="-226.75" font-family="Helvetica,sans-Serif" font-size="10.00">src/ibus/ibus.h</text>
</a>
</g>
</g>
<!-- Node2 -->
<g id="Node000002" class="node">
<title>Node2</title>
<g id="a_Node000002"><a xlink:href="SerialIO_8h.html" target="_top" xlink:title="Header file for serial input/output (IO) functionality.">
<polygon fill="white" stroke="#666666" points="257.25,-185 191,-185 191,-165.75 257.25,-165.75 257.25,-185"/>
<text text-anchor="middle" x="224.12" y="-171.5" font-family="Helvetica,sans-Serif" font-size="10.00">../SerialIO.h</text>
</a>
</g>
</g>
<!-- Node1&#45;&gt;Node2 -->
<g id="edge1_Node000001_Node000002" class="edge">
<title>Node1&#45;&gt;Node2</title>
<g id="a_edge1_Node000001_Node000002"><a xlink:title=" ">
<path fill="none" stroke="#63b8ff" d="M218.96,-220.83C217.55,-214.24 217.08,-204.96 217.55,-196.57"/>
<polygon fill="#63b8ff" stroke="#63b8ff" points="221,-197.21 218.74,-186.86 214.05,-196.37 221,-197.21"/>
</a>
</g>
</g>
<!-- Node4 -->
<g id="Node000004" class="node">
<title>Node4</title>
<g id="a_Node000004"><a xlink:href="ibus__protocol_8h.html" target="_top" xlink:title="Header file for the iBus protocol implementation.">
<polygon fill="white" stroke="#666666" points="102.25,-129.75 0,-129.75 0,-110.5 102.25,-110.5 102.25,-129.75"/>
<text text-anchor="middle" x="51.12" y="-116.25" font-family="Helvetica,sans-Serif" font-size="10.00">ibus/ibus_protocol.h</text>
</a>
</g>
</g>
<!-- Node1&#45;&gt;Node4 -->
<g id="edge18_Node000001_Node000004" class="edge">
<title>Node1&#45;&gt;Node4</title>
<g id="a_edge18_Node000001_Node000004"><a xlink:title=" ">
<path fill="none" stroke="#63b8ff" d="M209.67,-220.56C179.83,-201.85 111.16,-158.78 74.77,-135.95"/>
<polygon fill="#63b8ff" stroke="#63b8ff" points="77.03,-133.24 66.7,-130.89 73.31,-139.17 77.03,-133.24"/>
</a>
</g>
</g>
<!-- Node2&#45;&gt;Node1 -->
<g id="edge13_Node000002_Node000001" class="edge">
<title>Node2&#45;&gt;Node1</title>
<g id="a_edge13_Node000002_Node000001"><a xlink:title=" ">
<path fill="none" stroke="#63b8ff" d="M229.33,-185.36C230.72,-192 231.17,-201.3 230.68,-209.67"/>
<polygon fill="#63b8ff" stroke="#63b8ff" points="227.24,-208.97 229.48,-219.33 234.19,-209.84 227.24,-208.97"/>
</a>
</g>
</g>
<!-- Node3 -->
<g id="Node000003" class="node">
<title>Node3</title>
<g id="a_Node000003"><a xlink:title=" ">
<polygon fill="#e0e0e0" stroke="#999999" points="176.38,-129.75 119.88,-129.75 119.88,-110.5 176.38,-110.5 176.38,-129.75"/>
<text text-anchor="middle" x="148.12" y="-116.25" font-family="Helvetica,sans-Serif" font-size="10.00">Arduino.h</text>
</a>
</g>
</g>
<!-- Node2&#45;&gt;Node3 -->
<g id="edge2_Node000002_Node000003" class="edge">
<title>Node2&#45;&gt;Node3</title>
<g id="a_edge2_Node000002_Node000003"><a xlink:title=" ">
<path fill="none" stroke="#63b8ff" d="M211.23,-165.34C200.1,-157.54 183.75,-146.09 170.49,-136.79"/>
<polygon fill="#63b8ff" stroke="#63b8ff" points="172.52,-133.94 162.32,-131.07 168.5,-139.68 172.52,-133.94"/>
</a>
</g>
</g>
<!-- Node2&#45;&gt;Node4 -->
<g id="edge3_Node000002_Node000004" class="edge">
<title>Node2&#45;&gt;Node4</title>
<g id="a_edge3_Node000002_Node000004"><a xlink:title=" ">
<path fill="none" stroke="#63b8ff" d="M194.78,-165.34C166.32,-156.58 122.93,-143.23 91.28,-133.48"/>
<polygon fill="#63b8ff" stroke="#63b8ff" points="92.65,-130.24 82.06,-130.65 90.59,-136.93 92.65,-130.24"/>
</a>
</g>
</g>
<!-- Node6 -->
<g id="Node000006" class="node">
<title>Node6</title>
<g id="a_Node000006"><a xlink:href="crsf_8h.html" target="_top" xlink:title="Header file for the CRSF protocol implementation.">
<polygon fill="white" stroke="#666666" points="253.88,-129.75 194.38,-129.75 194.38,-110.5 253.88,-110.5 253.88,-129.75"/>
<text text-anchor="middle" x="224.12" y="-116.25" font-family="Helvetica,sans-Serif" font-size="10.00">crsf/crsf.h</text>
</a>
</g>
</g>
<!-- Node2&#45;&gt;Node6 -->
<g id="edge5_Node000002_Node000006" class="edge">
<title>Node2&#45;&gt;Node6</title>
<g id="a_edge5_Node000002_Node000006"><a xlink:title=" ">
<path fill="none" stroke="#63b8ff" d="M218.96,-165.58C217.55,-158.99 217.08,-149.71 217.55,-141.32"/>
<polygon fill="#63b8ff" stroke="#63b8ff" points="221,-141.96 218.74,-131.61 214.05,-141.12 221,-141.96"/>
</a>
</g>
</g>
<!-- Node8 -->
<g id="Node000008" class="node">
<title>Node8</title>
<g id="a_Node000008"><a xlink:href="fport_8h.html" target="_top" xlink:title="Header file for the FPort Protocol definations.">
<polygon fill="white" stroke="#666666" points="337.88,-129.75 272.38,-129.75 272.38,-110.5 337.88,-110.5 337.88,-129.75"/>
<text text-anchor="middle" x="305.12" y="-116.25" font-family="Helvetica,sans-Serif" font-size="10.00">fport/fport.h</text>
</a>
</g>
</g>
<!-- Node2&#45;&gt;Node8 -->
<g id="edge9_Node000002_Node000008" class="edge">
<title>Node2&#45;&gt;Node8</title>
<g id="a_edge9_Node000002_Node000008"><a xlink:title=" ">
<path fill="none" stroke="#63b8ff" d="M232.65,-165.34C243.19,-157.31 260.99,-145.41 276.41,-135.98"/>
<polygon fill="#63b8ff" stroke="#63b8ff" points="277.99,-139.11 284.79,-130.98 274.41,-133.09 277.99,-139.11"/>
</a>
</g>
</g>
<!-- Node10 -->
<g id="Node000010" class="node">
<title>Node10</title>
<g id="a_Node000010"><a xlink:href="sbus_8h.html" target="_top" xlink:title="Header file for the SBUS protocol implementation.">
<polygon fill="white" stroke="#666666" points="424.38,-129.75 355.88,-129.75 355.88,-110.5 424.38,-110.5 424.38,-129.75"/>
<text text-anchor="middle" x="390.12" y="-116.25" font-family="Helvetica,sans-Serif" font-size="10.00">sbus/sbus.h</text>
</a>
</g>
</g>
<!-- Node2&#45;&gt;Node10 -->
<g id="edge14_Node000002_Node000010" class="edge">
<title>Node2&#45;&gt;Node10</title>
<g id="a_edge14_Node000002_Node000010"><a xlink:title=" ">
<path fill="none" stroke="#63b8ff" d="M247.07,-165.34C272.55,-156.58 313.99,-143.23 345.8,-133.48"/>
<polygon fill="#63b8ff" stroke="#63b8ff" points="346.6,-136.9 355.15,-130.64 344.57,-130.2 346.6,-136.9"/>
</a>
</g>
</g>
<!-- Node5 -->
<g id="Node000005" class="node">
<title>Node5</title>
<g id="a_Node000005"><a xlink:title=" ">
<polygon fill="#e0e0e0" stroke="#999999" points="269.88,-19.25 222.38,-19.25 222.38,0 269.88,0 269.88,-19.25"/>
<text text-anchor="middle" x="246.12" y="-5.75" font-family="Helvetica,sans-Serif" font-size="10.00">stdint.h</text>
</a>
</g>
</g>
<!-- Node4&#45;&gt;Node5 -->
<g id="edge4_Node000004_Node000005" class="edge">
<title>Node4&#45;&gt;Node5</title>
<g id="a_edge4_Node000004_Node000005"><a xlink:title=" ">
<path fill="none" stroke="#63b8ff" d="M63.6,-110C81.7,-96.98 116.53,-72.71 148.12,-55.25 169.29,-43.56 194.08,-32.29 213.43,-24"/>
<polygon fill="#63b8ff" stroke="#63b8ff" points="214.61,-27.3 222.46,-20.19 211.88,-20.86 214.61,-27.3"/>
</a>
</g>
</g>
<!-- Node6&#45;&gt;Node2 -->
<g id="edge8_Node000006_Node000002" class="edge">
<title>Node6&#45;&gt;Node2</title>
<g id="a_edge8_Node000006_Node000002"><a xlink:title=" ">
<path fill="none" stroke="#63b8ff" d="M229.33,-130.11C230.72,-136.75 231.17,-146.05 230.68,-154.42"/>
<polygon fill="#63b8ff" stroke="#63b8ff" points="227.24,-153.72 229.48,-164.08 234.19,-154.59 227.24,-153.72"/>
</a>
</g>
</g>
<!-- Node7 -->
<g id="Node000007" class="node">
<title>Node7</title>
<g id="a_Node000007"><a xlink:href="crsf__protocol_8h_source.html" target="_top" xlink:title=" ">
<polygon fill="white" stroke="#666666" points="237,-74.5 157.25,-74.5 157.25,-55.25 237,-55.25 237,-74.5"/>
<text text-anchor="middle" x="197.12" y="-61" font-family="Helvetica,sans-Serif" font-size="10.00">crsf_protocol.h</text>
</a>
</g>
</g>
<!-- Node6&#45;&gt;Node7 -->
<g id="edge6_Node000006_Node000007" class="edge">
<title>Node6&#45;&gt;Node7</title>
<g id="a_edge6_Node000006_Node000007"><a xlink:title=" ">
<path fill="none" stroke="#63b8ff" d="M219.67,-110.33C216.17,-103.44 211.18,-93.59 206.78,-84.91"/>
<polygon fill="#63b8ff" stroke="#63b8ff" points="210.01,-83.55 202.36,-76.21 203.77,-86.71 210.01,-83.55"/>
</a>
</g>
</g>
<!-- Node7&#45;&gt;Node5 -->
<g id="edge7_Node000007_Node000005" class="edge">
<title>Node7&#45;&gt;Node5</title>
<g id="a_edge7_Node000007_Node000005"><a xlink:title=" ">
<path fill="none" stroke="#63b8ff" d="M205.22,-55.08C211.98,-47.73 221.85,-37.01 230.19,-27.94"/>
<polygon fill="#63b8ff" stroke="#63b8ff" points="232.64,-30.45 236.83,-20.72 227.49,-25.71 232.64,-30.45"/>
</a>
</g>
</g>
<!-- Node8&#45;&gt;Node2 -->
<g id="edge10_Node000008_Node000002" class="edge">
<title>Node8&#45;&gt;Node2</title>
<g id="a_edge10_Node000008_Node000002"><a xlink:title=" ">
<path fill="none" stroke="#63b8ff" d="M296.78,-130.02C286.25,-138.06 268.33,-150.05 252.82,-159.54"/>
<polygon fill="#63b8ff" stroke="#63b8ff" points="251.18,-156.44 244.38,-164.57 254.76,-162.45 251.18,-156.44"/>
</a>
</g>
</g>
<!-- Node9 -->
<g id="Node000009" class="node">
<title>Node9</title>
<g id="a_Node000009"><a xlink:href="fport__protocol_8h.html" target="_top" xlink:title="Header file for the F.Port protocol implementation.">
<polygon fill="white" stroke="#666666" points="337.5,-74.5 254.75,-74.5 254.75,-55.25 337.5,-55.25 337.5,-74.5"/>
<text text-anchor="middle" x="296.12" y="-61" font-family="Helvetica,sans-Serif" font-size="10.00">fport_protocol.h</text>
</a>
</g>
</g>
<!-- Node8&#45;&gt;Node9 -->
<g id="edge11_Node000008_Node000009" class="edge">
<title>Node8&#45;&gt;Node9</title>
<g id="a_edge11_Node000008_Node000009"><a xlink:title=" ">
<path fill="none" stroke="#63b8ff" d="M303.64,-110.33C302.53,-103.74 300.96,-94.46 299.54,-86.07"/>
<polygon fill="#63b8ff" stroke="#63b8ff" points="303.01,-85.63 297.9,-76.35 296.11,-86.8 303.01,-85.63"/>
</a>
</g>
</g>
<!-- Node9&#45;&gt;Node5 -->
<g id="edge12_Node000009_Node000005" class="edge">
<title>Node9&#45;&gt;Node5</title>
<g id="a_edge12_Node000009_Node000005"><a xlink:title=" ">
<path fill="none" stroke="#63b8ff" d="M287.87,-55.08C280.96,-47.73 270.9,-37.01 262.39,-27.94"/>
<polygon fill="#63b8ff" stroke="#63b8ff" points="264.99,-25.61 255.6,-20.71 259.89,-30.4 264.99,-25.61"/>
</a>
</g>
</g>
<!-- Node10&#45;&gt;Node2 -->
<g id="edge15_Node000010_Node000002" class="edge">
<title>Node10&#45;&gt;Node2</title>
<g id="a_edge15_Node000010_Node000002"><a xlink:title=" ">
<path fill="none" stroke="#63b8ff" d="M367.05,-130.2C341.52,-138.98 300.06,-152.34 268.29,-162.07"/>
<polygon fill="#63b8ff" stroke="#63b8ff" points="267.5,-158.65 258.95,-164.9 269.54,-165.35 267.5,-158.65"/>
</a>
</g>
</g>
<!-- Node11 -->
<g id="Node000011" class="node">
<title>Node11</title>
<g id="a_Node000011"><a xlink:href="sbus__protocol_8h.html" target="_top" xlink:title="Header file for the SBus protocol implementation.">
<polygon fill="white" stroke="#666666" points="440.25,-74.5 356,-74.5 356,-55.25 440.25,-55.25 440.25,-74.5"/>
<text text-anchor="middle" x="398.12" y="-61" font-family="Helvetica,sans-Serif" font-size="10.00">sbus_protocol.h</text>
</a>
</g>
</g>
<!-- Node10&#45;&gt;Node11 -->
<g id="edge16_Node000010_Node000011" class="edge">
<title>Node10&#45;&gt;Node11</title>
<g id="a_edge16_Node000010_Node000011"><a xlink:title=" ">
<path fill="none" stroke="#63b8ff" d="M391.45,-110.33C392.44,-103.74 393.83,-94.46 395.09,-86.07"/>
<polygon fill="#63b8ff" stroke="#63b8ff" points="398.53,-86.76 396.55,-76.36 391.6,-85.72 398.53,-86.76"/>
</a>
</g>
</g>
<!-- Node11&#45;&gt;Node5 -->
<g id="edge17_Node000011_Node000005" class="edge">
<title>Node11&#45;&gt;Node5</title>
<g id="a_edge17_Node000011_Node000005"><a xlink:title=" ">
<path fill="none" stroke="#63b8ff" d="M372.34,-54.84C347.18,-46.03 308.72,-32.56 280.87,-22.8"/>
<polygon fill="#63b8ff" stroke="#63b8ff" points="282.05,-19.5 271.46,-19.5 279.74,-26.11 282.05,-19.5"/>
</a>
</g>
</g>
</g>
</svg>
