<?xml version="1.0" encoding="UTF-8" standalone="no"?>
<!DOCTYPE svg PUBLIC "-//W3C//DTD SVG 1.1//EN"
 "http://www.w3.org/Graphics/SVG/1.1/DTD/svg11.dtd">
<!-- Generated by graphviz version 12.2.1 (20241206.2353)
 -->
<!-- Title: src/ibus/ibus_protocol.h Pages: 1 -->
<svg width="1087pt" height="204pt"
 viewBox="0.00 0.00 1087.00 204.25" xmlns="http://www.w3.org/2000/svg" xmlns:xlink="http://www.w3.org/1999/xlink">
<g id="graph0" class="graph" transform="scale(1 1) rotate(0) translate(4 200.25)">
<title>src/ibus/ibus_protocol.h</title>
<!-- Node1 -->
<g id="Node000001" class="node">
<title>Node1</title>
<g id="a_Node000001"><a xlink:title="Header file for the iBus protocol implementation.">
<polygon fill="#999999" stroke="#666666" points="880.88,-196.25 762.12,-196.25 762.12,-177 880.88,-177 880.88,-196.25"/>
<text text-anchor="middle" x="821.5" y="-182.75" font-family="Helvetica,sans-Serif" font-size="10.00">src/ibus/ibus_protocol.h</text>
</a>
</g>
</g>
<!-- Node2 -->
<g id="Node000002" class="node">
<title>Node2</title>
<g id="a_Node000002"><a xlink:href="SerialIO_8h.html" target="_top" xlink:title="Header file for serial input/output (IO) functionality.">
<polygon fill="white" stroke="#666666" points="826.12,-141 750.88,-141 750.88,-121.75 826.12,-121.75 826.12,-141"/>
<text text-anchor="middle" x="788.5" y="-127.5" font-family="Helvetica,sans-Serif" font-size="10.00">src/SerialIO.h</text>
</a>
</g>
</g>
<!-- Node1&#45;&gt;Node2 -->
<g id="edge1_Node000001_Node000002" class="edge">
<title>Node1&#45;&gt;Node2</title>
<g id="a_edge1_Node000001_Node000002"><a xlink:title=" ">
<path fill="none" stroke="#63b8ff" d="M810.03,-167.12C804.62,-158.39 798.42,-148.39 794.07,-141.36"/>
<polygon fill="#63b8ff" stroke="#63b8ff" points="807.01,-168.89 815.25,-175.55 812.96,-165.2 807.01,-168.89"/>
</a>
</g>
</g>
<!-- Node11 -->
<g id="Node000011" class="node">
<title>Node11</title>
<g id="a_Node000011"><a xlink:href="ibus_8h.html" target="_top" xlink:title="Header file for the Ibus protocol implementation.">
<polygon fill="white" stroke="#666666" points="1079,-80.12 1000,-80.12 1000,-60.88 1079,-60.88 1079,-80.12"/>
<text text-anchor="middle" x="1039.5" y="-66.62" font-family="Helvetica,sans-Serif" font-size="10.00">src/ibus/ibus.h</text>
</a>
</g>
</g>
<!-- Node1&#45;&gt;Node11 -->
<g id="edge17_Node000001_Node000011" class="edge">
<title>Node1&#45;&gt;Node11</title>
<g id="a_edge17_Node000001_Node000011"><a xlink:title=" ">
<path fill="none" stroke="#63b8ff" d="M848.62,-171.43C894.07,-147.64 984.33,-100.38 1022.17,-80.57"/>
<polygon fill="#63b8ff" stroke="#63b8ff" points="847.18,-168.23 839.95,-175.97 850.43,-174.43 847.18,-168.23"/>
</a>
</g>
</g>
<!-- Node3 -->
<g id="Node000003" class="node">
<title>Node3</title>
<g id="a_Node000003"><a xlink:href="atmel_2ibus__basic_2ibus__basic_8ino.html" target="_top" xlink:title=" ">
<polygon fill="white" stroke="#666666" points="109,-85.75 0,-85.75 0,-55.25 109,-55.25 109,-85.75"/>
<text text-anchor="start" x="8" y="-72.25" font-family="Helvetica,sans-Serif" font-size="10.00">examples/atmel/ibus</text>
<text text-anchor="middle" x="54.5" y="-61" font-family="Helvetica,sans-Serif" font-size="10.00">_basic/ibus_basic.ino</text>
</a>
</g>
</g>
<!-- Node2&#45;&gt;Node3 -->
<g id="edge2_Node000002_Node000003" class="edge">
<title>Node2&#45;&gt;Node3</title>
<g id="a_edge2_Node000002_Node000003"><a xlink:title=" ">
<path fill="none" stroke="#63b8ff" d="M739.01,-129.66C627.63,-127.48 348.96,-118.88 118.5,-85.75 115.46,-85.31 112.35,-84.81 109.21,-84.26"/>
<polygon fill="#63b8ff" stroke="#63b8ff" points="738.93,-133.16 749,-129.84 739.06,-126.16 738.93,-133.16"/>
</a>
</g>
</g>
<!-- Node4 -->
<g id="Node000004" class="node">
<title>Node4</title>
<g id="a_Node000004"><a xlink:href="crsf__basic_8ino.html" target="_top" xlink:title=" ">
<polygon fill="white" stroke="#666666" points="254,-85.75 127,-85.75 127,-55.25 254,-55.25 254,-85.75"/>
<text text-anchor="start" x="135" y="-72.25" font-family="Helvetica,sans-Serif" font-size="10.00">examples/espresiff</text>
<text text-anchor="middle" x="190.5" y="-61" font-family="Helvetica,sans-Serif" font-size="10.00">/crsf_basic/crsf_basic.ino</text>
</a>
</g>
</g>
<!-- Node2&#45;&gt;Node4 -->
<g id="edge3_Node000002_Node000004" class="edge">
<title>Node2&#45;&gt;Node4</title>
<g id="a_edge3_Node000002_Node000004"><a xlink:title=" ">
<path fill="none" stroke="#63b8ff" d="M739.14,-127.96C645.86,-123.01 437.48,-110.05 263.5,-85.75 260.43,-85.32 257.3,-84.85 254.13,-84.34"/>
<polygon fill="#63b8ff" stroke="#63b8ff" points="738.78,-131.45 748.95,-128.47 739.15,-124.46 738.78,-131.45"/>
</a>
</g>
</g>
<!-- Node5 -->
<g id="Node000005" class="node">
<title>Node5</title>
<g id="a_Node000005"><a xlink:href="espresiff_2ibus__basic_2ibus__basic_8ino.html" target="_top" xlink:title=" ">
<polygon fill="white" stroke="#666666" points="402.5,-85.75 272.5,-85.75 272.5,-55.25 402.5,-55.25 402.5,-85.75"/>
<text text-anchor="start" x="280.5" y="-72.25" font-family="Helvetica,sans-Serif" font-size="10.00">examples/espresiff</text>
<text text-anchor="middle" x="337.5" y="-61" font-family="Helvetica,sans-Serif" font-size="10.00">/ibus_basic/ibus_basic.ino</text>
</a>
</g>
</g>
<!-- Node2&#45;&gt;Node5 -->
<g id="edge4_Node000002_Node000005" class="edge">
<title>Node2&#45;&gt;Node5</title>
<g id="a_edge4_Node000002_Node000005"><a xlink:title=" ">
<path fill="none" stroke="#63b8ff" d="M738.95,-125.67C666.73,-118.54 528.41,-103.9 411.5,-85.75 408.66,-85.31 405.75,-84.84 402.83,-84.35"/>
<polygon fill="#63b8ff" stroke="#63b8ff" points="738.58,-129.15 748.88,-126.64 739.27,-122.18 738.58,-129.15"/>
</a>
</g>
</g>
<!-- Node6 -->
<g id="Node000006" class="node">
<title>Node6</title>
<g id="a_Node000006"><a xlink:href="sbus__basic_8ino.html" target="_top" xlink:title=" ">
<polygon fill="white" stroke="#666666" points="556.5,-85.75 420.5,-85.75 420.5,-55.25 556.5,-55.25 556.5,-85.75"/>
<text text-anchor="start" x="428.5" y="-72.25" font-family="Helvetica,sans-Serif" font-size="10.00">examples/espresiff</text>
<text text-anchor="middle" x="488.5" y="-61" font-family="Helvetica,sans-Serif" font-size="10.00">/sbus_basic/sbus_basic.ino</text>
</a>
</g>
</g>
<!-- Node2&#45;&gt;Node6 -->
<g id="edge5_Node000002_Node000006" class="edge">
<title>Node2&#45;&gt;Node6</title>
<g id="a_edge5_Node000002_Node000006"><a xlink:title=" ">
<path fill="none" stroke="#63b8ff" d="M739.41,-120.74C689.69,-110.98 612.38,-95.81 556.72,-84.89"/>
<polygon fill="#63b8ff" stroke="#63b8ff" points="738.53,-124.14 749.02,-122.63 739.88,-117.27 738.53,-124.14"/>
</a>
</g>
</g>
<!-- Node7 -->
<g id="Node000007" class="node">
<title>Node7</title>
<g id="a_Node000007"><a xlink:href="rp2040_2ibus__basic_2ibus__basic_8ino.html" target="_top" xlink:title=" ">
<polygon fill="white" stroke="#666666" points="684.75,-85.75 574.25,-85.75 574.25,-55.25 684.75,-55.25 684.75,-85.75"/>
<text text-anchor="start" x="582.25" y="-72.25" font-family="Helvetica,sans-Serif" font-size="10.00">examples/rp2040/ibus</text>
<text text-anchor="middle" x="629.5" y="-61" font-family="Helvetica,sans-Serif" font-size="10.00">_basic/ibus_basic.ino</text>
</a>
</g>
</g>
<!-- Node2&#45;&gt;Node7 -->
<g id="edge6_Node000002_Node000007" class="edge">
<title>Node2&#45;&gt;Node7</title>
<g id="a_edge6_Node000002_Node000007"><a xlink:title=" ">
<path fill="none" stroke="#63b8ff" d="M753.23,-117.31C728.35,-108.1 694.99,-95.75 669.19,-86.19"/>
<polygon fill="#63b8ff" stroke="#63b8ff" points="751.99,-120.59 762.59,-120.78 754.42,-114.02 751.99,-120.59"/>
</a>
</g>
</g>
<!-- Node8 -->
<g id="Node000008" class="node">
<title>Node8</title>
<g id="a_Node000008"><a xlink:href="crsf_8h.html" target="_top" xlink:title="Header file for the CRSF protocol implementation.">
<polygon fill="white" stroke="#666666" points="778.5,-80.12 702.5,-80.12 702.5,-60.88 778.5,-60.88 778.5,-80.12"/>
<text text-anchor="middle" x="740.5" y="-66.62" font-family="Helvetica,sans-Serif" font-size="10.00">src/crsf/crsf.h</text>
</a>
</g>
</g>
<!-- Node2&#45;&gt;Node8 -->
<g id="edge7_Node000002_Node000008" class="edge">
<title>Node2&#45;&gt;Node8</title>
<g id="a_edge7_Node000002_Node000008"><a xlink:title=" ">
<path fill="none" stroke="#63b8ff" d="M768.32,-113.23C758.59,-102.54 748.11,-89.2 742.83,-80.53"/>
<polygon fill="#63b8ff" stroke="#63b8ff" points="765.7,-115.55 775.15,-120.34 770.75,-110.7 765.7,-115.55"/>
</a>
</g>
</g>
<!-- Node9 -->
<g id="Node000009" class="node">
<title>Node9</title>
<g id="a_Node000009"><a xlink:href="fport_8h.html" target="_top" xlink:title="Header file for the FPort Protocol definations.">
<polygon fill="white" stroke="#666666" points="878.5,-80.12 796.5,-80.12 796.5,-60.88 878.5,-60.88 878.5,-80.12"/>
<text text-anchor="middle" x="837.5" y="-66.62" font-family="Helvetica,sans-Serif" font-size="10.00">src/fport/fport.h</text>
</a>
</g>
</g>
<!-- Node2&#45;&gt;Node9 -->
<g id="edge9_Node000002_Node000009" class="edge">
<title>Node2&#45;&gt;Node9</title>
<g id="a_edge9_Node000002_Node000009"><a xlink:title=" ">
<path fill="none" stroke="#63b8ff" d="M797.29,-112.26C805.14,-101.74 816.21,-88.94 824.96,-80.53"/>
<polygon fill="#63b8ff" stroke="#63b8ff" points="794.62,-109.98 791.79,-120.19 800.37,-113.96 794.62,-109.98"/>
</a>
</g>
</g>
<!-- Node2&#45;&gt;Node11 -->
<g id="edge12_Node000002_Node000011" class="edge">
<title>Node2&#45;&gt;Node11</title>
<g id="a_edge12_Node000002_Node000011"><a xlink:title=" ">
<path fill="none" stroke="#63b8ff" d="M837.59,-119.08C876.96,-110.64 933.37,-98.43 982.5,-85.75 988.56,-84.19 995.01,-82.38 1001.35,-80.58"/>
<polygon fill="#63b8ff" stroke="#63b8ff" points="836.98,-115.63 827.93,-121.14 838.44,-122.47 836.98,-115.63"/>
</a>
</g>
</g>
<!-- Node12 -->
<g id="Node000012" class="node">
<title>Node12</title>
<g id="a_Node000012"><a xlink:href="sbus_8h.html" target="_top" xlink:title="Header file for the SBUS protocol implementation.">
<polygon fill="white" stroke="#666666" points="982,-80.12 897,-80.12 897,-60.88 982,-60.88 982,-80.12"/>
<text text-anchor="middle" x="939.5" y="-66.62" font-family="Helvetica,sans-Serif" font-size="10.00">src/sbus/sbus.h</text>
</a>
</g>
</g>
<!-- Node2&#45;&gt;Node12 -->
<g id="edge14_Node000002_Node000012" class="edge">
<title>Node2&#45;&gt;Node12</title>
<g id="a_edge14_Node000002_Node000012"><a xlink:title=" ">
<path fill="none" stroke="#63b8ff" d="M817.09,-116.98C844.12,-105.85 884.22,-90.31 911.17,-80.58"/>
<polygon fill="#63b8ff" stroke="#63b8ff" points="816,-113.64 808.12,-120.72 818.7,-120.1 816,-113.64"/>
</a>
</g>
</g>
<!-- Node8&#45;&gt;Node2 -->
<g id="edge8_Node000008_Node000002" class="edge">
<title>Node8&#45;&gt;Node2</title>
<g id="a_edge8_Node000008_Node000002"><a xlink:title=" ">
<path fill="none" stroke="#63b8ff" d="M760.77,-88.75C770.51,-99.46 780.98,-112.79 786.22,-121.43"/>
<polygon fill="#63b8ff" stroke="#63b8ff" points="763.38,-86.41 753.93,-81.62 758.33,-91.26 763.38,-86.41"/>
</a>
</g>
</g>
<!-- Node9&#45;&gt;Node2 -->
<g id="edge10_Node000009_Node000002" class="edge">
<title>Node9&#45;&gt;Node2</title>
<g id="a_edge10_Node000009_Node000002"><a xlink:title=" ">
<path fill="none" stroke="#63b8ff" d="M828.63,-89.72C820.76,-100.26 809.69,-113.05 800.95,-121.43"/>
<polygon fill="#63b8ff" stroke="#63b8ff" points="831.32,-91.98 834.15,-81.77 825.57,-87.99 831.32,-91.98"/>
</a>
</g>
</g>
<!-- Node10 -->
<g id="Node000010" class="node">
<title>Node10</title>
<g id="a_Node000010"><a xlink:href="fport_8cpp.html" target="_top" xlink:title="Source file for the F.Port implementations.">
<polygon fill="white" stroke="#666666" points="878.75,-19.25 786.25,-19.25 786.25,0 878.75,0 878.75,-19.25"/>
<text text-anchor="middle" x="832.5" y="-5.75" font-family="Helvetica,sans-Serif" font-size="10.00">src/fport/fport.cpp</text>
</a>
</g>
</g>
<!-- Node9&#45;&gt;Node10 -->
<g id="edge11_Node000009_Node000010" class="edge">
<title>Node9&#45;&gt;Node10</title>
<g id="a_edge11_Node000009_Node000010"><a xlink:title=" ">
<path fill="none" stroke="#63b8ff" d="M835.79,-49.41C834.94,-39.3 833.94,-27.55 833.27,-19.65"/>
<polygon fill="#63b8ff" stroke="#63b8ff" points="832.28,-49.38 836.61,-59.05 839.25,-48.79 832.28,-49.38"/>
</a>
</g>
</g>
<!-- Node11&#45;&gt;Node2 -->
<g id="edge13_Node000011_Node000002" class="edge">
<title>Node11&#45;&gt;Node2</title>
<g id="a_edge13_Node000011_Node000002"><a xlink:title=" ">
<path fill="none" stroke="#63b8ff" d="M1008.02,-83.74C1005.49,-84.44 1002.96,-85.11 1000.5,-85.75 940.4,-101.25 869.42,-116.07 826.58,-124.12"/>
<polygon fill="#63b8ff" stroke="#63b8ff" points="1008.86,-87.14 1017.49,-81 1006.91,-80.42 1008.86,-87.14"/>
</a>
</g>
</g>
<!-- Node12&#45;&gt;Node2 -->
<g id="edge15_Node000012_Node000002" class="edge">
<title>Node12&#45;&gt;Node2</title>
<g id="a_edge15_Node000012_Node000002"><a xlink:title=" ">
<path fill="none" stroke="#63b8ff" d="M911.12,-84.81C884.08,-95.95 843.82,-111.55 816.8,-121.3"/>
<polygon fill="#63b8ff" stroke="#63b8ff" points="912.2,-88.15 920.08,-81.07 909.5,-81.69 912.2,-88.15"/>
</a>
</g>
</g>
<!-- Node13 -->
<g id="Node000013" class="node">
<title>Node13</title>
<g id="a_Node000013"><a xlink:href="sbus_8cpp.html" target="_top" xlink:title="Source file for the SBus implementations.">
<polygon fill="white" stroke="#666666" points="992.25,-19.25 896.75,-19.25 896.75,0 992.25,0 992.25,-19.25"/>
<text text-anchor="middle" x="944.5" y="-5.75" font-family="Helvetica,sans-Serif" font-size="10.00">src/sbus/sbus.cpp</text>
</a>
</g>
</g>
<!-- Node12&#45;&gt;Node13 -->
<g id="edge16_Node000012_Node000013" class="edge">
<title>Node12&#45;&gt;Node13</title>
<g id="a_edge16_Node000012_Node000013"><a xlink:title=" ">
<path fill="none" stroke="#63b8ff" d="M941.21,-49.41C942.06,-39.3 943.06,-27.55 943.73,-19.65"/>
<polygon fill="#63b8ff" stroke="#63b8ff" points="937.75,-48.79 940.39,-59.05 944.72,-49.38 937.75,-48.79"/>
</a>
</g>
</g>
</g>
</svg>
