<?xml version="1.0" encoding="UTF-8" standalone="no"?>
<!DOCTYPE svg PUBLIC "-//W3C//DTD SVG 1.1//EN"
 "http://www.w3.org/Graphics/SVG/1.1/DTD/svg11.dtd">
<!-- Generated by graphviz version 11.0.0 (20240428.1522)
 -->
<!-- Title: src/ibus.h Pages: 1 -->
<svg width="519pt" height="149pt"
 viewBox="0.00 0.00 519.12 149.00" xmlns="http://www.w3.org/2000/svg" xmlns:xlink="http://www.w3.org/1999/xlink">
<g id="graph0" class="graph" transform="scale(1 1) rotate(0) translate(4 145)">
<title>src/ibus.h</title>
<!-- Node1 -->
<g id="Node000001" class="node">
<title>Node1</title>
<g id="a_Node000001"><a xlink:title="Header file for the Ibus protocol implementation.">
<polygon fill="#999999" stroke="#666666" points="432.62,-141 374.62,-141 374.62,-121.75 432.62,-121.75 432.62,-141"/>
<text text-anchor="middle" x="403.62" y="-127.5" font-family="Helvetica,sans-Serif" font-size="10.00">src/ibus.h</text>
</a>
</g>
</g>
<!-- Node2 -->
<g id="Node000002" class="node">
<title>Node2</title>
<g id="a_Node000002"><a xlink:href="SerialIO_8h.html" target="_top" xlink:title="Header file for serial input/output (IO) functionality.">
<polygon fill="white" stroke="#666666" points="441.25,-85.75 366,-85.75 366,-66.5 441.25,-66.5 441.25,-85.75"/>
<text text-anchor="middle" x="403.62" y="-72.25" font-family="Helvetica,sans-Serif" font-size="10.00">src/SerialIO.h</text>
</a>
</g>
</g>
<!-- Node1&#45;&gt;Node2 -->
<g id="edge1_Node000001_Node000002" class="edge">
<title>Node1&#45;&gt;Node2</title>
<g id="a_edge1_Node000001_Node000002"><a xlink:title=" ">
<path fill="none" stroke="#63b8ff" d="M397.07,-110.42C396.58,-102.05 397.03,-92.75 398.42,-86.11"/>
<polygon fill="#63b8ff" stroke="#63b8ff" points="393.56,-110.59 398.27,-120.08 400.51,-109.72 393.56,-110.59"/>
</a>
</g>
</g>
<!-- Node2&#45;&gt;Node1 -->
<g id="edge7_Node000002_Node000001" class="edge">
<title>Node2&#45;&gt;Node1</title>
<g id="a_edge7_Node000002_Node000001"><a xlink:title=" ">
<path fill="none" stroke="#63b8ff" d="M410.2,-97.32C410.67,-105.71 410.2,-114.99 408.79,-121.58"/>
<polygon fill="#63b8ff" stroke="#63b8ff" points="413.7,-97.12 409.01,-87.61 406.75,-97.96 413.7,-97.12"/>
</a>
</g>
</g>
<!-- Node3 -->
<g id="Node000003" class="node">
<title>Node3</title>
<g id="a_Node000003"><a xlink:href="crsf__basic_8ino.html" target="_top" xlink:title=" ">
<polygon fill="white" stroke="#666666" points="105.25,-30.5 0,-30.5 0,0 105.25,0 105.25,-30.5"/>
<text text-anchor="start" x="8" y="-17" font-family="Helvetica,sans-Serif" font-size="10.00">examples/crsf_basic</text>
<text text-anchor="middle" x="52.62" y="-5.75" font-family="Helvetica,sans-Serif" font-size="10.00">/crsf_basic.ino</text>
</a>
</g>
</g>
<!-- Node2&#45;&gt;Node3 -->
<g id="edge2_Node000002_Node000003" class="edge">
<title>Node2&#45;&gt;Node3</title>
<g id="a_edge2_Node000002_Node000003"><a xlink:title=" ">
<path fill="none" stroke="#63b8ff" d="M354.28,-68.62C296.59,-60.76 198.35,-46.56 114.62,-30.5 111.7,-29.94 108.7,-29.34 105.67,-28.71"/>
<polygon fill="#63b8ff" stroke="#63b8ff" points="353.72,-72.08 364.1,-69.95 354.66,-65.14 353.72,-72.08"/>
</a>
</g>
</g>
<!-- Node4 -->
<g id="Node000004" class="node">
<title>Node4</title>
<g id="a_Node000004"><a xlink:href="ibus__basic_8ino.html" target="_top" xlink:title=" ">
<polygon fill="white" stroke="#666666" points="230,-30.5 123.25,-30.5 123.25,0 230,0 230,-30.5"/>
<text text-anchor="start" x="131.25" y="-17" font-family="Helvetica,sans-Serif" font-size="10.00">examples/ibus_basic</text>
<text text-anchor="middle" x="176.62" y="-5.75" font-family="Helvetica,sans-Serif" font-size="10.00">/ibus_basic.ino</text>
</a>
</g>
</g>
<!-- Node2&#45;&gt;Node4 -->
<g id="edge3_Node000002_Node000004" class="edge">
<title>Node2&#45;&gt;Node4</title>
<g id="a_edge3_Node000002_Node000004"><a xlink:title=" ">
<path fill="none" stroke="#63b8ff" d="M357.72,-63.22C320.85,-53.66 269.01,-40.21 230.23,-30.15"/>
<polygon fill="#63b8ff" stroke="#63b8ff" points="356.63,-66.55 367.19,-65.67 358.39,-59.78 356.63,-66.55"/>
</a>
</g>
</g>
<!-- Node5 -->
<g id="Node000005" class="node">
<title>Node5</title>
<g id="a_Node000005"><a xlink:href="sbus__basic_8ino.html" target="_top" xlink:title=" ">
<polygon fill="white" stroke="#666666" points="357.5,-30.5 247.75,-30.5 247.75,0 357.5,0 357.5,-30.5"/>
<text text-anchor="start" x="255.75" y="-17" font-family="Helvetica,sans-Serif" font-size="10.00">examples/sbus_basic</text>
<text text-anchor="middle" x="302.62" y="-5.75" font-family="Helvetica,sans-Serif" font-size="10.00">/sbus_basic.ino</text>
</a>
</g>
</g>
<!-- Node2&#45;&gt;Node5 -->
<g id="edge4_Node000002_Node000005" class="edge">
<title>Node2&#45;&gt;Node5</title>
<g id="a_edge4_Node000002_Node000005"><a xlink:title=" ">
<path fill="none" stroke="#63b8ff" d="M378.77,-60.64C363.19,-51.55 343.16,-39.88 327.55,-30.78"/>
<polygon fill="#63b8ff" stroke="#63b8ff" points="376.58,-63.41 386.98,-65.42 380.1,-57.36 376.58,-63.41"/>
</a>
</g>
</g>
<!-- Node6 -->
<g id="Node000006" class="node">
<title>Node6</title>
<g id="a_Node000006"><a xlink:href="crsf_8h.html" target="_top" xlink:title="Header file for the CRSF protocol implementation.">
<polygon fill="white" stroke="#666666" points="431.88,-24.88 375.38,-24.88 375.38,-5.63 431.88,-5.63 431.88,-24.88"/>
<text text-anchor="middle" x="403.62" y="-11.38" font-family="Helvetica,sans-Serif" font-size="10.00">src/crsf.h</text>
</a>
</g>
</g>
<!-- Node2&#45;&gt;Node6 -->
<g id="edge5_Node000002_Node000006" class="edge">
<title>Node2&#45;&gt;Node6</title>
<g id="a_edge5_Node000002_Node000006"><a xlink:title=" ">
<path fill="none" stroke="#63b8ff" d="M397.19,-55.03C396.49,-44.92 396.96,-33.17 398.6,-25.28"/>
<polygon fill="#63b8ff" stroke="#63b8ff" points="393.68,-55.21 398.42,-64.68 400.62,-54.32 393.68,-55.21"/>
</a>
</g>
</g>
<!-- Node7 -->
<g id="Node000007" class="node">
<title>Node7</title>
<g id="a_Node000007"><a xlink:href="sbus_8h.html" target="_top" xlink:title="Header file for the SBUS protocol implementation.">
<polygon fill="white" stroke="#666666" points="511.12,-24.88 450.12,-24.88 450.12,-5.63 511.12,-5.63 511.12,-24.88"/>
<text text-anchor="middle" x="480.62" y="-11.38" font-family="Helvetica,sans-Serif" font-size="10.00">src/sbus.h</text>
</a>
</g>
</g>
<!-- Node2&#45;&gt;Node7 -->
<g id="edge8_Node000002_Node000007" class="edge">
<title>Node2&#45;&gt;Node7</title>
<g id="a_edge8_Node000002_Node000007"><a xlink:title=" ">
<path fill="none" stroke="#63b8ff" d="M418.7,-58.94C431.75,-48.09 450.25,-34.21 463.79,-25.28"/>
<polygon fill="#63b8ff" stroke="#63b8ff" points="416.73,-56.01 411.46,-65.19 421.31,-61.3 416.73,-56.01"/>
</a>
</g>
</g>
<!-- Node6&#45;&gt;Node2 -->
<g id="edge6_Node000006_Node000002" class="edge">
<title>Node6&#45;&gt;Node2</title>
<g id="a_edge6_Node000006_Node000002"><a xlink:title=" ">
<path fill="none" stroke="#63b8ff" d="M410.07,-36.45C410.76,-46.57 410.28,-58.32 408.63,-66.18"/>
<polygon fill="#63b8ff" stroke="#63b8ff" points="413.57,-36.26 408.84,-26.78 406.63,-37.14 413.57,-36.26"/>
</a>
</g>
</g>
<!-- Node7&#45;&gt;Node2 -->
<g id="edge9_Node000007_Node000002" class="edge">
<title>Node7&#45;&gt;Node2</title>
<g id="a_edge9_Node000007_Node000002"><a xlink:title=" ">
<path fill="none" stroke="#63b8ff" d="M465.43,-32.54C452.35,-43.41 433.84,-57.28 420.33,-66.18"/>
<polygon fill="#63b8ff" stroke="#63b8ff" points="467.42,-35.45 472.7,-26.26 462.84,-30.15 467.42,-35.45"/>
</a>
</g>
</g>
</g>
</svg>
