<?xml version="1.0" encoding="UTF-8" standalone="no"?>
<!DOCTYPE svg PUBLIC "-//W3C//DTD SVG 1.1//EN"
 "http://www.w3.org/Graphics/SVG/1.1/DTD/svg11.dtd">
<!-- Generated by graphviz version 9.0.0 (20230911.1827)
 -->
<!-- Title: Graphical Class Hierarchy Pages: 1 -->
<svg width="131pt" height="64pt"
 viewBox="0.00 0.00 130.75 64.25" xmlns="http://www.w3.org/2000/svg" xmlns:xlink="http://www.w3.org/1999/xlink">
<g id="graph0" class="graph" transform="scale(1 1) rotate(0) translate(4 60.25)">
<title>Graphical Class Hierarchy</title>
<!-- Node0 -->
<g id="Node000000" class="node">
<title>Node0</title>
<g id="a_Node000000"><a xlink:href="classserialIO.html" target="_top" xlink:title="Class that stores state and functions for initialising and decoding rc protocol.">
<polygon fill="white" stroke="#666666" points="49.75,-37.25 0,-37.25 0,-18 49.75,-18 49.75,-37.25"/>
<text text-anchor="middle" x="24.88" y="-23.75" font-family="Helvetica,sans-Serif" font-size="10.00">serialIO</text>
</a>
</g>
</g>
<!-- Node1 -->
<g id="Node000001" class="node">
<title>Node1</title>
<g id="a_Node000001"><a xlink:href="classcrsf.html" target="_top" xlink:title="A class for handling CRSF protocol communication.">
<polygon fill="white" stroke="#666666" points="120.5,-56.25 88,-56.25 88,-37 120.5,-37 120.5,-56.25"/>
<text text-anchor="middle" x="104.25" y="-42.75" font-family="Helvetica,sans-Serif" font-size="10.00">crsf</text>
</a>
</g>
</g>
<!-- Node0&#45;&gt;Node1 -->
<g id="edge1_Node000000_Node000001" class="edge">
<title>Node0&#45;&gt;Node1</title>
<g id="a_edge1_Node000000_Node000001"><a xlink:title=" ">
<path fill="none" stroke="#63b8ff" d="M60.98,-36.25C70.27,-38.53 79.84,-40.88 87.51,-42.76"/>
<polygon fill="#63b8ff" stroke="#63b8ff" points="61.95,-32.88 51.4,-33.89 60.28,-39.68 61.95,-32.88"/>
</a>
</g>
</g>
<!-- Node2 -->
<g id="Node000002" class="node">
<title>Node2</title>
<g id="a_Node000002"><a xlink:href="classsbus.html" target="_top" xlink:title="A class for handling SBUS protocol communication.">
<polygon fill="white" stroke="#666666" points="122.75,-19.25 85.75,-19.25 85.75,0 122.75,0 122.75,-19.25"/>
<text text-anchor="middle" x="104.25" y="-5.75" font-family="Helvetica,sans-Serif" font-size="10.00">sbus</text>
</a>
</g>
</g>
<!-- Node0&#45;&gt;Node2 -->
<g id="edge2_Node000000_Node000002" class="edge">
<title>Node0&#45;&gt;Node2</title>
<g id="a_edge2_Node000000_Node000002"><a xlink:title=" ">
<path fill="none" stroke="#63b8ff" d="M60.9,-19.48C69.46,-17.49 78.25,-15.44 85.6,-13.73"/>
<polygon fill="#63b8ff" stroke="#63b8ff" points="60.35,-16.01 51.41,-21.69 61.94,-22.83 60.35,-16.01"/>
</a>
</g>
</g>
</g>
</svg>
