<?xml version="1.0" encoding="UTF-8" standalone="no"?>
<!DOCTYPE svg PUBLIC "-//W3C//DTD SVG 1.1//EN"
 "http://www.w3.org/Graphics/SVG/1.1/DTD/svg11.dtd">
<!-- Generated by graphviz version 9.0.0 (20230911.1827)
 -->
<!-- Title: Graphical Class Hierarchy Pages: 1 -->
<svg width="132pt" height="64pt"
 viewBox="0.00 0.00 132.25 64.25" xmlns="http://www.w3.org/2000/svg" xmlns:xlink="http://www.w3.org/1999/xlink">
<g id="graph0" class="graph" transform="scale(1 1) rotate(0) translate(4 60.25)">
<title>Graphical Class Hierarchy</title>
<!-- Node0 -->
<g id="Node000000" class="node">
<title>Node0</title>
<g id="a_Node000000"><a xlink:href="classSerialIO.html" target="_top" xlink:title="Class that stores state and functions for initialising and decoding rc protocol.">
<polygon fill="white" stroke="#666666" points="51.25,-37.25 0,-37.25 0,-18 51.25,-18 51.25,-37.25"/>
<text text-anchor="middle" x="25.62" y="-23.75" font-family="Helvetica,sans-Serif" font-size="10.00">SerialIO</text>
</a>
</g>
</g>
<!-- Node1 -->
<g id="Node000001" class="node">
<title>Node1</title>
<g id="a_Node000001"><a xlink:href="classcrsf.html" target="_top" xlink:title="A class for handling CRSF protocol communication.">
<polygon fill="white" stroke="#666666" points="122,-56.25 89.5,-56.25 89.5,-37 122,-37 122,-56.25"/>
<text text-anchor="middle" x="105.75" y="-42.75" font-family="Helvetica,sans-Serif" font-size="10.00">crsf</text>
</a>
</g>
</g>
<!-- Node0&#45;&gt;Node1 -->
<g id="edge1_Node000000_Node000001" class="edge">
<title>Node0&#45;&gt;Node1</title>
<g id="a_edge1_Node000000_Node000001"><a xlink:title=" ">
<path fill="none" stroke="#63b8ff" d="M62.46,-36.34C71.78,-38.61 81.36,-40.94 89.03,-42.8"/>
<polygon fill="#63b8ff" stroke="#63b8ff" points="63.36,-32.96 52.81,-33.99 61.7,-39.76 63.36,-32.96"/>
</a>
</g>
</g>
<!-- Node2 -->
<g id="Node000002" class="node">
<title>Node2</title>
<g id="a_Node000002"><a xlink:href="classsbus.html" target="_top" xlink:title="A class for handling SBUS protocol communication.">
<polygon fill="white" stroke="#666666" points="124.25,-19.25 87.25,-19.25 87.25,0 124.25,0 124.25,-19.25"/>
<text text-anchor="middle" x="105.75" y="-5.75" font-family="Helvetica,sans-Serif" font-size="10.00">sbus</text>
</a>
</g>
</g>
<!-- Node0&#45;&gt;Node2 -->
<g id="edge2_Node000000_Node000002" class="edge">
<title>Node0&#45;&gt;Node2</title>
<g id="a_edge2_Node000000_Node000002"><a xlink:title=" ">
<path fill="none" stroke="#63b8ff" d="M62.37,-19.39C70.97,-17.41 79.78,-15.38 87.12,-13.69"/>
<polygon fill="#63b8ff" stroke="#63b8ff" points="61.78,-15.93 52.82,-21.59 63.35,-22.76 61.78,-15.93"/>
</a>
</g>
</g>
</g>
</svg>
