<?xml version="1.0" encoding="UTF-8" standalone="no"?>
<!DOCTYPE svg PUBLIC "-//W3C//DTD SVG 1.1//EN"
 "http://www.w3.org/Graphics/SVG/1.1/DTD/svg11.dtd">
<!-- Generated by graphviz version 11.0.0 (20240428.1522)
 -->
<!-- Title: Graphical Class Hierarchy Pages: 1 -->
<svg width="132pt" height="101pt"
 viewBox="0.00 0.00 132.25 101.25" xmlns="http://www.w3.org/2000/svg" xmlns:xlink="http://www.w3.org/1999/xlink">
<g id="graph0" class="graph" transform="scale(1 1) rotate(0) translate(4 97.25)">
<title>Graphical Class Hierarchy</title>
<!-- Node0 -->
<g id="Node000000" class="node">
<title>Node0</title>
<g id="a_Node000000"><a xlink:href="classSerialIO.html" target="_top" xlink:title="Class that stores state and functions for initialising and decoding rc protocol.">
<polygon fill="white" stroke="#666666" points="51.25,-56.25 0,-56.25 0,-37 51.25,-37 51.25,-56.25"/>
<text text-anchor="middle" x="25.62" y="-42.75" font-family="Helvetica,sans-Serif" font-size="10.00">SerialIO</text>
</a>
</g>
</g>
<!-- Node1 -->
<g id="Node000001" class="node">
<title>Node1</title>
<g id="a_Node000001"><a xlink:href="classcrsf.html" target="_top" xlink:title="A class for handling CRSF protocol communication.">
<polygon fill="white" stroke="#666666" points="122,-93.25 89.5,-93.25 89.5,-74 122,-74 122,-93.25"/>
<text text-anchor="middle" x="105.75" y="-79.75" font-family="Helvetica,sans-Serif" font-size="10.00">crsf</text>
</a>
</g>
</g>
<!-- Node0&#45;&gt;Node1 -->
<g id="edge1_Node000000_Node000001" class="edge">
<title>Node0&#45;&gt;Node1</title>
<g id="a_edge1_Node000000_Node000001"><a xlink:title=" ">
<path fill="none" stroke="#63b8ff" d="M58.23,-61.59C68.87,-66.63 80.27,-72.03 89.13,-76.23"/>
<polygon fill="#63b8ff" stroke="#63b8ff" points="59.88,-58.5 49.34,-57.38 56.88,-64.83 59.88,-58.5"/>
</a>
</g>
</g>
<!-- Node2 -->
<g id="Node000002" class="node">
<title>Node2</title>
<g id="a_Node000002"><a xlink:href="classibus.html" target="_top" xlink:title="A class for handling IBUS protocol communication.">
<polygon fill="white" stroke="#666666" points="122.75,-56.25 88.75,-56.25 88.75,-37 122.75,-37 122.75,-56.25"/>
<text text-anchor="middle" x="105.75" y="-42.75" font-family="Helvetica,sans-Serif" font-size="10.00">ibus</text>
</a>
</g>
</g>
<!-- Node0&#45;&gt;Node2 -->
<g id="edge2_Node000000_Node000002" class="edge">
<title>Node0&#45;&gt;Node2</title>
<g id="a_edge2_Node000000_Node000002"><a xlink:title=" ">
<path fill="none" stroke="#63b8ff" d="M62.59,-46.62C71.69,-46.62 81.01,-46.62 88.56,-46.62"/>
<polygon fill="#63b8ff" stroke="#63b8ff" points="62.86,-43.13 52.86,-46.63 62.86,-50.13 62.86,-43.13"/>
</a>
</g>
</g>
<!-- Node3 -->
<g id="Node000003" class="node">
<title>Node3</title>
<g id="a_Node000003"><a xlink:href="classsbus.html" target="_top" xlink:title="A class for handling SBUS protocol communication.">
<polygon fill="white" stroke="#666666" points="124.25,-19.25 87.25,-19.25 87.25,0 124.25,0 124.25,-19.25"/>
<text text-anchor="middle" x="105.75" y="-5.75" font-family="Helvetica,sans-Serif" font-size="10.00">sbus</text>
</a>
</g>
</g>
<!-- Node0&#45;&gt;Node3 -->
<g id="edge3_Node000000_Node000003" class="edge">
<title>Node0&#45;&gt;Node3</title>
<g id="a_edge3_Node000000_Node000003"><a xlink:title=" ">
<path fill="none" stroke="#63b8ff" d="M58.19,-31.68C67.95,-27.05 78.37,-22.12 86.86,-18.1"/>
<polygon fill="#63b8ff" stroke="#63b8ff" points="56.88,-28.42 49.34,-35.87 59.88,-34.75 56.88,-28.42"/>
</a>
</g>
</g>
</g>
</svg>
