<?xml version="1.0" encoding="UTF-8" standalone="no"?>
<!DOCTYPE svg PUBLIC "-//W3C//DTD SVG 1.1//EN"
 "http://www.w3.org/Graphics/SVG/1.1/DTD/svg11.dtd">
<!-- Generated by graphviz version 11.0.0 (20240428.1522)
 -->
<!-- Title: Graphical Class Hierarchy Pages: 1 -->
<svg width="132pt" height="138pt"
 viewBox="0.00 0.00 132.25 138.25" xmlns="http://www.w3.org/2000/svg" xmlns:xlink="http://www.w3.org/1999/xlink">
<g id="graph0" class="graph" transform="scale(1 1) rotate(0) translate(4 134.25)">
<title>Graphical Class Hierarchy</title>
<!-- Node0 -->
<g id="Node000000" class="node">
<title>Node0</title>
<g id="a_Node000000"><a xlink:href="classSerialIO.html" target="_top" xlink:title="Class that stores state and functions for initialising and decoding rc protocol.">
<polygon fill="white" stroke="#666666" points="51.25,-74.25 0,-74.25 0,-55 51.25,-55 51.25,-74.25"/>
<text text-anchor="middle" x="25.62" y="-60.75" font-family="Helvetica,sans-Serif" font-size="10.00">SerialIO</text>
</a>
</g>
</g>
<!-- Node1 -->
<g id="Node000001" class="node">
<title>Node1</title>
<g id="a_Node000001"><a xlink:href="classcrsf.html" target="_top" xlink:title="A class for handling CRSF protocol communication.">
<polygon fill="white" stroke="#666666" points="122,-130.25 89.5,-130.25 89.5,-111 122,-111 122,-130.25"/>
<text text-anchor="middle" x="105.75" y="-116.75" font-family="Helvetica,sans-Serif" font-size="10.00">crsf</text>
</a>
</g>
</g>
<!-- Node0&#45;&gt;Node1 -->
<g id="edge1_Node000000_Node000001" class="edge">
<title>Node0&#45;&gt;Node1</title>
<g id="a_edge1_Node000000_Node000001"><a xlink:title=" ">
<path fill="none" stroke="#63b8ff" d="M49.63,-81.11C62.93,-90.65 79.23,-102.33 90.64,-110.51"/>
<polygon fill="#63b8ff" stroke="#63b8ff" points="51.99,-78.5 41.82,-75.52 47.91,-84.19 51.99,-78.5"/>
</a>
</g>
</g>
<!-- Node2 -->
<g id="Node000002" class="node">
<title>Node2</title>
<g id="a_Node000002"><a xlink:href="classfport.html" target="_top" xlink:title=" ">
<polygon fill="white" stroke="#666666" points="123.5,-93.25 88,-93.25 88,-74 123.5,-74 123.5,-93.25"/>
<text text-anchor="middle" x="105.75" y="-79.75" font-family="Helvetica,sans-Serif" font-size="10.00">fport</text>
</a>
</g>
</g>
<!-- Node0&#45;&gt;Node2 -->
<g id="edge2_Node000000_Node000002" class="edge">
<title>Node0&#45;&gt;Node2</title>
<g id="a_edge2_Node000000_Node000002"><a xlink:title=" ">
<path fill="none" stroke="#63b8ff" d="M62.25,-73.29C71.08,-75.44 80.13,-77.64 87.61,-79.46"/>
<polygon fill="#63b8ff" stroke="#63b8ff" points="63.36,-69.96 52.81,-70.99 61.7,-76.76 63.36,-69.96"/>
</a>
</g>
</g>
<!-- Node3 -->
<g id="Node000003" class="node">
<title>Node3</title>
<g id="a_Node000003"><a xlink:href="classibus.html" target="_top" xlink:title="A class for handling IBUS protocol communication.">
<polygon fill="white" stroke="#666666" points="122.75,-56.25 88.75,-56.25 88.75,-37 122.75,-37 122.75,-56.25"/>
<text text-anchor="middle" x="105.75" y="-42.75" font-family="Helvetica,sans-Serif" font-size="10.00">ibus</text>
</a>
</g>
</g>
<!-- Node0&#45;&gt;Node3 -->
<g id="edge3_Node000000_Node000003" class="edge">
<title>Node0&#45;&gt;Node3</title>
<g id="a_edge3_Node000000_Node000003"><a xlink:title=" ">
<path fill="none" stroke="#63b8ff" d="M62.29,-56.41C71.48,-54.29 80.92,-52.11 88.56,-50.35"/>
<polygon fill="#63b8ff" stroke="#63b8ff" points="61.78,-52.93 52.82,-58.59 63.35,-59.76 61.78,-52.93"/>
</a>
</g>
</g>
<!-- Node4 -->
<g id="Node000004" class="node">
<title>Node4</title>
<g id="a_Node000004"><a xlink:href="classsbus.html" target="_top" xlink:title="A class for handling SBUS protocol communication.">
<polygon fill="white" stroke="#666666" points="124.25,-19.25 87.25,-19.25 87.25,0 124.25,0 124.25,-19.25"/>
<text text-anchor="middle" x="105.75" y="-5.75" font-family="Helvetica,sans-Serif" font-size="10.00">sbus</text>
</a>
</g>
</g>
<!-- Node0&#45;&gt;Node4 -->
<g id="edge4_Node000000_Node000004" class="edge">
<title>Node0&#45;&gt;Node4</title>
<g id="a_edge4_Node000000_Node000004"><a xlink:title=" ">
<path fill="none" stroke="#63b8ff" d="M50.33,-47.94C63.44,-38.71 79.3,-27.54 90.51,-19.65"/>
<polygon fill="#63b8ff" stroke="#63b8ff" points="48.35,-45.05 42.19,-53.67 52.38,-50.77 48.35,-45.05"/>
</a>
</g>
</g>
</g>
</svg>
