<?xml version="1.0" encoding="UTF-8" standalone="no"?>
<!DOCTYPE svg PUBLIC "-//W3C//DTD SVG 1.1//EN"
 "http://www.w3.org/Graphics/SVG/1.1/DTD/svg11.dtd">
<!-- Generated by graphviz version 11.0.0 (20240428.1522)
 -->
<!-- Title: src/sbus/sbus_protocol.h Pages: 1 -->
<svg width="856pt" height="260pt"
 viewBox="0.00 0.00 856.00 259.50" xmlns="http://www.w3.org/2000/svg" xmlns:xlink="http://www.w3.org/1999/xlink">
<g id="graph0" class="graph" transform="scale(1 1) rotate(0) translate(4 255.5)">
<title>src/sbus/sbus_protocol.h</title>
<!-- Node1 -->
<g id="Node000001" class="node">
<title>Node1</title>
<g id="a_Node000001"><a xlink:title="Header file for the SBus protocol implementation.">
<polygon fill="#999999" stroke="#666666" points="674.88,-251.5 550.12,-251.5 550.12,-232.25 674.88,-232.25 674.88,-251.5"/>
<text text-anchor="middle" x="612.5" y="-238" font-family="Helvetica,sans-Serif" font-size="10.00">src/sbus/sbus_protocol.h</text>
</a>
</g>
</g>
<!-- Node2 -->
<g id="Node000002" class="node">
<title>Node2</title>
<g id="a_Node000002"><a xlink:href="sbus_8h.html" target="_top" xlink:title="Header file for the SBUS protocol implementation.">
<polygon fill="white" stroke="#666666" points="655,-196.25 570,-196.25 570,-177 655,-177 655,-196.25"/>
<text text-anchor="middle" x="612.5" y="-182.75" font-family="Helvetica,sans-Serif" font-size="10.00">src/sbus/sbus.h</text>
</a>
</g>
</g>
<!-- Node1&#45;&gt;Node2 -->
<g id="edge1_Node000001_Node000002" class="edge">
<title>Node1&#45;&gt;Node2</title>
<g id="a_edge1_Node000001_Node000002"><a xlink:title=" ">
<path fill="none" stroke="#63b8ff" d="M612.5,-220.63C612.5,-212.34 612.5,-203.17 612.5,-196.61"/>
<polygon fill="#63b8ff" stroke="#63b8ff" points="609,-220.57 612.5,-230.57 616,-220.57 609,-220.57"/>
</a>
</g>
</g>
<!-- Node3 -->
<g id="Node000003" class="node">
<title>Node3</title>
<g id="a_Node000003"><a xlink:href="SerialIO_8h.html" target="_top" xlink:title="Header file for serial input/output (IO) functionality.">
<polygon fill="white" stroke="#666666" points="650.12,-141 574.88,-141 574.88,-121.75 650.12,-121.75 650.12,-141"/>
<text text-anchor="middle" x="612.5" y="-127.5" font-family="Helvetica,sans-Serif" font-size="10.00">src/SerialIO.h</text>
</a>
</g>
</g>
<!-- Node2&#45;&gt;Node3 -->
<g id="edge2_Node000002_Node000003" class="edge">
<title>Node2&#45;&gt;Node3</title>
<g id="a_edge2_Node000002_Node000003"><a xlink:title=" ">
<path fill="none" stroke="#63b8ff" d="M605.94,-165.67C605.45,-157.3 605.9,-148 607.29,-141.36"/>
<polygon fill="#63b8ff" stroke="#63b8ff" points="602.44,-165.84 607.15,-175.33 609.38,-164.97 602.44,-165.84"/>
</a>
</g>
</g>
<!-- Node12 -->
<g id="Node000012" class="node">
<title>Node12</title>
<g id="a_Node000012"><a xlink:href="sbus_8cpp.html" target="_top" xlink:title="Source file for the SBus implementations.">
<polygon fill="white" stroke="#666666" points="763.25,-141 667.75,-141 667.75,-121.75 763.25,-121.75 763.25,-141"/>
<text text-anchor="middle" x="715.5" y="-127.5" font-family="Helvetica,sans-Serif" font-size="10.00">src/sbus/sbus.cpp</text>
</a>
</g>
</g>
<!-- Node2&#45;&gt;Node12 -->
<g id="edge15_Node000002_Node000012" class="edge">
<title>Node2&#45;&gt;Node12</title>
<g id="a_edge15_Node000002_Node000012"><a xlink:title=" ">
<path fill="none" stroke="#63b8ff" d="M640.09,-171.36C658.48,-161.86 682.08,-149.65 697.94,-141.45"/>
<polygon fill="#63b8ff" stroke="#63b8ff" points="638.59,-168.2 631.32,-175.9 641.81,-174.41 638.59,-168.2"/>
</a>
</g>
</g>
<!-- Node3&#45;&gt;Node2 -->
<g id="edge14_Node000003_Node000002" class="edge">
<title>Node3&#45;&gt;Node2</title>
<g id="a_edge14_Node000003_Node000002"><a xlink:title=" ">
<path fill="none" stroke="#63b8ff" d="M619.07,-152.57C619.54,-160.96 619.08,-170.24 617.67,-176.83"/>
<polygon fill="#63b8ff" stroke="#63b8ff" points="622.57,-152.37 617.89,-142.86 615.62,-153.21 622.57,-152.37"/>
</a>
</g>
</g>
<!-- Node4 -->
<g id="Node000004" class="node">
<title>Node4</title>
<g id="a_Node000004"><a xlink:href="atmel_2ibus__basic_2ibus__basic_8ino.html" target="_top" xlink:title=" ">
<polygon fill="white" stroke="#666666" points="109,-85.75 0,-85.75 0,-55.25 109,-55.25 109,-85.75"/>
<text text-anchor="start" x="8" y="-72.25" font-family="Helvetica,sans-Serif" font-size="10.00">examples/atmel/ibus</text>
<text text-anchor="middle" x="54.5" y="-61" font-family="Helvetica,sans-Serif" font-size="10.00">_basic/ibus_basic.ino</text>
</a>
</g>
</g>
<!-- Node3&#45;&gt;Node4 -->
<g id="edge3_Node000003_Node000004" class="edge">
<title>Node3&#45;&gt;Node4</title>
<g id="a_edge3_Node000003_Node000004"><a xlink:title=" ">
<path fill="none" stroke="#63b8ff" d="M563.12,-128.03C473.91,-123.32 280.14,-110.94 118.5,-85.75 115.46,-85.28 112.36,-84.74 109.22,-84.17"/>
<polygon fill="#63b8ff" stroke="#63b8ff" points="562.81,-131.52 572.98,-128.54 563.17,-124.53 562.81,-131.52"/>
</a>
</g>
</g>
<!-- Node5 -->
<g id="Node000005" class="node">
<title>Node5</title>
<g id="a_Node000005"><a xlink:href="crsf__basic_8ino.html" target="_top" xlink:title=" ">
<polygon fill="white" stroke="#666666" points="254,-85.75 127,-85.75 127,-55.25 254,-55.25 254,-85.75"/>
<text text-anchor="start" x="135" y="-72.25" font-family="Helvetica,sans-Serif" font-size="10.00">examples/espresiff</text>
<text text-anchor="middle" x="190.5" y="-61" font-family="Helvetica,sans-Serif" font-size="10.00">/crsf_basic/crsf_basic.ino</text>
</a>
</g>
</g>
<!-- Node3&#45;&gt;Node5 -->
<g id="edge4_Node000003_Node000005" class="edge">
<title>Node3&#45;&gt;Node5</title>
<g id="a_edge4_Node000003_Node000005"><a xlink:title=" ">
<path fill="none" stroke="#63b8ff" d="M563.27,-125.11C495.56,-117.64 369.96,-102.93 263.5,-85.75 260.44,-85.26 257.31,-84.73 254.16,-84.18"/>
<polygon fill="#63b8ff" stroke="#63b8ff" points="562.6,-128.56 572.92,-126.17 563.36,-121.6 562.6,-128.56"/>
</a>
</g>
</g>
<!-- Node6 -->
<g id="Node000006" class="node">
<title>Node6</title>
<g id="a_Node000006"><a xlink:href="espresiff_2ibus__basic_2ibus__basic_8ino.html" target="_top" xlink:title=" ">
<polygon fill="white" stroke="#666666" points="402.5,-85.75 272.5,-85.75 272.5,-55.25 402.5,-55.25 402.5,-85.75"/>
<text text-anchor="start" x="280.5" y="-72.25" font-family="Helvetica,sans-Serif" font-size="10.00">examples/espresiff</text>
<text text-anchor="middle" x="337.5" y="-61" font-family="Helvetica,sans-Serif" font-size="10.00">/ibus_basic/ibus_basic.ino</text>
</a>
</g>
</g>
<!-- Node3&#45;&gt;Node6 -->
<g id="edge5_Node000003_Node000006" class="edge">
<title>Node3&#45;&gt;Node6</title>
<g id="a_edge5_Node000003_Node000006"><a xlink:title=" ">
<path fill="none" stroke="#63b8ff" d="M563.37,-119.86C518.56,-110.26 452.03,-96.02 402.77,-85.47"/>
<polygon fill="#63b8ff" stroke="#63b8ff" points="562.56,-123.26 573.07,-121.93 564.03,-116.42 562.56,-123.26"/>
</a>
</g>
</g>
<!-- Node7 -->
<g id="Node000007" class="node">
<title>Node7</title>
<g id="a_Node000007"><a xlink:href="sbus__basic_8ino.html" target="_top" xlink:title=" ">
<polygon fill="white" stroke="#666666" points="556.5,-85.75 420.5,-85.75 420.5,-55.25 556.5,-55.25 556.5,-85.75"/>
<text text-anchor="start" x="428.5" y="-72.25" font-family="Helvetica,sans-Serif" font-size="10.00">examples/espresiff</text>
<text text-anchor="middle" x="488.5" y="-61" font-family="Helvetica,sans-Serif" font-size="10.00">/sbus_basic/sbus_basic.ino</text>
</a>
</g>
</g>
<!-- Node3&#45;&gt;Node7 -->
<g id="edge6_Node000003_Node000007" class="edge">
<title>Node3&#45;&gt;Node7</title>
<g id="a_edge6_Node000003_Node000007"><a xlink:title=" ">
<path fill="none" stroke="#63b8ff" d="M583.14,-116.43C563.95,-107.33 538.94,-95.45 519.45,-86.19"/>
<polygon fill="#63b8ff" stroke="#63b8ff" points="581.49,-119.53 592.03,-120.66 584.5,-113.2 581.49,-119.53"/>
</a>
</g>
</g>
<!-- Node8 -->
<g id="Node000008" class="node">
<title>Node8</title>
<g id="a_Node000008"><a xlink:href="crsf_8h.html" target="_top" xlink:title="Header file for the CRSF protocol implementation.">
<polygon fill="white" stroke="#666666" points="650.5,-80.12 574.5,-80.12 574.5,-60.88 650.5,-60.88 650.5,-80.12"/>
<text text-anchor="middle" x="612.5" y="-66.62" font-family="Helvetica,sans-Serif" font-size="10.00">src/crsf/crsf.h</text>
</a>
</g>
</g>
<!-- Node3&#45;&gt;Node8 -->
<g id="edge7_Node000003_Node000008" class="edge">
<title>Node3&#45;&gt;Node8</title>
<g id="a_edge7_Node000003_Node000008"><a xlink:title=" ">
<path fill="none" stroke="#63b8ff" d="M606.06,-110.28C605.37,-100.17 605.84,-88.42 607.47,-80.53"/>
<polygon fill="#63b8ff" stroke="#63b8ff" points="602.56,-110.46 607.3,-119.93 609.5,-109.57 602.56,-110.46"/>
</a>
</g>
</g>
<!-- Node9 -->
<g id="Node000009" class="node">
<title>Node9</title>
<g id="a_Node000009"><a xlink:href="fport_8h.html" target="_top" xlink:title="Header file for the FPort Protocol definations.">
<polygon fill="white" stroke="#666666" points="750.5,-80.12 668.5,-80.12 668.5,-60.88 750.5,-60.88 750.5,-80.12"/>
<text text-anchor="middle" x="709.5" y="-66.62" font-family="Helvetica,sans-Serif" font-size="10.00">src/fport/fport.h</text>
</a>
</g>
</g>
<!-- Node3&#45;&gt;Node9 -->
<g id="edge9_Node000003_Node000009" class="edge">
<title>Node3&#45;&gt;Node9</title>
<g id="a_edge9_Node000003_Node000009"><a xlink:title=" ">
<path fill="none" stroke="#63b8ff" d="M631.63,-115.13C648.45,-104.15 672.54,-89.72 689.6,-80.53"/>
<polygon fill="#63b8ff" stroke="#63b8ff" points="629.83,-112.11 623.48,-120.59 633.73,-117.93 629.83,-112.11"/>
</a>
</g>
</g>
<!-- Node11 -->
<g id="Node000011" class="node">
<title>Node11</title>
<g id="a_Node000011"><a xlink:href="ibus_8h.html" target="_top" xlink:title="Header file for the Ibus protocol implementation.">
<polygon fill="white" stroke="#666666" points="848,-80.12 769,-80.12 769,-60.88 848,-60.88 848,-80.12"/>
<text text-anchor="middle" x="808.5" y="-66.62" font-family="Helvetica,sans-Serif" font-size="10.00">src/ibus/ibus.h</text>
</a>
</g>
</g>
<!-- Node3&#45;&gt;Node11 -->
<g id="edge12_Node000003_Node000011" class="edge">
<title>Node3&#45;&gt;Node11</title>
<g id="a_edge12_Node000003_Node000011"><a xlink:title=" ">
<path fill="none" stroke="#63b8ff" d="M648.52,-117.86C684.08,-106.68 737.92,-90.57 773.23,-80.58"/>
<polygon fill="#63b8ff" stroke="#63b8ff" points="647.58,-114.49 639.1,-120.85 649.69,-121.16 647.58,-114.49"/>
</a>
</g>
</g>
<!-- Node8&#45;&gt;Node3 -->
<g id="edge8_Node000008_Node000003" class="edge">
<title>Node8&#45;&gt;Node3</title>
<g id="a_edge8_Node000008_Node000003"><a xlink:title=" ">
<path fill="none" stroke="#63b8ff" d="M618.95,-91.7C619.63,-101.82 619.16,-113.57 617.51,-121.43"/>
<polygon fill="#63b8ff" stroke="#63b8ff" points="622.45,-91.51 617.72,-82.03 615.5,-92.39 622.45,-91.51"/>
</a>
</g>
</g>
<!-- Node9&#45;&gt;Node3 -->
<g id="edge10_Node000009_Node000003" class="edge">
<title>Node9&#45;&gt;Node3</title>
<g id="a_edge10_Node000009_Node000003"><a xlink:title=" ">
<path fill="none" stroke="#63b8ff" d="M690.22,-86.85C673.36,-97.84 649.26,-112.27 632.24,-121.43"/>
<polygon fill="#63b8ff" stroke="#63b8ff" points="692.04,-89.84 698.4,-81.37 688.14,-84.03 692.04,-89.84"/>
</a>
</g>
</g>
<!-- Node10 -->
<g id="Node000010" class="node">
<title>Node10</title>
<g id="a_Node000010"><a xlink:href="fport_8cpp.html" target="_top" xlink:title="Source file for the F.Port implementations.">
<polygon fill="white" stroke="#666666" points="755.75,-19.25 663.25,-19.25 663.25,0 755.75,0 755.75,-19.25"/>
<text text-anchor="middle" x="709.5" y="-5.75" font-family="Helvetica,sans-Serif" font-size="10.00">src/fport/fport.cpp</text>
</a>
</g>
</g>
<!-- Node9&#45;&gt;Node10 -->
<g id="edge11_Node000009_Node000010" class="edge">
<title>Node9&#45;&gt;Node10</title>
<g id="a_edge11_Node000009_Node000010"><a xlink:title=" ">
<path fill="none" stroke="#63b8ff" d="M709.5,-49.07C709.5,-39.04 709.5,-27.46 709.5,-19.65"/>
<polygon fill="#63b8ff" stroke="#63b8ff" points="706,-49.04 709.5,-59.04 713,-49.04 706,-49.04"/>
</a>
</g>
</g>
<!-- Node11&#45;&gt;Node3 -->
<g id="edge13_Node000011_Node000003" class="edge">
<title>Node11&#45;&gt;Node3</title>
<g id="a_edge13_Node000011_Node000003"><a xlink:title=" ">
<path fill="none" stroke="#63b8ff" d="M772.45,-84.02C736.87,-95.21 683.03,-111.32 647.73,-121.3"/>
<polygon fill="#63b8ff" stroke="#63b8ff" points="773.39,-87.4 781.87,-81.04 771.28,-80.72 773.39,-87.4"/>
</a>
</g>
</g>
</g>
</svg>
