<?xml version="1.0" encoding="UTF-8" standalone="no"?>
<!DOCTYPE svg PUBLIC "-//W3C//DTD SVG 1.1//EN"
 "http://www.w3.org/Graphics/SVG/1.1/DTD/svg11.dtd">
<!-- Generated by graphviz version 11.0.0 (20240428.1522)
 -->
<!-- Title: src/sbus/sbus.h Pages: 1 -->
<svg width="357pt" height="248pt"
 viewBox="0.00 0.00 357.38 248.25" xmlns="http://www.w3.org/2000/svg" xmlns:xlink="http://www.w3.org/1999/xlink">
<g id="graph0" class="graph" transform="scale(1 1) rotate(0) translate(4 244.25)">
<title>src/sbus/sbus.h</title>
<!-- Node1 -->
<g id="Node000001" class="node">
<title>Node1</title>
<g id="a_Node000001"><a xlink:title="Header file for the SBUS protocol implementation.">
<polygon fill="#999999" stroke="#666666" points="227.75,-240.25 142.75,-240.25 142.75,-221 227.75,-221 227.75,-240.25"/>
<text text-anchor="middle" x="185.25" y="-226.75" font-family="Helvetica,sans-Serif" font-size="10.00">src/sbus/sbus.h</text>
</a>
</g>
</g>
<!-- Node2 -->
<g id="Node000002" class="node">
<title>Node2</title>
<g id="a_Node000002"><a xlink:href="SerialIO_8h.html" target="_top" xlink:title="Header file for serial input/output (IO) functionality.">
<polygon fill="white" stroke="#666666" points="218.38,-185 152.12,-185 152.12,-165.75 218.38,-165.75 218.38,-185"/>
<text text-anchor="middle" x="185.25" y="-171.5" font-family="Helvetica,sans-Serif" font-size="10.00">../SerialIO.h</text>
</a>
</g>
</g>
<!-- Node1&#45;&gt;Node2 -->
<g id="edge1_Node000001_Node000002" class="edge">
<title>Node1&#45;&gt;Node2</title>
<g id="a_edge1_Node000001_Node000002"><a xlink:title=" ">
<path fill="none" stroke="#63b8ff" d="M180.08,-220.83C178.67,-214.24 178.21,-204.96 178.68,-196.57"/>
<polygon fill="#63b8ff" stroke="#63b8ff" points="182.13,-197.21 179.86,-186.86 175.18,-196.37 182.13,-197.21"/>
</a>
</g>
</g>
<!-- Node11 -->
<g id="Node000011" class="node">
<title>Node11</title>
<g id="a_Node000011"><a xlink:href="sbus__protocol_8h.html" target="_top" xlink:title="Header file for the SBus protocol implementation.">
<polygon fill="white" stroke="#666666" points="349.38,-185 265.12,-185 265.12,-165.75 349.38,-165.75 349.38,-185"/>
<text text-anchor="middle" x="307.25" y="-171.5" font-family="Helvetica,sans-Serif" font-size="10.00">sbus_protocol.h</text>
</a>
</g>
</g>
<!-- Node1&#45;&gt;Node11 -->
<g id="edge16_Node000001_Node000011" class="edge">
<title>Node1&#45;&gt;Node11</title>
<g id="a_edge16_Node000001_Node000011"><a xlink:title=" ">
<path fill="none" stroke="#63b8ff" d="M205.95,-220.59C225.14,-212.22 253.96,-199.63 275.97,-190.03"/>
<polygon fill="#63b8ff" stroke="#63b8ff" points="277.3,-193.27 285.07,-186.06 274.5,-186.85 277.3,-193.27"/>
</a>
</g>
</g>
<!-- Node2&#45;&gt;Node1 -->
<g id="edge15_Node000002_Node000001" class="edge">
<title>Node2&#45;&gt;Node1</title>
<g id="a_edge15_Node000002_Node000001"><a xlink:title=" ">
<path fill="none" stroke="#63b8ff" d="M190.46,-185.36C191.85,-192 192.3,-201.3 191.81,-209.67"/>
<polygon fill="#63b8ff" stroke="#63b8ff" points="188.37,-208.97 190.6,-219.33 195.31,-209.84 188.37,-208.97"/>
</a>
</g>
</g>
<!-- Node3 -->
<g id="Node000003" class="node">
<title>Node3</title>
<g id="a_Node000003"><a xlink:title=" ">
<polygon fill="#e0e0e0" stroke="#999999" points="56.5,-129.75 0,-129.75 0,-110.5 56.5,-110.5 56.5,-129.75"/>
<text text-anchor="middle" x="28.25" y="-116.25" font-family="Helvetica,sans-Serif" font-size="10.00">Arduino.h</text>
</a>
</g>
</g>
<!-- Node2&#45;&gt;Node3 -->
<g id="edge2_Node000002_Node000003" class="edge">
<title>Node2&#45;&gt;Node3</title>
<g id="a_edge2_Node000002_Node000003"><a xlink:title=" ">
<path fill="none" stroke="#63b8ff" d="M158.62,-165.34C133.13,-156.7 94.44,-143.57 65.82,-133.87"/>
<polygon fill="#63b8ff" stroke="#63b8ff" points="67.04,-130.59 56.45,-130.69 64.79,-137.22 67.04,-130.59"/>
</a>
</g>
</g>
<!-- Node4 -->
<g id="Node000004" class="node">
<title>Node4</title>
<g id="a_Node000004"><a xlink:href="crsf_8h.html" target="_top" xlink:title="Header file for the CRSF protocol implementation.">
<polygon fill="white" stroke="#666666" points="134,-129.75 74.5,-129.75 74.5,-110.5 134,-110.5 134,-129.75"/>
<text text-anchor="middle" x="104.25" y="-116.25" font-family="Helvetica,sans-Serif" font-size="10.00">crsf/crsf.h</text>
</a>
</g>
</g>
<!-- Node2&#45;&gt;Node4 -->
<g id="edge3_Node000002_Node000004" class="edge">
<title>Node2&#45;&gt;Node4</title>
<g id="a_edge3_Node000002_Node000004"><a xlink:title=" ">
<path fill="none" stroke="#63b8ff" d="M166.29,-165.34C152.71,-157.49 134.83,-145.95 121.63,-136.62"/>
<polygon fill="#63b8ff" stroke="#63b8ff" points="123.96,-133.99 113.82,-130.92 119.83,-139.64 123.96,-133.99"/>
</a>
</g>
</g>
<!-- Node7 -->
<g id="Node000007" class="node">
<title>Node7</title>
<g id="a_Node000007"><a xlink:href="fport_8h.html" target="_top" xlink:title="Header file for the FPort Protocol definations.">
<polygon fill="white" stroke="#666666" points="218,-129.75 152.5,-129.75 152.5,-110.5 218,-110.5 218,-129.75"/>
<text text-anchor="middle" x="185.25" y="-116.25" font-family="Helvetica,sans-Serif" font-size="10.00">fport/fport.h</text>
</a>
</g>
</g>
<!-- Node2&#45;&gt;Node7 -->
<g id="edge7_Node000002_Node000007" class="edge">
<title>Node2&#45;&gt;Node7</title>
<g id="a_edge7_Node000002_Node000007"><a xlink:title=" ">
<path fill="none" stroke="#63b8ff" d="M180.08,-165.58C178.67,-158.99 178.21,-149.71 178.68,-141.32"/>
<polygon fill="#63b8ff" stroke="#63b8ff" points="182.13,-141.96 179.86,-131.61 175.18,-141.12 182.13,-141.96"/>
</a>
</g>
</g>
<!-- Node9 -->
<g id="Node000009" class="node">
<title>Node9</title>
<g id="a_Node000009"><a xlink:href="ibus_8h.html" target="_top" xlink:title="Header file for the Ibus protocol implementation.">
<polygon fill="white" stroke="#666666" points="298.5,-129.75 236,-129.75 236,-110.5 298.5,-110.5 298.5,-129.75"/>
<text text-anchor="middle" x="267.25" y="-116.25" font-family="Helvetica,sans-Serif" font-size="10.00">ibus/ibus.h</text>
</a>
</g>
</g>
<!-- Node2&#45;&gt;Node9 -->
<g id="edge11_Node000002_Node000009" class="edge">
<title>Node2&#45;&gt;Node9</title>
<g id="a_edge11_Node000002_Node000009"><a xlink:title=" ">
<path fill="none" stroke="#63b8ff" d="M193.94,-165.34C204.64,-157.31 222.66,-145.41 238.25,-135.98"/>
<polygon fill="#63b8ff" stroke="#63b8ff" points="239.91,-139.07 246.74,-130.97 236.35,-133.04 239.91,-139.07"/>
</a>
</g>
</g>
<!-- Node4&#45;&gt;Node2 -->
<g id="edge4_Node000004_Node000002" class="edge">
<title>Node4&#45;&gt;Node2</title>
<g id="a_edge4_Node000004_Node000002"><a xlink:title=" ">
<path fill="none" stroke="#63b8ff" d="M123.28,-130.2C136.8,-138.02 154.55,-149.47 167.71,-158.76"/>
<polygon fill="#63b8ff" stroke="#63b8ff" points="165.36,-161.38 175.5,-164.45 169.49,-155.73 165.36,-161.38"/>
</a>
</g>
</g>
<!-- Node5 -->
<g id="Node000005" class="node">
<title>Node5</title>
<g id="a_Node000005"><a xlink:href="crsf__protocol_8h.html" target="_top" xlink:title="Header file for the CRSF protocol implementation.">
<polygon fill="white" stroke="#666666" points="117.12,-74.5 37.38,-74.5 37.38,-55.25 117.12,-55.25 117.12,-74.5"/>
<text text-anchor="middle" x="77.25" y="-61" font-family="Helvetica,sans-Serif" font-size="10.00">crsf_protocol.h</text>
</a>
</g>
</g>
<!-- Node4&#45;&gt;Node5 -->
<g id="edge5_Node000004_Node000005" class="edge">
<title>Node4&#45;&gt;Node5</title>
<g id="a_edge5_Node000004_Node000005"><a xlink:title=" ">
<path fill="none" stroke="#63b8ff" d="M99.79,-110.33C96.3,-103.44 91.3,-93.59 86.9,-84.91"/>
<polygon fill="#63b8ff" stroke="#63b8ff" points="90.13,-83.55 82.49,-76.21 83.89,-86.71 90.13,-83.55"/>
</a>
</g>
</g>
<!-- Node6 -->
<g id="Node000006" class="node">
<title>Node6</title>
<g id="a_Node000006"><a xlink:title=" ">
<polygon fill="#e0e0e0" stroke="#999999" points="250,-19.25 202.5,-19.25 202.5,0 250,0 250,-19.25"/>
<text text-anchor="middle" x="226.25" y="-5.75" font-family="Helvetica,sans-Serif" font-size="10.00">stdint.h</text>
</a>
</g>
</g>
<!-- Node5&#45;&gt;Node6 -->
<g id="edge6_Node000005_Node000006" class="edge">
<title>Node5&#45;&gt;Node6</title>
<g id="a_edge6_Node000005_Node000006"><a xlink:title=" ">
<path fill="none" stroke="#63b8ff" d="M102.53,-54.84C127.05,-46.08 164.44,-32.71 191.7,-22.97"/>
<polygon fill="#63b8ff" stroke="#63b8ff" points="192.67,-26.34 200.91,-19.68 190.31,-19.75 192.67,-26.34"/>
</a>
</g>
</g>
<!-- Node7&#45;&gt;Node2 -->
<g id="edge8_Node000007_Node000002" class="edge">
<title>Node7&#45;&gt;Node2</title>
<g id="a_edge8_Node000007_Node000002"><a xlink:title=" ">
<path fill="none" stroke="#63b8ff" d="M190.46,-130.11C191.85,-136.75 192.3,-146.05 191.81,-154.42"/>
<polygon fill="#63b8ff" stroke="#63b8ff" points="188.37,-153.72 190.6,-164.08 195.31,-154.59 188.37,-153.72"/>
</a>
</g>
</g>
<!-- Node8 -->
<g id="Node000008" class="node">
<title>Node8</title>
<g id="a_Node000008"><a xlink:href="fport__protocol_8h.html" target="_top" xlink:title="Header file for the F.Port protocol implementation.">
<polygon fill="white" stroke="#666666" points="217.62,-74.5 134.88,-74.5 134.88,-55.25 217.62,-55.25 217.62,-74.5"/>
<text text-anchor="middle" x="176.25" y="-61" font-family="Helvetica,sans-Serif" font-size="10.00">fport_protocol.h</text>
</a>
</g>
</g>
<!-- Node7&#45;&gt;Node8 -->
<g id="edge9_Node000007_Node000008" class="edge">
<title>Node7&#45;&gt;Node8</title>
<g id="a_edge9_Node000007_Node000008"><a xlink:title=" ">
<path fill="none" stroke="#63b8ff" d="M183.76,-110.33C182.65,-103.74 181.08,-94.46 179.66,-86.07"/>
<polygon fill="#63b8ff" stroke="#63b8ff" points="183.14,-85.63 178.02,-76.35 176.24,-86.8 183.14,-85.63"/>
</a>
</g>
</g>
<!-- Node8&#45;&gt;Node6 -->
<g id="edge10_Node000008_Node000006" class="edge">
<title>Node8&#45;&gt;Node6</title>
<g id="a_edge10_Node000008_Node000006"><a xlink:title=" ">
<path fill="none" stroke="#63b8ff" d="M184.51,-55.08C191.41,-47.73 201.47,-37.01 209.99,-27.94"/>
<polygon fill="#63b8ff" stroke="#63b8ff" points="212.48,-30.4 216.78,-20.71 207.38,-25.61 212.48,-30.4"/>
</a>
</g>
</g>
<!-- Node9&#45;&gt;Node2 -->
<g id="edge12_Node000009_Node000002" class="edge">
<title>Node9&#45;&gt;Node2</title>
<g id="a_edge12_Node000009_Node000002"><a xlink:title=" ">
<path fill="none" stroke="#63b8ff" d="M258.73,-130.02C248.06,-138.06 229.91,-150.05 214.23,-159.54"/>
<polygon fill="#63b8ff" stroke="#63b8ff" points="212.52,-156.48 205.68,-164.57 216.07,-162.51 212.52,-156.48"/>
</a>
</g>
</g>
<!-- Node10 -->
<g id="Node000010" class="node">
<title>Node10</title>
<g id="a_Node000010"><a xlink:href="ibus__protocol_8h.html" target="_top" xlink:title="Header file for the iBus protocol implementation.">
<polygon fill="white" stroke="#666666" points="316.88,-74.5 235.62,-74.5 235.62,-55.25 316.88,-55.25 316.88,-74.5"/>
<text text-anchor="middle" x="276.25" y="-61" font-family="Helvetica,sans-Serif" font-size="10.00">ibus_protocol.h</text>
</a>
</g>
</g>
<!-- Node9&#45;&gt;Node10 -->
<g id="edge13_Node000009_Node000010" class="edge">
<title>Node9&#45;&gt;Node10</title>
<g id="a_edge13_Node000009_Node000010"><a xlink:title=" ">
<path fill="none" stroke="#63b8ff" d="M268.74,-110.33C269.85,-103.74 271.42,-94.46 272.84,-86.07"/>
<polygon fill="#63b8ff" stroke="#63b8ff" points="276.26,-86.8 274.48,-76.35 269.36,-85.63 276.26,-86.8"/>
</a>
</g>
</g>
<!-- Node10&#45;&gt;Node6 -->
<g id="edge14_Node000010_Node000006" class="edge">
<title>Node10&#45;&gt;Node6</title>
<g id="a_edge14_Node000010_Node000006"><a xlink:title=" ">
<path fill="none" stroke="#63b8ff" d="M267.99,-55.08C261.09,-47.73 251.03,-37.01 242.51,-27.94"/>
<polygon fill="#63b8ff" stroke="#63b8ff" points="245.12,-25.61 235.72,-20.71 240.02,-30.4 245.12,-25.61"/>
</a>
</g>
</g>
<!-- Node11&#45;&gt;Node6 -->
<g id="edge17_Node000011_Node000006" class="edge">
<title>Node11&#45;&gt;Node6</title>
<g id="a_edge17_Node000011_Node000006"><a xlink:title=" ">
<path fill="none" stroke="#63b8ff" d="M312.5,-165.45C324.13,-144.39 349.28,-90.74 326.25,-55.25 312,-33.28 284.14,-22.04 261.43,-16.33"/>
<polygon fill="#63b8ff" stroke="#63b8ff" points="262.46,-12.98 251.94,-14.22 260.94,-19.81 262.46,-12.98"/>
</a>
</g>
</g>
</g>
</svg>
