<?xml version="1.0" encoding="UTF-8" standalone="no"?>
<!DOCTYPE svg PUBLIC "-//W3C//DTD SVG 1.1//EN"
 "http://www.w3.org/Graphics/SVG/1.1/DTD/svg11.dtd">
<!-- Generated by graphviz version 12.2.1 (20241206.2353)
 -->
<!-- Title: src/sbus/sbus.h Pages: 1 -->
<svg width="984pt" height="204pt"
 viewBox="0.00 0.00 984.00 204.25" xmlns="http://www.w3.org/2000/svg" xmlns:xlink="http://www.w3.org/1999/xlink">
<g id="graph0" class="graph" transform="scale(1 1) rotate(0) translate(4 200.25)">
<title>src/sbus/sbus.h</title>
<!-- Node1 -->
<g id="Node000001" class="node">
<title>Node1</title>
<g id="a_Node000001"><a xlink:title="Header file for the SBUS protocol implementation.">
<polygon fill="#999999" stroke="#666666" points="783,-196.25 698,-196.25 698,-177 783,-177 783,-196.25"/>
<text text-anchor="middle" x="740.5" y="-182.75" font-family="Helvetica,sans-Serif" font-size="10.00">src/sbus/sbus.h</text>
</a>
</g>
</g>
<!-- Node2 -->
<g id="Node000002" class="node">
<title>Node2</title>
<g id="a_Node000002"><a xlink:href="SerialIO_8h.html" target="_top" xlink:title="Header file for serial input/output (IO) functionality.">
<polygon fill="white" stroke="#666666" points="778.12,-141 702.88,-141 702.88,-121.75 778.12,-121.75 778.12,-141"/>
<text text-anchor="middle" x="740.5" y="-127.5" font-family="Helvetica,sans-Serif" font-size="10.00">src/SerialIO.h</text>
</a>
</g>
</g>
<!-- Node1&#45;&gt;Node2 -->
<g id="edge1_Node000001_Node000002" class="edge">
<title>Node1&#45;&gt;Node2</title>
<g id="a_edge1_Node000001_Node000002"><a xlink:title=" ">
<path fill="none" stroke="#63b8ff" d="M733.94,-165.67C733.45,-157.3 733.9,-148 735.29,-141.36"/>
<polygon fill="#63b8ff" stroke="#63b8ff" points="730.44,-165.84 735.15,-175.33 737.38,-164.97 730.44,-165.84"/>
</a>
</g>
</g>
<!-- Node12 -->
<g id="Node000012" class="node">
<title>Node12</title>
<g id="a_Node000012"><a xlink:href="sbus_8cpp.html" target="_top" xlink:title="Source file for the SBus implementations.">
<polygon fill="white" stroke="#666666" points="891.25,-141 795.75,-141 795.75,-121.75 891.25,-121.75 891.25,-141"/>
<text text-anchor="middle" x="843.5" y="-127.5" font-family="Helvetica,sans-Serif" font-size="10.00">src/sbus/sbus.cpp</text>
</a>
</g>
</g>
<!-- Node1&#45;&gt;Node12 -->
<g id="edge15_Node000001_Node000012" class="edge">
<title>Node1&#45;&gt;Node12</title>
<g id="a_edge15_Node000001_Node000012"><a xlink:title=" ">
<path fill="none" stroke="#63b8ff" d="M768.09,-171.36C786.48,-161.86 810.08,-149.65 825.94,-141.45"/>
<polygon fill="#63b8ff" stroke="#63b8ff" points="766.59,-168.2 759.32,-175.9 769.81,-174.41 766.59,-168.2"/>
</a>
</g>
</g>
<!-- Node2&#45;&gt;Node1 -->
<g id="edge14_Node000002_Node000001" class="edge">
<title>Node2&#45;&gt;Node1</title>
<g id="a_edge14_Node000002_Node000001"><a xlink:title=" ">
<path fill="none" stroke="#63b8ff" d="M747.07,-152.57C747.54,-160.96 747.08,-170.24 745.67,-176.83"/>
<polygon fill="#63b8ff" stroke="#63b8ff" points="750.57,-152.37 745.89,-142.86 743.62,-153.21 750.57,-152.37"/>
</a>
</g>
</g>
<!-- Node3 -->
<g id="Node000003" class="node">
<title>Node3</title>
<g id="a_Node000003"><a xlink:href="atmel_2ibus__basic_2ibus__basic_8ino.html" target="_top" xlink:title=" ">
<polygon fill="white" stroke="#666666" points="109,-85.75 0,-85.75 0,-55.25 109,-55.25 109,-85.75"/>
<text text-anchor="start" x="8" y="-72.25" font-family="Helvetica,sans-Serif" font-size="10.00">examples/atmel/ibus</text>
<text text-anchor="middle" x="54.5" y="-61" font-family="Helvetica,sans-Serif" font-size="10.00">_basic/ibus_basic.ino</text>
</a>
</g>
</g>
<!-- Node2&#45;&gt;Node3 -->
<g id="edge2_Node000002_Node000003" class="edge">
<title>Node2&#45;&gt;Node3</title>
<g id="a_edge2_Node000002_Node000003"><a xlink:title=" ">
<path fill="none" stroke="#63b8ff" d="M691.2,-129.3C585.64,-126.47 330.17,-116.73 118.5,-85.75 115.46,-85.3 112.35,-84.8 109.21,-84.24"/>
<polygon fill="#63b8ff" stroke="#63b8ff" points="690.82,-132.8 700.91,-129.56 691.01,-125.8 690.82,-132.8"/>
</a>
</g>
</g>
<!-- Node4 -->
<g id="Node000004" class="node">
<title>Node4</title>
<g id="a_Node000004"><a xlink:href="crsf__basic_8ino.html" target="_top" xlink:title=" ">
<polygon fill="white" stroke="#666666" points="254,-85.75 127,-85.75 127,-55.25 254,-55.25 254,-85.75"/>
<text text-anchor="start" x="135" y="-72.25" font-family="Helvetica,sans-Serif" font-size="10.00">examples/espresiff</text>
<text text-anchor="middle" x="190.5" y="-61" font-family="Helvetica,sans-Serif" font-size="10.00">/crsf_basic/crsf_basic.ino</text>
</a>
</g>
</g>
<!-- Node2&#45;&gt;Node4 -->
<g id="edge3_Node000002_Node000004" class="edge">
<title>Node2&#45;&gt;Node4</title>
<g id="a_edge3_Node000002_Node000004"><a xlink:title=" ">
<path fill="none" stroke="#63b8ff" d="M691.31,-127.39C604.58,-121.78 418.95,-108.14 263.5,-85.75 260.43,-85.31 257.3,-84.82 254.14,-84.31"/>
<polygon fill="#63b8ff" stroke="#63b8ff" points="690.92,-130.88 701.12,-128.02 691.36,-123.89 690.92,-130.88"/>
</a>
</g>
</g>
<!-- Node5 -->
<g id="Node000005" class="node">
<title>Node5</title>
<g id="a_Node000005"><a xlink:href="espresiff_2ibus__basic_2ibus__basic_8ino.html" target="_top" xlink:title=" ">
<polygon fill="white" stroke="#666666" points="402.5,-85.75 272.5,-85.75 272.5,-55.25 402.5,-55.25 402.5,-85.75"/>
<text text-anchor="start" x="280.5" y="-72.25" font-family="Helvetica,sans-Serif" font-size="10.00">examples/espresiff</text>
<text text-anchor="middle" x="337.5" y="-61" font-family="Helvetica,sans-Serif" font-size="10.00">/ibus_basic/ibus_basic.ino</text>
</a>
</g>
</g>
<!-- Node2&#45;&gt;Node5 -->
<g id="edge4_Node000002_Node000005" class="edge">
<title>Node2&#45;&gt;Node5</title>
<g id="a_edge4_Node000002_Node000005"><a xlink:title=" ">
<path fill="none" stroke="#63b8ff" d="M690.98,-124.53C626.48,-116.71 510.3,-101.95 411.5,-85.75 408.66,-85.28 405.76,-84.79 402.83,-84.28"/>
<polygon fill="#63b8ff" stroke="#63b8ff" points="690.55,-128 700.9,-125.72 691.39,-121.05 690.55,-128"/>
</a>
</g>
</g>
<!-- Node6 -->
<g id="Node000006" class="node">
<title>Node6</title>
<g id="a_Node000006"><a xlink:href="sbus__basic_8ino.html" target="_top" xlink:title=" ">
<polygon fill="white" stroke="#666666" points="556.5,-85.75 420.5,-85.75 420.5,-55.25 556.5,-55.25 556.5,-85.75"/>
<text text-anchor="start" x="428.5" y="-72.25" font-family="Helvetica,sans-Serif" font-size="10.00">examples/espresiff</text>
<text text-anchor="middle" x="488.5" y="-61" font-family="Helvetica,sans-Serif" font-size="10.00">/sbus_basic/sbus_basic.ino</text>
</a>
</g>
</g>
<!-- Node2&#45;&gt;Node6 -->
<g id="edge5_Node000002_Node000006" class="edge">
<title>Node2&#45;&gt;Node6</title>
<g id="a_edge5_Node000002_Node000006"><a xlink:title=" ">
<path fill="none" stroke="#63b8ff" d="M691.43,-118.91C651.42,-109.56 594.66,-96.3 551.33,-86.18"/>
<polygon fill="#63b8ff" stroke="#63b8ff" points="690.49,-122.29 701.03,-121.15 692.08,-115.47 690.49,-122.29"/>
</a>
</g>
</g>
<!-- Node7 -->
<g id="Node000007" class="node">
<title>Node7</title>
<g id="a_Node000007"><a xlink:href="rp2040_2ibus__basic_2ibus__basic_8ino.html" target="_top" xlink:title=" ">
<polygon fill="white" stroke="#666666" points="684.75,-85.75 574.25,-85.75 574.25,-55.25 684.75,-55.25 684.75,-85.75"/>
<text text-anchor="start" x="582.25" y="-72.25" font-family="Helvetica,sans-Serif" font-size="10.00">examples/rp2040/ibus</text>
<text text-anchor="middle" x="629.5" y="-61" font-family="Helvetica,sans-Serif" font-size="10.00">_basic/ibus_basic.ino</text>
</a>
</g>
</g>
<!-- Node2&#45;&gt;Node7 -->
<g id="edge6_Node000002_Node000007" class="edge">
<title>Node2&#45;&gt;Node7</title>
<g id="a_edge6_Node000002_Node000007"><a xlink:title=" ">
<path fill="none" stroke="#63b8ff" d="M713.68,-116.15C696.48,-107.02 674.21,-95.21 656.9,-86.03"/>
<polygon fill="#63b8ff" stroke="#63b8ff" points="711.83,-119.13 722.3,-120.72 715.11,-112.95 711.83,-119.13"/>
</a>
</g>
</g>
<!-- Node8 -->
<g id="Node000008" class="node">
<title>Node8</title>
<g id="a_Node000008"><a xlink:href="crsf_8h.html" target="_top" xlink:title="Header file for the CRSF protocol implementation.">
<polygon fill="white" stroke="#666666" points="778.5,-80.12 702.5,-80.12 702.5,-60.88 778.5,-60.88 778.5,-80.12"/>
<text text-anchor="middle" x="740.5" y="-66.62" font-family="Helvetica,sans-Serif" font-size="10.00">src/crsf/crsf.h</text>
</a>
</g>
</g>
<!-- Node2&#45;&gt;Node8 -->
<g id="edge7_Node000002_Node000008" class="edge">
<title>Node2&#45;&gt;Node8</title>
<g id="a_edge7_Node000002_Node000008"><a xlink:title=" ">
<path fill="none" stroke="#63b8ff" d="M734.06,-110.28C733.37,-100.17 733.84,-88.42 735.47,-80.53"/>
<polygon fill="#63b8ff" stroke="#63b8ff" points="730.56,-110.46 735.3,-119.93 737.5,-109.57 730.56,-110.46"/>
</a>
</g>
</g>
<!-- Node9 -->
<g id="Node000009" class="node">
<title>Node9</title>
<g id="a_Node000009"><a xlink:href="fport_8h.html" target="_top" xlink:title="Header file for the FPort Protocol definations.">
<polygon fill="white" stroke="#666666" points="878.5,-80.12 796.5,-80.12 796.5,-60.88 878.5,-60.88 878.5,-80.12"/>
<text text-anchor="middle" x="837.5" y="-66.62" font-family="Helvetica,sans-Serif" font-size="10.00">src/fport/fport.h</text>
</a>
</g>
</g>
<!-- Node2&#45;&gt;Node9 -->
<g id="edge9_Node000002_Node000009" class="edge">
<title>Node2&#45;&gt;Node9</title>
<g id="a_edge9_Node000002_Node000009"><a xlink:title=" ">
<path fill="none" stroke="#63b8ff" d="M759.63,-115.13C776.45,-104.15 800.54,-89.72 817.6,-80.53"/>
<polygon fill="#63b8ff" stroke="#63b8ff" points="757.83,-112.11 751.48,-120.59 761.73,-117.93 757.83,-112.11"/>
</a>
</g>
</g>
<!-- Node11 -->
<g id="Node000011" class="node">
<title>Node11</title>
<g id="a_Node000011"><a xlink:href="ibus_8h.html" target="_top" xlink:title="Header file for the Ibus protocol implementation.">
<polygon fill="white" stroke="#666666" points="976,-80.12 897,-80.12 897,-60.88 976,-60.88 976,-80.12"/>
<text text-anchor="middle" x="936.5" y="-66.62" font-family="Helvetica,sans-Serif" font-size="10.00">src/ibus/ibus.h</text>
</a>
</g>
</g>
<!-- Node2&#45;&gt;Node11 -->
<g id="edge12_Node000002_Node000011" class="edge">
<title>Node2&#45;&gt;Node11</title>
<g id="a_edge12_Node000002_Node000011"><a xlink:title=" ">
<path fill="none" stroke="#63b8ff" d="M776.52,-117.86C812.08,-106.68 865.92,-90.57 901.23,-80.58"/>
<polygon fill="#63b8ff" stroke="#63b8ff" points="775.58,-114.49 767.1,-120.85 777.69,-121.16 775.58,-114.49"/>
</a>
</g>
</g>
<!-- Node8&#45;&gt;Node2 -->
<g id="edge8_Node000008_Node000002" class="edge">
<title>Node8&#45;&gt;Node2</title>
<g id="a_edge8_Node000008_Node000002"><a xlink:title=" ">
<path fill="none" stroke="#63b8ff" d="M746.95,-91.7C747.63,-101.82 747.16,-113.57 745.51,-121.43"/>
<polygon fill="#63b8ff" stroke="#63b8ff" points="750.45,-91.51 745.72,-82.03 743.5,-92.39 750.45,-91.51"/>
</a>
</g>
</g>
<!-- Node9&#45;&gt;Node2 -->
<g id="edge10_Node000009_Node000002" class="edge">
<title>Node9&#45;&gt;Node2</title>
<g id="a_edge10_Node000009_Node000002"><a xlink:title=" ">
<path fill="none" stroke="#63b8ff" d="M818.22,-86.85C801.36,-97.84 777.26,-112.27 760.24,-121.43"/>
<polygon fill="#63b8ff" stroke="#63b8ff" points="820.04,-89.84 826.4,-81.37 816.14,-84.03 820.04,-89.84"/>
</a>
</g>
</g>
<!-- Node10 -->
<g id="Node000010" class="node">
<title>Node10</title>
<g id="a_Node000010"><a xlink:href="fport_8cpp.html" target="_top" xlink:title="Source file for the F.Port implementations.">
<polygon fill="white" stroke="#666666" points="883.75,-19.25 791.25,-19.25 791.25,0 883.75,0 883.75,-19.25"/>
<text text-anchor="middle" x="837.5" y="-5.75" font-family="Helvetica,sans-Serif" font-size="10.00">src/fport/fport.cpp</text>
</a>
</g>
</g>
<!-- Node9&#45;&gt;Node10 -->
<g id="edge11_Node000009_Node000010" class="edge">
<title>Node9&#45;&gt;Node10</title>
<g id="a_edge11_Node000009_Node000010"><a xlink:title=" ">
<path fill="none" stroke="#63b8ff" d="M837.5,-49.07C837.5,-39.04 837.5,-27.46 837.5,-19.65"/>
<polygon fill="#63b8ff" stroke="#63b8ff" points="834,-49.04 837.5,-59.04 841,-49.04 834,-49.04"/>
</a>
</g>
</g>
<!-- Node11&#45;&gt;Node2 -->
<g id="edge13_Node000011_Node000002" class="edge">
<title>Node11&#45;&gt;Node2</title>
<g id="a_edge13_Node000011_Node000002"><a xlink:title=" ">
<path fill="none" stroke="#63b8ff" d="M900.45,-84.02C864.87,-95.21 811.03,-111.32 775.73,-121.3"/>
<polygon fill="#63b8ff" stroke="#63b8ff" points="901.39,-87.4 909.87,-81.04 899.28,-80.72 901.39,-87.4"/>
</a>
</g>
</g>
</g>
</svg>
