<?xml version="1.0" encoding="UTF-8" standalone="no"?>
<!DOCTYPE svg PUBLIC "-//W3C//DTD SVG 1.1//EN"
 "http://www.w3.org/Graphics/SVG/1.1/DTD/svg11.dtd">
<!-- Generated by graphviz version 11.0.0 (20240428.1522)
 -->
<!-- Title: src/sbus.h Pages: 1 -->
<svg width="155pt" height="248pt"
 viewBox="0.00 0.00 155.24 248.25" xmlns="http://www.w3.org/2000/svg" xmlns:xlink="http://www.w3.org/1999/xlink">
<g id="graph0" class="graph" transform="scale(1 1) rotate(0) translate(4 244.25)">
<title>src/sbus.h</title>
<!-- Node1 -->
<g id="Node000001" class="node">
<title>Node1</title>
<g id="a_Node000001"><a xlink:title="Header file for the SBUS protocol implementation.">
<polygon fill="#999999" stroke="#666666" points="128.86,-240.25 67.86,-240.25 67.86,-221 128.86,-221 128.86,-240.25"/>
<text text-anchor="middle" x="98.36" y="-226.75" font-family="Helvetica,sans-Serif" font-size="10.00">src/sbus.h</text>
</a>
</g>
</g>
<!-- Node2 -->
<g id="Node000002" class="node">
<title>Node2</title>
<g id="a_Node000002"><a xlink:href="SerialIO_8h.html" target="_top" xlink:title="Header file for serial input/output (IO) functionality.">
<polygon fill="white" stroke="#666666" points="127.74,-185 68.99,-185 68.99,-165.75 127.74,-165.75 127.74,-185"/>
<text text-anchor="middle" x="98.36" y="-171.5" font-family="Helvetica,sans-Serif" font-size="10.00">SerialIO.h</text>
</a>
</g>
</g>
<!-- Node1&#45;&gt;Node2 -->
<g id="edge1_Node000001_Node000002" class="edge">
<title>Node1&#45;&gt;Node2</title>
<g id="a_edge1_Node000001_Node000002"><a xlink:title=" ">
<path fill="none" stroke="#63b8ff" d="M93.2,-220.83C91.79,-214.24 91.32,-204.96 91.79,-196.57"/>
<polygon fill="#63b8ff" stroke="#63b8ff" points="95.24,-197.21 92.97,-186.86 88.29,-196.37 95.24,-197.21"/>
</a>
</g>
</g>
<!-- Node3 -->
<g id="Node000003" class="node">
<title>Node3</title>
<g id="a_Node000003"><a xlink:href="crsf__protocol_8h.html" target="_top" xlink:title="Header file for the CRSF protocol implementation.">
<polygon fill="white" stroke="#666666" points="147.24,-74.5 67.49,-74.5 67.49,-55.25 147.24,-55.25 147.24,-74.5"/>
<text text-anchor="middle" x="107.36" y="-61" font-family="Helvetica,sans-Serif" font-size="10.00">crsf_protocol.h</text>
</a>
</g>
</g>
<!-- Node1&#45;&gt;Node3 -->
<g id="edge9_Node000001_Node000003" class="edge">
<title>Node1&#45;&gt;Node3</title>
<g id="a_edge9_Node000001_Node000003"><a xlink:title=" ">
<path fill="none" stroke="#63b8ff" d="M109.44,-220.7C118.63,-212.53 131.02,-199.52 136.36,-185 147.8,-153.93 145.77,-142.25 136.36,-110.5 133.55,-101.01 128.02,-91.66 122.53,-83.98"/>
<polygon fill="#63b8ff" stroke="#63b8ff" points="125.39,-81.95 116.51,-76.18 119.85,-86.24 125.39,-81.95"/>
</a>
</g>
</g>
<!-- Node2&#45;&gt;Node1 -->
<g id="edge8_Node000002_Node000001" class="edge">
<title>Node2&#45;&gt;Node1</title>
<g id="a_edge8_Node000002_Node000001"><a xlink:title=" ">
<path fill="none" stroke="#63b8ff" d="M103.57,-185.36C104.96,-192 105.41,-201.3 104.92,-209.67"/>
<polygon fill="#63b8ff" stroke="#63b8ff" points="101.48,-208.97 103.72,-219.33 108.43,-209.84 101.48,-208.97"/>
</a>
</g>
</g>
<!-- Node2&#45;&gt;Node3 -->
<g id="edge2_Node000002_Node000003" class="edge">
<title>Node2&#45;&gt;Node3</title>
<g id="a_edge2_Node000002_Node000003"><a xlink:title=" ">
<path fill="none" stroke="#63b8ff" d="M68.63,-167.42C34.57,-157.95 -14.26,-138.87 4.36,-110.5 16.1,-92.63 36.68,-81.88 56.38,-75.43"/>
<polygon fill="#63b8ff" stroke="#63b8ff" points="57.11,-78.87 65.72,-72.7 55.14,-72.15 57.11,-78.87"/>
</a>
</g>
</g>
<!-- Node5 -->
<g id="Node000005" class="node">
<title>Node5</title>
<g id="a_Node000005"><a xlink:title=" ">
<polygon fill="#e0e0e0" stroke="#999999" points="69.61,-129.75 13.11,-129.75 13.11,-110.5 69.61,-110.5 69.61,-129.75"/>
<text text-anchor="middle" x="41.36" y="-116.25" font-family="Helvetica,sans-Serif" font-size="10.00">Arduino.h</text>
</a>
</g>
</g>
<!-- Node2&#45;&gt;Node5 -->
<g id="edge4_Node000002_Node000005" class="edge">
<title>Node2&#45;&gt;Node5</title>
<g id="a_edge4_Node000002_Node000005"><a xlink:title=" ">
<path fill="none" stroke="#63b8ff" d="M88.69,-165.34C80.62,-157.8 68.9,-146.85 59.14,-137.73"/>
<polygon fill="#63b8ff" stroke="#63b8ff" points="61.69,-135.33 52,-131.06 56.91,-140.44 61.69,-135.33"/>
</a>
</g>
</g>
<!-- Node6 -->
<g id="Node000006" class="node">
<title>Node6</title>
<g id="a_Node000006"><a xlink:href="crsf_8h.html" target="_top" xlink:title="Header file for the CRSF protocol implementation.">
<polygon fill="white" stroke="#666666" points="127.36,-129.75 87.36,-129.75 87.36,-110.5 127.36,-110.5 127.36,-129.75"/>
<text text-anchor="middle" x="107.36" y="-116.25" font-family="Helvetica,sans-Serif" font-size="10.00">crsf.h</text>
</a>
</g>
</g>
<!-- Node2&#45;&gt;Node6 -->
<g id="edge5_Node000002_Node000006" class="edge">
<title>Node2&#45;&gt;Node6</title>
<g id="a_edge5_Node000002_Node000006"><a xlink:title=" ">
<path fill="none" stroke="#63b8ff" d="M94.68,-165.58C94.38,-158.92 95.51,-149.49 97.44,-141.03"/>
<polygon fill="#63b8ff" stroke="#63b8ff" points="100.77,-142.14 100.21,-131.56 94.05,-140.18 100.77,-142.14"/>
</a>
</g>
</g>
<!-- Node4 -->
<g id="Node000004" class="node">
<title>Node4</title>
<g id="a_Node000004"><a xlink:title=" ">
<polygon fill="#e0e0e0" stroke="#999999" points="131.11,-19.25 83.61,-19.25 83.61,0 131.11,0 131.11,-19.25"/>
<text text-anchor="middle" x="107.36" y="-5.75" font-family="Helvetica,sans-Serif" font-size="10.00">stdint.h</text>
</a>
</g>
</g>
<!-- Node3&#45;&gt;Node4 -->
<g id="edge3_Node000003_Node000004" class="edge">
<title>Node3&#45;&gt;Node4</title>
<g id="a_edge3_Node000003_Node000004"><a xlink:title=" ">
<path fill="none" stroke="#63b8ff" d="M107.36,-55.08C107.36,-48.57 107.36,-39.42 107.36,-31.12"/>
<polygon fill="#63b8ff" stroke="#63b8ff" points="110.86,-31.12 107.36,-21.12 103.86,-31.12 110.86,-31.12"/>
</a>
</g>
</g>
<!-- Node6&#45;&gt;Node2 -->
<g id="edge6_Node000006_Node000002" class="edge">
<title>Node6&#45;&gt;Node2</title>
<g id="a_edge6_Node000006_Node000002"><a xlink:title=" ">
<path fill="none" stroke="#63b8ff" d="M111.05,-130.11C111.32,-136.83 110.17,-146.27 108.23,-154.71"/>
<polygon fill="#63b8ff" stroke="#63b8ff" points="104.92,-153.55 105.45,-164.13 111.63,-155.53 104.92,-153.55"/>
</a>
</g>
</g>
<!-- Node6&#45;&gt;Node3 -->
<g id="edge7_Node000006_Node000003" class="edge">
<title>Node6&#45;&gt;Node3</title>
<g id="a_edge7_Node000006_Node000003"><a xlink:title=" ">
<path fill="none" stroke="#63b8ff" d="M107.36,-110.33C107.36,-103.82 107.36,-94.67 107.36,-86.37"/>
<polygon fill="#63b8ff" stroke="#63b8ff" points="110.86,-86.37 107.36,-76.37 103.86,-86.37 110.86,-86.37"/>
</a>
</g>
</g>
</g>
</svg>
