<?xml version="1.0" encoding="UTF-8" standalone="no"?>
<!DOCTYPE svg PUBLIC "-//W3C//DTD SVG 1.1//EN"
 "http://www.w3.org/Graphics/SVG/1.1/DTD/svg11.dtd">
<!-- Generated by graphviz version 11.0.0 (20240428.1522)
 -->
<!-- Title: src/sbus.h Pages: 1 -->
<svg width="316pt" height="149pt"
 viewBox="0.00 0.00 315.88 149.00" xmlns="http://www.w3.org/2000/svg" xmlns:xlink="http://www.w3.org/1999/xlink">
<g id="graph0" class="graph" transform="scale(1 1) rotate(0) translate(4 145)">
<title>src/sbus.h</title>
<!-- Node1 -->
<g id="Node000001" class="node">
<title>Node1</title>
<g id="a_Node000001"><a xlink:title="Header file for the SBUS protocol implementation.">
<polygon fill="#999999" stroke="#666666" points="259.12,-141 198.12,-141 198.12,-121.75 259.12,-121.75 259.12,-141"/>
<text text-anchor="middle" x="228.62" y="-127.5" font-family="Helvetica,sans-Serif" font-size="10.00">src/sbus.h</text>
</a>
</g>
</g>
<!-- Node2 -->
<g id="Node000002" class="node">
<title>Node2</title>
<g id="a_Node000002"><a xlink:href="SerialIO_8h.html" target="_top" xlink:title="Header file for serial input/output (IO) functionality.">
<polygon fill="white" stroke="#666666" points="266.25,-85.75 191,-85.75 191,-66.5 266.25,-66.5 266.25,-85.75"/>
<text text-anchor="middle" x="228.62" y="-72.25" font-family="Helvetica,sans-Serif" font-size="10.00">src/SerialIO.h</text>
</a>
</g>
</g>
<!-- Node1&#45;&gt;Node2 -->
<g id="edge1_Node000001_Node000002" class="edge">
<title>Node1&#45;&gt;Node2</title>
<g id="a_edge1_Node000001_Node000002"><a xlink:title=" ">
<path fill="none" stroke="#63b8ff" d="M222.07,-110.42C221.58,-102.05 222.03,-92.75 223.42,-86.11"/>
<polygon fill="#63b8ff" stroke="#63b8ff" points="218.56,-110.59 223.27,-120.08 225.51,-109.72 218.56,-110.59"/>
</a>
</g>
</g>
<!-- Node2&#45;&gt;Node1 -->
<g id="edge6_Node000002_Node000001" class="edge">
<title>Node2&#45;&gt;Node1</title>
<g id="a_edge6_Node000002_Node000001"><a xlink:title=" ">
<path fill="none" stroke="#63b8ff" d="M235.2,-97.32C235.67,-105.71 235.2,-114.99 233.79,-121.58"/>
<polygon fill="#63b8ff" stroke="#63b8ff" points="238.7,-97.12 234.01,-87.61 231.75,-97.96 238.7,-97.12"/>
</a>
</g>
</g>
<!-- Node3 -->
<g id="Node000003" class="node">
<title>Node3</title>
<g id="a_Node000003"><a xlink:href="crsf__basic_8ino.html" target="_top" xlink:title=" ">
<polygon fill="white" stroke="#666666" points="105.25,-30.5 0,-30.5 0,0 105.25,0 105.25,-30.5"/>
<text text-anchor="start" x="8" y="-17" font-family="Helvetica,sans-Serif" font-size="10.00">examples/crsf_basic</text>
<text text-anchor="middle" x="52.62" y="-5.75" font-family="Helvetica,sans-Serif" font-size="10.00">/crsf_basic.ino</text>
</a>
</g>
</g>
<!-- Node2&#45;&gt;Node3 -->
<g id="edge2_Node000002_Node000003" class="edge">
<title>Node2&#45;&gt;Node3</title>
<g id="a_edge2_Node000002_Node000003"><a xlink:title=" ">
<path fill="none" stroke="#63b8ff" d="M190.69,-62.44C163.04,-53.19 125.51,-40.63 96.55,-30.94"/>
<polygon fill="#63b8ff" stroke="#63b8ff" points="189.48,-65.72 200.08,-65.57 191.7,-59.08 189.48,-65.72"/>
</a>
</g>
</g>
<!-- Node4 -->
<g id="Node000004" class="node">
<title>Node4</title>
<g id="a_Node000004"><a xlink:href="sbus__basic_8ino.html" target="_top" xlink:title=" ">
<polygon fill="white" stroke="#666666" points="233.5,-30.5 123.75,-30.5 123.75,0 233.5,0 233.5,-30.5"/>
<text text-anchor="start" x="131.75" y="-17" font-family="Helvetica,sans-Serif" font-size="10.00">examples/sbus_basic</text>
<text text-anchor="middle" x="178.62" y="-5.75" font-family="Helvetica,sans-Serif" font-size="10.00">/sbus_basic.ino</text>
</a>
</g>
</g>
<!-- Node2&#45;&gt;Node4 -->
<g id="edge3_Node000002_Node000004" class="edge">
<title>Node2&#45;&gt;Node4</title>
<g id="a_edge3_Node000002_Node000004"><a xlink:title=" ">
<path fill="none" stroke="#63b8ff" d="M213.6,-57.43C206.37,-48.92 197.81,-38.84 190.97,-30.78"/>
<polygon fill="#63b8ff" stroke="#63b8ff" points="210.91,-59.67 220.05,-65.03 216.25,-55.14 210.91,-59.67"/>
</a>
</g>
</g>
<!-- Node5 -->
<g id="Node000005" class="node">
<title>Node5</title>
<g id="a_Node000005"><a xlink:href="crsf_8h.html" target="_top" xlink:title="Header file for the CRSF protocol implementation.">
<polygon fill="white" stroke="#666666" points="307.88,-24.88 251.38,-24.88 251.38,-5.63 307.88,-5.63 307.88,-24.88"/>
<text text-anchor="middle" x="279.62" y="-11.38" font-family="Helvetica,sans-Serif" font-size="10.00">src/crsf.h</text>
</a>
</g>
</g>
<!-- Node2&#45;&gt;Node5 -->
<g id="edge4_Node000002_Node000005" class="edge">
<title>Node2&#45;&gt;Node5</title>
<g id="a_edge4_Node000002_Node000005"><a xlink:title=" ">
<path fill="none" stroke="#63b8ff" d="M238.03,-57.01C246.24,-46.49 257.74,-33.69 266.78,-25.28"/>
<polygon fill="#63b8ff" stroke="#63b8ff" points="235.3,-54.81 232.25,-64.96 240.96,-58.93 235.3,-54.81"/>
</a>
</g>
</g>
<!-- Node5&#45;&gt;Node2 -->
<g id="edge5_Node000005_Node000002" class="edge">
<title>Node5&#45;&gt;Node2</title>
<g id="a_edge5_Node000005_Node000002"><a xlink:title=" ">
<path fill="none" stroke="#63b8ff" d="M270.14,-34.47C261.91,-45.01 250.4,-57.8 241.38,-66.18"/>
<polygon fill="#63b8ff" stroke="#63b8ff" points="272.88,-36.64 275.94,-26.5 267.23,-32.52 272.88,-36.64"/>
</a>
</g>
</g>
</g>
</svg>
