<?xml version="1.0" encoding="UTF-8" standalone="no"?>
<!DOCTYPE svg PUBLIC "-//W3C//DTD SVG 1.1//EN"
 "http://www.w3.org/Graphics/SVG/1.1/DTD/svg11.dtd">
<!-- Generated by graphviz version 9.0.0 (20230911.1827)
 -->
<!-- Title: src/sbus.h Pages: 1 -->
<svg width="190pt" height="248pt"
 viewBox="0.00 0.00 189.88 248.25" xmlns="http://www.w3.org/2000/svg" xmlns:xlink="http://www.w3.org/1999/xlink">
<g id="graph0" class="graph" transform="scale(1 1) rotate(0) translate(4 244.25)">
<title>src/sbus.h</title>
<!-- Node1 -->
<g id="Node000001" class="node">
<title>Node1</title>
<g id="a_Node000001"><a xlink:title="Header file for the SBUS protocol implementation.">
<polygon fill="#999999" stroke="#666666" points="126.38,-240.25 65.38,-240.25 65.38,-221 126.38,-221 126.38,-240.25"/>
<text text-anchor="middle" x="95.88" y="-226.75" font-family="Helvetica,sans-Serif" font-size="10.00">src/sbus.h</text>
</a>
</g>
</g>
<!-- Node2 -->
<g id="Node000002" class="node">
<title>Node2</title>
<g id="a_Node000002"><a xlink:href="crsf__protocol_8h.html" target="_top" xlink:title="Header file for the CRSF protocol implementation.">
<polygon fill="white" stroke="#666666" points="79.75,-74.5 0,-74.5 0,-55.25 79.75,-55.25 79.75,-74.5"/>
<text text-anchor="middle" x="39.88" y="-61" font-family="Helvetica,sans-Serif" font-size="10.00">crsf_protocol.h</text>
</a>
</g>
</g>
<!-- Node1&#45;&gt;Node2 -->
<g id="edge1_Node000001_Node000002" class="edge">
<title>Node1&#45;&gt;Node2</title>
<g id="a_edge1_Node000001_Node000002"><a xlink:title=" ">
<path fill="none" stroke="#63b8ff" d="M85.84,-220.73C77.07,-212.39 64.7,-199.1 57.88,-185 42.34,-152.93 39.51,-110.78 39.36,-86.17"/>
<polygon fill="#63b8ff" stroke="#63b8ff" points="42.86,-86.32 39.46,-76.28 35.86,-86.25 42.86,-86.32"/>
</a>
</g>
</g>
<!-- Node4 -->
<g id="Node000004" class="node">
<title>Node4</title>
<g id="a_Node000004"><a xlink:href="SerialIO_8h.html" target="_top" xlink:title="Header file for serial input/output (IO) functionality.">
<polygon fill="white" stroke="#666666" points="125.25,-185 66.5,-185 66.5,-165.75 125.25,-165.75 125.25,-185"/>
<text text-anchor="middle" x="95.88" y="-171.5" font-family="Helvetica,sans-Serif" font-size="10.00">SerialIO.h</text>
</a>
</g>
</g>
<!-- Node1&#45;&gt;Node4 -->
<g id="edge3_Node000001_Node000004" class="edge">
<title>Node1&#45;&gt;Node4</title>
<g id="a_edge3_Node000001_Node000004"><a xlink:title=" ">
<path fill="none" stroke="#63b8ff" d="M90.71,-220.83C89.3,-214.24 88.83,-204.96 89.3,-196.57"/>
<polygon fill="#63b8ff" stroke="#63b8ff" points="92.75,-197.21 90.49,-186.86 85.8,-196.37 92.75,-197.21"/>
</a>
</g>
</g>
<!-- Node3 -->
<g id="Node000003" class="node">
<title>Node3</title>
<g id="a_Node000003"><a xlink:title=" ">
<polygon fill="#e0e0e0" stroke="#999999" points="63.62,-19.25 16.12,-19.25 16.12,0 63.62,0 63.62,-19.25"/>
<text text-anchor="middle" x="39.88" y="-5.75" font-family="Helvetica,sans-Serif" font-size="10.00">stdint.h</text>
</a>
</g>
</g>
<!-- Node2&#45;&gt;Node3 -->
<g id="edge2_Node000002_Node000003" class="edge">
<title>Node2&#45;&gt;Node3</title>
<g id="a_edge2_Node000002_Node000003"><a xlink:title=" ">
<path fill="none" stroke="#63b8ff" d="M39.88,-55.08C39.88,-48.57 39.88,-39.42 39.88,-31.12"/>
<polygon fill="#63b8ff" stroke="#63b8ff" points="43.38,-31.12 39.88,-21.12 36.38,-31.12 43.38,-31.12"/>
</a>
</g>
</g>
<!-- Node4&#45;&gt;Node1 -->
<g id="edge6_Node000004_Node000001" class="edge">
<title>Node4&#45;&gt;Node1</title>
<g id="a_edge6_Node000004_Node000001"><a xlink:title=" ">
<path fill="none" stroke="#63b8ff" d="M101.08,-185.36C102.47,-192 102.92,-201.3 102.43,-209.67"/>
<polygon fill="#63b8ff" stroke="#63b8ff" points="98.99,-208.97 101.23,-219.33 105.94,-209.84 98.99,-208.97"/>
</a>
</g>
</g>
<!-- Node4&#45;&gt;Node2 -->
<g id="edge4_Node000004_Node000002" class="edge">
<title>Node4&#45;&gt;Node2</title>
<g id="a_edge4_Node000004_Node000002"><a xlink:title=" ">
<path fill="none" stroke="#63b8ff" d="M86.41,-165.28C78.08,-156.79 66.18,-143.42 58.88,-129.75 51.52,-115.99 46.64,-98.99 43.67,-85.99"/>
<polygon fill="#63b8ff" stroke="#63b8ff" points="47.15,-85.55 41.7,-76.47 40.3,-86.98 47.15,-85.55"/>
</a>
</g>
</g>
<!-- Node5 -->
<g id="Node000005" class="node">
<title>Node5</title>
<g id="a_Node000005"><a xlink:title=" ">
<polygon fill="#e0e0e0" stroke="#999999" points="124.12,-129.75 67.62,-129.75 67.62,-110.5 124.12,-110.5 124.12,-129.75"/>
<text text-anchor="middle" x="95.88" y="-116.25" font-family="Helvetica,sans-Serif" font-size="10.00">Arduino.h</text>
</a>
</g>
</g>
<!-- Node4&#45;&gt;Node5 -->
<g id="edge5_Node000004_Node000005" class="edge">
<title>Node4&#45;&gt;Node5</title>
<g id="a_edge5_Node000004_Node000005"><a xlink:title=" ">
<path fill="none" stroke="#63b8ff" d="M95.88,-165.58C95.88,-159.07 95.88,-149.92 95.88,-141.62"/>
<polygon fill="#63b8ff" stroke="#63b8ff" points="99.38,-141.62 95.88,-131.62 92.38,-141.62 99.38,-141.62"/>
</a>
</g>
</g>
<!-- Node6 -->
<g id="Node000006" class="node">
<title>Node6</title>
<g id="a_Node000006"><a xlink:href="crsf_8h.html" target="_top" xlink:title="Header file for the CRSF protocol implementation.">
<polygon fill="white" stroke="#666666" points="181.88,-129.75 141.88,-129.75 141.88,-110.5 181.88,-110.5 181.88,-129.75"/>
<text text-anchor="middle" x="161.88" y="-116.25" font-family="Helvetica,sans-Serif" font-size="10.00">crsf.h</text>
</a>
</g>
</g>
<!-- Node4&#45;&gt;Node6 -->
<g id="edge7_Node000004_Node000006" class="edge">
<title>Node4&#45;&gt;Node6</title>
<g id="a_edge7_Node000004_Node000006"><a xlink:title=" ">
<path fill="none" stroke="#63b8ff" d="M101.61,-165.58C109.62,-157.77 123.66,-146.16 136.28,-136.76"/>
<polygon fill="#63b8ff" stroke="#63b8ff" points="138.23,-139.67 144.3,-130.99 134.14,-133.99 138.23,-139.67"/>
</a>
</g>
</g>
<!-- Node6&#45;&gt;Node2 -->
<g id="edge8_Node000006_Node000002" class="edge">
<title>Node6&#45;&gt;Node2</title>
<g id="a_edge8_Node000006_Node000002"><a xlink:title=" ">
<path fill="none" stroke="#63b8ff" d="M141.45,-110.21C122.31,-101.85 93.39,-89.23 71.3,-79.59"/>
<polygon fill="#63b8ff" stroke="#63b8ff" points="72.72,-76.39 62.16,-75.6 69.92,-82.81 72.72,-76.39"/>
</a>
</g>
</g>
<!-- Node6&#45;&gt;Node4 -->
<g id="edge9_Node000006_Node000004" class="edge">
<title>Node6&#45;&gt;Node4</title>
<g id="a_edge9_Node000006_Node000004"><a xlink:title=" ">
<path fill="none" stroke="#63b8ff" d="M156.03,-130.02C148.01,-137.83 134.05,-149.37 121.5,-158.72"/>
<polygon fill="#63b8ff" stroke="#63b8ff" points="119.59,-155.78 113.52,-164.46 123.68,-161.46 119.59,-155.78"/>
</a>
</g>
</g>
</g>
</svg>
