<?xml version="1.0" encoding="UTF-8" standalone="no"?>
<!DOCTYPE svg PUBLIC "-//W3C//DTD SVG 1.1//EN"
 "http://www.w3.org/Graphics/SVG/1.1/DTD/svg11.dtd">
<!-- Generated by graphviz version 11.0.0 (20240428.1522)
 -->
<!-- Title: src/sbus.h Pages: 1 -->
<svg width="280pt" height="193pt"
 viewBox="0.00 0.00 279.62 193.00" xmlns="http://www.w3.org/2000/svg" xmlns:xlink="http://www.w3.org/1999/xlink">
<g id="graph0" class="graph" transform="scale(1 1) rotate(0) translate(4 189)">
<title>src/sbus.h</title>
<!-- Node1 -->
<g id="Node000001" class="node">
<title>Node1</title>
<g id="a_Node000001"><a xlink:title="Header file for the SBUS protocol implementation.">
<polygon fill="#999999" stroke="#666666" points="222.38,-185 161.38,-185 161.38,-165.75 222.38,-165.75 222.38,-185"/>
<text text-anchor="middle" x="191.88" y="-171.5" font-family="Helvetica,sans-Serif" font-size="10.00">src/sbus.h</text>
</a>
</g>
</g>
<!-- Node2 -->
<g id="Node000002" class="node">
<title>Node2</title>
<g id="a_Node000002"><a xlink:href="SerialIO_8h.html" target="_top" xlink:title="Header file for serial input/output (IO) functionality.">
<polygon fill="white" stroke="#666666" points="221.25,-129.75 162.5,-129.75 162.5,-110.5 221.25,-110.5 221.25,-129.75"/>
<text text-anchor="middle" x="191.88" y="-116.25" font-family="Helvetica,sans-Serif" font-size="10.00">SerialIO.h</text>
</a>
</g>
</g>
<!-- Node1&#45;&gt;Node2 -->
<g id="edge1_Node000001_Node000002" class="edge">
<title>Node1&#45;&gt;Node2</title>
<g id="a_edge1_Node000001_Node000002"><a xlink:title=" ">
<path fill="none" stroke="#63b8ff" d="M186.71,-165.58C185.3,-158.99 184.83,-149.71 185.3,-141.32"/>
<polygon fill="#63b8ff" stroke="#63b8ff" points="188.75,-141.96 186.49,-131.61 181.8,-141.12 188.75,-141.96"/>
</a>
</g>
</g>
<!-- Node2&#45;&gt;Node1 -->
<g id="edge9_Node000002_Node000001" class="edge">
<title>Node2&#45;&gt;Node1</title>
<g id="a_edge9_Node000002_Node000001"><a xlink:title=" ">
<path fill="none" stroke="#63b8ff" d="M197.08,-130.11C198.47,-136.75 198.92,-146.05 198.43,-154.42"/>
<polygon fill="#63b8ff" stroke="#63b8ff" points="194.99,-153.72 197.23,-164.08 201.94,-154.59 194.99,-153.72"/>
</a>
</g>
</g>
<!-- Node3 -->
<g id="Node000003" class="node">
<title>Node3</title>
<g id="a_Node000003"><a xlink:href="crsf__protocol_8h.html" target="_top" xlink:title="Header file for the CRSF protocol implementation.">
<polygon fill="white" stroke="#666666" points="79.75,-74.5 0,-74.5 0,-55.25 79.75,-55.25 79.75,-74.5"/>
<text text-anchor="middle" x="39.88" y="-61" font-family="Helvetica,sans-Serif" font-size="10.00">crsf_protocol.h</text>
</a>
</g>
</g>
<!-- Node2&#45;&gt;Node3 -->
<g id="edge2_Node000002_Node000003" class="edge">
<title>Node2&#45;&gt;Node3</title>
<g id="a_edge2_Node000002_Node000003"><a xlink:title=" ">
<path fill="none" stroke="#63b8ff" d="M166.09,-110.09C141.52,-101.49 104.29,-88.44 76.62,-78.75"/>
<polygon fill="#63b8ff" stroke="#63b8ff" points="77.81,-75.46 67.21,-75.45 75.5,-82.06 77.81,-75.46"/>
</a>
</g>
</g>
<!-- Node5 -->
<g id="Node000005" class="node">
<title>Node5</title>
<g id="a_Node000005"><a xlink:title=" ">
<polygon fill="#e0e0e0" stroke="#999999" points="154.12,-74.5 97.62,-74.5 97.62,-55.25 154.12,-55.25 154.12,-74.5"/>
<text text-anchor="middle" x="125.88" y="-61" font-family="Helvetica,sans-Serif" font-size="10.00">Arduino.h</text>
</a>
</g>
</g>
<!-- Node2&#45;&gt;Node5 -->
<g id="edge4_Node000002_Node000005" class="edge">
<title>Node2&#45;&gt;Node5</title>
<g id="a_edge4_Node000002_Node000005"><a xlink:title=" ">
<path fill="none" stroke="#63b8ff" d="M180.68,-110.09C171.14,-102.4 157.2,-91.15 145.77,-81.93"/>
<polygon fill="#63b8ff" stroke="#63b8ff" points="148.06,-79.28 138.08,-75.73 143.67,-84.73 148.06,-79.28"/>
</a>
</g>
</g>
<!-- Node6 -->
<g id="Node000006" class="node">
<title>Node6</title>
<g id="a_Node000006"><a xlink:href="crsf_8h.html" target="_top" xlink:title="Header file for the CRSF protocol implementation.">
<polygon fill="white" stroke="#666666" points="211.88,-74.5 171.88,-74.5 171.88,-55.25 211.88,-55.25 211.88,-74.5"/>
<text text-anchor="middle" x="191.88" y="-61" font-family="Helvetica,sans-Serif" font-size="10.00">crsf.h</text>
</a>
</g>
</g>
<!-- Node2&#45;&gt;Node6 -->
<g id="edge5_Node000002_Node000006" class="edge">
<title>Node2&#45;&gt;Node6</title>
<g id="a_edge5_Node000002_Node000006"><a xlink:title=" ">
<path fill="none" stroke="#63b8ff" d="M186.71,-110.33C185.3,-103.74 184.83,-94.46 185.3,-86.07"/>
<polygon fill="#63b8ff" stroke="#63b8ff" points="188.75,-86.71 186.49,-76.36 181.8,-85.87 188.75,-86.71"/>
</a>
</g>
</g>
<!-- Node7 -->
<g id="Node000007" class="node">
<title>Node7</title>
<g id="a_Node000007"><a xlink:href="ibus_8h.html" target="_top" xlink:title="Header file for the Ibus protocol implementation.">
<polygon fill="white" stroke="#666666" points="271.62,-74.5 230.12,-74.5 230.12,-55.25 271.62,-55.25 271.62,-74.5"/>
<text text-anchor="middle" x="250.88" y="-61" font-family="Helvetica,sans-Serif" font-size="10.00">ibus.h</text>
</a>
</g>
</g>
<!-- Node2&#45;&gt;Node7 -->
<g id="edge7_Node000002_Node000007" class="edge">
<title>Node2&#45;&gt;Node7</title>
<g id="a_edge7_Node000002_Node000007"><a xlink:title=" ">
<path fill="none" stroke="#63b8ff" d="M196.45,-110.33C203.37,-102.59 215.71,-91.14 227,-81.79"/>
<polygon fill="#63b8ff" stroke="#63b8ff" points="228.88,-84.77 234.53,-75.8 224.52,-79.29 228.88,-84.77"/>
</a>
</g>
</g>
<!-- Node4 -->
<g id="Node000004" class="node">
<title>Node4</title>
<g id="a_Node000004"><a xlink:title=" ">
<polygon fill="#e0e0e0" stroke="#999999" points="63.62,-19.25 16.12,-19.25 16.12,0 63.62,0 63.62,-19.25"/>
<text text-anchor="middle" x="39.88" y="-5.75" font-family="Helvetica,sans-Serif" font-size="10.00">stdint.h</text>
</a>
</g>
</g>
<!-- Node3&#45;&gt;Node4 -->
<g id="edge3_Node000003_Node000004" class="edge">
<title>Node3&#45;&gt;Node4</title>
<g id="a_edge3_Node000003_Node000004"><a xlink:title=" ">
<path fill="none" stroke="#63b8ff" d="M39.88,-55.08C39.88,-48.57 39.88,-39.42 39.88,-31.12"/>
<polygon fill="#63b8ff" stroke="#63b8ff" points="43.38,-31.12 39.88,-21.12 36.38,-31.12 43.38,-31.12"/>
</a>
</g>
</g>
<!-- Node6&#45;&gt;Node2 -->
<g id="edge6_Node000006_Node000002" class="edge">
<title>Node6&#45;&gt;Node2</title>
<g id="a_edge6_Node000006_Node000002"><a xlink:title=" ">
<path fill="none" stroke="#63b8ff" d="M197.08,-74.86C198.47,-81.5 198.92,-90.8 198.43,-99.17"/>
<polygon fill="#63b8ff" stroke="#63b8ff" points="194.99,-98.47 197.23,-108.83 201.94,-99.34 194.99,-98.47"/>
</a>
</g>
</g>
<!-- Node7&#45;&gt;Node2 -->
<g id="edge8_Node000007_Node000002" class="edge">
<title>Node7&#45;&gt;Node2</title>
<g id="a_edge8_Node000007_Node000002"><a xlink:title=" ">
<path fill="none" stroke="#63b8ff" d="M246.2,-74.77C239.27,-82.51 227.01,-93.89 215.77,-103.19"/>
<polygon fill="#63b8ff" stroke="#63b8ff" points="213.93,-100.18 208.28,-109.15 218.29,-105.66 213.93,-100.18"/>
</a>
</g>
</g>
</g>
</svg>
