<?xml version="1.0" encoding="UTF-8" standalone="no"?>
<!DOCTYPE svg PUBLIC "-//W3C//DTD SVG 1.1//EN"
 "http://www.w3.org/Graphics/SVG/1.1/DTD/svg11.dtd">
<!-- Generated by graphviz version 12.2.1 (20241206.2353)
 -->
<!-- Title: src/SerialIO.h Pages: 1 -->
<svg width="455pt" height="193pt"
 viewBox="0.00 0.00 455.38 193.00" xmlns="http://www.w3.org/2000/svg" xmlns:xlink="http://www.w3.org/1999/xlink">
<g id="graph0" class="graph" transform="scale(1 1) rotate(0) translate(4 189)">
<title>src/SerialIO.h</title>
<!-- Node1 -->
<g id="Node000001" class="node">
<title>Node1</title>
<g id="a_Node000001"><a xlink:title="Header file for serial input/output (IO) functionality.">
<polygon fill="#999999" stroke="#666666" points="259.88,-185 184.62,-185 184.62,-165.75 259.88,-165.75 259.88,-185"/>
<text text-anchor="middle" x="222.25" y="-171.5" font-family="Helvetica,sans-Serif" font-size="10.00">src/SerialIO.h</text>
</a>
</g>
</g>
<!-- Node2 -->
<g id="Node000002" class="node">
<title>Node2</title>
<g id="a_Node000002"><a xlink:title=" ">
<polygon fill="#e0e0e0" stroke="#999999" points="56.5,-129.75 0,-129.75 0,-110.5 56.5,-110.5 56.5,-129.75"/>
<text text-anchor="middle" x="28.25" y="-116.25" font-family="Helvetica,sans-Serif" font-size="10.00">Arduino.h</text>
</a>
</g>
</g>
<!-- Node1&#45;&gt;Node2 -->
<g id="edge1_Node000001_Node000002" class="edge">
<title>Node1&#45;&gt;Node2</title>
<g id="a_edge1_Node000001_Node000002"><a xlink:title=" ">
<path fill="none" stroke="#63b8ff" d="M189.34,-165.34C155.78,-156.13 103.71,-141.84 67.9,-132.01"/>
<polygon fill="#63b8ff" stroke="#63b8ff" points="68.92,-128.66 58.35,-129.39 67.06,-135.41 68.92,-128.66"/>
</a>
</g>
</g>
<!-- Node3 -->
<g id="Node000003" class="node">
<title>Node3</title>
<g id="a_Node000003"><a xlink:href="ibus__protocol_8h.html" target="_top" xlink:title="Header file for the iBus protocol implementation.">
<polygon fill="white" stroke="#666666" points="146.38,-74.5 44.12,-74.5 44.12,-55.25 146.38,-55.25 146.38,-74.5"/>
<text text-anchor="middle" x="95.25" y="-61" font-family="Helvetica,sans-Serif" font-size="10.00">ibus/ibus_protocol.h</text>
</a>
</g>
</g>
<!-- Node1&#45;&gt;Node3 -->
<g id="edge2_Node000001_Node000003" class="edge">
<title>Node1&#45;&gt;Node3</title>
<g id="a_edge2_Node000001_Node000003"><a xlink:title=" ">
<path fill="none" stroke="#63b8ff" d="M184.31,-170.39C157.4,-165.46 122.73,-154.43 103.25,-129.75 93.6,-117.53 92.08,-99.69 92.71,-85.96"/>
<polygon fill="#63b8ff" stroke="#63b8ff" points="96.17,-86.58 93.57,-76.31 89.19,-85.95 96.17,-86.58"/>
</a>
</g>
</g>
<!-- Node5 -->
<g id="Node000005" class="node">
<title>Node5</title>
<g id="a_Node000005"><a xlink:href="crsf_8h.html" target="_top" xlink:title="Header file for the CRSF protocol implementation.">
<polygon fill="white" stroke="#666666" points="252,-129.75 192.5,-129.75 192.5,-110.5 252,-110.5 252,-129.75"/>
<text text-anchor="middle" x="222.25" y="-116.25" font-family="Helvetica,sans-Serif" font-size="10.00">crsf/crsf.h</text>
</a>
</g>
</g>
<!-- Node1&#45;&gt;Node5 -->
<g id="edge4_Node000001_Node000005" class="edge">
<title>Node1&#45;&gt;Node5</title>
<g id="a_edge4_Node000001_Node000005"><a xlink:title=" ">
<path fill="none" stroke="#63b8ff" d="M217.08,-165.58C215.67,-158.99 215.21,-149.71 215.68,-141.32"/>
<polygon fill="#63b8ff" stroke="#63b8ff" points="219.13,-141.96 216.86,-131.61 212.18,-141.12 219.13,-141.96"/>
</a>
</g>
</g>
<!-- Node7 -->
<g id="Node000007" class="node">
<title>Node7</title>
<g id="a_Node000007"><a xlink:href="fport_8h.html" target="_top" xlink:title="Header file for the FPort Protocol definations.">
<polygon fill="white" stroke="#666666" points="336,-129.75 270.5,-129.75 270.5,-110.5 336,-110.5 336,-129.75"/>
<text text-anchor="middle" x="303.25" y="-116.25" font-family="Helvetica,sans-Serif" font-size="10.00">fport/fport.h</text>
</a>
</g>
</g>
<!-- Node1&#45;&gt;Node7 -->
<g id="edge8_Node000001_Node000007" class="edge">
<title>Node1&#45;&gt;Node7</title>
<g id="a_edge8_Node000001_Node000007"><a xlink:title=" ">
<path fill="none" stroke="#63b8ff" d="M230.77,-165.34C241.32,-157.31 259.11,-145.41 274.53,-135.98"/>
<polygon fill="#63b8ff" stroke="#63b8ff" points="276.12,-139.11 282.92,-130.98 272.53,-133.09 276.12,-139.11"/>
</a>
</g>
</g>
<!-- Node9 -->
<g id="Node000009" class="node">
<title>Node9</title>
<g id="a_Node000009"><a xlink:href="ibus_8h.html" target="_top" xlink:title="Header file for the Ibus protocol implementation.">
<polygon fill="white" stroke="#666666" points="174.5,-129.75 112,-129.75 112,-110.5 174.5,-110.5 174.5,-129.75"/>
<text text-anchor="middle" x="143.25" y="-116.25" font-family="Helvetica,sans-Serif" font-size="10.00">ibus/ibus.h</text>
</a>
</g>
</g>
<!-- Node1&#45;&gt;Node9 -->
<g id="edge12_Node000001_Node000009" class="edge">
<title>Node1&#45;&gt;Node9</title>
<g id="a_edge12_Node000001_Node000009"><a xlink:title=" ">
<path fill="none" stroke="#63b8ff" d="M203.63,-165.34C190.48,-157.57 173.24,-146.17 160.43,-136.9"/>
<polygon fill="#63b8ff" stroke="#63b8ff" points="162.57,-134.13 152.48,-130.93 158.37,-139.73 162.57,-134.13"/>
</a>
</g>
</g>
<!-- Node10 -->
<g id="Node000010" class="node">
<title>Node10</title>
<g id="a_Node000010"><a xlink:href="sbus_8h.html" target="_top" xlink:title="Header file for the SBUS protocol implementation.">
<polygon fill="white" stroke="#666666" points="422.5,-129.75 354,-129.75 354,-110.5 422.5,-110.5 422.5,-129.75"/>
<text text-anchor="middle" x="388.25" y="-116.25" font-family="Helvetica,sans-Serif" font-size="10.00">sbus/sbus.h</text>
</a>
</g>
</g>
<!-- Node1&#45;&gt;Node10 -->
<g id="edge15_Node000001_Node000010" class="edge">
<title>Node1&#45;&gt;Node10</title>
<g id="a_edge15_Node000001_Node000010"><a xlink:title=" ">
<path fill="none" stroke="#63b8ff" d="M245.19,-165.34C270.67,-156.58 312.12,-143.23 343.92,-133.48"/>
<polygon fill="#63b8ff" stroke="#63b8ff" points="344.73,-136.9 353.28,-130.64 342.69,-130.2 344.73,-136.9"/>
</a>
</g>
</g>
<!-- Node4 -->
<g id="Node000004" class="node">
<title>Node4</title>
<g id="a_Node000004"><a xlink:title=" ">
<polygon fill="#e0e0e0" stroke="#999999" points="277,-19.25 229.5,-19.25 229.5,0 277,0 277,-19.25"/>
<text text-anchor="middle" x="253.25" y="-5.75" font-family="Helvetica,sans-Serif" font-size="10.00">stdint.h</text>
</a>
</g>
</g>
<!-- Node3&#45;&gt;Node4 -->
<g id="edge3_Node000003_Node000004" class="edge">
<title>Node3&#45;&gt;Node4</title>
<g id="a_edge3_Node000003_Node000004"><a xlink:title=" ">
<path fill="none" stroke="#63b8ff" d="M122.05,-54.84C148.56,-45.91 189.25,-32.19 218.28,-22.41"/>
<polygon fill="#63b8ff" stroke="#63b8ff" points="219.38,-25.73 227.73,-19.22 217.14,-19.1 219.38,-25.73"/>
</a>
</g>
</g>
<!-- Node5&#45;&gt;Node1 -->
<g id="edge5_Node000005_Node000001" class="edge">
<title>Node5&#45;&gt;Node1</title>
<g id="a_edge5_Node000005_Node000001"><a xlink:title=" ">
<path fill="none" stroke="#63b8ff" d="M227.46,-130.11C228.85,-136.75 229.3,-146.05 228.81,-154.42"/>
<polygon fill="#63b8ff" stroke="#63b8ff" points="225.37,-153.72 227.6,-164.08 232.31,-154.59 225.37,-153.72"/>
</a>
</g>
</g>
<!-- Node6 -->
<g id="Node000006" class="node">
<title>Node6</title>
<g id="a_Node000006"><a xlink:href="crsf__protocol_8h.html" target="_top" xlink:title="Header file for the CRSF protocol implementation.">
<polygon fill="white" stroke="#666666" points="244.12,-74.5 164.38,-74.5 164.38,-55.25 244.12,-55.25 244.12,-74.5"/>
<text text-anchor="middle" x="204.25" y="-61" font-family="Helvetica,sans-Serif" font-size="10.00">crsf_protocol.h</text>
</a>
</g>
</g>
<!-- Node5&#45;&gt;Node6 -->
<g id="edge6_Node000005_Node000006" class="edge">
<title>Node5&#45;&gt;Node6</title>
<g id="a_edge6_Node000005_Node000006"><a xlink:title=" ">
<path fill="none" stroke="#63b8ff" d="M219.28,-110.33C217,-103.59 213.76,-94.02 210.88,-85.49"/>
<polygon fill="#63b8ff" stroke="#63b8ff" points="214.29,-84.65 207.77,-76.29 207.66,-86.89 214.29,-84.65"/>
</a>
</g>
</g>
<!-- Node6&#45;&gt;Node4 -->
<g id="edge7_Node000006_Node000004" class="edge">
<title>Node6&#45;&gt;Node4</title>
<g id="a_edge7_Node000006_Node000004"><a xlink:title=" ">
<path fill="none" stroke="#63b8ff" d="M212.34,-55.08C219.11,-47.73 228.97,-37.01 237.31,-27.94"/>
<polygon fill="#63b8ff" stroke="#63b8ff" points="239.76,-30.45 243.96,-20.72 234.61,-25.71 239.76,-30.45"/>
</a>
</g>
</g>
<!-- Node7&#45;&gt;Node1 -->
<g id="edge9_Node000007_Node000001" class="edge">
<title>Node7&#45;&gt;Node1</title>
<g id="a_edge9_Node000007_Node000001"><a xlink:title=" ">
<path fill="none" stroke="#63b8ff" d="M294.9,-130.02C284.37,-138.06 266.45,-150.05 250.95,-159.54"/>
<polygon fill="#63b8ff" stroke="#63b8ff" points="249.3,-156.44 242.51,-164.57 252.89,-162.45 249.3,-156.44"/>
</a>
</g>
</g>
<!-- Node8 -->
<g id="Node000008" class="node">
<title>Node8</title>
<g id="a_Node000008"><a xlink:href="fport__protocol_8h.html" target="_top" xlink:title="Header file for the F.Port protocol implementation.">
<polygon fill="white" stroke="#666666" points="344.62,-74.5 261.88,-74.5 261.88,-55.25 344.62,-55.25 344.62,-74.5"/>
<text text-anchor="middle" x="303.25" y="-61" font-family="Helvetica,sans-Serif" font-size="10.00">fport_protocol.h</text>
</a>
</g>
</g>
<!-- Node7&#45;&gt;Node8 -->
<g id="edge10_Node000007_Node000008" class="edge">
<title>Node7&#45;&gt;Node8</title>
<g id="a_edge10_Node000007_Node000008"><a xlink:title=" ">
<path fill="none" stroke="#63b8ff" d="M303.25,-110.33C303.25,-103.82 303.25,-94.67 303.25,-86.37"/>
<polygon fill="#63b8ff" stroke="#63b8ff" points="306.75,-86.37 303.25,-76.37 299.75,-86.37 306.75,-86.37"/>
</a>
</g>
</g>
<!-- Node8&#45;&gt;Node4 -->
<g id="edge11_Node000008_Node000004" class="edge">
<title>Node8&#45;&gt;Node4</title>
<g id="a_edge11_Node000008_Node000004"><a xlink:title=" ">
<path fill="none" stroke="#63b8ff" d="M294.99,-55.08C288.09,-47.73 278.03,-37.01 269.51,-27.94"/>
<polygon fill="#63b8ff" stroke="#63b8ff" points="272.12,-25.61 262.72,-20.71 267.02,-30.4 272.12,-25.61"/>
</a>
</g>
</g>
<!-- Node9&#45;&gt;Node1 -->
<g id="edge13_Node000009_Node000001" class="edge">
<title>Node9&#45;&gt;Node1</title>
<g id="a_edge13_Node000009_Node000001"><a xlink:title=" ">
<path fill="none" stroke="#63b8ff" d="M161.94,-130.2C175.03,-137.94 192.14,-149.25 204.91,-158.49"/>
<polygon fill="#63b8ff" stroke="#63b8ff" points="202.75,-161.24 212.85,-164.43 206.95,-155.64 202.75,-161.24"/>
</a>
</g>
</g>
<!-- Node9&#45;&gt;Node3 -->
<g id="edge14_Node000009_Node000003" class="edge">
<title>Node9&#45;&gt;Node3</title>
<g id="a_edge14_Node000009_Node000003"><a xlink:title=" ">
<path fill="none" stroke="#63b8ff" d="M135.32,-110.33C128.69,-102.98 119.03,-92.26 110.86,-83.19"/>
<polygon fill="#63b8ff" stroke="#63b8ff" points="113.66,-81.07 104.36,-75.98 108.46,-85.75 113.66,-81.07"/>
</a>
</g>
</g>
<!-- Node10&#45;&gt;Node1 -->
<g id="edge16_Node000010_Node000001" class="edge">
<title>Node10&#45;&gt;Node1</title>
<g id="a_edge16_Node000010_Node000001"><a xlink:title=" ">
<path fill="none" stroke="#63b8ff" d="M365.18,-130.2C339.64,-138.98 298.19,-152.34 266.42,-162.07"/>
<polygon fill="#63b8ff" stroke="#63b8ff" points="265.63,-158.65 257.07,-164.9 267.66,-165.35 265.63,-158.65"/>
</a>
</g>
</g>
<!-- Node11 -->
<g id="Node000011" class="node">
<title>Node11</title>
<g id="a_Node000011"><a xlink:href="sbus__protocol_8h.html" target="_top" xlink:title="Header file for the SBus protocol implementation.">
<polygon fill="white" stroke="#666666" points="447.38,-74.5 363.12,-74.5 363.12,-55.25 447.38,-55.25 447.38,-74.5"/>
<text text-anchor="middle" x="405.25" y="-61" font-family="Helvetica,sans-Serif" font-size="10.00">sbus_protocol.h</text>
</a>
</g>
</g>
<!-- Node10&#45;&gt;Node11 -->
<g id="edge17_Node000010_Node000011" class="edge">
<title>Node10&#45;&gt;Node11</title>
<g id="a_edge17_Node000010_Node000011"><a xlink:title=" ">
<path fill="none" stroke="#63b8ff" d="M391.06,-110.33C393.19,-103.67 396.19,-94.24 398.89,-85.78"/>
<polygon fill="#63b8ff" stroke="#63b8ff" points="402.21,-86.89 401.92,-76.3 395.55,-84.76 402.21,-86.89"/>
</a>
</g>
</g>
<!-- Node11&#45;&gt;Node4 -->
<g id="edge18_Node000011_Node000004" class="edge">
<title>Node11&#45;&gt;Node4</title>
<g id="a_edge18_Node000011_Node000004"><a xlink:title=" ">
<path fill="none" stroke="#63b8ff" d="M379.47,-54.84C354.3,-46.03 315.85,-32.56 288,-22.8"/>
<polygon fill="#63b8ff" stroke="#63b8ff" points="289.18,-19.5 278.58,-19.5 286.86,-26.11 289.18,-19.5"/>
</a>
</g>
</g>
</g>
</svg>
