<?xml version="1.0" encoding="UTF-8" standalone="no"?>
<!DOCTYPE svg PUBLIC "-//W3C//DTD SVG 1.1//EN"
 "http://www.w3.org/Graphics/SVG/1.1/DTD/svg11.dtd">
<!-- Generated by graphviz version 11.0.0 (20240428.1522)
 -->
<!-- Title: src/SerialIO.h Pages: 1 -->
<svg width="342pt" height="138pt"
 viewBox="0.00 0.00 342.12 137.75" xmlns="http://www.w3.org/2000/svg" xmlns:xlink="http://www.w3.org/1999/xlink">
<g id="graph0" class="graph" transform="scale(1 1) rotate(0) translate(4 133.75)">
<title>src/SerialIO.h</title>
<!-- Node1 -->
<g id="Node000001" class="node">
<title>Node1</title>
<g id="a_Node000001"><a xlink:title="Header file for serial input/output (IO) functionality.">
<polygon fill="#999999" stroke="#666666" points="258.5,-129.75 183.25,-129.75 183.25,-110.5 258.5,-110.5 258.5,-129.75"/>
<text text-anchor="middle" x="220.88" y="-116.25" font-family="Helvetica,sans-Serif" font-size="10.00">src/SerialIO.h</text>
</a>
</g>
</g>
<!-- Node2 -->
<g id="Node000002" class="node">
<title>Node2</title>
<g id="a_Node000002"><a xlink:href="crsf__protocol_8h.html" target="_top" xlink:title="Header file for the CRSF protocol implementation.">
<polygon fill="white" stroke="#666666" points="79.75,-74.5 0,-74.5 0,-55.25 79.75,-55.25 79.75,-74.5"/>
<text text-anchor="middle" x="39.88" y="-61" font-family="Helvetica,sans-Serif" font-size="10.00">crsf_protocol.h</text>
</a>
</g>
</g>
<!-- Node1&#45;&gt;Node2 -->
<g id="edge1_Node000001_Node000002" class="edge">
<title>Node1&#45;&gt;Node2</title>
<g id="a_edge1_Node000001_Node000002"><a xlink:title=" ">
<path fill="none" stroke="#63b8ff" d="M190.17,-110.09C160.27,-101.29 114.6,-87.86 81.45,-78.11"/>
<polygon fill="#63b8ff" stroke="#63b8ff" points="82.76,-74.84 72.18,-75.38 80.79,-81.56 82.76,-74.84"/>
</a>
</g>
</g>
<!-- Node4 -->
<g id="Node000004" class="node">
<title>Node4</title>
<g id="a_Node000004"><a xlink:title=" ">
<polygon fill="#e0e0e0" stroke="#999999" points="154.12,-74.5 97.62,-74.5 97.62,-55.25 154.12,-55.25 154.12,-74.5"/>
<text text-anchor="middle" x="125.88" y="-61" font-family="Helvetica,sans-Serif" font-size="10.00">Arduino.h</text>
</a>
</g>
</g>
<!-- Node1&#45;&gt;Node4 -->
<g id="edge3_Node000001_Node000004" class="edge">
<title>Node1&#45;&gt;Node4</title>
<g id="a_edge3_Node000001_Node000004"><a xlink:title=" ">
<path fill="none" stroke="#63b8ff" d="M204.76,-110.09C190.29,-101.98 168.8,-89.93 151.89,-80.46"/>
<polygon fill="#63b8ff" stroke="#63b8ff" points="153.82,-77.53 143.39,-75.69 150.4,-83.64 153.82,-77.53"/>
</a>
</g>
</g>
<!-- Node5 -->
<g id="Node000005" class="node">
<title>Node5</title>
<g id="a_Node000005"><a xlink:href="crsf_8h.html" target="_top" xlink:title="Header file for the CRSF protocol implementation.">
<polygon fill="white" stroke="#666666" points="211.88,-74.5 171.88,-74.5 171.88,-55.25 211.88,-55.25 211.88,-74.5"/>
<text text-anchor="middle" x="191.88" y="-61" font-family="Helvetica,sans-Serif" font-size="10.00">crsf.h</text>
</a>
</g>
</g>
<!-- Node1&#45;&gt;Node5 -->
<g id="edge4_Node000001_Node000005" class="edge">
<title>Node1&#45;&gt;Node5</title>
<g id="a_edge4_Node000001_Node000005"><a xlink:title=" ">
<path fill="none" stroke="#63b8ff" d="M210.92,-110.33C205.75,-103.51 200.01,-93.81 195.88,-85.2"/>
<polygon fill="#63b8ff" stroke="#63b8ff" points="199.23,-84.13 192.14,-76.26 192.77,-86.83 199.23,-84.13"/>
</a>
</g>
</g>
<!-- Node6 -->
<g id="Node000006" class="node">
<title>Node6</title>
<g id="a_Node000006"><a xlink:href="ibus_8h.html" target="_top" xlink:title="Header file for the Ibus protocol implementation.">
<polygon fill="white" stroke="#666666" points="271.62,-74.5 230.12,-74.5 230.12,-55.25 271.62,-55.25 271.62,-74.5"/>
<text text-anchor="middle" x="250.88" y="-61" font-family="Helvetica,sans-Serif" font-size="10.00">ibus.h</text>
</a>
</g>
</g>
<!-- Node1&#45;&gt;Node6 -->
<g id="edge6_Node000001_Node000006" class="edge">
<title>Node1&#45;&gt;Node6</title>
<g id="a_edge6_Node000001_Node000006"><a xlink:title=" ">
<path fill="none" stroke="#63b8ff" d="M220.66,-110.33C223.15,-103.21 228.52,-92.93 234.2,-84.05"/>
<polygon fill="#63b8ff" stroke="#63b8ff" points="236.89,-86.31 239.74,-76.1 231.15,-82.3 236.89,-86.31"/>
</a>
</g>
</g>
<!-- Node7 -->
<g id="Node000007" class="node">
<title>Node7</title>
<g id="a_Node000007"><a xlink:href="sbus_8h.html" target="_top" xlink:title="Header file for the SBUS protocol implementation.">
<polygon fill="white" stroke="#666666" points="334.12,-74.5 289.62,-74.5 289.62,-55.25 334.12,-55.25 334.12,-74.5"/>
<text text-anchor="middle" x="311.88" y="-61" font-family="Helvetica,sans-Serif" font-size="10.00">sbus.h</text>
</a>
</g>
</g>
<!-- Node1&#45;&gt;Node7 -->
<g id="edge8_Node000001_Node000007" class="edge">
<title>Node1&#45;&gt;Node7</title>
<g id="a_edge8_Node000001_Node000007"><a xlink:title=" ">
<path fill="none" stroke="#63b8ff" d="M231.09,-110.09C243.38,-101.91 263.95,-89.71 281.34,-80.19"/>
<polygon fill="#63b8ff" stroke="#63b8ff" points="282.64,-83.47 289.8,-75.67 279.33,-77.3 282.64,-83.47"/>
</a>
</g>
</g>
<!-- Node3 -->
<g id="Node000003" class="node">
<title>Node3</title>
<g id="a_Node000003"><a xlink:title=" ">
<polygon fill="#e0e0e0" stroke="#999999" points="63.62,-19.25 16.12,-19.25 16.12,0 63.62,0 63.62,-19.25"/>
<text text-anchor="middle" x="39.88" y="-5.75" font-family="Helvetica,sans-Serif" font-size="10.00">stdint.h</text>
</a>
</g>
</g>
<!-- Node2&#45;&gt;Node3 -->
<g id="edge2_Node000002_Node000003" class="edge">
<title>Node2&#45;&gt;Node3</title>
<g id="a_edge2_Node000002_Node000003"><a xlink:title=" ">
<path fill="none" stroke="#63b8ff" d="M39.88,-55.08C39.88,-48.57 39.88,-39.42 39.88,-31.12"/>
<polygon fill="#63b8ff" stroke="#63b8ff" points="43.38,-31.12 39.88,-21.12 36.38,-31.12 43.38,-31.12"/>
</a>
</g>
</g>
<!-- Node5&#45;&gt;Node1 -->
<g id="edge5_Node000005_Node000001" class="edge">
<title>Node5&#45;&gt;Node1</title>
<g id="a_edge5_Node000005_Node000001"><a xlink:title=" ">
<path fill="none" stroke="#63b8ff" d="M201.97,-74.86C207.1,-81.65 212.76,-91.24 216.85,-99.75"/>
<polygon fill="#63b8ff" stroke="#63b8ff" points="213.6,-101.05 220.67,-108.93 220.06,-98.36 213.6,-101.05"/>
</a>
</g>
</g>
<!-- Node6&#45;&gt;Node1 -->
<g id="edge7_Node000006_Node000001" class="edge">
<title>Node6&#45;&gt;Node1</title>
<g id="a_edge7_Node000006_Node000001"><a xlink:title=" ">
<path fill="none" stroke="#63b8ff" d="M251.02,-74.86C248.51,-81.96 243.2,-92.11 237.58,-100.9"/>
<polygon fill="#63b8ff" stroke="#63b8ff" points="234.72,-98.89 231.86,-109.09 240.46,-102.9 234.72,-98.89"/>
</a>
</g>
</g>
<!-- Node7&#45;&gt;Node1 -->
<g id="edge9_Node000007_Node000001" class="edge">
<title>Node7&#45;&gt;Node1</title>
<g id="a_edge9_Node000007_Node000001"><a xlink:title=" ">
<path fill="none" stroke="#63b8ff" d="M301.59,-74.95C289.28,-83.15 268.7,-95.36 251.31,-104.86"/>
<polygon fill="#63b8ff" stroke="#63b8ff" points="250.03,-101.57 242.86,-109.38 253.33,-107.75 250.03,-101.57"/>
</a>
</g>
</g>
</g>
</svg>
