<?xml version="1.0" encoding="UTF-8" standalone="no"?>
<!DOCTYPE svg PUBLIC "-//W3C//DTD SVG 1.1//EN"
 "http://www.w3.org/Graphics/SVG/1.1/DTD/svg11.dtd">
<!-- Generated by graphviz version 9.0.0 (20230911.1827)
 -->
<!-- Title: src/serialIO.h Pages: 1 -->
<svg width="242pt" height="149pt"
 viewBox="0.00 0.00 241.50 149.00" xmlns="http://www.w3.org/2000/svg" xmlns:xlink="http://www.w3.org/1999/xlink">
<g id="graph0" class="graph" transform="scale(1 1) rotate(0) translate(4 145)">
<title>src/serialIO.h</title>
<!-- Node1 -->
<g id="Node000001" class="node">
<title>Node1</title>
<g id="a_Node000001"><a xlink:title="Header file for serial input/output (IO) functionality.">
<polygon fill="#999999" stroke="#666666" points="152.5,-141 78.75,-141 78.75,-121.75 152.5,-121.75 152.5,-141"/>
<text text-anchor="middle" x="115.62" y="-127.5" font-family="Helvetica,sans-Serif" font-size="10.00">src/serialIO.h</text>
</a>
</g>
</g>
<!-- Node2 -->
<g id="Node000002" class="node">
<title>Node2</title>
<g id="a_Node000002"><a xlink:href="crsf__basic_8ino.html" target="_top" xlink:title=" ">
<polygon fill="white" stroke="#666666" points="105.25,-30.5 0,-30.5 0,0 105.25,0 105.25,-30.5"/>
<text text-anchor="start" x="8" y="-17" font-family="Helvetica,sans-Serif" font-size="10.00">examples/crsf_basic</text>
<text text-anchor="middle" x="52.62" y="-5.75" font-family="Helvetica,sans-Serif" font-size="10.00">/crsf_basic.ino</text>
</a>
</g>
</g>
<!-- Node1&#45;&gt;Node2 -->
<g id="edge1_Node000001_Node000002" class="edge">
<title>Node1&#45;&gt;Node2</title>
<g id="a_edge1_Node000001_Node000002"><a xlink:title=" ">
<path fill="none" stroke="#63b8ff" d="M76.41,-116.59C62.57,-109.61 48.5,-99.6 40.62,-85.75 30.88,-68.61 38.14,-45.54 44.87,-30.78"/>
<polygon fill="#63b8ff" stroke="#63b8ff" points="74.91,-119.75 85.46,-120.72 77.82,-113.38 74.91,-119.75"/>
</a>
</g>
</g>
<!-- Node3 -->
<g id="Node000003" class="node">
<title>Node3</title>
<g id="a_Node000003"><a xlink:href="sbus__basic_8ino.html" target="_top" xlink:title=" ">
<polygon fill="white" stroke="#666666" points="233.5,-30.5 123.75,-30.5 123.75,0 233.5,0 233.5,-30.5"/>
<text text-anchor="start" x="131.75" y="-17" font-family="Helvetica,sans-Serif" font-size="10.00">examples/sbus_basic</text>
<text text-anchor="middle" x="178.62" y="-5.75" font-family="Helvetica,sans-Serif" font-size="10.00">/sbus_basic.ino</text>
</a>
</g>
</g>
<!-- Node1&#45;&gt;Node3 -->
<g id="edge2_Node000001_Node000003" class="edge">
<title>Node1&#45;&gt;Node3</title>
<g id="a_edge2_Node000001_Node000003"><a xlink:title=" ">
<path fill="none" stroke="#63b8ff" d="M157.45,-116.79C171.84,-109.88 186.38,-99.87 194.62,-85.75 204.67,-68.53 195.75,-45.48 187.75,-30.75"/>
<polygon fill="#63b8ff" stroke="#63b8ff" points="156.27,-113.48 148.49,-120.68 159.05,-119.91 156.27,-113.48"/>
</a>
</g>
</g>
<!-- Node4 -->
<g id="Node000004" class="node">
<title>Node4</title>
<g id="a_Node000004"><a xlink:href="crsf_8h.html" target="_top" xlink:title="Header file for the CRSF protocol implementation.">
<polygon fill="white" stroke="#666666" points="105.88,-85.75 49.38,-85.75 49.38,-66.5 105.88,-66.5 105.88,-85.75"/>
<text text-anchor="middle" x="77.62" y="-72.25" font-family="Helvetica,sans-Serif" font-size="10.00">src/crsf.h</text>
</a>
</g>
</g>
<!-- Node1&#45;&gt;Node4 -->
<g id="edge3_Node000001_Node000004" class="edge">
<title>Node1&#45;&gt;Node4</title>
<g id="a_edge3_Node000001_Node000004"><a xlink:title=" ">
<path fill="none" stroke="#63b8ff" d="M102.83,-112.44C96.51,-103.59 89.16,-93.29 84.04,-86.11"/>
<polygon fill="#63b8ff" stroke="#63b8ff" points="99.81,-114.24 108.47,-120.35 105.51,-110.18 99.81,-114.24"/>
</a>
</g>
</g>
<!-- Node5 -->
<g id="Node000005" class="node">
<title>Node5</title>
<g id="a_Node000005"><a xlink:href="sbus_8h.html" target="_top" xlink:title="Header file for the SBUS protocol implementation.">
<polygon fill="white" stroke="#666666" points="185.12,-85.75 124.12,-85.75 124.12,-66.5 185.12,-66.5 185.12,-85.75"/>
<text text-anchor="middle" x="154.62" y="-72.25" font-family="Helvetica,sans-Serif" font-size="10.00">src/sbus.h</text>
</a>
</g>
</g>
<!-- Node1&#45;&gt;Node5 -->
<g id="edge6_Node000001_Node000005" class="edge">
<title>Node1&#45;&gt;Node5</title>
<g id="a_edge6_Node000001_Node000005"><a xlink:title=" ">
<path fill="none" stroke="#63b8ff" d="M128.76,-112.44C135.25,-103.59 142.79,-93.29 148.05,-86.11"/>
<polygon fill="#63b8ff" stroke="#63b8ff" points="126.04,-110.23 122.96,-120.36 131.69,-114.36 126.04,-110.23"/>
</a>
</g>
</g>
<!-- Node4&#45;&gt;Node2 -->
<g id="edge4_Node000004_Node000002" class="edge">
<title>Node4&#45;&gt;Node2</title>
<g id="a_edge4_Node000004_Node000002"><a xlink:title=" ">
<path fill="none" stroke="#63b8ff" d="M69.4,-55.76C65.95,-47.63 62,-38.32 58.8,-30.78"/>
<polygon fill="#63b8ff" stroke="#63b8ff" points="66.11,-56.95 73.24,-64.79 72.55,-54.22 66.11,-56.95"/>
</a>
</g>
</g>
<!-- Node4&#45;&gt;Node3 -->
<g id="edge5_Node000004_Node000003" class="edge">
<title>Node4&#45;&gt;Node3</title>
<g id="a_edge5_Node000004_Node000003"><a xlink:title=" ">
<path fill="none" stroke="#63b8ff" d="M102.48,-60.64C118.06,-51.55 138.09,-39.88 153.7,-30.78"/>
<polygon fill="#63b8ff" stroke="#63b8ff" points="101.15,-57.36 94.27,-65.42 104.67,-63.41 101.15,-57.36"/>
</a>
</g>
</g>
<!-- Node5&#45;&gt;Node2 -->
<g id="edge7_Node000005_Node000002" class="edge">
<title>Node5&#45;&gt;Node2</title>
<g id="a_edge7_Node000005_Node000002"><a xlink:title=" ">
<path fill="none" stroke="#63b8ff" d="M129.53,-60.64C113.78,-51.55 93.56,-39.88 77.8,-30.78"/>
<polygon fill="#63b8ff" stroke="#63b8ff" points="127.41,-63.46 137.82,-65.43 130.91,-57.4 127.41,-63.46"/>
</a>
</g>
</g>
<!-- Node5&#45;&gt;Node3 -->
<g id="edge8_Node000005_Node000003" class="edge">
<title>Node5&#45;&gt;Node3</title>
<g id="a_edge8_Node000005_Node000003"><a xlink:title=" ">
<path fill="none" stroke="#63b8ff" d="M162.52,-55.76C165.84,-47.63 169.63,-38.32 172.7,-30.78"/>
<polygon fill="#63b8ff" stroke="#63b8ff" points="159.38,-54.2 158.84,-64.78 165.86,-56.84 159.38,-54.2"/>
</a>
</g>
</g>
</g>
</svg>
