<?xml version="1.0" encoding="UTF-8" standalone="no"?>
<!DOCTYPE svg PUBLIC "-//W3C//DTD SVG 1.1//EN"
 "http://www.w3.org/Graphics/SVG/1.1/DTD/svg11.dtd">
<!-- Generated by graphviz version 9.0.0 (20230911.1827)
 -->
<!-- Title: src/serialIO.h Pages: 1 -->
<svg width="162pt" height="138pt"
 viewBox="0.00 0.00 162.12 137.75" xmlns="http://www.w3.org/2000/svg" xmlns:xlink="http://www.w3.org/1999/xlink">
<g id="graph0" class="graph" transform="scale(1 1) rotate(0) translate(4 133.75)">
<title>src/serialIO.h</title>
<!-- Node1 -->
<g id="Node000001" class="node">
<title>Node1</title>
<g id="a_Node000001"><a xlink:title="Header file for serial input/output (IO) functionality.">
<polygon fill="#999999" stroke="#666666" points="119.75,-129.75 46,-129.75 46,-110.5 119.75,-110.5 119.75,-129.75"/>
<text text-anchor="middle" x="82.88" y="-116.25" font-family="Helvetica,sans-Serif" font-size="10.00">src/serialIO.h</text>
</a>
</g>
</g>
<!-- Node2 -->
<g id="Node000002" class="node">
<title>Node2</title>
<g id="a_Node000002"><a xlink:href="crsf__protocol_8h.html" target="_top" xlink:title="Header file for the CRSF protocol implementation.">
<polygon fill="white" stroke="#666666" points="79.75,-74.5 0,-74.5 0,-55.25 79.75,-55.25 79.75,-74.5"/>
<text text-anchor="middle" x="39.88" y="-61" font-family="Helvetica,sans-Serif" font-size="10.00">crsf_protocol.h</text>
</a>
</g>
</g>
<!-- Node1&#45;&gt;Node2 -->
<g id="edge1_Node000001_Node000002" class="edge">
<title>Node1&#45;&gt;Node2</title>
<g id="a_edge1_Node000001_Node000002"><a xlink:title=" ">
<path fill="none" stroke="#63b8ff" d="M75.77,-110.33C69.96,-103.13 61.54,-92.71 54.32,-83.76"/>
<polygon fill="#63b8ff" stroke="#63b8ff" points="57.09,-81.62 48.08,-76.04 51.64,-86.02 57.09,-81.62"/>
</a>
</g>
</g>
<!-- Node4 -->
<g id="Node000004" class="node">
<title>Node4</title>
<g id="a_Node000004"><a xlink:title=" ">
<polygon fill="#e0e0e0" stroke="#999999" points="154.12,-74.5 97.62,-74.5 97.62,-55.25 154.12,-55.25 154.12,-74.5"/>
<text text-anchor="middle" x="125.88" y="-61" font-family="Helvetica,sans-Serif" font-size="10.00">Arduino.h</text>
</a>
</g>
</g>
<!-- Node1&#45;&gt;Node4 -->
<g id="edge3_Node000001_Node000004" class="edge">
<title>Node1&#45;&gt;Node4</title>
<g id="a_edge3_Node000001_Node000004"><a xlink:title=" ">
<path fill="none" stroke="#63b8ff" d="M89.98,-110.33C95.79,-103.13 104.21,-92.71 111.43,-83.76"/>
<polygon fill="#63b8ff" stroke="#63b8ff" points="114.11,-86.02 117.67,-76.04 108.66,-81.62 114.11,-86.02"/>
</a>
</g>
</g>
<!-- Node3 -->
<g id="Node000003" class="node">
<title>Node3</title>
<g id="a_Node000003"><a xlink:title=" ">
<polygon fill="#e0e0e0" stroke="#999999" points="63.62,-19.25 16.12,-19.25 16.12,0 63.62,0 63.62,-19.25"/>
<text text-anchor="middle" x="39.88" y="-5.75" font-family="Helvetica,sans-Serif" font-size="10.00">stdint.h</text>
</a>
</g>
</g>
<!-- Node2&#45;&gt;Node3 -->
<g id="edge2_Node000002_Node000003" class="edge">
<title>Node2&#45;&gt;Node3</title>
<g id="a_edge2_Node000002_Node000003"><a xlink:title=" ">
<path fill="none" stroke="#63b8ff" d="M39.88,-55.08C39.88,-48.57 39.88,-39.42 39.88,-31.12"/>
<polygon fill="#63b8ff" stroke="#63b8ff" points="43.38,-31.12 39.88,-21.12 36.38,-31.12 43.38,-31.12"/>
</a>
</g>
</g>
</g>
</svg>
