<?xml version="1.0" encoding="UTF-8" standalone="no"?>
<!DOCTYPE svg PUBLIC "-//W3C//DTD SVG 1.1//EN"
 "http://www.w3.org/Graphics/SVG/1.1/DTD/svg11.dtd">
<!-- Generated by graphviz version 9.0.0 (20230911.1827)
 -->
<!-- Title: src/serialIO.h Pages: 1 -->
<svg width="144pt" height="83pt"
 viewBox="0.00 0.00 143.75 82.50" xmlns="http://www.w3.org/2000/svg" xmlns:xlink="http://www.w3.org/1999/xlink">
<g id="graph0" class="graph" transform="scale(1 1) rotate(0) translate(4 78.5)">
<title>src/serialIO.h</title>
<!-- Node1 -->
<g id="Node000001" class="node">
<title>Node1</title>
<g id="a_Node000001"><a xlink:title="Header file for serial input/output (IO) functionality.">
<polygon fill="#999999" stroke="#666666" points="103.12,-74.5 29.38,-74.5 29.38,-55.25 103.12,-55.25 103.12,-74.5"/>
<text text-anchor="middle" x="66.25" y="-61" font-family="Helvetica,sans-Serif" font-size="10.00">src/serialIO.h</text>
</a>
</g>
</g>
<!-- Node2 -->
<g id="Node000002" class="node">
<title>Node2</title>
<g id="a_Node000002"><a xlink:href="crsf_8h.html" target="_top" xlink:title="Header file for the CRSF protocol implementation.">
<polygon fill="white" stroke="#666666" points="56.5,-19.25 0,-19.25 0,0 56.5,0 56.5,-19.25"/>
<text text-anchor="middle" x="28.25" y="-5.75" font-family="Helvetica,sans-Serif" font-size="10.00">src/crsf.h</text>
</a>
</g>
</g>
<!-- Node1&#45;&gt;Node2 -->
<g id="edge1_Node000001_Node000002" class="edge">
<title>Node1&#45;&gt;Node2</title>
<g id="a_edge1_Node000001_Node000002"><a xlink:title=" ">
<path fill="none" stroke="#63b8ff" d="M53.45,-45.94C47.13,-37.09 39.79,-26.79 34.66,-19.61"/>
<polygon fill="#63b8ff" stroke="#63b8ff" points="50.44,-47.74 59.1,-53.85 56.14,-43.68 50.44,-47.74"/>
</a>
</g>
</g>
<!-- Node3 -->
<g id="Node000003" class="node">
<title>Node3</title>
<g id="a_Node000003"><a xlink:href="sbus_8h.html" target="_top" xlink:title="Header file for the SBUS protocol implementation.">
<polygon fill="white" stroke="#666666" points="135.75,-19.25 74.75,-19.25 74.75,0 135.75,0 135.75,-19.25"/>
<text text-anchor="middle" x="105.25" y="-5.75" font-family="Helvetica,sans-Serif" font-size="10.00">src/sbus.h</text>
</a>
</g>
</g>
<!-- Node1&#45;&gt;Node3 -->
<g id="edge2_Node000001_Node000003" class="edge">
<title>Node1&#45;&gt;Node3</title>
<g id="a_edge2_Node000001_Node000003"><a xlink:title=" ">
<path fill="none" stroke="#63b8ff" d="M79.39,-45.94C85.87,-37.09 93.41,-26.79 98.67,-19.61"/>
<polygon fill="#63b8ff" stroke="#63b8ff" points="76.67,-43.73 73.58,-53.86 82.32,-47.86 76.67,-43.73"/>
</a>
</g>
</g>
</g>
</svg>
