<?xml version="1.0" encoding="UTF-8" standalone="no"?>
<!DOCTYPE svg PUBLIC "-//W3C//DTD SVG 1.1//EN"
 "http://www.w3.org/Graphics/SVG/1.1/DTD/svg11.dtd">
<!-- Generated by graphviz version 11.0.0 (20240428.1522)
 -->
<!-- Title: src/SerialIO.h Pages: 1 -->
<svg width="964pt" height="149pt"
 viewBox="0.00 0.00 964.25 149.00" xmlns="http://www.w3.org/2000/svg" xmlns:xlink="http://www.w3.org/1999/xlink">
<g id="graph0" class="graph" transform="scale(1 1) rotate(0) translate(4 145)">
<title>src/SerialIO.h</title>
<!-- Node1 -->
<g id="Node000001" class="node">
<title>Node1</title>
<g id="a_Node000001"><a xlink:title="Header file for serial input/output (IO) functionality.">
<polygon fill="#999999" stroke="#666666" points="698.12,-141 622.88,-141 622.88,-121.75 698.12,-121.75 698.12,-141"/>
<text text-anchor="middle" x="660.5" y="-127.5" font-family="Helvetica,sans-Serif" font-size="10.00">src/SerialIO.h</text>
</a>
</g>
</g>
<!-- Node2 -->
<g id="Node000002" class="node">
<title>Node2</title>
<g id="a_Node000002"><a xlink:href="atmel_2ibus__basic_2ibus__basic_8ino.html" target="_top" xlink:title=" ">
<polygon fill="white" stroke="#666666" points="109,-85.75 0,-85.75 0,-55.25 109,-55.25 109,-85.75"/>
<text text-anchor="start" x="8" y="-72.25" font-family="Helvetica,sans-Serif" font-size="10.00">examples/atmel/ibus</text>
<text text-anchor="middle" x="54.5" y="-61" font-family="Helvetica,sans-Serif" font-size="10.00">_basic/ibus_basic.ino</text>
</a>
</g>
</g>
<!-- Node1&#45;&gt;Node2 -->
<g id="edge1_Node000001_Node000002" class="edge">
<title>Node1&#45;&gt;Node2</title>
<g id="a_edge1_Node000001_Node000002"><a xlink:title=" ">
<path fill="none" stroke="#63b8ff" d="M611.1,-128.64C515.37,-124.76 298.12,-113.46 117.5,-85.75 114.84,-85.34 112.12,-84.89 109.39,-84.39"/>
<polygon fill="#63b8ff" stroke="#63b8ff" points="610.79,-132.13 620.92,-129.03 611.07,-125.13 610.79,-132.13"/>
</a>
</g>
</g>
<!-- Node3 -->
<g id="Node000003" class="node">
<title>Node3</title>
<g id="a_Node000003"><a xlink:href="crsf__basic_8ino.html" target="_top" xlink:title=" ">
<polygon fill="white" stroke="#666666" points="254,-85.75 127,-85.75 127,-55.25 254,-55.25 254,-85.75"/>
<text text-anchor="start" x="135" y="-72.25" font-family="Helvetica,sans-Serif" font-size="10.00">examples/espresiff</text>
<text text-anchor="middle" x="190.5" y="-61" font-family="Helvetica,sans-Serif" font-size="10.00">/crsf_basic/crsf_basic.ino</text>
</a>
</g>
</g>
<!-- Node1&#45;&gt;Node3 -->
<g id="edge2_Node000001_Node000003" class="edge">
<title>Node1&#45;&gt;Node3</title>
<g id="a_edge2_Node000001_Node000003"><a xlink:title=" ">
<path fill="none" stroke="#63b8ff" d="M611.16,-126.12C535.92,-119.34 388.11,-104.88 263.5,-85.75 260.44,-85.28 257.31,-84.77 254.15,-84.24"/>
<polygon fill="#63b8ff" stroke="#63b8ff" points="610.82,-129.61 621.09,-127.01 611.44,-122.63 610.82,-129.61"/>
</a>
</g>
</g>
<!-- Node4 -->
<g id="Node000004" class="node">
<title>Node4</title>
<g id="a_Node000004"><a xlink:href="espresiff_2ibus__basic_2ibus__basic_8ino.html" target="_top" xlink:title=" ">
<polygon fill="white" stroke="#666666" points="402.5,-85.75 272.5,-85.75 272.5,-55.25 402.5,-55.25 402.5,-85.75"/>
<text text-anchor="start" x="280.5" y="-72.25" font-family="Helvetica,sans-Serif" font-size="10.00">examples/espresiff</text>
<text text-anchor="middle" x="337.5" y="-61" font-family="Helvetica,sans-Serif" font-size="10.00">/ibus_basic/ibus_basic.ino</text>
</a>
</g>
</g>
<!-- Node1&#45;&gt;Node4 -->
<g id="edge3_Node000001_Node000004" class="edge">
<title>Node1&#45;&gt;Node4</title>
<g id="a_edge3_Node000001_Node000004"><a xlink:title=" ">
<path fill="none" stroke="#63b8ff" d="M611.33,-121.76C561.08,-112.9 480.8,-98.63 411.5,-85.75 408.67,-85.22 405.78,-84.68 402.86,-84.13"/>
<polygon fill="#63b8ff" stroke="#63b8ff" points="610.56,-125.17 621.02,-123.46 611.77,-118.28 610.56,-125.17"/>
</a>
</g>
</g>
<!-- Node5 -->
<g id="Node000005" class="node">
<title>Node5</title>
<g id="a_Node000005"><a xlink:href="sbus__basic_8ino.html" target="_top" xlink:title=" ">
<polygon fill="white" stroke="#666666" points="556.5,-85.75 420.5,-85.75 420.5,-55.25 556.5,-55.25 556.5,-85.75"/>
<text text-anchor="start" x="428.5" y="-72.25" font-family="Helvetica,sans-Serif" font-size="10.00">examples/espresiff</text>
<text text-anchor="middle" x="488.5" y="-61" font-family="Helvetica,sans-Serif" font-size="10.00">/sbus_basic/sbus_basic.ino</text>
</a>
</g>
</g>
<!-- Node1&#45;&gt;Node5 -->
<g id="edge4_Node000001_Node000005" class="edge">
<title>Node1&#45;&gt;Node5</title>
<g id="a_edge4_Node000001_Node000005"><a xlink:title=" ">
<path fill="none" stroke="#63b8ff" d="M623.43,-117.69C596.41,-108.44 559.73,-95.88 531.43,-86.19"/>
<polygon fill="#63b8ff" stroke="#63b8ff" points="621.98,-120.89 632.57,-120.81 624.24,-114.26 621.98,-120.89"/>
</a>
</g>
</g>
<!-- Node6 -->
<g id="Node000006" class="node">
<title>Node6</title>
<g id="a_Node000006"><a xlink:href="crsf_8h.html" target="_top" xlink:title="Header file for the CRSF protocol implementation.">
<polygon fill="white" stroke="#666666" points="650.5,-80.12 574.5,-80.12 574.5,-60.88 650.5,-60.88 650.5,-80.12"/>
<text text-anchor="middle" x="612.5" y="-66.62" font-family="Helvetica,sans-Serif" font-size="10.00">src/crsf/crsf.h</text>
</a>
</g>
</g>
<!-- Node1&#45;&gt;Node6 -->
<g id="edge5_Node000001_Node000006" class="edge">
<title>Node1&#45;&gt;Node6</title>
<g id="a_edge5_Node000001_Node000006"><a xlink:title=" ">
<path fill="none" stroke="#63b8ff" d="M640.32,-113.23C630.59,-102.54 620.11,-89.2 614.83,-80.53"/>
<polygon fill="#63b8ff" stroke="#63b8ff" points="637.7,-115.55 647.15,-120.34 642.75,-110.7 637.7,-115.55"/>
</a>
</g>
</g>
<!-- Node7 -->
<g id="Node000007" class="node">
<title>Node7</title>
<g id="a_Node000007"><a xlink:href="fport_8h.html" target="_top" xlink:title="Header file for the FPort Protocol definations.">
<polygon fill="white" stroke="#666666" points="750.5,-80.12 668.5,-80.12 668.5,-60.88 750.5,-60.88 750.5,-80.12"/>
<text text-anchor="middle" x="709.5" y="-66.62" font-family="Helvetica,sans-Serif" font-size="10.00">src/fport/fport.h</text>
</a>
</g>
</g>
<!-- Node1&#45;&gt;Node7 -->
<g id="edge7_Node000001_Node000007" class="edge">
<title>Node1&#45;&gt;Node7</title>
<g id="a_edge7_Node000001_Node000007"><a xlink:title=" ">
<path fill="none" stroke="#63b8ff" d="M669.29,-112.26C677.14,-101.74 688.21,-88.94 696.96,-80.53"/>
<polygon fill="#63b8ff" stroke="#63b8ff" points="666.62,-109.98 663.79,-120.19 672.37,-113.96 666.62,-109.98"/>
</a>
</g>
</g>
<!-- Node9 -->
<g id="Node000009" class="node">
<title>Node9</title>
<g id="a_Node000009"><a xlink:href="ibus_8h.html" target="_top" xlink:title="Header file for the Ibus protocol implementation.">
<polygon fill="white" stroke="#666666" points="848,-80.12 769,-80.12 769,-60.88 848,-60.88 848,-80.12"/>
<text text-anchor="middle" x="808.5" y="-66.62" font-family="Helvetica,sans-Serif" font-size="10.00">src/ibus/ibus.h</text>
</a>
</g>
</g>
<!-- Node1&#45;&gt;Node9 -->
<g id="edge10_Node000001_Node000009" class="edge">
<title>Node1&#45;&gt;Node9</title>
<g id="a_edge10_Node000001_Node000009"><a xlink:title=" ">
<path fill="none" stroke="#63b8ff" d="M688.76,-116.83C715.22,-105.71 754.29,-90.27 780.64,-80.58"/>
<polygon fill="#63b8ff" stroke="#63b8ff" points="687.48,-113.57 679.66,-120.71 690.23,-120.01 687.48,-113.57"/>
</a>
</g>
</g>
<!-- Node10 -->
<g id="Node000010" class="node">
<title>Node10</title>
<g id="a_Node000010"><a xlink:href="sbus_8h.html" target="_top" xlink:title="Header file for the SBUS protocol implementation.">
<polygon fill="white" stroke="#666666" points="951,-80.12 866,-80.12 866,-60.88 951,-60.88 951,-80.12"/>
<text text-anchor="middle" x="908.5" y="-66.62" font-family="Helvetica,sans-Serif" font-size="10.00">src/sbus/sbus.h</text>
</a>
</g>
</g>
<!-- Node1&#45;&gt;Node10 -->
<g id="edge12_Node000001_Node000010" class="edge">
<title>Node1&#45;&gt;Node10</title>
<g id="a_edge12_Node000001_Node000010"><a xlink:title=" ">
<path fill="none" stroke="#63b8ff" d="M707.1,-118.88C745.26,-110.27 800.38,-97.91 848.5,-85.75 854.83,-84.15 861.57,-82.34 868.2,-80.56"/>
<polygon fill="#63b8ff" stroke="#63b8ff" points="706.78,-115.37 697.8,-120.99 708.32,-122.2 706.78,-115.37"/>
</a>
</g>
</g>
<!-- Node6&#45;&gt;Node1 -->
<g id="edge6_Node000006_Node000001" class="edge">
<title>Node6&#45;&gt;Node1</title>
<g id="a_edge6_Node000006_Node000001"><a xlink:title=" ">
<path fill="none" stroke="#63b8ff" d="M632.77,-88.75C642.51,-99.46 652.98,-112.79 658.22,-121.43"/>
<polygon fill="#63b8ff" stroke="#63b8ff" points="635.38,-86.41 625.93,-81.62 630.33,-91.26 635.38,-86.41"/>
</a>
</g>
</g>
<!-- Node7&#45;&gt;Node1 -->
<g id="edge8_Node000007_Node000001" class="edge">
<title>Node7&#45;&gt;Node1</title>
<g id="a_edge8_Node000007_Node000001"><a xlink:title=" ">
<path fill="none" stroke="#63b8ff" d="M700.63,-89.72C692.76,-100.26 681.69,-113.05 672.95,-121.43"/>
<polygon fill="#63b8ff" stroke="#63b8ff" points="703.32,-91.98 706.15,-81.77 697.57,-87.99 703.32,-91.98"/>
</a>
</g>
</g>
<!-- Node8 -->
<g id="Node000008" class="node">
<title>Node8</title>
<g id="a_Node000008"><a xlink:href="fport_8cpp.html" target="_top" xlink:title="Source file for the F.Port implementations.">
<polygon fill="white" stroke="#666666" points="755.75,-19.25 663.25,-19.25 663.25,0 755.75,0 755.75,-19.25"/>
<text text-anchor="middle" x="709.5" y="-5.75" font-family="Helvetica,sans-Serif" font-size="10.00">src/fport/fport.cpp</text>
</a>
</g>
</g>
<!-- Node7&#45;&gt;Node8 -->
<g id="edge9_Node000007_Node000008" class="edge">
<title>Node7&#45;&gt;Node8</title>
<g id="a_edge9_Node000007_Node000008"><a xlink:title=" ">
<path fill="none" stroke="#63b8ff" d="M709.5,-49.07C709.5,-39.04 709.5,-27.46 709.5,-19.65"/>
<polygon fill="#63b8ff" stroke="#63b8ff" points="706,-49.04 709.5,-59.04 713,-49.04 706,-49.04"/>
</a>
</g>
</g>
<!-- Node9&#45;&gt;Node1 -->
<g id="edge11_Node000009_Node000001" class="edge">
<title>Node9&#45;&gt;Node1</title>
<g id="a_edge11_Node000009_Node000001"><a xlink:title=" ">
<path fill="none" stroke="#63b8ff" d="M780.45,-84.96C753.97,-96.09 714.75,-111.6 688.34,-121.3"/>
<polygon fill="#63b8ff" stroke="#63b8ff" points="781.72,-88.22 789.54,-81.08 778.97,-81.78 781.72,-88.22"/>
</a>
</g>
</g>
<!-- Node10&#45;&gt;Node1 -->
<g id="edge13_Node000010_Node000001" class="edge">
<title>Node10&#45;&gt;Node1</title>
<g id="a_edge13_Node000010_Node000001"><a xlink:title=" ">
<path fill="none" stroke="#63b8ff" d="M874.97,-83.55C872.12,-84.31 869.27,-85.05 866.5,-85.75 808.36,-100.45 740,-115.42 698.32,-123.74"/>
<polygon fill="#63b8ff" stroke="#63b8ff" points="875.64,-86.99 884.36,-80.97 873.79,-80.25 875.64,-86.99"/>
</a>
</g>
</g>
<!-- Node11 -->
<g id="Node000011" class="node">
<title>Node11</title>
<g id="a_Node000011"><a xlink:href="sbus_8cpp.html" target="_top" xlink:title="Source file for the SBus implementations.">
<polygon fill="white" stroke="#666666" points="956.25,-19.25 860.75,-19.25 860.75,0 956.25,0 956.25,-19.25"/>
<text text-anchor="middle" x="908.5" y="-5.75" font-family="Helvetica,sans-Serif" font-size="10.00">src/sbus/sbus.cpp</text>
</a>
</g>
</g>
<!-- Node10&#45;&gt;Node11 -->
<g id="edge14_Node000010_Node000011" class="edge">
<title>Node10&#45;&gt;Node11</title>
<g id="a_edge14_Node000010_Node000011"><a xlink:title=" ">
<path fill="none" stroke="#63b8ff" d="M908.5,-49.07C908.5,-39.04 908.5,-27.46 908.5,-19.65"/>
<polygon fill="#63b8ff" stroke="#63b8ff" points="905,-49.04 908.5,-59.04 912,-49.04 905,-49.04"/>
</a>
</g>
</g>
</g>
</svg>
