<?xml version="1.0" encoding="UTF-8" standalone="no"?>
<!DOCTYPE svg PUBLIC "-//W3C//DTD SVG 1.1//EN"
 "http://www.w3.org/Graphics/SVG/1.1/DTD/svg11.dtd">
<!-- Generated by graphviz version 9.0.0 (20230911.1827)
 -->
<!-- Title: src/SerialIO.h Pages: 1 -->
<svg width="199pt" height="193pt"
 viewBox="0.00 0.00 198.66 193.00" xmlns="http://www.w3.org/2000/svg" xmlns:xlink="http://www.w3.org/1999/xlink">
<g id="graph0" class="graph" transform="scale(1 1) rotate(0) translate(4 189)">
<title>src/SerialIO.h</title>
<!-- Node1 -->
<g id="Node000001" class="node">
<title>Node1</title>
<g id="a_Node000001"><a xlink:title="Header file for serial input/output (IO) functionality.">
<polygon fill="#999999" stroke="#666666" points="148.29,-185 73.04,-185 73.04,-165.75 148.29,-165.75 148.29,-185"/>
<text text-anchor="middle" x="110.66" y="-171.5" font-family="Helvetica,sans-Serif" font-size="10.00">src/SerialIO.h</text>
</a>
</g>
</g>
<!-- Node2 -->
<g id="Node000002" class="node">
<title>Node2</title>
<g id="a_Node000002"><a xlink:href="crsf__protocol_8h.html" target="_top" xlink:title="Header file for the CRSF protocol implementation.">
<polygon fill="white" stroke="#666666" points="150.54,-74.5 70.79,-74.5 70.79,-55.25 150.54,-55.25 150.54,-74.5"/>
<text text-anchor="middle" x="110.66" y="-61" font-family="Helvetica,sans-Serif" font-size="10.00">crsf_protocol.h</text>
</a>
</g>
</g>
<!-- Node1&#45;&gt;Node2 -->
<g id="edge1_Node000001_Node000002" class="edge">
<title>Node1&#45;&gt;Node2</title>
<g id="a_edge1_Node000001_Node000002"><a xlink:title=" ">
<path fill="none" stroke="#63b8ff" d="M72.79,-169.12C48.87,-163.63 19.74,-152.46 4.66,-129.75 -12.79,-103.47 24.64,-86.33 59.74,-76.48"/>
<polygon fill="#63b8ff" stroke="#63b8ff" points="60.25,-79.97 69.03,-74.04 58.47,-73.2 60.25,-79.97"/>
</a>
</g>
</g>
<!-- Node4 -->
<g id="Node000004" class="node">
<title>Node4</title>
<g id="a_Node000004"><a xlink:title=" ">
<polygon fill="#e0e0e0" stroke="#999999" points="69.91,-129.75 13.41,-129.75 13.41,-110.5 69.91,-110.5 69.91,-129.75"/>
<text text-anchor="middle" x="41.66" y="-116.25" font-family="Helvetica,sans-Serif" font-size="10.00">Arduino.h</text>
</a>
</g>
</g>
<!-- Node1&#45;&gt;Node4 -->
<g id="edge3_Node000001_Node000004" class="edge">
<title>Node1&#45;&gt;Node4</title>
<g id="a_edge3_Node000001_Node000004"><a xlink:title=" ">
<path fill="none" stroke="#63b8ff" d="M98.96,-165.34C88.88,-157.57 74.12,-146.17 62.1,-136.9"/>
<polygon fill="#63b8ff" stroke="#63b8ff" points="64.45,-134.29 54.39,-130.95 60.17,-139.83 64.45,-134.29"/>
</a>
</g>
</g>
<!-- Node5 -->
<g id="Node000005" class="node">
<title>Node5</title>
<g id="a_Node000005"><a xlink:href="sbus_8h.html" target="_top" xlink:title="Header file for the SBUS protocol implementation.">
<polygon fill="white" stroke="#666666" points="132.91,-129.75 88.41,-129.75 88.41,-110.5 132.91,-110.5 132.91,-129.75"/>
<text text-anchor="middle" x="110.66" y="-116.25" font-family="Helvetica,sans-Serif" font-size="10.00">sbus.h</text>
</a>
</g>
</g>
<!-- Node1&#45;&gt;Node5 -->
<g id="edge4_Node000001_Node000005" class="edge">
<title>Node1&#45;&gt;Node5</title>
<g id="a_edge4_Node000001_Node000005"><a xlink:title=" ">
<path fill="none" stroke="#63b8ff" d="M105.49,-165.58C104.08,-158.99 103.62,-149.71 104.09,-141.32"/>
<polygon fill="#63b8ff" stroke="#63b8ff" points="107.54,-141.96 105.27,-131.61 100.59,-141.12 107.54,-141.96"/>
</a>
</g>
</g>
<!-- Node6 -->
<g id="Node000006" class="node">
<title>Node6</title>
<g id="a_Node000006"><a xlink:href="crsf_8h.html" target="_top" xlink:title="Header file for the CRSF protocol implementation.">
<polygon fill="white" stroke="#666666" points="190.66,-129.75 150.66,-129.75 150.66,-110.5 190.66,-110.5 190.66,-129.75"/>
<text text-anchor="middle" x="170.66" y="-116.25" font-family="Helvetica,sans-Serif" font-size="10.00">crsf.h</text>
</a>
</g>
</g>
<!-- Node1&#45;&gt;Node6 -->
<g id="edge7_Node000001_Node000006" class="edge">
<title>Node1&#45;&gt;Node6</title>
<g id="a_edge7_Node000001_Node000006"><a xlink:title=" ">
<path fill="none" stroke="#63b8ff" d="M115.4,-165.58C122.47,-157.84 135.02,-146.39 146.49,-137.04"/>
<polygon fill="#63b8ff" stroke="#63b8ff" points="148.43,-139.97 154.14,-131.04 144.11,-134.46 148.43,-139.97"/>
</a>
</g>
</g>
<!-- Node3 -->
<g id="Node000003" class="node">
<title>Node3</title>
<g id="a_Node000003"><a xlink:title=" ">
<polygon fill="#e0e0e0" stroke="#999999" points="134.41,-19.25 86.91,-19.25 86.91,0 134.41,0 134.41,-19.25"/>
<text text-anchor="middle" x="110.66" y="-5.75" font-family="Helvetica,sans-Serif" font-size="10.00">stdint.h</text>
</a>
</g>
</g>
<!-- Node2&#45;&gt;Node3 -->
<g id="edge2_Node000002_Node000003" class="edge">
<title>Node2&#45;&gt;Node3</title>
<g id="a_edge2_Node000002_Node000003"><a xlink:title=" ">
<path fill="none" stroke="#63b8ff" d="M110.66,-55.08C110.66,-48.57 110.66,-39.42 110.66,-31.12"/>
<polygon fill="#63b8ff" stroke="#63b8ff" points="114.16,-31.12 110.66,-21.12 107.16,-31.12 114.16,-31.12"/>
</a>
</g>
</g>
<!-- Node5&#45;&gt;Node1 -->
<g id="edge6_Node000005_Node000001" class="edge">
<title>Node5&#45;&gt;Node1</title>
<g id="a_edge6_Node000005_Node000001"><a xlink:title=" ">
<path fill="none" stroke="#63b8ff" d="M115.87,-130.11C117.26,-136.75 117.71,-146.05 117.22,-154.42"/>
<polygon fill="#63b8ff" stroke="#63b8ff" points="113.78,-153.72 116.01,-164.08 120.72,-154.59 113.78,-153.72"/>
</a>
</g>
</g>
<!-- Node5&#45;&gt;Node2 -->
<g id="edge5_Node000005_Node000002" class="edge">
<title>Node5&#45;&gt;Node2</title>
<g id="a_edge5_Node000005_Node000002"><a xlink:title=" ">
<path fill="none" stroke="#63b8ff" d="M110.66,-110.33C110.66,-103.82 110.66,-94.67 110.66,-86.37"/>
<polygon fill="#63b8ff" stroke="#63b8ff" points="114.16,-86.37 110.66,-76.37 107.16,-86.37 114.16,-86.37"/>
</a>
</g>
</g>
<!-- Node6&#45;&gt;Node1 -->
<g id="edge9_Node000006_Node000001" class="edge">
<title>Node6&#45;&gt;Node1</title>
<g id="a_edge9_Node000006_Node000001"><a xlink:title=" ">
<path fill="none" stroke="#63b8ff" d="M165.82,-130.02C158.75,-137.76 146.27,-149.14 134.86,-158.44"/>
<polygon fill="#63b8ff" stroke="#63b8ff" points="132.96,-155.48 127.25,-164.41 137.28,-160.99 132.96,-155.48"/>
</a>
</g>
</g>
<!-- Node6&#45;&gt;Node2 -->
<g id="edge8_Node000006_Node000002" class="edge">
<title>Node6&#45;&gt;Node2</title>
<g id="a_edge8_Node000006_Node000002"><a xlink:title=" ">
<path fill="none" stroke="#63b8ff" d="M160.48,-110.09C151.9,-102.47 139.39,-91.37 129.06,-82.2"/>
<polygon fill="#63b8ff" stroke="#63b8ff" points="131.62,-79.8 121.82,-75.78 126.98,-85.04 131.62,-79.8"/>
</a>
</g>
</g>
</g>
</svg>
