<?xml version="1.0" encoding="UTF-8" standalone="no"?>
<!DOCTYPE svg PUBLIC "-//W3C//DTD SVG 1.1//EN"
 "http://www.w3.org/Graphics/SVG/1.1/DTD/svg11.dtd">
<!-- Generated by graphviz version 11.0.0 (20240428.1522)
 -->
<!-- Title: src/SerialIO.h Pages: 1 -->
<svg width="794pt" height="94pt"
 viewBox="0.00 0.00 794.00 93.75" xmlns="http://www.w3.org/2000/svg" xmlns:xlink="http://www.w3.org/1999/xlink">
<g id="graph0" class="graph" transform="scale(1 1) rotate(0) translate(4 89.75)">
<title>src/SerialIO.h</title>
<!-- Node1 -->
<g id="Node000001" class="node">
<title>Node1</title>
<g id="a_Node000001"><a xlink:title="Header file for serial input/output (IO) functionality.">
<polygon fill="#999999" stroke="#666666" points="640.12,-85.75 564.88,-85.75 564.88,-66.5 640.12,-66.5 640.12,-85.75"/>
<text text-anchor="middle" x="602.5" y="-72.25" font-family="Helvetica,sans-Serif" font-size="10.00">src/SerialIO.h</text>
</a>
</g>
</g>
<!-- Node2 -->
<g id="Node000002" class="node">
<title>Node2</title>
<g id="a_Node000002"><a xlink:href="atmel_2ibus__basic_2ibus__basic_8ino.html" target="_top" xlink:title=" ">
<polygon fill="white" stroke="#666666" points="109,-30.5 0,-30.5 0,0 109,0 109,-30.5"/>
<text text-anchor="start" x="8" y="-17" font-family="Helvetica,sans-Serif" font-size="10.00">examples/atmel/ibus</text>
<text text-anchor="middle" x="54.5" y="-5.75" font-family="Helvetica,sans-Serif" font-size="10.00">_basic/ibus_basic.ino</text>
</a>
</g>
</g>
<!-- Node1&#45;&gt;Node2 -->
<g id="edge1_Node000001_Node000002" class="edge">
<title>Node1&#45;&gt;Node2</title>
<g id="a_edge1_Node000001_Node000002"><a xlink:title=" ">
<path fill="none" stroke="#63b8ff" d="M553.08,-72.72C465.07,-67.95 275.59,-55.54 117.5,-30.5 114.84,-30.08 112.13,-29.61 109.39,-29.11"/>
<polygon fill="#63b8ff" stroke="#63b8ff" points="552.88,-76.21 563.05,-73.24 553.25,-69.22 552.88,-76.21"/>
</a>
</g>
</g>
<!-- Node3 -->
<g id="Node000003" class="node">
<title>Node3</title>
<g id="a_Node000003"><a xlink:href="crsf__basic_8ino.html" target="_top" xlink:title=" ">
<polygon fill="white" stroke="#666666" points="254,-30.5 127,-30.5 127,0 254,0 254,-30.5"/>
<text text-anchor="start" x="135" y="-17" font-family="Helvetica,sans-Serif" font-size="10.00">examples/espresiff</text>
<text text-anchor="middle" x="190.5" y="-5.75" font-family="Helvetica,sans-Serif" font-size="10.00">/crsf_basic/crsf_basic.ino</text>
</a>
</g>
</g>
<!-- Node1&#45;&gt;Node3 -->
<g id="edge2_Node000001_Node000003" class="edge">
<title>Node1&#45;&gt;Node3</title>
<g id="a_edge2_Node000001_Node000003"><a xlink:title=" ">
<path fill="none" stroke="#63b8ff" d="M553.21,-69.61C487.11,-61.98 366.16,-47.26 263.5,-30.5 260.44,-30 257.31,-29.47 254.16,-28.92"/>
<polygon fill="#63b8ff" stroke="#63b8ff" points="552.67,-73.07 563.01,-70.73 553.47,-66.11 552.67,-73.07"/>
</a>
</g>
</g>
<!-- Node4 -->
<g id="Node000004" class="node">
<title>Node4</title>
<g id="a_Node000004"><a xlink:href="espresiff_2ibus__basic_2ibus__basic_8ino.html" target="_top" xlink:title=" ">
<polygon fill="white" stroke="#666666" points="402.5,-30.5 272.5,-30.5 272.5,0 402.5,0 402.5,-30.5"/>
<text text-anchor="start" x="280.5" y="-17" font-family="Helvetica,sans-Serif" font-size="10.00">examples/espresiff</text>
<text text-anchor="middle" x="337.5" y="-5.75" font-family="Helvetica,sans-Serif" font-size="10.00">/ibus_basic/ibus_basic.ino</text>
</a>
</g>
</g>
<!-- Node1&#45;&gt;Node4 -->
<g id="edge3_Node000001_Node000004" class="edge">
<title>Node1&#45;&gt;Node4</title>
<g id="a_edge3_Node000001_Node000004"><a xlink:title=" ">
<path fill="none" stroke="#63b8ff" d="M553.38,-64.21C510.96,-54.79 449.34,-41.1 402.78,-30.75"/>
<polygon fill="#63b8ff" stroke="#63b8ff" points="552.53,-67.61 563.05,-66.36 554.05,-60.78 552.53,-67.61"/>
</a>
</g>
</g>
<!-- Node5 -->
<g id="Node000005" class="node">
<title>Node5</title>
<g id="a_Node000005"><a xlink:href="sbus__basic_8ino.html" target="_top" xlink:title=" ">
<polygon fill="white" stroke="#666666" points="556.5,-30.5 420.5,-30.5 420.5,0 556.5,0 556.5,-30.5"/>
<text text-anchor="start" x="428.5" y="-17" font-family="Helvetica,sans-Serif" font-size="10.00">examples/espresiff</text>
<text text-anchor="middle" x="488.5" y="-5.75" font-family="Helvetica,sans-Serif" font-size="10.00">/sbus_basic/sbus_basic.ino</text>
</a>
</g>
</g>
<!-- Node1&#45;&gt;Node5 -->
<g id="edge4_Node000001_Node000005" class="edge">
<title>Node1&#45;&gt;Node5</title>
<g id="a_edge4_Node000001_Node000005"><a xlink:title=" ">
<path fill="none" stroke="#63b8ff" d="M575.45,-61.16C557.72,-52 534.59,-40.05 516.64,-30.78"/>
<polygon fill="#63b8ff" stroke="#63b8ff" points="573.35,-64.01 583.84,-65.49 576.56,-57.79 573.35,-64.01"/>
</a>
</g>
</g>
<!-- Node6 -->
<g id="Node000006" class="node">
<title>Node6</title>
<g id="a_Node000006"><a xlink:href="crsf_8h.html" target="_top" xlink:title="Header file for the CRSF protocol implementation.">
<polygon fill="white" stroke="#666666" points="630.75,-24.88 574.25,-24.88 574.25,-5.63 630.75,-5.63 630.75,-24.88"/>
<text text-anchor="middle" x="602.5" y="-11.38" font-family="Helvetica,sans-Serif" font-size="10.00">src/crsf.h</text>
</a>
</g>
</g>
<!-- Node1&#45;&gt;Node6 -->
<g id="edge5_Node000001_Node000006" class="edge">
<title>Node1&#45;&gt;Node6</title>
<g id="a_edge5_Node000001_Node000006"><a xlink:title=" ">
<path fill="none" stroke="#63b8ff" d="M596.06,-55.03C595.37,-44.92 595.84,-33.17 597.47,-25.28"/>
<polygon fill="#63b8ff" stroke="#63b8ff" points="592.56,-55.21 597.3,-64.68 599.5,-54.32 592.56,-55.21"/>
</a>
</g>
</g>
<!-- Node7 -->
<g id="Node000007" class="node">
<title>Node7</title>
<g id="a_Node000007"><a xlink:href="ibus_8h.html" target="_top" xlink:title="Header file for the Ibus protocol implementation.">
<polygon fill="white" stroke="#666666" points="706.5,-24.88 648.5,-24.88 648.5,-5.63 706.5,-5.63 706.5,-24.88"/>
<text text-anchor="middle" x="677.5" y="-11.38" font-family="Helvetica,sans-Serif" font-size="10.00">src/ibus.h</text>
</a>
</g>
</g>
<!-- Node1&#45;&gt;Node7 -->
<g id="edge7_Node000001_Node000007" class="edge">
<title>Node1&#45;&gt;Node7</title>
<g id="a_edge7_Node000001_Node000007"><a xlink:title=" ">
<path fill="none" stroke="#63b8ff" d="M617.39,-58.62C630.05,-47.82 647.87,-34.12 660.98,-25.28"/>
<polygon fill="#63b8ff" stroke="#63b8ff" points="615.16,-55.92 610.01,-65.18 619.81,-61.15 615.16,-55.92"/>
</a>
</g>
</g>
<!-- Node8 -->
<g id="Node000008" class="node">
<title>Node8</title>
<g id="a_Node000008"><a xlink:href="sbus_8h.html" target="_top" xlink:title="Header file for the SBUS protocol implementation.">
<polygon fill="white" stroke="#666666" points="786,-24.88 725,-24.88 725,-5.63 786,-5.63 786,-24.88"/>
<text text-anchor="middle" x="755.5" y="-11.38" font-family="Helvetica,sans-Serif" font-size="10.00">src/sbus.h</text>
</a>
</g>
</g>
<!-- Node1&#45;&gt;Node8 -->
<g id="edge9_Node000001_Node000008" class="edge">
<title>Node1&#45;&gt;Node8</title>
<g id="a_edge9_Node000001_Node000008"><a xlink:title=" ">
<path fill="none" stroke="#63b8ff" d="M631.54,-61.73C658.95,-50.6 699.58,-35.06 726.86,-25.33"/>
<polygon fill="#63b8ff" stroke="#63b8ff" points="630.35,-58.44 622.43,-65.48 633.01,-64.91 630.35,-58.44"/>
</a>
</g>
</g>
<!-- Node6&#45;&gt;Node1 -->
<g id="edge6_Node000006_Node000001" class="edge">
<title>Node6&#45;&gt;Node1</title>
<g id="a_edge6_Node000006_Node000001"><a xlink:title=" ">
<path fill="none" stroke="#63b8ff" d="M608.95,-36.45C609.63,-46.57 609.16,-58.32 607.51,-66.18"/>
<polygon fill="#63b8ff" stroke="#63b8ff" points="612.45,-36.26 607.72,-26.78 605.5,-37.14 612.45,-36.26"/>
</a>
</g>
</g>
<!-- Node7&#45;&gt;Node1 -->
<g id="edge8_Node000007_Node000001" class="edge">
<title>Node7&#45;&gt;Node1</title>
<g id="a_edge8_Node000007_Node000001"><a xlink:title=" ">
<path fill="none" stroke="#63b8ff" d="M662.49,-32.86C649.8,-43.68 631.98,-57.37 618.9,-66.18"/>
<polygon fill="#63b8ff" stroke="#63b8ff" points="664.74,-35.54 669.9,-26.28 660.09,-30.3 664.74,-35.54"/>
</a>
</g>
</g>
<!-- Node8&#45;&gt;Node1 -->
<g id="edge10_Node000008_Node000001" class="edge">
<title>Node8&#45;&gt;Node1</title>
<g id="a_edge10_Node000008_Node000001"><a xlink:title=" ">
<path fill="none" stroke="#63b8ff" d="M726.67,-29.56C699.25,-40.7 658.46,-56.3 631.11,-66.05"/>
<polygon fill="#63b8ff" stroke="#63b8ff" points="727.86,-32.85 735.77,-25.81 725.19,-26.38 727.86,-32.85"/>
</a>
</g>
</g>
</g>
</svg>
