<?xml version="1.0" encoding="UTF-8" standalone="no"?>
<!DOCTYPE svg PUBLIC "-//W3C//DTD SVG 1.1//EN"
 "http://www.w3.org/Graphics/SVG/1.1/DTD/svg11.dtd">
<!-- Generated by graphviz version 11.0.0 (20240428.1522)
 -->
<!-- Title: src/SerialIO.h Pages: 1 -->
<svg width="198pt" height="193pt"
 viewBox="0.00 0.00 197.77 193.00" xmlns="http://www.w3.org/2000/svg" xmlns:xlink="http://www.w3.org/1999/xlink">
<g id="graph0" class="graph" transform="scale(1 1) rotate(0) translate(4 189)">
<title>src/SerialIO.h</title>
<!-- Node1 -->
<g id="Node000001" class="node">
<title>Node1</title>
<g id="a_Node000001"><a xlink:title="Header file for serial input/output (IO) functionality.">
<polygon fill="#999999" stroke="#666666" points="145.14,-185 69.89,-185 69.89,-165.75 145.14,-165.75 145.14,-185"/>
<text text-anchor="middle" x="107.52" y="-171.5" font-family="Helvetica,sans-Serif" font-size="10.00">src/SerialIO.h</text>
</a>
</g>
</g>
<!-- Node2 -->
<g id="Node000002" class="node">
<title>Node2</title>
<g id="a_Node000002"><a xlink:href="crsf__protocol_8h.html" target="_top" xlink:title="Header file for the CRSF protocol implementation.">
<polygon fill="white" stroke="#666666" points="147.39,-74.5 67.64,-74.5 67.64,-55.25 147.39,-55.25 147.39,-74.5"/>
<text text-anchor="middle" x="107.52" y="-61" font-family="Helvetica,sans-Serif" font-size="10.00">crsf_protocol.h</text>
</a>
</g>
</g>
<!-- Node1&#45;&gt;Node2 -->
<g id="edge1_Node000001_Node000002" class="edge">
<title>Node1&#45;&gt;Node2</title>
<g id="a_edge1_Node000001_Node000002"><a xlink:title=" ">
<path fill="none" stroke="#63b8ff" d="M69.4,-168.5C46.4,-162.78 18.85,-151.58 4.52,-129.75 -12.21,-104.28 22.96,-87.18 56.65,-77.14"/>
<polygon fill="#63b8ff" stroke="#63b8ff" points="57.32,-80.59 66.01,-74.53 55.44,-73.84 57.32,-80.59"/>
</a>
</g>
</g>
<!-- Node4 -->
<g id="Node000004" class="node">
<title>Node4</title>
<g id="a_Node000004"><a xlink:title=" ">
<polygon fill="#e0e0e0" stroke="#999999" points="69.77,-129.75 13.27,-129.75 13.27,-110.5 69.77,-110.5 69.77,-129.75"/>
<text text-anchor="middle" x="41.52" y="-116.25" font-family="Helvetica,sans-Serif" font-size="10.00">Arduino.h</text>
</a>
</g>
</g>
<!-- Node1&#45;&gt;Node4 -->
<g id="edge3_Node000001_Node000004" class="edge">
<title>Node1&#45;&gt;Node4</title>
<g id="a_edge3_Node000001_Node000004"><a xlink:title=" ">
<path fill="none" stroke="#63b8ff" d="M96.32,-165.34C86.78,-157.65 72.84,-146.4 61.41,-137.18"/>
<polygon fill="#63b8ff" stroke="#63b8ff" points="63.71,-134.53 53.73,-130.98 59.31,-139.98 63.71,-134.53"/>
</a>
</g>
</g>
<!-- Node5 -->
<g id="Node000005" class="node">
<title>Node5</title>
<g id="a_Node000005"><a xlink:href="crsf_8h.html" target="_top" xlink:title="Header file for the CRSF protocol implementation.">
<polygon fill="white" stroke="#666666" points="127.52,-129.75 87.52,-129.75 87.52,-110.5 127.52,-110.5 127.52,-129.75"/>
<text text-anchor="middle" x="107.52" y="-116.25" font-family="Helvetica,sans-Serif" font-size="10.00">crsf.h</text>
</a>
</g>
</g>
<!-- Node1&#45;&gt;Node5 -->
<g id="edge4_Node000001_Node000005" class="edge">
<title>Node1&#45;&gt;Node5</title>
<g id="a_edge4_Node000001_Node000005"><a xlink:title=" ">
<path fill="none" stroke="#63b8ff" d="M102.35,-165.58C100.94,-158.99 100.47,-149.71 100.95,-141.32"/>
<polygon fill="#63b8ff" stroke="#63b8ff" points="104.39,-141.96 102.13,-131.61 97.44,-141.12 104.39,-141.96"/>
</a>
</g>
</g>
<!-- Node6 -->
<g id="Node000006" class="node">
<title>Node6</title>
<g id="a_Node000006"><a xlink:href="sbus_8h.html" target="_top" xlink:title="Header file for the SBUS protocol implementation.">
<polygon fill="white" stroke="#666666" points="189.77,-129.75 145.27,-129.75 145.27,-110.5 189.77,-110.5 189.77,-129.75"/>
<text text-anchor="middle" x="167.52" y="-116.25" font-family="Helvetica,sans-Serif" font-size="10.00">sbus.h</text>
</a>
</g>
</g>
<!-- Node1&#45;&gt;Node6 -->
<g id="edge7_Node000001_Node000006" class="edge">
<title>Node1&#45;&gt;Node6</title>
<g id="a_edge7_Node000001_Node000006"><a xlink:title=" ">
<path fill="none" stroke="#63b8ff" d="M112.26,-165.58C119.32,-157.84 131.88,-146.39 143.35,-137.04"/>
<polygon fill="#63b8ff" stroke="#63b8ff" points="145.29,-139.97 151,-131.04 140.97,-134.46 145.29,-139.97"/>
</a>
</g>
</g>
<!-- Node3 -->
<g id="Node000003" class="node">
<title>Node3</title>
<g id="a_Node000003"><a xlink:title=" ">
<polygon fill="#e0e0e0" stroke="#999999" points="131.27,-19.25 83.77,-19.25 83.77,0 131.27,0 131.27,-19.25"/>
<text text-anchor="middle" x="107.52" y="-5.75" font-family="Helvetica,sans-Serif" font-size="10.00">stdint.h</text>
</a>
</g>
</g>
<!-- Node2&#45;&gt;Node3 -->
<g id="edge2_Node000002_Node000003" class="edge">
<title>Node2&#45;&gt;Node3</title>
<g id="a_edge2_Node000002_Node000003"><a xlink:title=" ">
<path fill="none" stroke="#63b8ff" d="M107.52,-55.08C107.52,-48.57 107.52,-39.42 107.52,-31.12"/>
<polygon fill="#63b8ff" stroke="#63b8ff" points="111.02,-31.12 107.52,-21.12 104.02,-31.12 111.02,-31.12"/>
</a>
</g>
</g>
<!-- Node5&#45;&gt;Node1 -->
<g id="edge5_Node000005_Node000001" class="edge">
<title>Node5&#45;&gt;Node1</title>
<g id="a_edge5_Node000005_Node000001"><a xlink:title=" ">
<path fill="none" stroke="#63b8ff" d="M112.72,-130.11C114.12,-136.75 114.57,-146.05 114.08,-154.42"/>
<polygon fill="#63b8ff" stroke="#63b8ff" points="110.63,-153.72 112.87,-164.08 117.58,-154.59 110.63,-153.72"/>
</a>
</g>
</g>
<!-- Node5&#45;&gt;Node2 -->
<g id="edge6_Node000005_Node000002" class="edge">
<title>Node5&#45;&gt;Node2</title>
<g id="a_edge6_Node000005_Node000002"><a xlink:title=" ">
<path fill="none" stroke="#63b8ff" d="M107.52,-110.33C107.52,-103.82 107.52,-94.67 107.52,-86.37"/>
<polygon fill="#63b8ff" stroke="#63b8ff" points="111.02,-86.37 107.52,-76.37 104.02,-86.37 111.02,-86.37"/>
</a>
</g>
</g>
<!-- Node6&#45;&gt;Node1 -->
<g id="edge8_Node000006_Node000001" class="edge">
<title>Node6&#45;&gt;Node1</title>
<g id="a_edge8_Node000006_Node000001"><a xlink:title=" ">
<path fill="none" stroke="#63b8ff" d="M162.68,-130.02C155.6,-137.76 143.12,-149.14 131.71,-158.44"/>
<polygon fill="#63b8ff" stroke="#63b8ff" points="129.81,-155.48 124.1,-164.41 134.13,-160.99 129.81,-155.48"/>
</a>
</g>
</g>
<!-- Node6&#45;&gt;Node2 -->
<g id="edge9_Node000006_Node000002" class="edge">
<title>Node6&#45;&gt;Node2</title>
<g id="a_edge9_Node000006_Node000002"><a xlink:title=" ">
<path fill="none" stroke="#63b8ff" d="M157.34,-110.09C148.75,-102.47 136.25,-91.37 125.91,-82.2"/>
<polygon fill="#63b8ff" stroke="#63b8ff" points="128.48,-79.8 118.68,-75.78 123.83,-85.04 128.48,-79.8"/>
</a>
</g>
</g>
</g>
</svg>
